G04*
G04 #@! TF.GenerationSoftware,Altium Limited,Altium Designer,20.2.4 (192)*
G04*
G04 Layer_Color=8421504*
%FSLAX43Y43*%
%MOMM*%
G71*
G04*
G04 #@! TF.SameCoordinates,AF46D1C0-80E4-4F08-9089-F3FA465175DE*
G04*
G04*
G04 #@! TF.FilePolarity,Positive*
G04*
G01*
G75*
G04:AMPARAMS|DCode=20|XSize=1.05mm|YSize=0.84mm|CornerRadius=0.42mm|HoleSize=0mm|Usage=FLASHONLY|Rotation=270.000|XOffset=0mm|YOffset=0mm|HoleType=Round|Shape=RoundedRectangle|*
%AMROUNDEDRECTD20*
21,1,1.050,0.000,0,0,270.0*
21,1,0.210,0.840,0,0,270.0*
1,1,0.840,0.000,-0.105*
1,1,0.840,0.000,0.105*
1,1,0.840,0.000,0.105*
1,1,0.840,0.000,-0.105*
%
%ADD20ROUNDEDRECTD20*%
G04:AMPARAMS|DCode=21|XSize=2mm|YSize=2.1mm|CornerRadius=0.52mm|HoleSize=0mm|Usage=FLASHONLY|Rotation=270.000|XOffset=0mm|YOffset=0mm|HoleType=Round|Shape=RoundedRectangle|*
%AMROUNDEDRECTD21*
21,1,2.000,1.060,0,0,270.0*
21,1,0.960,2.100,0,0,270.0*
1,1,1.040,-0.530,-0.480*
1,1,1.040,-0.530,0.480*
1,1,1.040,0.530,0.480*
1,1,1.040,0.530,-0.480*
%
%ADD21ROUNDEDRECTD21*%
%ADD22O,0.559X0.178*%
%ADD23O,0.203X0.483*%
%ADD24O,0.508X0.229*%
%ADD25R,1.150X1.150*%
%ADD26R,1.150X1.400*%
G04:AMPARAMS|DCode=27|XSize=0.55mm|YSize=0.6mm|CornerRadius=0mm|HoleSize=0mm|Usage=FLASHONLY|Rotation=225.000|XOffset=0mm|YOffset=0mm|HoleType=Round|Shape=Rectangle|*
%AMROTATEDRECTD27*
4,1,4,-0.018,0.407,0.407,-0.018,0.018,-0.407,-0.407,0.018,-0.018,0.407,0.0*
%
%ADD27ROTATEDRECTD27*%

%ADD28R,0.500X0.650*%
%ADD29R,1.700X0.350*%
%ADD30R,1.000X2.250*%
%ADD31C,0.250*%
%ADD32R,0.600X0.250*%
%ADD33R,0.300X1.060*%
%ADD34R,0.900X0.240*%
%ADD35O,0.220X0.790*%
%ADD36O,0.790X0.220*%
G04:AMPARAMS|DCode=37|XSize=0.3mm|YSize=1.65mm|CornerRadius=0mm|HoleSize=0mm|Usage=FLASHONLY|Rotation=225.000|XOffset=0mm|YOffset=0mm|HoleType=Round|Shape=Round|*
%AMOVALD37*
21,1,1.350,0.300,0.000,0.000,315.0*
1,1,0.300,-0.477,0.477*
1,1,0.300,0.477,-0.477*
%
%ADD37OVALD37*%

G04:AMPARAMS|DCode=38|XSize=0.3mm|YSize=1.65mm|CornerRadius=0mm|HoleSize=0mm|Usage=FLASHONLY|Rotation=135.000|XOffset=0mm|YOffset=0mm|HoleType=Round|Shape=Round|*
%AMOVALD38*
21,1,1.350,0.300,0.000,0.000,225.0*
1,1,0.300,0.477,0.477*
1,1,0.300,-0.477,-0.477*
%
%ADD38OVALD38*%

%ADD39R,0.400X0.700*%
%ADD40R,0.800X0.800*%
%ADD41R,0.600X0.500*%
%ADD42R,0.600X0.550*%
%ADD43R,1.350X1.200*%
%ADD44R,0.762X0.762*%
%ADD45R,0.550X0.600*%
G04:AMPARAMS|DCode=46|XSize=0.5mm|YSize=0.65mm|CornerRadius=0mm|HoleSize=0mm|Usage=FLASHONLY|Rotation=135.000|XOffset=0mm|YOffset=0mm|HoleType=Round|Shape=Rectangle|*
%AMROTATEDRECTD46*
4,1,4,0.407,0.053,-0.053,-0.407,-0.407,-0.053,0.053,0.407,0.407,0.053,0.0*
%
%ADD46ROTATEDRECTD46*%

%ADD47R,0.650X0.500*%
D20*
X5050Y7935D02*
D03*
Y12385D02*
D03*
D21*
X2150Y6420D02*
D03*
Y13900D02*
D03*
D22*
X18164Y9025D02*
D03*
Y9426D02*
D03*
Y8624D02*
D03*
X18914D02*
D03*
Y9025D02*
D03*
Y9426D02*
D03*
X18164Y10525D02*
D03*
Y10926D02*
D03*
Y10124D02*
D03*
X18914D02*
D03*
Y10525D02*
D03*
Y10926D02*
D03*
X18164Y5025D02*
D03*
Y5426D02*
D03*
Y4624D02*
D03*
X18914D02*
D03*
Y5025D02*
D03*
Y5426D02*
D03*
X18164Y6525D02*
D03*
Y6926D02*
D03*
Y6124D02*
D03*
X18914D02*
D03*
Y6525D02*
D03*
Y6926D02*
D03*
X18164Y12025D02*
D03*
Y12426D02*
D03*
Y11624D02*
D03*
X18914D02*
D03*
Y12025D02*
D03*
Y12426D02*
D03*
D23*
X11551Y15797D02*
D03*
Y14603D02*
D03*
X10727Y15797D02*
D03*
Y14603D02*
D03*
X11139D02*
D03*
Y15797D02*
D03*
D24*
X9550Y12625D02*
D03*
Y13125D02*
D03*
D25*
X12305Y7345D02*
D03*
X12305Y8995D02*
D03*
X13955Y7345D02*
D03*
X13955Y8995D02*
D03*
D26*
X39200Y13585D02*
D03*
Y11385D02*
D03*
X37600D02*
D03*
Y13585D02*
D03*
D27*
X55125Y14500D02*
D03*
X55832Y13793D02*
D03*
D28*
X40700Y12335D02*
D03*
Y11385D02*
D03*
Y14945D02*
D03*
Y13995D02*
D03*
X12339Y15625D02*
D03*
Y14675D02*
D03*
X23571Y15004D02*
D03*
Y14054D02*
D03*
X16540Y11500D02*
D03*
Y10550D02*
D03*
D29*
X4830Y11460D02*
D03*
Y10810D02*
D03*
Y10160D02*
D03*
Y9510D02*
D03*
Y8860D02*
D03*
D30*
X78391Y12910D02*
D03*
Y7410D02*
D03*
X82391D02*
D03*
Y12910D02*
D03*
D31*
X18202Y14775D02*
D03*
X18702D02*
D03*
X18202Y14275D02*
D03*
X18702D02*
D03*
X18202Y13775D02*
D03*
X18702D02*
D03*
D32*
X13615Y14725D02*
D03*
Y14225D02*
D03*
Y13725D02*
D03*
X15115Y14725D02*
D03*
Y14225D02*
D03*
Y13725D02*
D03*
D33*
X14365Y14225D02*
D03*
D34*
X11139Y15200D02*
D03*
D35*
X14876Y10556D02*
D03*
X14376D02*
D03*
X13876D02*
D03*
X13376D02*
D03*
X12876D02*
D03*
X12376D02*
D03*
X11876D02*
D03*
X11376D02*
D03*
X11384Y5787D02*
D03*
X11884D02*
D03*
X12384D02*
D03*
X12884D02*
D03*
X13384D02*
D03*
X13884D02*
D03*
X14384D02*
D03*
X14880Y5784D02*
D03*
D36*
X15520Y9924D02*
D03*
Y9424D02*
D03*
Y8924D02*
D03*
Y8424D02*
D03*
Y7924D02*
D03*
Y7424D02*
D03*
Y6924D02*
D03*
Y6424D02*
D03*
X10740Y9924D02*
D03*
Y9424D02*
D03*
Y8924D02*
D03*
Y8424D02*
D03*
Y7924D02*
D03*
Y7424D02*
D03*
Y6924D02*
D03*
Y6424D02*
D03*
D37*
X51737Y5334D02*
D03*
X52090Y5688D02*
D03*
X52444Y6041D02*
D03*
X52798Y6395D02*
D03*
X53151Y6748D02*
D03*
X53505Y7102D02*
D03*
X53858Y7455D02*
D03*
X54212Y7809D02*
D03*
X54565Y8162D02*
D03*
X54919Y8516D02*
D03*
X55272Y8870D02*
D03*
X55626Y9223D02*
D03*
X49863Y14986D02*
D03*
X49510Y14632D02*
D03*
X49156Y14279D02*
D03*
X48802Y13925D02*
D03*
X48449Y13572D02*
D03*
X48095Y13218D02*
D03*
X47742Y12865D02*
D03*
X47388Y12511D02*
D03*
X47035Y12158D02*
D03*
X46681Y11804D02*
D03*
X46328Y11450D02*
D03*
X45974Y11097D02*
D03*
D38*
X55626D02*
D03*
X55272Y11450D02*
D03*
X54919Y11804D02*
D03*
X54565Y12158D02*
D03*
X54212Y12511D02*
D03*
X53858Y12865D02*
D03*
X53505Y13218D02*
D03*
X53151Y13572D02*
D03*
X52798Y13925D02*
D03*
X52444Y14279D02*
D03*
X52090Y14632D02*
D03*
X51737Y14986D02*
D03*
X45974Y9223D02*
D03*
X46328Y8870D02*
D03*
X46681Y8516D02*
D03*
X47035Y8162D02*
D03*
X47388Y7809D02*
D03*
X47742Y7455D02*
D03*
X48095Y7102D02*
D03*
X48449Y6748D02*
D03*
X48802Y6395D02*
D03*
X49156Y6041D02*
D03*
X49510Y5688D02*
D03*
X49863Y5334D02*
D03*
D39*
X8800Y12875D02*
D03*
D40*
X74221Y9356D02*
D03*
Y11006D02*
D03*
D41*
X7071Y4600D02*
D03*
X6071D02*
D03*
D42*
X9675Y11684D02*
D03*
X8675D02*
D03*
X22589Y5085D02*
D03*
X23589D02*
D03*
X8675Y10755D02*
D03*
X9675D02*
D03*
X9390Y4575D02*
D03*
X8390D02*
D03*
X9675Y13775D02*
D03*
X8675D02*
D03*
X13865Y15725D02*
D03*
X14865D02*
D03*
X18952D02*
D03*
X17952D02*
D03*
X10390Y4575D02*
D03*
X11390D02*
D03*
X18039Y7775D02*
D03*
X19039D02*
D03*
D43*
X6750Y15377D02*
D03*
Y13477D02*
D03*
D44*
X8419Y15597D02*
D03*
X9816D02*
D03*
D45*
X76405Y9656D02*
D03*
Y10656D02*
D03*
X75300Y9656D02*
D03*
Y10656D02*
D03*
X22581Y14054D02*
D03*
Y15054D02*
D03*
X12389Y13250D02*
D03*
Y12250D02*
D03*
X16540Y9474D02*
D03*
Y8474D02*
D03*
X16940Y14775D02*
D03*
Y13775D02*
D03*
X16040Y14775D02*
D03*
Y13775D02*
D03*
X11439Y12250D02*
D03*
Y13250D02*
D03*
X16940Y6499D02*
D03*
Y7499D02*
D03*
D46*
X46214Y14064D02*
D03*
X46886Y14736D02*
D03*
X54589Y5714D02*
D03*
X55261Y6386D02*
D03*
D47*
X13895Y12750D02*
D03*
X14845D02*
D03*
X15865Y15725D02*
D03*
X16815D02*
D03*
X13340Y4575D02*
D03*
X12390D02*
D03*
X15290D02*
D03*
X14340D02*
D03*
M02*
