M48
;Layer_Color=9474304
;FILE_FORMAT=2:4
INCH,TZ
;TYPE=PLATED
T1F00S00C0.0079
T4F00S00C0.0236
T5F00S00C0.0394
T6F00S00C0.0402
T7F00S00C0.1063
;TYPE=NON_PLATED
T8F00S00C0.0217
T9F00S00C0.1063
%
T01
X26500Y1150
X27500
X28500
X29500
X30600
X31000
X32437Y1800
Y2200
Y3611
Y4011
Y4411
Y5800
Y6200
X31000Y6850
X30600
X29500
X28500
X27500
X26500
X26614Y5059
X27411Y4902
X27556Y3524
X28848Y3691
X28996Y4764
X30268Y4640
X30502Y3829
X27067Y2352
X26171Y2234
X25500Y1150
X24500
X23500
X23416Y1996
X23374Y2770
X23187Y2957
X23000Y3144
X22813Y3331
X22362Y3896
X22543Y4139
X23898Y4124
X24724Y4163
X24961Y5463
X24646Y5688
X24380Y5906
X24182Y5709
X23601Y5808
X23500Y6850
X24500
X25500
X25827Y5236
X23937Y2854
X22500Y1893
Y1150
X21500
X21423Y1909
X21107
X20181Y1912
X20256Y2770
X20069Y2957
X19882Y3144
X19695Y3331
X19498Y3524
X19429Y4665
X19134
X19680Y5016
X19958
X19931Y5463
Y6053
X18998Y6034
X18500Y6850
X19500
X20500
X21500
X21369Y6055
Y5786
X21988Y5850
X22500Y6850
X21171Y3898
X20984Y3711
X20463Y4281
X20167
X19941Y4477
X17923Y5591
X17608
X17500Y6850
X16500
X15500
X14500
X13500
X12500
X11500
X11850Y6063
X12237Y5956
X12589Y5896
Y5472
X13000Y5786
X11516Y5472
X12392Y2569
X12500Y1150
X11500
X13500
X14500
X15500
X16500
X17500
X17402Y2028
X17873Y2225
X17848Y3100
X17569
X17274
X17018Y4203
X16024Y5183
X14301Y4469
X14216Y3401
X18500Y1150
X19500
X20500
X10500
X9500
X8500
X7500
X6500
X5500
X5331Y1467
X4500Y1150
X3500
X2500
X2000
X2018Y1811
X2382Y2490
X3352Y3022
X3184Y3307
X3825Y3120
Y3514
X3892Y2274
X4256
X6082Y2277
X6295Y2085
X6699Y2136
X6925Y1978
X6906Y2539
X6935Y2795
X6403Y2923
X6797Y3504
Y3780
X6929Y4380
X7673Y4419
X7693Y4163
X7870Y3809
X7702Y3612
X7762Y3228
X7959Y3031
X7831Y2805
X7673Y2569
X7919Y2441
X7850Y2175
X7673Y1978
X8096Y3461
X8636Y3734
Y4234
X8283Y4502
X8313Y4793
X7722
X7565Y5243
X7161Y5108
X6850
X6952Y5502
Y5817
X7565
X8087Y5506
X9500Y5250
Y4750
Y4250
Y3750
Y3250
Y2750
Y2250
X10098Y3000
X10500Y6850
X9500
X8500
X7500
X6500
X6503Y6471
X5459Y6457
X5163Y6319
Y6033
X5104Y5600
X5656
X5203Y5039
Y4754
X4744Y4459
X4479Y4478
X4104Y4754
X4203Y5217
X3435Y5719
X3500Y6850
X4500
X4770Y6486
X5500Y6850
X5659Y4443
X5951Y4636
X6276Y4980
X6226Y4166
X3098Y4331
Y4705
X1112Y4818
X563Y4811
Y4411
Y4011
Y3611
Y3211
X1152Y3376
X563Y1900
Y6100
X2000Y6850
X2500
T04
X15436Y3091
Y3684
X17106Y4640
X17106Y5230
X9000Y5000
Y4500
Y4000
Y3500
Y3000
Y2500
T05
X27000Y0
Y920
X28000Y1080
Y0
X29000
Y920
X30000Y1080
Y0
Y6920
Y8000
X29000
Y7080
X28000Y6920
Y8000
X27000
Y7080
X26000Y6920
Y8000
X25000
Y7080
X24000Y6920
Y8000
X23000
Y7080
X22000Y6920
Y8000
X21000
Y7080
X20000Y6920
Y8000
X19000
Y7080
X18000Y6920
Y8000
X17000
Y7080
X16000Y6920
Y8000
X15000
Y7080
X14000Y6920
Y8000
X13000
Y7080
X12000Y6920
Y8000
X11000
Y7080
Y920
Y0
X12000
X13000
Y920
X14000Y1080
Y0
X15000
Y920
X16000Y1080
Y0
X17000
Y920
X18000Y1080
Y0
X19000
Y920
X20000Y1080
Y0
X21000
Y920
X22000Y1080
Y0
X23000
Y920
X24000Y1080
Y0
X25000
Y920
X26000Y1080
Y0
X12000Y1080
X10000
Y0
X9000
Y920
X8000Y1080
Y0
X7000
Y920
X6000Y1080
Y0
X5000
Y920
X4000Y1080
Y0
X3000
Y920
Y7080
Y8000
X4000
X5000
Y7080
X4000Y6920
X6000
Y8000
X7000
Y7080
X8000Y6920
Y8000
X9000
Y7080
X10000Y6920
Y8000
T06
X11000Y5670
X10000
T07
X1000Y1000
Y7000
T08
X1654Y3213
Y4787
T09
X32000Y1000
Y7000
M30
