G04*
G04 #@! TF.GenerationSoftware,Altium Limited,Altium Designer,20.2.4 (192)*
G04*
G04 Layer_Color=65535*
%FSLAX43Y43*%
%MOMM*%
G71*
G04*
G04 #@! TF.SameCoordinates,AF46D1C0-80E4-4F08-9089-F3FA465175DE*
G04*
G04*
G04 #@! TF.FilePolarity,Positive*
G04*
G01*
G75*
%ADD10C,0.254*%
%ADD11C,0.100*%
%ADD12C,0.250*%
%ADD13C,0.400*%
%ADD14C,0.150*%
%ADD15C,0.200*%
%ADD16C,0.125*%
%ADD17R,1.900X0.350*%
%ADD18R,1.200X0.150*%
%ADD19R,0.093X0.254*%
G36*
X67288Y12186D02*
X67305Y12184D01*
X67323Y12182D01*
X67343Y12180D01*
X67390Y12172D01*
X67439Y12160D01*
X67490Y12144D01*
X67539Y12121D01*
X67541D01*
X67545Y12119D01*
X67551Y12115D01*
X67561Y12109D01*
X67583Y12095D01*
X67612Y12076D01*
X67644Y12052D01*
X67677Y12026D01*
X67707Y11993D01*
X67736Y11958D01*
Y11956D01*
X67738Y11954D01*
X67746Y11942D01*
X67758Y11924D01*
X67771Y11899D01*
X67783Y11873D01*
X67795Y11842D01*
X67803Y11810D01*
X67805Y11777D01*
Y11775D01*
Y11769D01*
X67803Y11759D01*
X67801Y11749D01*
X67797Y11735D01*
X67791Y11720D01*
X67783Y11706D01*
X67771Y11692D01*
X67768Y11690D01*
X67764Y11686D01*
X67758Y11682D01*
X67748Y11676D01*
X67736Y11668D01*
X67724Y11663D01*
X67707Y11659D01*
X67691Y11657D01*
X67683D01*
X67673Y11659D01*
X67661Y11661D01*
X67636Y11668D01*
X67622Y11674D01*
X67612Y11682D01*
X67610Y11684D01*
X67608Y11686D01*
X67602Y11692D01*
X67596Y11702D01*
X67585Y11714D01*
X67575Y11729D01*
X67565Y11747D01*
X67553Y11769D01*
Y11771D01*
X67551Y11773D01*
X67543Y11786D01*
X67532Y11804D01*
X67518Y11826D01*
X67498Y11851D01*
X67478Y11875D01*
X67453Y11899D01*
X67427Y11920D01*
X67423Y11922D01*
X67414Y11928D01*
X67398Y11936D01*
X67378Y11946D01*
X67351Y11954D01*
X67321Y11963D01*
X67286Y11969D01*
X67248Y11971D01*
X67231D01*
X67219Y11969D01*
X67205Y11967D01*
X67189Y11965D01*
X67150Y11954D01*
X67107Y11938D01*
X67085Y11928D01*
X67060Y11916D01*
X67040Y11901D01*
X67018Y11883D01*
X66997Y11863D01*
X66977Y11840D01*
X66975Y11838D01*
X66973Y11834D01*
X66969Y11826D01*
X66961Y11816D01*
X66955Y11804D01*
X66947Y11788D01*
X66936Y11769D01*
X66928Y11747D01*
X66918Y11722D01*
X66910Y11694D01*
X66900Y11665D01*
X66894Y11633D01*
X66888Y11596D01*
X66881Y11558D01*
X66879Y11517D01*
X66877Y11474D01*
Y11472D01*
Y11468D01*
Y11458D01*
Y11448D01*
X66879Y11434D01*
Y11419D01*
X66883Y11383D01*
X66888Y11340D01*
X66896Y11295D01*
X66906Y11252D01*
X66920Y11210D01*
Y11208D01*
X66922Y11206D01*
X66928Y11193D01*
X66938Y11175D01*
X66953Y11151D01*
X66971Y11126D01*
X66991Y11100D01*
X67018Y11075D01*
X67046Y11053D01*
X67050Y11051D01*
X67060Y11045D01*
X67079Y11037D01*
X67101Y11029D01*
X67130Y11018D01*
X67162Y11010D01*
X67197Y11004D01*
X67237Y11002D01*
X67258D01*
X67278Y11006D01*
X67307Y11010D01*
X67337Y11016D01*
X67372Y11027D01*
X67404Y11041D01*
X67437Y11059D01*
X67441Y11061D01*
X67451Y11069D01*
X67465Y11084D01*
X67484Y11104D01*
X67504Y11128D01*
X67524Y11157D01*
X67545Y11191D01*
X67563Y11232D01*
Y11234D01*
X67565Y11242D01*
X67569Y11250D01*
X67575Y11265D01*
X67587Y11293D01*
X67596Y11307D01*
X67606Y11320D01*
X67608Y11322D01*
X67612Y11326D01*
X67618Y11330D01*
X67626Y11338D01*
X67638Y11344D01*
X67653Y11348D01*
X67669Y11352D01*
X67689Y11354D01*
X67697D01*
X67707Y11352D01*
X67718Y11350D01*
X67732Y11346D01*
X67744Y11340D01*
X67758Y11332D01*
X67773Y11320D01*
X67775Y11318D01*
X67779Y11314D01*
X67785Y11305D01*
X67791Y11295D01*
X67797Y11283D01*
X67803Y11269D01*
X67807Y11252D01*
X67809Y11234D01*
Y11232D01*
Y11224D01*
X67807Y11210D01*
X67805Y11193D01*
X67801Y11173D01*
X67795Y11149D01*
X67787Y11122D01*
X67777Y11094D01*
X67775Y11090D01*
X67771Y11082D01*
X67762Y11065D01*
X67752Y11047D01*
X67738Y11025D01*
X67720Y11000D01*
X67699Y10974D01*
X67675Y10945D01*
X67673Y10941D01*
X67663Y10933D01*
X67648Y10921D01*
X67628Y10905D01*
X67604Y10886D01*
X67573Y10866D01*
X67539Y10848D01*
X67500Y10829D01*
X67498D01*
X67496Y10827D01*
X67490Y10825D01*
X67482Y10823D01*
X67471Y10819D01*
X67459Y10815D01*
X67429Y10807D01*
X67392Y10799D01*
X67351Y10791D01*
X67303Y10787D01*
X67252Y10785D01*
X67233D01*
X67213Y10787D01*
X67189D01*
X67158Y10789D01*
X67126Y10793D01*
X67056Y10805D01*
X67052D01*
X67042Y10809D01*
X67026Y10813D01*
X67003Y10819D01*
X66979Y10827D01*
X66953Y10837D01*
X66924Y10852D01*
X66896Y10866D01*
X66892Y10868D01*
X66883Y10874D01*
X66869Y10884D01*
X66853Y10896D01*
X66833Y10913D01*
X66810Y10933D01*
X66788Y10955D01*
X66765Y10980D01*
X66763Y10982D01*
X66757Y10992D01*
X66745Y11004D01*
X66733Y11023D01*
X66719Y11043D01*
X66702Y11067D01*
X66686Y11094D01*
X66672Y11122D01*
X66670Y11126D01*
X66666Y11136D01*
X66660Y11153D01*
X66652Y11173D01*
X66643Y11198D01*
X66633Y11228D01*
X66625Y11259D01*
X66617Y11291D01*
Y11293D01*
Y11295D01*
X66615Y11307D01*
X66611Y11326D01*
X66609Y11350D01*
X66605Y11379D01*
X66601Y11411D01*
X66599Y11446D01*
Y11482D01*
Y11484D01*
Y11491D01*
Y11499D01*
Y11511D01*
X66601Y11525D01*
Y11541D01*
X66603Y11560D01*
X66605Y11582D01*
X66611Y11627D01*
X66619Y11676D01*
X66629Y11727D01*
X66645Y11777D01*
Y11779D01*
X66647Y11783D01*
X66649Y11790D01*
X66654Y11800D01*
X66660Y11810D01*
X66666Y11824D01*
X66680Y11855D01*
X66698Y11889D01*
X66723Y11926D01*
X66751Y11963D01*
X66782Y11999D01*
X66784Y12001D01*
X66786Y12003D01*
X66798Y12013D01*
X66816Y12032D01*
X66841Y12052D01*
X66871Y12074D01*
X66908Y12097D01*
X66947Y12119D01*
X66989Y12140D01*
X66991D01*
X66995Y12142D01*
X67001Y12144D01*
X67010Y12148D01*
X67022Y12152D01*
X67034Y12156D01*
X67067Y12164D01*
X67105Y12172D01*
X67148Y12180D01*
X67195Y12186D01*
X67246Y12188D01*
X67274D01*
X67288Y12186D01*
D02*
G37*
G36*
X66226D02*
X66241Y12182D01*
X66257Y12178D01*
X66273Y12170D01*
X66289Y12160D01*
X66306Y12146D01*
X66308Y12144D01*
X66312Y12137D01*
X66318Y12129D01*
X66326Y12115D01*
X66332Y12097D01*
X66338Y12076D01*
X66342Y12050D01*
X66344Y12022D01*
Y10951D01*
Y10947D01*
Y10937D01*
X66342Y10923D01*
X66340Y10905D01*
X66334Y10882D01*
X66328Y10862D01*
X66318Y10841D01*
X66306Y10825D01*
X66304Y10823D01*
X66300Y10819D01*
X66289Y10813D01*
X66279Y10805D01*
X66263Y10797D01*
X66247Y10791D01*
X66226Y10787D01*
X66204Y10785D01*
X66194D01*
X66184Y10787D01*
X66169Y10791D01*
X66155Y10795D01*
X66139Y10801D01*
X66123Y10811D01*
X66106Y10825D01*
X66104Y10827D01*
X66100Y10833D01*
X66094Y10844D01*
X66088Y10858D01*
X66082Y10874D01*
X66076Y10896D01*
X66072Y10923D01*
X66070Y10951D01*
Y12022D01*
Y12026D01*
Y12036D01*
X66072Y12050D01*
X66074Y12068D01*
X66078Y12089D01*
X66086Y12109D01*
X66094Y12129D01*
X66106Y12146D01*
X66108Y12148D01*
X66112Y12152D01*
X66123Y12160D01*
X66133Y12168D01*
X66147Y12174D01*
X66163Y12182D01*
X66184Y12186D01*
X66204Y12188D01*
X66214D01*
X66226Y12186D01*
D02*
G37*
G36*
X65374Y12164D02*
X65408D01*
X65447Y12160D01*
X65486Y12156D01*
X65524Y12150D01*
X65559Y12142D01*
X65563Y12140D01*
X65573Y12137D01*
X65589Y12131D01*
X65608Y12123D01*
X65630Y12111D01*
X65655Y12099D01*
X65679Y12081D01*
X65703Y12062D01*
X65705Y12060D01*
X65714Y12052D01*
X65724Y12042D01*
X65738Y12026D01*
X65752Y12007D01*
X65769Y11985D01*
X65783Y11960D01*
X65795Y11932D01*
X65797Y11928D01*
X65801Y11918D01*
X65805Y11901D01*
X65811Y11881D01*
X65817Y11855D01*
X65823Y11826D01*
X65825Y11794D01*
X65828Y11757D01*
Y11755D01*
Y11749D01*
Y11737D01*
X65825Y11722D01*
X65823Y11706D01*
X65821Y11686D01*
X65817Y11663D01*
X65811Y11639D01*
X65797Y11588D01*
X65787Y11562D01*
X65773Y11537D01*
X65758Y11511D01*
X65742Y11486D01*
X65722Y11464D01*
X65699Y11442D01*
X65697Y11440D01*
X65693Y11438D01*
X65685Y11432D01*
X65675Y11425D01*
X65663Y11417D01*
X65646Y11409D01*
X65626Y11399D01*
X65604Y11389D01*
X65577Y11379D01*
X65549Y11368D01*
X65518Y11360D01*
X65484Y11352D01*
X65447Y11346D01*
X65406Y11340D01*
X65364Y11338D01*
X65317Y11336D01*
X65067D01*
Y10951D01*
Y10947D01*
Y10937D01*
X65065Y10923D01*
X65063Y10905D01*
X65056Y10884D01*
X65050Y10864D01*
X65040Y10844D01*
X65026Y10825D01*
X65024Y10823D01*
X65020Y10819D01*
X65010Y10813D01*
X64999Y10805D01*
X64985Y10797D01*
X64969Y10791D01*
X64949Y10787D01*
X64928Y10785D01*
X64918D01*
X64908Y10787D01*
X64894Y10791D01*
X64877Y10795D01*
X64861Y10801D01*
X64845Y10811D01*
X64829Y10825D01*
X64827Y10827D01*
X64822Y10833D01*
X64816Y10844D01*
X64810Y10858D01*
X64804Y10874D01*
X64798Y10896D01*
X64794Y10921D01*
X64792Y10949D01*
Y11997D01*
Y11999D01*
Y12001D01*
Y12011D01*
X64794Y12028D01*
X64798Y12046D01*
X64802Y12068D01*
X64808Y12089D01*
X64818Y12109D01*
X64833Y12125D01*
X64835Y12127D01*
X64841Y12131D01*
X64851Y12137D01*
X64865Y12146D01*
X64883Y12154D01*
X64906Y12160D01*
X64932Y12164D01*
X64965Y12166D01*
X65358D01*
X65374Y12164D01*
D02*
G37*
G36*
X68649Y12186D02*
X68664D01*
X68700Y12182D01*
X68743Y12174D01*
X68788Y12166D01*
X68837Y12152D01*
X68885Y12133D01*
X68887D01*
X68892Y12131D01*
X68898Y12127D01*
X68908Y12123D01*
X68918Y12117D01*
X68932Y12111D01*
X68963Y12093D01*
X68999Y12072D01*
X69036Y12046D01*
X69075Y12013D01*
X69113Y11979D01*
X69115Y11977D01*
X69117Y11975D01*
X69123Y11969D01*
X69130Y11963D01*
X69148Y11940D01*
X69170Y11914D01*
X69195Y11881D01*
X69221Y11842D01*
X69246Y11798D01*
X69268Y11751D01*
Y11749D01*
X69270Y11745D01*
X69274Y11739D01*
X69276Y11729D01*
X69280Y11716D01*
X69286Y11702D01*
X69296Y11670D01*
X69305Y11629D01*
X69315Y11582D01*
X69321Y11531D01*
X69323Y11478D01*
Y11476D01*
Y11470D01*
Y11460D01*
X69321Y11446D01*
Y11429D01*
X69319Y11409D01*
X69315Y11387D01*
X69311Y11360D01*
X69300Y11305D01*
X69282Y11246D01*
X69260Y11183D01*
X69244Y11151D01*
X69227Y11120D01*
X69225Y11118D01*
X69223Y11114D01*
X69217Y11104D01*
X69209Y11094D01*
X69201Y11080D01*
X69189Y11063D01*
X69158Y11027D01*
X69121Y10986D01*
X69077Y10943D01*
X69026Y10900D01*
X68967Y10862D01*
X68965D01*
X68959Y10858D01*
X68951Y10854D01*
X68938Y10848D01*
X68924Y10839D01*
X68906Y10831D01*
X68885Y10823D01*
X68861Y10815D01*
X68837Y10807D01*
X68808Y10799D01*
X68747Y10782D01*
X68682Y10772D01*
X68647Y10770D01*
X68611Y10768D01*
X68592D01*
X68578Y10770D01*
X68562D01*
X68542Y10772D01*
X68519Y10776D01*
X68493Y10780D01*
X68438Y10791D01*
X68379Y10807D01*
X68316Y10831D01*
X68283Y10846D01*
X68253Y10862D01*
X68251Y10864D01*
X68247Y10866D01*
X68236Y10872D01*
X68226Y10880D01*
X68212Y10888D01*
X68196Y10900D01*
X68159Y10931D01*
X68118Y10968D01*
X68076Y11010D01*
X68033Y11063D01*
X67994Y11120D01*
Y11122D01*
X67990Y11128D01*
X67986Y11136D01*
X67980Y11149D01*
X67972Y11165D01*
X67964Y11183D01*
X67956Y11204D01*
X67948Y11226D01*
X67939Y11252D01*
X67931Y11281D01*
X67915Y11340D01*
X67905Y11407D01*
X67903Y11442D01*
X67901Y11478D01*
Y11480D01*
Y11486D01*
Y11497D01*
X67903Y11511D01*
Y11527D01*
X67905Y11547D01*
X67909Y11570D01*
X67913Y11594D01*
X67923Y11649D01*
X67939Y11708D01*
X67964Y11771D01*
X67978Y11802D01*
X67994Y11832D01*
X67996Y11834D01*
X67998Y11840D01*
X68004Y11849D01*
X68013Y11859D01*
X68021Y11873D01*
X68033Y11889D01*
X68063Y11926D01*
X68100Y11969D01*
X68143Y12011D01*
X68196Y12054D01*
X68253Y12093D01*
X68255Y12095D01*
X68261Y12097D01*
X68269Y12101D01*
X68281Y12107D01*
X68297Y12115D01*
X68316Y12123D01*
X68336Y12131D01*
X68358Y12142D01*
X68385Y12150D01*
X68413Y12158D01*
X68472Y12174D01*
X68540Y12184D01*
X68574Y12188D01*
X68635D01*
X68649Y12186D01*
D02*
G37*
G36*
X67216Y10494D02*
X67232Y10492D01*
X67251Y10490D01*
X67271Y10488D01*
X67318Y10480D01*
X67367Y10468D01*
X67418Y10452D01*
X67466Y10429D01*
X67468D01*
X67472Y10427D01*
X67479Y10423D01*
X67489Y10417D01*
X67511Y10403D01*
X67540Y10385D01*
X67572Y10360D01*
X67605Y10334D01*
X67635Y10301D01*
X67664Y10267D01*
Y10264D01*
X67666Y10262D01*
X67674Y10250D01*
X67686Y10232D01*
X67698Y10208D01*
X67710Y10181D01*
X67723Y10151D01*
X67731Y10118D01*
X67733Y10085D01*
Y10083D01*
Y10077D01*
X67731Y10067D01*
X67729Y10057D01*
X67725Y10043D01*
X67719Y10028D01*
X67710Y10014D01*
X67698Y10000D01*
X67696Y9998D01*
X67692Y9994D01*
X67686Y9990D01*
X67676Y9984D01*
X67664Y9976D01*
X67651Y9972D01*
X67635Y9967D01*
X67619Y9965D01*
X67611D01*
X67601Y9967D01*
X67588Y9969D01*
X67564Y9976D01*
X67550Y9982D01*
X67540Y9990D01*
X67538Y9992D01*
X67536Y9994D01*
X67529Y10000D01*
X67523Y10010D01*
X67513Y10022D01*
X67503Y10037D01*
X67493Y10055D01*
X67481Y10077D01*
Y10079D01*
X67479Y10081D01*
X67470Y10094D01*
X67460Y10112D01*
X67446Y10134D01*
X67426Y10159D01*
X67405Y10183D01*
X67381Y10208D01*
X67354Y10228D01*
X67350Y10230D01*
X67342Y10236D01*
X67326Y10244D01*
X67306Y10254D01*
X67279Y10262D01*
X67249Y10271D01*
X67214Y10277D01*
X67175Y10279D01*
X67159D01*
X67147Y10277D01*
X67133Y10275D01*
X67116Y10273D01*
X67078Y10262D01*
X67035Y10246D01*
X67013Y10236D01*
X66988Y10224D01*
X66968Y10210D01*
X66946Y10191D01*
X66925Y10171D01*
X66905Y10149D01*
X66903Y10146D01*
X66901Y10142D01*
X66897Y10134D01*
X66889Y10124D01*
X66882Y10112D01*
X66874Y10096D01*
X66864Y10077D01*
X66856Y10055D01*
X66846Y10031D01*
X66838Y10002D01*
X66827Y9974D01*
X66821Y9941D01*
X66815Y9904D01*
X66809Y9866D01*
X66807Y9825D01*
X66805Y9782D01*
Y9780D01*
Y9776D01*
Y9766D01*
Y9756D01*
X66807Y9742D01*
Y9727D01*
X66811Y9691D01*
X66815Y9648D01*
X66823Y9603D01*
X66834Y9561D01*
X66848Y9518D01*
Y9516D01*
X66850Y9514D01*
X66856Y9502D01*
X66866Y9483D01*
X66880Y9459D01*
X66899Y9434D01*
X66919Y9408D01*
X66946Y9384D01*
X66974Y9361D01*
X66978Y9359D01*
X66988Y9353D01*
X67007Y9345D01*
X67029Y9337D01*
X67057Y9327D01*
X67090Y9318D01*
X67125Y9312D01*
X67165Y9310D01*
X67186D01*
X67206Y9314D01*
X67234Y9318D01*
X67265Y9325D01*
X67300Y9335D01*
X67332Y9349D01*
X67365Y9367D01*
X67369Y9369D01*
X67379Y9377D01*
X67393Y9392D01*
X67411Y9412D01*
X67432Y9436D01*
X67452Y9465D01*
X67472Y9500D01*
X67491Y9540D01*
Y9542D01*
X67493Y9550D01*
X67497Y9559D01*
X67503Y9573D01*
X67515Y9601D01*
X67523Y9615D01*
X67533Y9628D01*
X67536Y9630D01*
X67540Y9634D01*
X67546Y9638D01*
X67554Y9646D01*
X67566Y9652D01*
X67580Y9656D01*
X67597Y9660D01*
X67617Y9662D01*
X67625D01*
X67635Y9660D01*
X67645Y9658D01*
X67660Y9654D01*
X67672Y9648D01*
X67686Y9640D01*
X67700Y9628D01*
X67702Y9626D01*
X67706Y9622D01*
X67713Y9613D01*
X67719Y9603D01*
X67725Y9591D01*
X67731Y9577D01*
X67735Y9561D01*
X67737Y9542D01*
Y9540D01*
Y9532D01*
X67735Y9518D01*
X67733Y9502D01*
X67729Y9481D01*
X67723Y9457D01*
X67715Y9430D01*
X67704Y9402D01*
X67702Y9398D01*
X67698Y9390D01*
X67690Y9373D01*
X67680Y9355D01*
X67666Y9333D01*
X67647Y9308D01*
X67627Y9282D01*
X67603Y9253D01*
X67601Y9249D01*
X67590Y9241D01*
X67576Y9229D01*
X67556Y9213D01*
X67531Y9194D01*
X67501Y9174D01*
X67466Y9156D01*
X67428Y9137D01*
X67426D01*
X67424Y9135D01*
X67418Y9133D01*
X67409Y9131D01*
X67399Y9127D01*
X67387Y9123D01*
X67356Y9115D01*
X67320Y9107D01*
X67279Y9099D01*
X67230Y9095D01*
X67179Y9093D01*
X67161D01*
X67141Y9095D01*
X67116D01*
X67086Y9097D01*
X67053Y9101D01*
X66984Y9113D01*
X66980D01*
X66970Y9117D01*
X66954Y9121D01*
X66931Y9127D01*
X66907Y9135D01*
X66880Y9145D01*
X66852Y9160D01*
X66823Y9174D01*
X66819Y9176D01*
X66811Y9182D01*
X66797Y9192D01*
X66781Y9204D01*
X66760Y9221D01*
X66738Y9241D01*
X66716Y9263D01*
X66693Y9288D01*
X66691Y9290D01*
X66685Y9300D01*
X66673Y9312D01*
X66661Y9331D01*
X66646Y9351D01*
X66630Y9375D01*
X66614Y9402D01*
X66600Y9430D01*
X66598Y9434D01*
X66594Y9445D01*
X66587Y9461D01*
X66579Y9481D01*
X66571Y9506D01*
X66561Y9536D01*
X66553Y9567D01*
X66545Y9599D01*
Y9601D01*
Y9603D01*
X66543Y9615D01*
X66539Y9634D01*
X66537Y9658D01*
X66533Y9687D01*
X66528Y9719D01*
X66526Y9754D01*
Y9790D01*
Y9792D01*
Y9799D01*
Y9807D01*
Y9819D01*
X66528Y9833D01*
Y9849D01*
X66530Y9868D01*
X66533Y9890D01*
X66539Y9935D01*
X66547Y9984D01*
X66557Y10035D01*
X66573Y10085D01*
Y10087D01*
X66575Y10092D01*
X66577Y10098D01*
X66581Y10108D01*
X66587Y10118D01*
X66594Y10132D01*
X66608Y10163D01*
X66626Y10197D01*
X66650Y10234D01*
X66679Y10271D01*
X66710Y10307D01*
X66712Y10309D01*
X66714Y10311D01*
X66726Y10321D01*
X66744Y10340D01*
X66769Y10360D01*
X66799Y10382D01*
X66836Y10405D01*
X66874Y10427D01*
X66917Y10448D01*
X66919D01*
X66923Y10450D01*
X66929Y10452D01*
X66937Y10456D01*
X66950Y10460D01*
X66962Y10464D01*
X66994Y10472D01*
X67033Y10480D01*
X67076Y10488D01*
X67123Y10494D01*
X67173Y10496D01*
X67202D01*
X67216Y10494D01*
D02*
G37*
G36*
X66152Y10472D02*
X66168Y10470D01*
X66189Y10466D01*
X66211Y10460D01*
X66231Y10452D01*
X66250Y10441D01*
X66252Y10439D01*
X66258Y10435D01*
X66264Y10427D01*
X66274Y10415D01*
X66282Y10399D01*
X66288Y10378D01*
X66294Y10352D01*
X66296Y10321D01*
Y9247D01*
Y9243D01*
Y9235D01*
X66294Y9221D01*
X66292Y9204D01*
X66288Y9184D01*
X66280Y9166D01*
X66272Y9148D01*
X66260Y9131D01*
X66258Y9129D01*
X66254Y9125D01*
X66246Y9119D01*
X66235Y9113D01*
X66223Y9105D01*
X66207Y9099D01*
X66189Y9095D01*
X66168Y9093D01*
X66160D01*
X66150Y9095D01*
X66136Y9097D01*
X66122Y9103D01*
X66107Y9109D01*
X66093Y9119D01*
X66079Y9131D01*
X66077Y9133D01*
X66073Y9139D01*
X66069Y9148D01*
X66063Y9160D01*
X66054Y9176D01*
X66050Y9196D01*
X66046Y9221D01*
X66044Y9247D01*
Y10185D01*
X65824Y9318D01*
Y9314D01*
X65820Y9304D01*
X65816Y9290D01*
X65812Y9272D01*
X65802Y9231D01*
X65796Y9211D01*
X65790Y9194D01*
Y9192D01*
X65788Y9188D01*
X65784Y9180D01*
X65780Y9172D01*
X65763Y9148D01*
X65753Y9135D01*
X65741Y9123D01*
X65739Y9121D01*
X65735Y9119D01*
X65727Y9113D01*
X65715Y9109D01*
X65700Y9103D01*
X65684Y9097D01*
X65664Y9095D01*
X65641Y9093D01*
X65633D01*
X65625Y9095D01*
X65613D01*
X65586Y9101D01*
X65558Y9113D01*
X65556D01*
X65552Y9117D01*
X65540Y9127D01*
X65523Y9143D01*
X65507Y9166D01*
Y9168D01*
X65505Y9172D01*
X65501Y9178D01*
X65497Y9186D01*
X65487Y9211D01*
X65477Y9237D01*
Y9239D01*
X65475Y9243D01*
X65473Y9251D01*
X65470Y9263D01*
X65464Y9288D01*
X65456Y9318D01*
X65239Y10185D01*
Y9247D01*
Y9243D01*
Y9235D01*
X65236Y9221D01*
X65234Y9204D01*
X65230Y9184D01*
X65222Y9166D01*
X65214Y9148D01*
X65202Y9131D01*
X65200Y9129D01*
X65196Y9125D01*
X65188Y9119D01*
X65177Y9113D01*
X65165Y9105D01*
X65149Y9099D01*
X65131Y9095D01*
X65110Y9093D01*
X65102D01*
X65092Y9095D01*
X65078Y9097D01*
X65064Y9101D01*
X65049Y9109D01*
X65035Y9117D01*
X65021Y9129D01*
X65019Y9131D01*
X65015Y9137D01*
X65011Y9145D01*
X65005Y9158D01*
X64996Y9176D01*
X64992Y9196D01*
X64988Y9219D01*
X64986Y9247D01*
Y10321D01*
Y10323D01*
Y10326D01*
Y10336D01*
X64988Y10352D01*
X64992Y10370D01*
X64996Y10391D01*
X65005Y10409D01*
X65017Y10427D01*
X65031Y10441D01*
X65033Y10444D01*
X65039Y10448D01*
X65049Y10452D01*
X65064Y10458D01*
X65082Y10464D01*
X65104Y10470D01*
X65129Y10472D01*
X65157Y10474D01*
X65269D01*
X65285Y10472D01*
X65320Y10468D01*
X65338Y10464D01*
X65352Y10460D01*
X65354D01*
X65359Y10458D01*
X65373Y10448D01*
X65389Y10433D01*
X65397Y10421D01*
X65403Y10409D01*
Y10407D01*
X65407Y10403D01*
X65409Y10393D01*
X65416Y10380D01*
X65422Y10364D01*
X65428Y10344D01*
X65434Y10319D01*
X65442Y10291D01*
X65641Y9548D01*
X65839Y10291D01*
Y10295D01*
X65843Y10305D01*
X65847Y10319D01*
X65851Y10336D01*
X65863Y10374D01*
X65869Y10393D01*
X65875Y10409D01*
Y10411D01*
X65879Y10415D01*
X65881Y10421D01*
X65888Y10429D01*
X65904Y10446D01*
X65914Y10454D01*
X65926Y10460D01*
X65928D01*
X65932Y10462D01*
X65942Y10464D01*
X65955Y10468D01*
X65969Y10470D01*
X65989Y10472D01*
X66012Y10474D01*
X66136D01*
X66152Y10472D01*
D02*
G37*
G36*
X69011Y10494D02*
X69025Y10490D01*
X69041Y10486D01*
X69057Y10478D01*
X69074Y10468D01*
X69090Y10454D01*
X69092Y10452D01*
X69096Y10446D01*
X69102Y10437D01*
X69110Y10423D01*
X69116Y10405D01*
X69122Y10385D01*
X69127Y10358D01*
X69129Y10330D01*
Y9677D01*
Y9674D01*
Y9670D01*
Y9660D01*
Y9650D01*
Y9636D01*
X69127Y9620D01*
X69124Y9583D01*
X69120Y9540D01*
X69114Y9495D01*
X69106Y9451D01*
X69096Y9408D01*
Y9406D01*
X69094Y9404D01*
X69092Y9398D01*
X69090Y9390D01*
X69082Y9371D01*
X69070Y9345D01*
X69055Y9316D01*
X69035Y9286D01*
X69011Y9253D01*
X68980Y9223D01*
X68976Y9221D01*
X68968Y9211D01*
X68952Y9198D01*
X68931Y9184D01*
X68905Y9168D01*
X68876Y9152D01*
X68842Y9135D01*
X68807Y9123D01*
X68805D01*
X68803Y9121D01*
X68797D01*
X68791Y9119D01*
X68768Y9113D01*
X68742Y9109D01*
X68707Y9103D01*
X68669Y9097D01*
X68626Y9095D01*
X68577Y9093D01*
X68551D01*
X68537Y9095D01*
X68522D01*
X68486Y9097D01*
X68443Y9101D01*
X68396Y9107D01*
X68351Y9115D01*
X68307Y9125D01*
X68305D01*
X68303Y9127D01*
X68296Y9129D01*
X68288Y9131D01*
X68268Y9139D01*
X68242Y9152D01*
X68213Y9166D01*
X68183Y9184D01*
X68152Y9204D01*
X68124Y9229D01*
X68119Y9233D01*
X68111Y9241D01*
X68099Y9257D01*
X68085Y9278D01*
X68067Y9304D01*
X68050Y9335D01*
X68034Y9371D01*
X68020Y9410D01*
Y9412D01*
X68018Y9416D01*
Y9422D01*
X68016Y9430D01*
X68012Y9441D01*
X68010Y9453D01*
X68003Y9485D01*
X67997Y9524D01*
X67993Y9571D01*
X67989Y9622D01*
X67987Y9677D01*
Y10330D01*
Y10334D01*
Y10344D01*
X67989Y10358D01*
X67991Y10376D01*
X67995Y10397D01*
X68003Y10417D01*
X68012Y10437D01*
X68024Y10454D01*
X68026Y10456D01*
X68030Y10460D01*
X68038Y10468D01*
X68050Y10476D01*
X68064Y10482D01*
X68081Y10490D01*
X68099Y10494D01*
X68121Y10496D01*
X68132D01*
X68144Y10494D01*
X68158Y10490D01*
X68174Y10486D01*
X68193Y10478D01*
X68209Y10468D01*
X68223Y10454D01*
X68225Y10452D01*
X68229Y10446D01*
X68235Y10437D01*
X68244Y10423D01*
X68250Y10405D01*
X68256Y10385D01*
X68260Y10358D01*
X68262Y10330D01*
Y9660D01*
Y9658D01*
Y9656D01*
Y9650D01*
Y9642D01*
X68264Y9620D01*
X68266Y9593D01*
X68268Y9563D01*
X68272Y9532D01*
X68278Y9500D01*
X68286Y9469D01*
X68288Y9465D01*
X68292Y9457D01*
X68298Y9443D01*
X68307Y9426D01*
X68319Y9408D01*
X68335Y9388D01*
X68353Y9369D01*
X68376Y9351D01*
X68380Y9349D01*
X68388Y9345D01*
X68402Y9339D01*
X68423Y9331D01*
X68449Y9323D01*
X68482Y9316D01*
X68518Y9312D01*
X68559Y9310D01*
X68575D01*
X68585Y9312D01*
X68598D01*
X68614Y9314D01*
X68648Y9320D01*
X68685Y9331D01*
X68724Y9347D01*
X68758Y9367D01*
X68773Y9382D01*
X68787Y9396D01*
X68789Y9400D01*
X68797Y9412D01*
X68807Y9432D01*
X68821Y9461D01*
X68834Y9495D01*
X68838Y9518D01*
X68844Y9540D01*
X68848Y9567D01*
X68852Y9593D01*
X68854Y9624D01*
Y9654D01*
Y10330D01*
Y10334D01*
Y10344D01*
X68856Y10358D01*
X68858Y10376D01*
X68862Y10397D01*
X68870Y10417D01*
X68878Y10437D01*
X68891Y10454D01*
X68893Y10456D01*
X68897Y10460D01*
X68905Y10468D01*
X68917Y10476D01*
X68931Y10482D01*
X68947Y10490D01*
X68966Y10494D01*
X68988Y10496D01*
X68998D01*
X69011Y10494D01*
D02*
G37*
G36*
X20758Y15535D02*
Y15535D01*
X22045D01*
Y4785D01*
X20758D01*
Y10164D01*
Y4785D01*
X19578D01*
Y15535D01*
X20758D01*
D02*
G37*
G36*
X30047Y11682D02*
X30102Y11671D01*
X30180Y11649D01*
X30247Y11604D01*
X30302Y11538D01*
X30347Y11449D01*
X30358Y11327D01*
Y11316D01*
Y11271D01*
X30335Y11204D01*
X30313Y11138D01*
X30269Y11071D01*
X30202Y11004D01*
X30113Y10960D01*
X29991Y10938D01*
X29969D01*
X29891Y10949D01*
X29802Y10982D01*
X29713Y11049D01*
X29691Y11071D01*
X29658Y11127D01*
X29624Y11216D01*
X29602Y11327D01*
Y11338D01*
X29613Y11382D01*
X29624Y11449D01*
X29658Y11516D01*
X29702Y11582D01*
X29769Y11638D01*
X29869Y11682D01*
X29991Y11693D01*
X30002D01*
X30047Y11682D01*
D02*
G37*
G36*
X27625Y12015D02*
X27702D01*
X27891Y11993D01*
X28102Y11960D01*
X28336Y11904D01*
X28580Y11838D01*
X28813Y11738D01*
X30946Y8360D01*
Y8349D01*
Y8327D01*
X30935Y8294D01*
Y8249D01*
X30913Y8127D01*
X30880Y7983D01*
Y7971D01*
X30869Y7949D01*
X30858Y7916D01*
X30846Y7860D01*
X30813Y7727D01*
X30769Y7571D01*
X28913Y10471D01*
X28902Y10482D01*
X28891Y10504D01*
X28824Y10582D01*
X28724Y10660D01*
X28658Y10682D01*
X28591Y10693D01*
X28569D01*
X28491Y10671D01*
X28447Y10638D01*
X28391Y10604D01*
X28336Y10549D01*
X28280Y10482D01*
X27669Y9627D01*
X29835Y6205D01*
X29824Y6194D01*
X29791Y6161D01*
X29736Y6116D01*
X29658Y6061D01*
X29558Y5994D01*
X29436Y5916D01*
X29291Y5827D01*
X29136Y5749D01*
X28969Y5661D01*
X28769Y5572D01*
X28569Y5494D01*
X28347Y5427D01*
X28113Y5372D01*
X27858Y5327D01*
X27602Y5294D01*
X27325Y5283D01*
X27258D01*
X27180Y5294D01*
X27080Y5305D01*
X26947Y5316D01*
X26791Y5338D01*
X26625Y5372D01*
X26447Y5427D01*
X26247Y5483D01*
X26047Y5549D01*
X25825Y5649D01*
X25614Y5749D01*
X25392Y5883D01*
X25169Y6027D01*
X24958Y6194D01*
X24747Y6394D01*
X25680Y7660D01*
Y7671D01*
X25691Y7694D01*
X25714Y7760D01*
X25725Y7805D01*
X25736Y7860D01*
Y7871D01*
Y7883D01*
X25725Y7949D01*
X25691Y8038D01*
X25636Y8127D01*
X24947Y9194D01*
X23936Y7783D01*
Y7805D01*
X23914Y7860D01*
X23903Y7938D01*
X23881Y8049D01*
X23858Y8194D01*
X23836Y8349D01*
X23825Y8527D01*
X23814Y8716D01*
Y8727D01*
Y8782D01*
X23825Y8849D01*
X23836Y8949D01*
X23847Y9071D01*
X23869Y9216D01*
X23903Y9371D01*
X23958Y9549D01*
X24014Y9727D01*
X24081Y9927D01*
X24181Y10127D01*
X24281Y10327D01*
X24414Y10527D01*
X24558Y10727D01*
X24725Y10916D01*
X24925Y11104D01*
X24936Y11116D01*
X24969Y11149D01*
X25036Y11193D01*
X25114Y11249D01*
X25214Y11316D01*
X25336Y11393D01*
X25469Y11482D01*
X25625Y11571D01*
X25803Y11649D01*
X25991Y11738D01*
X26203Y11815D01*
X26425Y11882D01*
X26658Y11938D01*
X26902Y11982D01*
X27158Y12015D01*
X27425Y12027D01*
X27558D01*
X27625Y12015D01*
D02*
G37*
%LPC*%
G36*
X65284Y11960D02*
X65067D01*
Y11543D01*
X65268D01*
X65286Y11545D01*
X65309D01*
X65335Y11547D01*
X65362Y11552D01*
X65388Y11558D01*
X65415Y11564D01*
X65417Y11566D01*
X65425Y11568D01*
X65437Y11572D01*
X65451Y11580D01*
X65467Y11588D01*
X65484Y11600D01*
X65500Y11613D01*
X65514Y11629D01*
X65516Y11631D01*
X65520Y11637D01*
X65524Y11647D01*
X65533Y11661D01*
X65539Y11680D01*
X65543Y11700D01*
X65547Y11724D01*
X65549Y11751D01*
Y11753D01*
Y11755D01*
Y11767D01*
X65547Y11783D01*
X65543Y11804D01*
X65537Y11828D01*
X65526Y11853D01*
X65514Y11877D01*
X65496Y11899D01*
X65494Y11901D01*
X65484Y11910D01*
X65467Y11920D01*
X65455Y11924D01*
X65443Y11930D01*
X65427Y11936D01*
X65410Y11942D01*
X65390Y11946D01*
X65368Y11950D01*
X65343Y11954D01*
X65315Y11958D01*
X65284Y11960D01*
D02*
G37*
G36*
X68613Y12050D02*
X68599D01*
X68586Y12048D01*
X68572D01*
X68558Y12046D01*
X68540Y12044D01*
X68519Y12040D01*
X68474Y12032D01*
X68426Y12017D01*
X68377Y11999D01*
X68326Y11973D01*
X68324D01*
X68320Y11969D01*
X68314Y11965D01*
X68304Y11958D01*
X68279Y11942D01*
X68251Y11918D01*
X68216Y11887D01*
X68181Y11853D01*
X68147Y11810D01*
X68116Y11763D01*
Y11761D01*
X68112Y11757D01*
X68110Y11751D01*
X68104Y11741D01*
X68098Y11729D01*
X68092Y11714D01*
X68086Y11698D01*
X68080Y11680D01*
X68066Y11637D01*
X68053Y11588D01*
X68045Y11535D01*
X68041Y11478D01*
Y11476D01*
Y11472D01*
Y11462D01*
X68043Y11452D01*
Y11438D01*
X68045Y11421D01*
X68047Y11403D01*
X68051Y11383D01*
X68059Y11340D01*
X68074Y11291D01*
X68092Y11240D01*
X68118Y11189D01*
Y11187D01*
X68122Y11183D01*
X68127Y11177D01*
X68133Y11167D01*
X68149Y11145D01*
X68173Y11114D01*
X68204Y11082D01*
X68238Y11047D01*
X68279Y11012D01*
X68326Y10982D01*
X68328D01*
X68332Y10978D01*
X68340Y10976D01*
X68348Y10970D01*
X68361Y10964D01*
X68377Y10957D01*
X68393Y10951D01*
X68411Y10945D01*
X68454Y10931D01*
X68503Y10919D01*
X68556Y10911D01*
X68613Y10907D01*
X68629D01*
X68639Y10909D01*
X68654D01*
X68670Y10911D01*
X68688Y10913D01*
X68708Y10917D01*
X68751Y10925D01*
X68800Y10939D01*
X68851Y10957D01*
X68900Y10982D01*
X68902D01*
X68906Y10986D01*
X68912Y10990D01*
X68922Y10996D01*
X68944Y11012D01*
X68975Y11037D01*
X69008Y11067D01*
X69042Y11102D01*
X69075Y11143D01*
X69105Y11189D01*
Y11191D01*
X69109Y11195D01*
X69113Y11204D01*
X69117Y11212D01*
X69123Y11224D01*
X69130Y11240D01*
X69136Y11257D01*
X69144Y11275D01*
X69158Y11318D01*
X69170Y11366D01*
X69178Y11421D01*
X69182Y11478D01*
Y11480D01*
Y11484D01*
Y11493D01*
X69180Y11505D01*
Y11519D01*
X69178Y11535D01*
X69176Y11552D01*
X69172Y11572D01*
X69164Y11617D01*
X69150Y11665D01*
X69132Y11714D01*
X69105Y11765D01*
Y11767D01*
X69101Y11771D01*
X69097Y11777D01*
X69091Y11788D01*
X69075Y11812D01*
X69050Y11840D01*
X69022Y11873D01*
X68985Y11908D01*
X68944Y11942D01*
X68898Y11973D01*
X68896D01*
X68892Y11977D01*
X68885Y11981D01*
X68875Y11985D01*
X68863Y11991D01*
X68849Y11997D01*
X68833Y12003D01*
X68814Y12011D01*
X68772Y12026D01*
X68723Y12038D01*
X68670Y12046D01*
X68613Y12050D01*
D02*
G37*
%LPD*%
G36*
X68674Y11851D02*
X68694Y11849D01*
X68717Y11847D01*
X68739Y11842D01*
X68763Y11834D01*
X68786Y11826D01*
X68788Y11824D01*
X68796Y11822D01*
X68806Y11816D01*
X68818Y11808D01*
X68833Y11796D01*
X68847Y11783D01*
X68859Y11769D01*
X68871Y11751D01*
X68873Y11749D01*
X68875Y11743D01*
X68881Y11733D01*
X68887Y11718D01*
X68892Y11702D01*
X68898Y11682D01*
X68900Y11661D01*
X68902Y11637D01*
Y11633D01*
Y11623D01*
X68900Y11609D01*
X68896Y11590D01*
X68887Y11568D01*
X68879Y11545D01*
X68865Y11521D01*
X68847Y11499D01*
X68845Y11497D01*
X68837Y11491D01*
X68824Y11480D01*
X68808Y11468D01*
X68788Y11456D01*
X68761Y11446D01*
X68733Y11436D01*
X68698Y11429D01*
X68700D01*
X68706Y11425D01*
X68715Y11421D01*
X68727Y11415D01*
X68753Y11399D01*
X68778Y11375D01*
X68780Y11373D01*
X68784Y11368D01*
X68790Y11358D01*
X68800Y11346D01*
X68810Y11328D01*
X68824Y11307D01*
X68839Y11281D01*
X68857Y11250D01*
X68946Y11098D01*
X68757D01*
X68694Y11220D01*
X68692Y11224D01*
X68688Y11234D01*
X68680Y11248D01*
X68670Y11265D01*
X68645Y11305D01*
X68631Y11324D01*
X68619Y11340D01*
X68617Y11342D01*
X68613Y11346D01*
X68607Y11354D01*
X68601Y11362D01*
X68580Y11381D01*
X68570Y11389D01*
X68558Y11395D01*
X68556D01*
X68552Y11397D01*
X68546Y11399D01*
X68538Y11403D01*
X68525Y11405D01*
X68513Y11407D01*
X68483Y11409D01*
X68444D01*
Y11098D01*
X68289D01*
Y11853D01*
X68660D01*
X68674Y11851D01*
D02*
G37*
%LPC*%
G36*
X68582Y11733D02*
X68444D01*
Y11529D01*
X68580D01*
X68594Y11531D01*
X68615D01*
X68656Y11537D01*
X68676Y11543D01*
X68694Y11550D01*
X68696Y11552D01*
X68700Y11554D01*
X68708Y11560D01*
X68717Y11568D01*
X68725Y11580D01*
X68733Y11594D01*
X68737Y11613D01*
X68739Y11635D01*
Y11637D01*
Y11643D01*
X68737Y11651D01*
X68735Y11661D01*
X68729Y11672D01*
X68723Y11684D01*
X68713Y11696D01*
X68700Y11706D01*
X68698Y11708D01*
X68692Y11710D01*
X68684Y11714D01*
X68672Y11720D01*
X68656Y11724D01*
X68635Y11729D01*
X68611Y11731D01*
X68582Y11733D01*
D02*
G37*
G36*
X21376Y15266D02*
X21360D01*
X21312Y15264D01*
X21270Y15259D01*
X21250Y15255D01*
X21231Y15251D01*
X21214Y15246D01*
X21198Y15242D01*
X21183Y15237D01*
X21170Y15232D01*
X21159Y15229D01*
X21150Y15225D01*
X21143Y15222D01*
X21138Y15220D01*
X21134Y15217D01*
X21133D01*
X21098Y15197D01*
X21068Y15175D01*
X21041Y15151D01*
X21019Y15127D01*
X21003Y15106D01*
X20995Y15097D01*
X20990Y15090D01*
X20985Y15082D01*
X20983Y15078D01*
X20980Y15075D01*
Y15074D01*
X20970Y15056D01*
X20963Y15038D01*
X20949Y14999D01*
X20939Y14961D01*
X20933Y14926D01*
X20931Y14911D01*
X20929Y14896D01*
X20928Y14883D01*
Y14871D01*
X20926Y14863D01*
Y15266D01*
D01*
Y14441D01*
X21795D01*
D01*
X21359D01*
X21394Y14443D01*
X21425Y14445D01*
X21455Y14450D01*
X21481Y14455D01*
X21492Y14456D01*
X21502Y14459D01*
X21512Y14461D01*
X21520Y14464D01*
X21525Y14465D01*
X21530Y14466D01*
X21532Y14468D01*
X21534D01*
X21562Y14479D01*
X21590Y14491D01*
X21614Y14504D01*
X21634Y14516D01*
X21651Y14529D01*
X21664Y14538D01*
X21667Y14541D01*
X21671Y14544D01*
X21672Y14546D01*
X21674D01*
X21695Y14568D01*
X21712Y14589D01*
X21727Y14610D01*
X21741Y14631D01*
X21751Y14649D01*
X21757Y14664D01*
X21760Y14669D01*
X21762Y14673D01*
X21764Y14675D01*
Y14676D01*
X21774Y14706D01*
X21781Y14738D01*
X21787Y14766D01*
X21791Y14794D01*
X21792Y14806D01*
X21794Y14818D01*
Y14828D01*
X21795Y14836D01*
Y14853D01*
X21794Y14889D01*
X21790Y14923D01*
X21785Y14953D01*
X21780Y14979D01*
X21777Y14990D01*
X21775Y15000D01*
X21772Y15008D01*
X21770Y15015D01*
X21767Y15021D01*
X21766Y15025D01*
X21765Y15028D01*
Y15029D01*
X21752Y15056D01*
X21737Y15081D01*
X21722Y15104D01*
X21709Y15122D01*
X21695Y15137D01*
X21685Y15150D01*
X21677Y15156D01*
X21676Y15159D01*
X21675D01*
X21651Y15177D01*
X21627Y15194D01*
X21605Y15207D01*
X21582Y15219D01*
X21564Y15227D01*
X21556Y15231D01*
X21550Y15234D01*
X21544Y15236D01*
X21540Y15237D01*
X21537Y15239D01*
X21536D01*
X21506Y15247D01*
X21475Y15255D01*
X21445Y15260D01*
X21417Y15262D01*
X21406Y15264D01*
X21395Y15265D01*
X21385D01*
X21376Y15266D01*
D02*
G37*
G36*
X21681Y14303D02*
X21033D01*
X21014Y14301D01*
X20999Y14299D01*
X20985Y14295D01*
X20974Y14290D01*
X20965Y14285D01*
X20959Y14281D01*
X20955Y14279D01*
X20954Y14278D01*
X20945Y14268D01*
X20938Y14258D01*
X20933Y14246D01*
X20930Y14236D01*
X20928Y14226D01*
X20926Y14219D01*
Y14303D01*
D01*
Y13594D01*
X21795D01*
D01*
X21690D01*
X21707Y13595D01*
X21724Y13598D01*
X21736Y13602D01*
X21747Y13607D01*
X21756Y13610D01*
X21762Y13614D01*
X21766Y13617D01*
X21767Y13618D01*
X21776Y13628D01*
X21784Y13638D01*
X21789Y13649D01*
X21791Y13659D01*
X21794Y13669D01*
X21795Y13677D01*
Y13683D01*
X21794Y13697D01*
X21791Y13709D01*
X21786Y13720D01*
X21781Y13729D01*
X21776Y13737D01*
X21771Y13742D01*
X21769Y13745D01*
X21767Y13747D01*
X21756Y13755D01*
X21744Y13762D01*
X21730Y13767D01*
X21717Y13769D01*
X21706Y13772D01*
X21697Y13773D01*
X21691D01*
X21689D01*
X21220D01*
X21695Y14063D01*
X21710Y14073D01*
X21722Y14082D01*
X21727Y14085D01*
X21731Y14087D01*
X21732Y14089D01*
X21734D01*
X21746Y14099D01*
X21756Y14109D01*
X21764Y14116D01*
X21765Y14118D01*
X21766Y14119D01*
X21776Y14131D01*
X21782Y14144D01*
X21785Y14149D01*
X21786Y14151D01*
X21787Y14154D01*
Y14155D01*
X21791Y14170D01*
X21794Y14185D01*
X21795Y14191D01*
Y14200D01*
X21794Y14218D01*
X21790Y14234D01*
X21784Y14248D01*
X21776Y14259D01*
X21767Y14269D01*
X21757Y14278D01*
X21746Y14284D01*
X21735Y14290D01*
X21714Y14298D01*
X21704Y14300D01*
X21695Y14301D01*
X21687D01*
X21681Y14303D01*
D02*
G37*
G36*
X20697Y14013D02*
D01*
Y13812D01*
X20696Y13826D01*
X20693Y13837D01*
X20689Y13847D01*
X20684Y13856D01*
X20681Y13863D01*
X20677Y13868D01*
X20674Y13871D01*
X20673Y13872D01*
X20663Y13880D01*
X20652Y13885D01*
X20639Y13890D01*
X20628Y13892D01*
X20618Y13893D01*
X20609Y13895D01*
X20604D01*
X20602D01*
X20508D01*
Y13916D01*
X20507Y13932D01*
X20506Y13947D01*
X20503Y13958D01*
X20499Y13968D01*
X20496Y13977D01*
X20493Y13982D01*
X20492Y13986D01*
X20491Y13987D01*
X20483Y13996D01*
X20474Y14002D01*
X20466Y14007D01*
X20457Y14010D01*
X20448Y14012D01*
X20442Y14013D01*
X20697D01*
X19832D01*
X20436D01*
X20419Y14012D01*
X20407Y14008D01*
X20397Y14003D01*
X20388Y13998D01*
X20382Y13992D01*
X20378Y13987D01*
X20377Y13983D01*
X20376Y13982D01*
X20371Y13970D01*
X20367Y13957D01*
X20364Y13945D01*
X20362Y13932D01*
Y13922D01*
X20361Y13913D01*
Y13895D01*
X19941D01*
X19922Y13893D01*
X19905Y13891D01*
X19891Y13886D01*
X19878Y13880D01*
X19867Y13872D01*
X19858Y13863D01*
X19851Y13855D01*
X19846Y13846D01*
X19841Y13837D01*
X19838Y13828D01*
X19833Y13812D01*
Y13806D01*
X19832Y13801D01*
Y13797D01*
X19833Y13786D01*
X19835Y13777D01*
X19838Y13768D01*
X19842Y13761D01*
X19846Y13755D01*
X19848Y13750D01*
X19851Y13747D01*
X19852Y13746D01*
X19861Y13737D01*
X19870Y13730D01*
X19888Y13713D01*
X19897Y13706D01*
X19905Y13701D01*
X19910Y13697D01*
X19911Y13696D01*
X20323Y13397D01*
X20324Y13390D01*
X20328Y13385D01*
X20333Y13380D01*
X20334Y13379D01*
X20342Y13372D01*
X20350Y13367D01*
X20356Y13364D01*
X20357Y13362D01*
X20358D01*
X20368Y13356D01*
X20377Y13352D01*
X20382Y13350D01*
X20384Y13349D01*
X20393Y13346D01*
X20401Y13345D01*
X20408D01*
X20424Y13346D01*
X20439Y13350D01*
X20452Y13355D01*
X20462Y13360D01*
X20471Y13365D01*
X20477Y13370D01*
X20481Y13374D01*
X20482Y13375D01*
X20491Y13387D01*
X20497Y13401D01*
X20502Y13416D01*
X20504Y13430D01*
X20507Y13442D01*
X20508Y13452D01*
Y13732D01*
X20602D01*
X20618Y13733D01*
X20632Y13736D01*
X20644Y13738D01*
X20654Y13743D01*
X20663Y13747D01*
X20668Y13750D01*
X20672Y13752D01*
X20673Y13753D01*
X20681Y13762D01*
X20687Y13772D01*
X20691Y13782D01*
X20694Y13791D01*
X20696Y13800D01*
X20697Y13806D01*
Y13430D01*
Y14013D01*
D02*
G37*
G36*
X20696Y13290D02*
D01*
Y12987D01*
X20694Y13021D01*
X20691Y13051D01*
X20684Y13079D01*
X20678Y13102D01*
X20673Y13122D01*
X20669Y13130D01*
X20667Y13136D01*
X20664Y13141D01*
X20663Y13146D01*
X20662Y13147D01*
Y13149D01*
X20648Y13172D01*
X20633Y13194D01*
X20617Y13212D01*
X20602Y13227D01*
X20589Y13239D01*
X20578Y13247D01*
X20571Y13252D01*
X20569Y13254D01*
X20568D01*
X20546Y13266D01*
X20522Y13275D01*
X20499Y13281D01*
X20479Y13285D01*
X20462Y13289D01*
X20448Y13290D01*
X20436D01*
X20417Y13289D01*
X20401Y13287D01*
X20384Y13285D01*
X20371Y13281D01*
X20361Y13277D01*
X20352Y13275D01*
X20346Y13274D01*
X20344Y13272D01*
X20330Y13266D01*
X20316Y13257D01*
X20303Y13250D01*
X20293Y13241D01*
X20285Y13234D01*
X20277Y13227D01*
X20273Y13224D01*
X20272Y13222D01*
X20261Y13210D01*
X20252Y13197D01*
X20245Y13185D01*
X20238Y13172D01*
X20235Y13162D01*
X20232Y13155D01*
X20230Y13150D01*
Y13147D01*
X20222Y13166D01*
X20212Y13182D01*
X20202Y13196D01*
X20192Y13209D01*
X20182Y13217D01*
X20175Y13225D01*
X20170Y13229D01*
X20167Y13230D01*
X20150Y13240D01*
X20131Y13247D01*
X20113Y13252D01*
X20098Y13256D01*
X20083Y13259D01*
X20073Y13260D01*
X20066D01*
X20063D01*
X20047Y13259D01*
X20031Y13257D01*
X20017Y13255D01*
X20003Y13251D01*
X19993Y13247D01*
X19986Y13245D01*
X19980Y13244D01*
X19978Y13242D01*
X19963Y13235D01*
X19950Y13227D01*
X19937Y13219D01*
X19927Y13210D01*
X19918Y13202D01*
X19911Y13196D01*
X19907Y13191D01*
X19906Y13190D01*
X19895Y13176D01*
X19885Y13161D01*
X19876Y13147D01*
X19868Y13134D01*
X19862Y13121D01*
X19858Y13111D01*
X19856Y13105D01*
X19855Y13102D01*
X19848Y13082D01*
X19843Y13061D01*
X19841Y13041D01*
X19838Y13022D01*
X19837Y13006D01*
X19836Y12992D01*
Y12981D01*
X19837Y12951D01*
X19841Y12925D01*
X19846Y12900D01*
X19851Y12880D01*
X19857Y12862D01*
X19862Y12850D01*
X19865Y12845D01*
X19866Y12841D01*
X19867Y12840D01*
Y12839D01*
X19880Y12817D01*
X19893Y12799D01*
X19907Y12782D01*
X19921Y12769D01*
X19932Y12759D01*
X19942Y12751D01*
X19948Y12746D01*
X19951Y12745D01*
X19971Y12734D01*
X19990Y12726D01*
X20008Y12720D01*
X20025Y12716D01*
X20040Y12714D01*
X20051Y12712D01*
X20058D01*
X20060D01*
X20061D01*
X20083Y12714D01*
X20103Y12717D01*
X20122Y12724D01*
X20140Y12730D01*
X20155Y12739D01*
X20168Y12749D01*
X20181Y12759D01*
X20192Y12770D01*
X20201Y12781D01*
X20208Y12791D01*
X20216Y12801D01*
X20221Y12810D01*
X20225Y12817D01*
X20227Y12822D01*
X20230Y12826D01*
Y12827D01*
X20240Y12802D01*
X20253Y12781D01*
X20267Y12762D01*
X20283Y12746D01*
X20300Y12732D01*
X20317Y12721D01*
X20334Y12711D01*
X20352Y12704D01*
X20368Y12697D01*
X20384Y12694D01*
X20399Y12690D01*
X20412Y12689D01*
X20422Y12687D01*
X20429Y12686D01*
X19836D01*
X20696D01*
Y13290D01*
D02*
G37*
G36*
X21714Y13477D02*
X21709D01*
X21696Y13475D01*
X21681Y13473D01*
X21666Y13468D01*
X21651Y13464D01*
X21637Y13459D01*
X21626Y13454D01*
X21619Y13452D01*
X21617Y13450D01*
X21616D01*
X21083Y13234D01*
X21069Y13229D01*
X21058Y13224D01*
X21048Y13220D01*
X21039Y13217D01*
X21033Y13214D01*
X21028Y13212D01*
X21025Y13210D01*
X21024D01*
X21008Y13203D01*
X20993Y13194D01*
X20988Y13192D01*
X20983Y13188D01*
X20980Y13187D01*
X20979Y13185D01*
X20964Y13173D01*
X20951Y13159D01*
X20948Y13153D01*
X20944Y13149D01*
X20943Y13145D01*
X20941Y13144D01*
X20936Y13134D01*
X20933Y13124D01*
X20928Y13103D01*
Y13094D01*
X20926Y13087D01*
Y13068D01*
X20929Y13056D01*
X20931Y13044D01*
X20934Y13036D01*
X20936Y13028D01*
X20939Y13023D01*
X20940Y13019D01*
X20941Y13018D01*
X20954Y13001D01*
X20965Y12988D01*
X20971Y12983D01*
X20975Y12979D01*
X20978Y12978D01*
X20979Y12977D01*
X20998Y12967D01*
X21015Y12958D01*
X21023Y12954D01*
X21029Y12952D01*
X21034Y12949D01*
X21035D01*
X21058Y12941D01*
X21066Y12937D01*
X21075Y12934D01*
X21081Y12932D01*
X21086Y12929D01*
X21089Y12928D01*
X21090D01*
X21621Y12718D01*
X21632Y12714D01*
X21644Y12709D01*
X21652Y12707D01*
X21660Y12704D01*
X21665Y12702D01*
X21669Y12701D01*
X21671Y12699D01*
X21672D01*
X21686Y12697D01*
X21697Y12696D01*
X21702Y12694D01*
X20926D01*
Y13040D01*
Y12694D01*
X21795D01*
D01*
X21710D01*
X21722Y12696D01*
X21734Y12698D01*
X21744Y12703D01*
X21752Y12708D01*
X21760Y12712D01*
X21765Y12717D01*
X21769Y12719D01*
X21770Y12721D01*
X21779Y12732D01*
X21785Y12742D01*
X21789Y12753D01*
X21791Y12763D01*
X21794Y12772D01*
X21795Y12778D01*
Y12784D01*
X21794Y12799D01*
X21791Y12812D01*
X21787Y12823D01*
X21782Y12832D01*
X21779Y12838D01*
X21775Y12842D01*
X21772Y12844D01*
X21771Y12846D01*
X21761Y12853D01*
X21747Y12861D01*
X21732Y12867D01*
X21719Y12874D01*
X21705Y12879D01*
X21694Y12884D01*
X21686Y12887D01*
X21685Y12888D01*
X21684D01*
X21586Y12924D01*
Y13240D01*
X21686Y13278D01*
X21691Y13280D01*
X21697Y13283D01*
X21710Y13288D01*
X21716Y13290D01*
X21720Y13293D01*
X21724Y13294D01*
X21725D01*
X21735Y13299D01*
X21742Y13303D01*
X21750Y13307D01*
X21756Y13310D01*
X21760Y13313D01*
X21764Y13315D01*
X21765Y13317D01*
X21766D01*
X21775Y13325D01*
X21782Y13334D01*
X21786Y13342D01*
X21787Y13343D01*
Y13344D01*
X21791Y13357D01*
X21794Y13369D01*
X21795Y13375D01*
Y13387D01*
Y13383D01*
X21794Y13397D01*
X21791Y13409D01*
X21786Y13420D01*
X21781Y13430D01*
X21777Y13438D01*
X21772Y13444D01*
X21770Y13448D01*
X21769Y13449D01*
X21759Y13458D01*
X21747Y13465D01*
X21737Y13470D01*
X21729Y13473D01*
X21720Y13475D01*
X21714Y13477D01*
D02*
G37*
G36*
X20758Y12631D02*
D01*
Y12563D01*
X20757Y12574D01*
X20754Y12583D01*
X20751Y12591D01*
X20747Y12599D01*
X20743Y12604D01*
X20739Y12608D01*
X20737Y12610D01*
X20736Y12611D01*
X20728Y12618D01*
X20719Y12623D01*
X20713Y12626D01*
X20707Y12629D01*
X20701Y12630D01*
X20697Y12631D01*
X20693D01*
X20683Y12630D01*
X20674Y12629D01*
X20667Y12626D01*
X20661Y12624D01*
X20656Y12620D01*
X20652Y12618D01*
X20651Y12616D01*
X20649Y12615D01*
X20643Y12608D01*
X20637Y12599D01*
X20624Y12579D01*
X20618Y12570D01*
X20614Y12563D01*
X20612Y12558D01*
X20611Y12555D01*
X20602Y12540D01*
X20594Y12525D01*
X20587Y12513D01*
X20581Y12503D01*
X20576Y12494D01*
X20572Y12486D01*
X20571Y12483D01*
X20569Y12481D01*
X20548Y12500D01*
X20526Y12516D01*
X20501Y12530D01*
X20476Y12543D01*
X20451Y12553D01*
X20424Y12561D01*
X20399Y12569D01*
X20376Y12574D01*
X20352Y12579D01*
X20331Y12583D01*
X20312Y12584D01*
X20295Y12586D01*
X20281D01*
X20271Y12588D01*
X20265D01*
X20262D01*
X20215Y12585D01*
X20172Y12580D01*
X20152Y12576D01*
X20133Y12573D01*
X20116Y12568D01*
X20100Y12564D01*
X20085Y12559D01*
X20072Y12554D01*
X20061Y12550D01*
X20052Y12546D01*
X20045Y12544D01*
X20040Y12541D01*
X20036Y12539D01*
X20035D01*
X20000Y12519D01*
X19970Y12496D01*
X19943Y12473D01*
X19921Y12449D01*
X19905Y12428D01*
X19897Y12419D01*
X19892Y12411D01*
X19887Y12404D01*
X19885Y12399D01*
X19882Y12396D01*
Y12395D01*
X19872Y12378D01*
X19865Y12359D01*
X19851Y12320D01*
X19841Y12283D01*
X19835Y12248D01*
X19833Y12233D01*
X19831Y12218D01*
X19830Y12204D01*
Y12193D01*
X19828Y12184D01*
Y12171D01*
X19830Y12136D01*
X19833Y12104D01*
X19838Y12075D01*
X19843Y12049D01*
X19847Y12038D01*
X19850Y12028D01*
X19852Y12020D01*
X19855Y12013D01*
X19857Y12006D01*
X19858Y12003D01*
X19860Y12000D01*
Y11999D01*
X19872Y11971D01*
X19886Y11948D01*
X19901Y11925D01*
X19915Y11906D01*
X19927Y11891D01*
X19937Y11880D01*
X19945Y11873D01*
X19946Y11871D01*
X19947Y11870D01*
X19970Y11851D01*
X19992Y11835D01*
X20016Y11821D01*
X20037Y11810D01*
X20056Y11801D01*
X20065Y11798D01*
X20071Y11795D01*
X20077Y11793D01*
X20081Y11791D01*
X20083Y11790D01*
X20085D01*
X20115Y11781D01*
X20146Y11774D01*
X20176Y11769D01*
X20202Y11766D01*
X20215Y11765D01*
X20226Y11764D01*
X20236D01*
X20245Y11763D01*
X19828D01*
X20758D01*
Y12631D01*
D02*
G37*
G36*
X21681Y12576D02*
X21033D01*
X21014Y12574D01*
X20999Y12572D01*
X20985Y12568D01*
X20974Y12563D01*
X20965Y12558D01*
X20959Y12554D01*
X20955Y12552D01*
X20954Y12551D01*
X20945Y12541D01*
X20938Y12531D01*
X20933Y12519D01*
X20930Y12509D01*
X20928Y12499D01*
X20926Y12492D01*
Y12576D01*
D01*
Y11867D01*
X21795D01*
D01*
X21690D01*
X21707Y11868D01*
X21724Y11871D01*
X21736Y11875D01*
X21747Y11880D01*
X21756Y11883D01*
X21762Y11887D01*
X21766Y11890D01*
X21767Y11891D01*
X21776Y11901D01*
X21784Y11911D01*
X21789Y11922D01*
X21791Y11932D01*
X21794Y11942D01*
X21795Y11950D01*
Y11956D01*
X21794Y11970D01*
X21791Y11982D01*
X21786Y11993D01*
X21781Y12002D01*
X21776Y12010D01*
X21771Y12015D01*
X21769Y12018D01*
X21767Y12020D01*
X21756Y12028D01*
X21744Y12035D01*
X21730Y12040D01*
X21717Y12042D01*
X21706Y12045D01*
X21697Y12046D01*
X21691D01*
X21689D01*
X21220D01*
X21695Y12336D01*
X21710Y12346D01*
X21722Y12354D01*
X21727Y12358D01*
X21731Y12359D01*
X21732Y12362D01*
X21734D01*
X21746Y12372D01*
X21756Y12382D01*
X21764Y12389D01*
X21765Y12391D01*
X21766Y12392D01*
X21776Y12404D01*
X21782Y12417D01*
X21785Y12422D01*
X21786Y12424D01*
X21787Y12427D01*
Y12428D01*
X21791Y12443D01*
X21794Y12458D01*
X21795Y12464D01*
Y12473D01*
X21794Y12491D01*
X21790Y12507D01*
X21784Y12521D01*
X21776Y12532D01*
X21767Y12542D01*
X21757Y12551D01*
X21746Y12557D01*
X21735Y12563D01*
X21714Y12571D01*
X21704Y12573D01*
X21695Y12574D01*
X21687D01*
X21681Y12576D01*
D02*
G37*
G36*
X21015Y11466D02*
X21006D01*
X20995Y11465D01*
X20985Y11462D01*
X20975Y11458D01*
X20968Y11453D01*
X20960Y11448D01*
X20955Y11445D01*
X20953Y11442D01*
X20951Y11441D01*
X20943Y11431D01*
X20936Y11421D01*
X20933Y11411D01*
X20929Y11401D01*
X20928Y11393D01*
X20926Y11386D01*
Y11466D01*
D01*
Y10777D01*
X21795D01*
D01*
X21008D01*
X21023Y10779D01*
X21038Y10784D01*
X21044Y10785D01*
X21049Y10787D01*
X21051Y10789D01*
X21053D01*
X21063Y10794D01*
X21073Y10800D01*
X21094Y10811D01*
X21103Y10817D01*
X21110Y10822D01*
X21115Y10825D01*
X21116Y10826D01*
X21427Y11026D01*
X21684D01*
X21702Y11027D01*
X21720Y11030D01*
X21735Y11034D01*
X21746Y11039D01*
X21755Y11044D01*
X21762Y11047D01*
X21766Y11050D01*
X21767Y11051D01*
X21776Y11061D01*
X21784Y11072D01*
X21789Y11084D01*
X21791Y11095D01*
X21794Y11104D01*
X21795Y11112D01*
Y11119D01*
X21794Y11134D01*
X21790Y11147D01*
X21786Y11158D01*
X21780Y11168D01*
X21775Y11177D01*
X21771Y11182D01*
X21767Y11186D01*
X21766Y11187D01*
X21755Y11196D01*
X21741Y11203D01*
X21727Y11208D01*
X21714Y11211D01*
X21702Y11213D01*
X21692Y11215D01*
X21686D01*
X21684D01*
X21426D01*
X21121Y11412D01*
X21105Y11423D01*
X21091Y11432D01*
X21080Y11440D01*
X21070Y11445D01*
X21064Y11450D01*
X21058Y11452D01*
X21055Y11455D01*
X21054D01*
X21036Y11461D01*
X21021Y11465D01*
X21015Y11466D01*
D02*
G37*
G36*
X20697Y11693D02*
X19935D01*
X19920Y11691D01*
X19906Y11688D01*
X19895Y11684D01*
X19886Y11679D01*
X19880Y11673D01*
X19875Y11669D01*
X19872Y11665D01*
X19871Y11664D01*
X19865Y11651D01*
X19860Y11639D01*
X19856Y11624D01*
X19853Y11610D01*
X19852Y11598D01*
X19851Y11588D01*
Y11189D01*
X19853Y11174D01*
X19855Y11162D01*
X19857Y11150D01*
X19860Y11142D01*
X19862Y11135D01*
X19863Y11132D01*
X19865Y11130D01*
X19871Y11120D01*
X19880Y11114D01*
X19890Y11109D01*
X19900Y11105D01*
X19908Y11103D01*
X19916Y11102D01*
X19923D01*
X19938Y11103D01*
X19951Y11105D01*
X19962Y11110D01*
X19971Y11115D01*
X19977Y11119D01*
X19982Y11124D01*
X19985Y11127D01*
X19986Y11128D01*
X19992Y11139D01*
X19997Y11152D01*
X20000Y11164D01*
X20002Y11177D01*
X20003Y11188D01*
X20005Y11197D01*
Y11494D01*
X20032Y11469D01*
X20061Y11447D01*
X20088Y11425D01*
X20113Y11408D01*
X20136Y11393D01*
X20145Y11387D01*
X20153Y11382D01*
X20160Y11378D01*
X20165Y11375D01*
X20167Y11374D01*
X20168Y11373D01*
X20202Y11354D01*
X20235Y11338D01*
X20265Y11323D01*
X20291Y11310D01*
X20302Y11305D01*
X20313Y11300D01*
X20323Y11297D01*
X20331Y11293D01*
X20337Y11290D01*
X20342Y11288D01*
X20344Y11287D01*
X20346D01*
X20377Y11275D01*
X20406Y11265D01*
X20431Y11257D01*
X20452Y11249D01*
X20469Y11244D01*
X20482Y11240D01*
X20487Y11239D01*
X20491D01*
X20492Y11238D01*
X20493D01*
X20514Y11233D01*
X20534Y11229D01*
X20552Y11227D01*
X20566Y11225D01*
X20578Y11224D01*
X20586Y11223D01*
X20592D01*
X20593D01*
X20611Y11224D01*
X20627Y11227D01*
X20639Y11230D01*
X20651Y11234D01*
X20659Y11238D01*
X20666Y11242D01*
X20669Y11244D01*
X20671Y11245D01*
X20679Y11255D01*
X20686Y11265D01*
X20691Y11277D01*
X20693Y11287D01*
X20696Y11295D01*
X20697Y11303D01*
Y11130D01*
Y11309D01*
X20696Y11324D01*
X20693Y11337D01*
X20689Y11348D01*
X20684Y11357D01*
X20679Y11364D01*
X20676Y11370D01*
X20673Y11373D01*
X20672Y11374D01*
X20661Y11383D01*
X20648Y11390D01*
X20621Y11403D01*
X20608Y11407D01*
X20598Y11409D01*
X20591Y11412D01*
X20589D01*
X20588D01*
X20577Y11414D01*
X20564Y11415D01*
X20553Y11418D01*
X20541Y11419D01*
X20531Y11420D01*
X20522Y11422D01*
X20517Y11423D01*
X20514D01*
X20498Y11425D01*
X20483Y11428D01*
X20471Y11430D01*
X20461Y11432D01*
X20452Y11433D01*
X20446Y11434D01*
X20442Y11435D01*
X20441D01*
X20429Y11438D01*
X20417Y11442D01*
X20403Y11444D01*
X20391Y11448D01*
X20378Y11450D01*
X20369Y11453D01*
X20363Y11455D01*
X20361D01*
X20328Y11468D01*
X20298Y11479D01*
X20271Y11490D01*
X20248Y11502D01*
X20230Y11510D01*
X20222Y11514D01*
X20216Y11518D01*
X20210Y11520D01*
X20206Y11523D01*
X20205Y11524D01*
X20203D01*
X20178Y11538D01*
X20157Y11552D01*
X20137Y11564D01*
X20121Y11574D01*
X20107Y11584D01*
X20097Y11590D01*
X20092Y11595D01*
X20090Y11597D01*
X20072Y11609D01*
X20056Y11622D01*
X20042Y11633D01*
X20028Y11643D01*
X20017Y11650D01*
X20010Y11656D01*
X20003Y11660D01*
X20002Y11661D01*
X19987Y11671D01*
X19975Y11679D01*
X19962Y11685D01*
X19953Y11689D01*
X19945Y11691D01*
X19940Y11693D01*
X20697D01*
D02*
G37*
G36*
Y10982D02*
D01*
Y10669D01*
X20696Y10703D01*
X20691Y10734D01*
X20684Y10763D01*
X20677Y10787D01*
X20669Y10807D01*
X20666Y10815D01*
X20663Y10822D01*
X20661Y10827D01*
X20658Y10830D01*
X20657Y10833D01*
Y10834D01*
X20641Y10859D01*
X20622Y10882D01*
X20604Y10900D01*
X20587Y10915D01*
X20571Y10928D01*
X20558Y10935D01*
X20553Y10939D01*
X20549Y10942D01*
X20548Y10943D01*
X20547D01*
X20521Y10955D01*
X20494Y10965D01*
X20468Y10972D01*
X20444Y10977D01*
X20424Y10979D01*
X20416Y10980D01*
X20408Y10982D01*
X20697D01*
X19848D01*
X20394D01*
X20373Y10980D01*
X20353Y10978D01*
X20336Y10975D01*
X20319Y10972D01*
X20306Y10967D01*
X20296Y10964D01*
X20290Y10962D01*
X20287Y10960D01*
X20268Y10952D01*
X20252Y10943D01*
X20236Y10933D01*
X20223Y10923D01*
X20213Y10914D01*
X20205Y10908D01*
X20200Y10903D01*
X20198Y10902D01*
X20185Y10888D01*
X20173Y10873D01*
X20163Y10858D01*
X20155Y10845D01*
X20148Y10833D01*
X20143Y10824D01*
X20141Y10818D01*
X20140Y10815D01*
X20132Y10797D01*
X20127Y10778D01*
X20123Y10760D01*
X20121Y10744D01*
X20120Y10730D01*
X20118Y10720D01*
Y10710D01*
X20120Y10686D01*
X20125Y10660D01*
X20132Y10638D01*
X20140Y10618D01*
X20147Y10601D01*
X20155Y10588D01*
X20157Y10583D01*
X20160Y10579D01*
X20161Y10578D01*
Y10577D01*
X20002Y10607D01*
Y10862D01*
X20001Y10878D01*
X19998Y10893D01*
X19996Y10904D01*
X19992Y10914D01*
X19988Y10923D01*
X19985Y10928D01*
X19983Y10932D01*
X19982Y10933D01*
X19973Y10942D01*
X19965Y10948D01*
X19956Y10952D01*
X19947Y10955D01*
X19938Y10957D01*
X19932Y10958D01*
X19928D01*
X19927D01*
X19913Y10957D01*
X19901Y10954D01*
X19891Y10949D01*
X19882Y10943D01*
X19873Y10934D01*
X19867Y10927D01*
X19858Y10908D01*
X19852Y10889D01*
X19850Y10874D01*
X19848Y10867D01*
Y10563D01*
X19850Y10544D01*
X19852Y10529D01*
X19856Y10516D01*
X19861Y10506D01*
X19866Y10497D01*
X19870Y10492D01*
X19872Y10488D01*
X19873Y10487D01*
X19883Y10478D01*
X19896Y10472D01*
X19907Y10466D01*
X19920Y10462D01*
X19931Y10458D01*
X19940Y10456D01*
X19945Y10454D01*
X19947D01*
X20217Y10407D01*
X20230Y10404D01*
X20238Y10403D01*
X20246Y10402D01*
X20251D01*
X20253Y10401D01*
X20256D01*
X20257D01*
X20268Y10402D01*
X20278Y10404D01*
X20287Y10408D01*
X20295Y10413D01*
X20302Y10418D01*
X20307Y10422D01*
X20310Y10424D01*
X20311Y10426D01*
X20318Y10436D01*
X20323Y10446D01*
X20328Y10454D01*
X20331Y10463D01*
X20332Y10471D01*
X20333Y10477D01*
Y10482D01*
X20332Y10493D01*
X20328Y10506D01*
X20323Y10517D01*
X20318Y10528D01*
X20313Y10538D01*
X20308Y10546D01*
X20305Y10551D01*
X20303Y10552D01*
X20292Y10567D01*
X20283Y10578D01*
X20277Y10588D01*
X20271Y10597D01*
X20267Y10603D01*
X20265Y10607D01*
X20262Y10609D01*
Y10611D01*
X20258Y10619D01*
X20256Y10628D01*
X20252Y10649D01*
X20251Y10659D01*
Y10674D01*
X20252Y10687D01*
X20253Y10699D01*
X20256Y10709D01*
X20260Y10719D01*
X20263Y10727D01*
X20266Y10733D01*
X20267Y10737D01*
X20268Y10738D01*
X20276Y10749D01*
X20283Y10758D01*
X20292Y10767D01*
X20301Y10773D01*
X20308Y10778D01*
X20315Y10782D01*
X20319Y10784D01*
X20321Y10785D01*
X20334Y10792D01*
X20350Y10797D01*
X20363Y10799D01*
X20377Y10802D01*
X20389Y10803D01*
X20398Y10804D01*
X20404D01*
X20407D01*
X20423Y10803D01*
X20439Y10802D01*
X20453Y10799D01*
X20466Y10795D01*
X20477Y10792D01*
X20484Y10789D01*
X20489Y10788D01*
X20491Y10787D01*
X20503Y10780D01*
X20514Y10773D01*
X20524Y10765D01*
X20532Y10758D01*
X20538Y10750D01*
X20543Y10745D01*
X20546Y10742D01*
X20547Y10740D01*
X20553Y10729D01*
X20558Y10718D01*
X20562Y10707D01*
X20564Y10695D01*
X20566Y10686D01*
X20567Y10678D01*
Y10672D01*
X20566Y10657D01*
X20563Y10642D01*
X20559Y10628D01*
X20554Y10617D01*
X20549Y10608D01*
X20546Y10601D01*
X20543Y10596D01*
X20542Y10594D01*
X20532Y10582D01*
X20519Y10571D01*
X20506Y10561D01*
X20493Y10552D01*
X20482Y10546D01*
X20472Y10539D01*
X20466Y10537D01*
X20463Y10536D01*
X20453Y10531D01*
X20444Y10526D01*
X20432Y10513D01*
X20422Y10501D01*
X20414Y10487D01*
X20411Y10476D01*
X20409Y10466D01*
X20408Y10459D01*
Y10457D01*
X20409Y10446D01*
X20412Y10434D01*
X20416Y10426D01*
X20419Y10418D01*
X20424Y10412D01*
X20428Y10407D01*
X20431Y10404D01*
X20432Y10403D01*
X20441Y10396D01*
X20449Y10391D01*
X20457Y10387D01*
X20464Y10384D01*
X20471Y10383D01*
X20476Y10382D01*
X19848D01*
X20481D01*
X20496Y10383D01*
X20511Y10386D01*
X20526Y10391D01*
X20541Y10396D01*
X20552Y10401D01*
X20562Y10406D01*
X20568Y10408D01*
X20571Y10409D01*
X20589Y10422D01*
X20606Y10436D01*
X20621Y10451D01*
X20633Y10466D01*
X20644Y10479D01*
X20652Y10492D01*
X20658Y10499D01*
X20659Y10501D01*
Y10502D01*
X20672Y10528D01*
X20681Y10556D01*
X20688Y10583D01*
X20692Y10611D01*
X20694Y10633D01*
X20696Y10643D01*
Y10652D01*
X20697Y10659D01*
Y10382D01*
D01*
Y10982D01*
D02*
G37*
G36*
X21028Y10752D02*
X21021D01*
X21009Y10751D01*
X20996Y10749D01*
X20986Y10745D01*
X20979Y10740D01*
X20971Y10735D01*
X20966Y10731D01*
X20964Y10729D01*
X20963Y10727D01*
X20955Y10717D01*
X20950Y10706D01*
X20945Y10694D01*
X20943Y10682D01*
X20941Y10671D01*
X20940Y10662D01*
Y10752D01*
D01*
Y10034D01*
X21795D01*
D01*
X21021D01*
X21034Y10035D01*
X21045Y10038D01*
X21055Y10041D01*
X21064Y10046D01*
X21070Y10050D01*
X21075Y10054D01*
X21078Y10056D01*
X21079Y10058D01*
X21086Y10068D01*
X21091Y10079D01*
X21095Y10090D01*
X21098Y10103D01*
X21099Y10113D01*
X21100Y10121D01*
Y10299D01*
X21684D01*
X21702Y10300D01*
X21720Y10302D01*
X21735Y10306D01*
X21746Y10311D01*
X21755Y10316D01*
X21762Y10320D01*
X21766Y10322D01*
X21767Y10324D01*
X21776Y10334D01*
X21784Y10345D01*
X21789Y10357D01*
X21791Y10367D01*
X21794Y10377D01*
X21795Y10385D01*
Y10392D01*
X21794Y10407D01*
X21791Y10421D01*
X21786Y10432D01*
X21781Y10442D01*
X21776Y10451D01*
X21771Y10456D01*
X21769Y10460D01*
X21767Y10461D01*
X21755Y10470D01*
X21742Y10476D01*
X21729Y10481D01*
X21715Y10484D01*
X21702Y10486D01*
X21692Y10487D01*
X21686D01*
X21684D01*
X21100D01*
Y10655D01*
X21099Y10671D01*
X21096Y10686D01*
X21094Y10699D01*
X21089Y10709D01*
X21085Y10717D01*
X21083Y10722D01*
X21080Y10726D01*
X21079Y10727D01*
X21070Y10736D01*
X21060Y10742D01*
X21051Y10746D01*
X21041Y10750D01*
X21034Y10751D01*
X21028Y10752D01*
D02*
G37*
G36*
X21692Y9943D02*
X21039D01*
X21019Y9941D01*
X21003Y9939D01*
X20988Y9934D01*
X20976Y9929D01*
X20968Y9924D01*
X20960Y9919D01*
X20956Y9916D01*
X20955Y9915D01*
X20945Y9905D01*
X20939Y9894D01*
X20934Y9881D01*
X20930Y9871D01*
X20928Y9861D01*
X20926Y9854D01*
Y9943D01*
Y9754D01*
X21795D01*
D01*
X21684D01*
X21702Y9755D01*
X21720Y9758D01*
X21735Y9761D01*
X21746Y9766D01*
X21755Y9771D01*
X21762Y9775D01*
X21766Y9778D01*
X21767Y9779D01*
X21776Y9789D01*
X21784Y9800D01*
X21789Y9811D01*
X21791Y9823D01*
X21794Y9831D01*
X21795Y9840D01*
Y9846D01*
X21794Y9861D01*
X21791Y9875D01*
X21786Y9886D01*
X21781Y9896D01*
X21776Y9905D01*
X21771Y9910D01*
X21769Y9914D01*
X21767Y9915D01*
X21755Y9924D01*
X21742Y9931D01*
X21729Y9936D01*
X21715Y9939D01*
X21702Y9941D01*
X21692Y9943D01*
D02*
G37*
G36*
X20697Y10294D02*
D01*
Y9796D01*
X20696Y9811D01*
X20693Y9823D01*
X20688Y9836D01*
X20683Y9844D01*
X20678Y9853D01*
X20673Y9858D01*
X20671Y9862D01*
X20669Y9863D01*
X20657Y9872D01*
X20644Y9879D01*
X20631Y9884D01*
X20617Y9887D01*
X20604Y9889D01*
X20594Y9891D01*
X20588D01*
X20586D01*
X20327D01*
Y10151D01*
X20326Y10166D01*
X20323Y10179D01*
X20321Y10189D01*
X20317Y10199D01*
X20313Y10207D01*
X20310Y10212D01*
X20308Y10214D01*
X20307Y10216D01*
X20300Y10223D01*
X20291Y10228D01*
X20282Y10233D01*
X20273Y10236D01*
X20266Y10237D01*
X20260Y10238D01*
X20256D01*
X20255D01*
X20242Y10237D01*
X20232Y10234D01*
X20222Y10231D01*
X20215Y10227D01*
X20208Y10223D01*
X20205Y10219D01*
X20202Y10217D01*
X20201Y10216D01*
X20193Y10207D01*
X20188Y10196D01*
X20185Y10186D01*
X20182Y10174D01*
X20181Y10166D01*
X20180Y10158D01*
Y9891D01*
X19992D01*
Y10204D01*
X19991Y10221D01*
X19988Y10234D01*
X19986Y10246D01*
X19982Y10256D01*
X19978Y10262D01*
X19975Y10268D01*
X19973Y10271D01*
X19972Y10272D01*
X19963Y10279D01*
X19955Y10284D01*
X19946Y10289D01*
X19937Y10292D01*
X19928Y10293D01*
X19922Y10294D01*
X20697D01*
X19842D01*
X19917D01*
X19906Y10293D01*
X19895Y10291D01*
X19886Y10287D01*
X19878Y10283D01*
X19872Y10279D01*
X19867Y10276D01*
X19865Y10273D01*
X19863Y10272D01*
X19856Y10263D01*
X19851Y10252D01*
X19847Y10241D01*
X19845Y10229D01*
X19843Y10219D01*
X19842Y10212D01*
Y9799D01*
X19845Y9788D01*
X19846Y9777D01*
X19848Y9768D01*
X19851Y9761D01*
X19852Y9756D01*
X19855Y9752D01*
Y9751D01*
X19860Y9742D01*
X19865Y9734D01*
X19877Y9723D01*
X19883Y9718D01*
X19888Y9716D01*
X19891Y9714D01*
X19892Y9713D01*
X19902Y9710D01*
X19912Y9707D01*
X19933Y9703D01*
X19942D01*
X19950Y9702D01*
X20697D01*
Y10294D01*
D02*
G37*
G36*
X20448Y9575D02*
X20436D01*
X20417Y9573D01*
X20401Y9572D01*
X20384Y9570D01*
X20371Y9566D01*
X20361Y9562D01*
X20352Y9560D01*
X20346Y9558D01*
X20344Y9557D01*
X20330Y9551D01*
X20316Y9542D01*
X20303Y9535D01*
X20293Y9526D01*
X20285Y9518D01*
X20277Y9512D01*
X20273Y9508D01*
X20272Y9507D01*
X20261Y9495D01*
X20252Y9482D01*
X20245Y9470D01*
X20238Y9457D01*
X20235Y9447D01*
X20232Y9440D01*
X20230Y9435D01*
Y9432D01*
X20222Y9451D01*
X20212Y9467D01*
X20202Y9481D01*
X20192Y9493D01*
X20182Y9502D01*
X20175Y9510D01*
X20170Y9513D01*
X20167Y9515D01*
X20150Y9525D01*
X20131Y9532D01*
X20113Y9537D01*
X20098Y9541D01*
X20083Y9543D01*
X20073Y9545D01*
X20066D01*
X20063D01*
X20047Y9543D01*
X20031Y9542D01*
X20017Y9540D01*
X20003Y9536D01*
X19993Y9532D01*
X19986Y9530D01*
X19980Y9528D01*
X19978Y9527D01*
X19963Y9520D01*
X19950Y9512D01*
X19937Y9503D01*
X19927Y9495D01*
X19918Y9487D01*
X19911Y9481D01*
X19907Y9476D01*
X19906Y9475D01*
X19895Y9461D01*
X19885Y9446D01*
X19876Y9432D01*
X19868Y9418D01*
X19862Y9406D01*
X19858Y9396D01*
X19856Y9390D01*
X19855Y9387D01*
X19848Y9367D01*
X19843Y9346D01*
X19841Y9326D01*
X19838Y9307D01*
X19837Y9291D01*
X19836Y9277D01*
Y9266D01*
X19837Y9236D01*
X19841Y9210D01*
X19846Y9185D01*
X19851Y9165D01*
X19857Y9147D01*
X19862Y9135D01*
X19865Y9130D01*
X19866Y9126D01*
X19867Y9125D01*
Y9123D01*
X19880Y9102D01*
X19893Y9083D01*
X19907Y9067D01*
X19921Y9053D01*
X19932Y9043D01*
X19942Y9036D01*
X19948Y9031D01*
X19951Y9030D01*
X19971Y9018D01*
X19990Y9011D01*
X20008Y9005D01*
X20025Y9001D01*
X20040Y8998D01*
X20051Y8997D01*
X20058D01*
X20060D01*
X20061D01*
X20083Y8998D01*
X20103Y9002D01*
X20122Y9008D01*
X20140Y9015D01*
X20155Y9023D01*
X20168Y9033D01*
X20181Y9043D01*
X20192Y9055D01*
X20201Y9066D01*
X20208Y9076D01*
X20216Y9086D01*
X20221Y9095D01*
X20225Y9102D01*
X20227Y9107D01*
X20230Y9111D01*
Y9112D01*
X20240Y9087D01*
X20253Y9066D01*
X20267Y9047D01*
X20283Y9031D01*
X20300Y9017D01*
X20317Y9006D01*
X20334Y8996D01*
X20352Y8988D01*
X20368Y8982D01*
X20384Y8978D01*
X20399Y8975D01*
X20412Y8973D01*
X20422Y8972D01*
X20429Y8971D01*
X19836D01*
X20696D01*
X20437D01*
X20464Y8972D01*
X20489Y8976D01*
X20512Y8982D01*
X20532Y8988D01*
X20548Y8995D01*
X20561Y9001D01*
X20564Y9002D01*
X20568Y9005D01*
X20569Y9006D01*
X20571D01*
X20592Y9021D01*
X20609Y9037D01*
X20626Y9053D01*
X20639Y9071D01*
X20649Y9085D01*
X20657Y9097D01*
X20659Y9102D01*
X20662Y9106D01*
X20663Y9107D01*
Y9108D01*
X20674Y9135D01*
X20682Y9163D01*
X20688Y9191D01*
X20692Y9216D01*
X20694Y9238D01*
Y9248D01*
X20696Y9256D01*
Y9272D01*
D01*
X20694Y9306D01*
X20691Y9336D01*
X20684Y9363D01*
X20678Y9387D01*
X20673Y9407D01*
X20669Y9415D01*
X20667Y9421D01*
X20664Y9426D01*
X20663Y9431D01*
X20662Y9432D01*
Y9433D01*
X20648Y9457D01*
X20633Y9478D01*
X20617Y9497D01*
X20602Y9512D01*
X20589Y9523D01*
X20578Y9532D01*
X20571Y9537D01*
X20569Y9538D01*
X20568D01*
X20546Y9551D01*
X20522Y9560D01*
X20499Y9566D01*
X20479Y9570D01*
X20462Y9573D01*
X20448Y9575D01*
D02*
G37*
G36*
X21537Y9614D02*
X21525D01*
X21502Y9613D01*
X21481Y9610D01*
X21462Y9606D01*
X21446Y9603D01*
X21434Y9598D01*
X21424Y9594D01*
X21419Y9591D01*
X21416Y9590D01*
X21400Y9580D01*
X21385Y9570D01*
X21372Y9559D01*
X21361Y9549D01*
X21352Y9539D01*
X21346Y9531D01*
X21342Y9526D01*
X21341Y9525D01*
X21331Y9509D01*
X21321Y9493D01*
X21314Y9476D01*
X21306Y9460D01*
X21300Y9446D01*
X21296Y9436D01*
X21294Y9429D01*
X21293Y9428D01*
Y9426D01*
X21278Y9383D01*
X21271Y9361D01*
X21266Y9343D01*
X21263Y9326D01*
X21259Y9314D01*
X21258Y9309D01*
Y9305D01*
X21256Y9304D01*
Y9303D01*
X21251Y9283D01*
X21246Y9265D01*
X21243Y9251D01*
X21240Y9240D01*
X21238Y9231D01*
X21236Y9226D01*
X21235Y9223D01*
Y9222D01*
X21229Y9205D01*
X21223Y9190D01*
X21220Y9185D01*
X21218Y9180D01*
X21216Y9178D01*
Y9177D01*
X21206Y9163D01*
X21198Y9153D01*
X21191Y9147D01*
X21190Y9144D01*
X21189D01*
X21176Y9138D01*
X21164Y9134D01*
X21159D01*
X21155Y9133D01*
X21153D01*
X21151D01*
X21139Y9134D01*
X21128Y9138D01*
X21118Y9144D01*
X21109Y9150D01*
X21103Y9157D01*
X21098Y9163D01*
X21094Y9167D01*
X21093Y9168D01*
X21084Y9182D01*
X21078Y9198D01*
X21073Y9213D01*
X21070Y9229D01*
X21068Y9241D01*
X21066Y9253D01*
Y9263D01*
X21068Y9285D01*
X21070Y9305D01*
X21074Y9321D01*
X21079Y9334D01*
X21084Y9344D01*
X21088Y9351D01*
X21090Y9355D01*
X21091Y9356D01*
X21101Y9366D01*
X21113Y9376D01*
X21124Y9385D01*
X21135Y9393D01*
X21145Y9399D01*
X21154Y9404D01*
X21159Y9406D01*
X21161Y9408D01*
X21173Y9414D01*
X21183Y9420D01*
X21191Y9426D01*
X21198Y9431D01*
X21203Y9435D01*
X21208Y9439D01*
X21209Y9440D01*
X21210Y9441D01*
X21215Y9449D01*
X21219Y9456D01*
X21224Y9473D01*
X21225Y9480D01*
X21226Y9486D01*
Y9491D01*
X21225Y9505D01*
X21223Y9516D01*
X21218Y9528D01*
X21213Y9536D01*
X21208Y9543D01*
X21203Y9549D01*
X21200Y9551D01*
X21199Y9553D01*
X21189Y9561D01*
X21178Y9568D01*
X21168Y9571D01*
X21158Y9575D01*
X21150Y9576D01*
X21144Y9578D01*
X21139D01*
X21138D01*
X21125Y9576D01*
X21113Y9575D01*
X21100Y9571D01*
X21090Y9569D01*
X21081Y9565D01*
X21074Y9561D01*
X21069Y9560D01*
X21068Y9559D01*
X21054Y9551D01*
X21041Y9543D01*
X21030Y9534D01*
X21020Y9524D01*
X21011Y9516D01*
X21004Y9509D01*
X21000Y9504D01*
X20999Y9503D01*
X20988Y9488D01*
X20976Y9473D01*
X20968Y9456D01*
X20960Y9441D01*
X20954Y9428D01*
X20950Y9418D01*
X20948Y9410D01*
X20946Y9409D01*
Y9408D01*
X20940Y9385D01*
X20935Y9363D01*
X20931Y9340D01*
X20929Y9319D01*
X20928Y9301D01*
X20926Y9286D01*
Y9614D01*
D01*
Y8939D01*
X21795D01*
D01*
X21544D01*
X21565Y8940D01*
X21585Y8945D01*
X21605Y8950D01*
X21621Y8958D01*
X21636Y8964D01*
X21647Y8970D01*
X21655Y8974D01*
X21656Y8975D01*
X21657D01*
X21677Y8990D01*
X21695Y9005D01*
X21711Y9022D01*
X21724Y9037D01*
X21735Y9050D01*
X21742Y9060D01*
X21747Y9068D01*
X21749Y9069D01*
Y9070D01*
X21764Y9103D01*
X21775Y9137D01*
X21784Y9172D01*
X21789Y9204D01*
X21791Y9219D01*
X21792Y9233D01*
X21794Y9245D01*
Y9255D01*
X21795Y9264D01*
Y9276D01*
X21794Y9314D01*
X21790Y9349D01*
X21784Y9379D01*
X21777Y9405D01*
X21775Y9416D01*
X21772Y9426D01*
X21769Y9435D01*
X21766Y9443D01*
X21764Y9449D01*
X21762Y9453D01*
X21761Y9455D01*
Y9456D01*
X21747Y9484D01*
X21731Y9506D01*
X21715Y9526D01*
X21700Y9543D01*
X21686Y9556D01*
X21675Y9565D01*
X21667Y9571D01*
X21666Y9573D01*
X21665D01*
X21641Y9586D01*
X21616Y9596D01*
X21594Y9604D01*
X21571Y9609D01*
X21552Y9611D01*
X21545Y9613D01*
X21537Y9614D01*
D02*
G37*
G36*
X19836Y9225D02*
Y8971D01*
D01*
Y9225D01*
D02*
G37*
G36*
X20697Y8725D02*
D01*
Y8636D01*
X20696Y8652D01*
X20692Y8665D01*
X20686Y8677D01*
X20678Y8687D01*
X20668Y8696D01*
X20658Y8703D01*
X20647Y8708D01*
X20636Y8714D01*
X20613Y8720D01*
X20603Y8722D01*
X20593Y8724D01*
X20586Y8725D01*
X19935D01*
X19920Y8724D01*
X19905Y8721D01*
X19893Y8719D01*
X19883Y8715D01*
X19875Y8710D01*
X19870Y8707D01*
X19866Y8705D01*
X19865Y8703D01*
X19856Y8695D01*
X19848Y8686D01*
X19843Y8676D01*
X19841Y8667D01*
X19838Y8659D01*
X19837Y8652D01*
Y8636D01*
X19840Y8627D01*
X19841Y8620D01*
X19843Y8614D01*
X19846Y8609D01*
X19848Y8606D01*
X19850Y8605D01*
X19851Y8604D01*
X19857Y8599D01*
X19865Y8592D01*
X19883Y8579D01*
X19892Y8571D01*
X19898Y8566D01*
X19903Y8562D01*
X19906Y8561D01*
X19921Y8549D01*
X19936Y8537D01*
X19950Y8525D01*
X19961Y8515D01*
X19970Y8505D01*
X19977Y8497D01*
X19982Y8492D01*
X19983Y8491D01*
X19996Y8476D01*
X20007Y8459D01*
X20018Y8441D01*
X20028Y8424D01*
X20037Y8409D01*
X20043Y8397D01*
X20045Y8392D01*
X20047Y8389D01*
X20048Y8387D01*
Y8386D01*
X20056Y8370D01*
X20063Y8356D01*
X20070Y8344D01*
X20075Y8335D01*
X20080Y8327D01*
X20083Y8322D01*
X20085Y8320D01*
X20086Y8319D01*
X20092Y8312D01*
X20100Y8307D01*
X20108Y8304D01*
X20116Y8301D01*
X20123Y8300D01*
X20130Y8299D01*
X19837D01*
X20135D01*
X20145Y8300D01*
X20155Y8302D01*
X20163Y8305D01*
X20171Y8310D01*
X20177Y8314D01*
X20182Y8316D01*
X20185Y8319D01*
X20186Y8320D01*
X20193Y8329D01*
X20198Y8336D01*
X20202Y8345D01*
X20205Y8352D01*
X20206Y8360D01*
X20207Y8365D01*
Y8370D01*
X20206Y8381D01*
X20202Y8394D01*
X20197Y8406D01*
X20190Y8421D01*
X20182Y8435D01*
X20172Y8450D01*
X20152Y8480D01*
X20132Y8507D01*
X20123Y8519D01*
X20116Y8530D01*
X20108Y8537D01*
X20103Y8545D01*
X20100Y8549D01*
X20098Y8550D01*
X20596D01*
X20613Y8551D01*
X20628Y8554D01*
X20641Y8557D01*
X20652Y8561D01*
X20659Y8565D01*
X20666Y8569D01*
X20669Y8571D01*
X20671Y8572D01*
X20679Y8582D01*
X20686Y8592D01*
X20691Y8604D01*
X20693Y8614D01*
X20696Y8622D01*
X20697Y8630D01*
Y8299D01*
D01*
Y8725D01*
D02*
G37*
G36*
X21376Y8830D02*
X21360D01*
X21312Y8828D01*
X21270Y8823D01*
X21250Y8819D01*
X21231Y8815D01*
X21214Y8810D01*
X21198Y8807D01*
X21183Y8802D01*
X21170Y8797D01*
X21159Y8793D01*
X21150Y8789D01*
X21143Y8787D01*
X21138Y8784D01*
X21134Y8782D01*
X21133D01*
X21098Y8762D01*
X21068Y8739D01*
X21041Y8715D01*
X21019Y8692D01*
X21003Y8670D01*
X20995Y8662D01*
X20990Y8654D01*
X20985Y8647D01*
X20983Y8642D01*
X20980Y8639D01*
Y8638D01*
X20970Y8620D01*
X20963Y8602D01*
X20949Y8563D01*
X20939Y8525D01*
X20933Y8490D01*
X20931Y8475D01*
X20929Y8460D01*
X20928Y8447D01*
Y8435D01*
X20926Y8427D01*
Y8830D01*
D01*
Y8006D01*
X21795D01*
D01*
X21359D01*
X21394Y8007D01*
X21425Y8009D01*
X21455Y8014D01*
X21481Y8019D01*
X21492Y8021D01*
X21502Y8023D01*
X21512Y8026D01*
X21520Y8028D01*
X21525Y8029D01*
X21530Y8031D01*
X21532Y8032D01*
X21534D01*
X21562Y8043D01*
X21590Y8056D01*
X21614Y8068D01*
X21634Y8081D01*
X21651Y8093D01*
X21664Y8102D01*
X21667Y8106D01*
X21671Y8108D01*
X21672Y8111D01*
X21674D01*
X21695Y8132D01*
X21712Y8153D01*
X21727Y8174D01*
X21741Y8196D01*
X21751Y8213D01*
X21757Y8228D01*
X21760Y8233D01*
X21762Y8237D01*
X21764Y8239D01*
Y8241D01*
X21774Y8270D01*
X21781Y8302D01*
X21787Y8330D01*
X21791Y8358D01*
X21792Y8370D01*
X21794Y8382D01*
Y8392D01*
X21795Y8400D01*
Y8417D01*
X21794Y8453D01*
X21790Y8487D01*
X21785Y8517D01*
X21780Y8543D01*
X21777Y8554D01*
X21775Y8564D01*
X21772Y8572D01*
X21770Y8579D01*
X21767Y8585D01*
X21766Y8589D01*
X21765Y8592D01*
Y8593D01*
X21752Y8620D01*
X21737Y8645D01*
X21722Y8668D01*
X21709Y8687D01*
X21695Y8702D01*
X21685Y8714D01*
X21677Y8720D01*
X21676Y8723D01*
X21675D01*
X21651Y8742D01*
X21627Y8758D01*
X21605Y8772D01*
X21582Y8783D01*
X21564Y8792D01*
X21556Y8795D01*
X21550Y8798D01*
X21544Y8800D01*
X21540Y8802D01*
X21537Y8803D01*
X21536D01*
X21506Y8812D01*
X21475Y8819D01*
X21445Y8824D01*
X21417Y8827D01*
X21406Y8828D01*
X21395Y8829D01*
X21385D01*
X21376Y8830D01*
D02*
G37*
G36*
X21692Y7873D02*
X21039D01*
X21019Y7872D01*
X21003Y7869D01*
X20988Y7864D01*
X20976Y7859D01*
X20968Y7854D01*
X20960Y7849D01*
X20956Y7847D01*
X20955Y7846D01*
X20945Y7836D01*
X20939Y7824D01*
X20934Y7812D01*
X20930Y7802D01*
X20928Y7792D01*
X20926Y7784D01*
Y7873D01*
D01*
Y7684D01*
X21795D01*
D01*
X21684D01*
X21702Y7686D01*
X21720Y7688D01*
X21735Y7692D01*
X21746Y7697D01*
X21755Y7702D01*
X21762Y7706D01*
X21766Y7708D01*
X21767Y7709D01*
X21776Y7719D01*
X21784Y7731D01*
X21789Y7742D01*
X21791Y7753D01*
X21794Y7762D01*
X21795Y7771D01*
Y7777D01*
X21794Y7792D01*
X21791Y7806D01*
X21786Y7817D01*
X21781Y7827D01*
X21776Y7836D01*
X21771Y7841D01*
X21769Y7844D01*
X21767Y7846D01*
X21755Y7854D01*
X21742Y7862D01*
X21729Y7867D01*
X21715Y7869D01*
X21702Y7872D01*
X21692Y7873D01*
D02*
G37*
G36*
X20697Y8171D02*
X19828D01*
X20414D01*
X20402Y8170D01*
X20391Y8167D01*
X20381Y8164D01*
X20372Y8159D01*
X20364Y8154D01*
X20359Y8150D01*
X20357Y8147D01*
X20356Y8146D01*
X20347Y8136D01*
X20341Y8126D01*
X20337Y8116D01*
X20333Y8107D01*
X20332Y8099D01*
X20331Y8092D01*
Y8086D01*
X20332Y8072D01*
X20334Y8060D01*
X20338Y8050D01*
X20342Y8042D01*
X20347Y8036D01*
X20351Y8032D01*
X20353Y8030D01*
X20354Y8029D01*
X20373Y8017D01*
X20391Y8007D01*
X20397Y8005D01*
X20403Y8002D01*
X20407Y8000D01*
X20408D01*
X20432Y7990D01*
X20453Y7979D01*
X20471Y7966D01*
X20486Y7955D01*
X20497Y7945D01*
X20504Y7936D01*
X20509Y7931D01*
X20511Y7929D01*
X20522Y7910D01*
X20529Y7891D01*
X20536Y7872D01*
X20539Y7855D01*
X20542Y7839D01*
X20543Y7826D01*
Y7815D01*
X20542Y7792D01*
X20538Y7771D01*
X20534Y7754D01*
X20528Y7738D01*
X20523Y7724D01*
X20519Y7715D01*
X20516Y7709D01*
X20514Y7706D01*
X20502Y7690D01*
X20488Y7676D01*
X20473Y7664D01*
X20459Y7654D01*
X20446Y7645D01*
X20436Y7640D01*
X20428Y7636D01*
X20427Y7635D01*
X20426D01*
X20402Y7626D01*
X20376Y7620D01*
X20350Y7616D01*
X20324Y7614D01*
X20303Y7611D01*
X20293D01*
X20286Y7610D01*
X20278D01*
X20273D01*
X20271D01*
X20270D01*
X20245Y7611D01*
X20221Y7613D01*
X20198Y7615D01*
X20178Y7619D01*
X20158Y7624D01*
X20141Y7629D01*
X20126Y7634D01*
X20111Y7639D01*
X20098Y7644D01*
X20087Y7649D01*
X20078Y7654D01*
X20071Y7659D01*
X20065Y7663D01*
X20061Y7665D01*
X20058Y7668D01*
X20057D01*
X20043Y7679D01*
X20032Y7690D01*
X20022Y7703D01*
X20013Y7716D01*
X20006Y7729D01*
X20001Y7741D01*
X19991Y7765D01*
X19986Y7787D01*
X19985Y7796D01*
X19983Y7804D01*
X19982Y7811D01*
Y7820D01*
X19983Y7842D01*
X19987Y7862D01*
X19991Y7880D01*
X19996Y7894D01*
X20002Y7906D01*
X20006Y7915D01*
X20010Y7921D01*
X20011Y7922D01*
X20023Y7937D01*
X20037Y7951D01*
X20051Y7964D01*
X20066Y7974D01*
X20078Y7982D01*
X20088Y7990D01*
X20096Y7994D01*
X20097Y7995D01*
X20098D01*
X20112Y8002D01*
X20123Y8009D01*
X20133Y8016D01*
X20141Y8021D01*
X20147Y8026D01*
X20151Y8030D01*
X20153Y8031D01*
X20155Y8032D01*
X20160Y8040D01*
X20163Y8049D01*
X20168Y8067D01*
X20170Y8075D01*
X20171Y8081D01*
Y8087D01*
X20170Y8100D01*
X20167Y8111D01*
X20163Y8121D01*
X20158Y8130D01*
X20153Y8136D01*
X20150Y8141D01*
X20147Y8144D01*
X20146Y8145D01*
X20136Y8152D01*
X20126Y8159D01*
X20117Y8162D01*
X20107Y8166D01*
X20100Y8167D01*
X20093Y8169D01*
X20090D01*
X20088D01*
X20067Y8167D01*
X20047Y8162D01*
X20027Y8155D01*
X20010Y8147D01*
X19995Y8139D01*
X19982Y8132D01*
X19975Y8127D01*
X19973Y8125D01*
X19972D01*
X19950Y8107D01*
X19930Y8087D01*
X19912Y8067D01*
X19898Y8047D01*
X19886Y8029D01*
X19877Y8015D01*
X19873Y8009D01*
X19871Y8005D01*
X19870Y8002D01*
Y8001D01*
X19856Y7970D01*
X19846Y7939D01*
X19838Y7909D01*
X19833Y7880D01*
X19832Y7867D01*
X19831Y7855D01*
X19830Y7845D01*
X19828Y7836D01*
Y7819D01*
X19830Y7787D01*
X19833Y7759D01*
X19838Y7731D01*
X19843Y7708D01*
X19848Y7689D01*
X19851Y7680D01*
X19853Y7673D01*
X19856Y7668D01*
X19857Y7664D01*
X19858Y7661D01*
Y7660D01*
X19871Y7634D01*
X19885Y7609D01*
X19900Y7588D01*
X19913Y7568D01*
X19926Y7553D01*
X19936Y7541D01*
X19943Y7534D01*
X19945Y7533D01*
X19946Y7531D01*
X19968Y7513D01*
X19992Y7495D01*
X20015Y7480D01*
X20036Y7469D01*
X20055Y7460D01*
X20063Y7456D01*
X20070Y7453D01*
X20076Y7450D01*
X20080Y7449D01*
X20082Y7448D01*
X20083D01*
X20115Y7438D01*
X20146Y7431D01*
X20176Y7426D01*
X20203Y7423D01*
X20217Y7421D01*
X20228Y7420D01*
X20238D01*
X20247Y7419D01*
X20287D01*
X20310Y7420D01*
X20330Y7423D01*
X20347Y7425D01*
X20361Y7426D01*
X20372Y7429D01*
X20379Y7430D01*
X20381D01*
X20382D01*
X20402Y7435D01*
X20422Y7440D01*
X20439Y7446D01*
X20454Y7451D01*
X20468Y7458D01*
X20478Y7461D01*
X20484Y7464D01*
X20487Y7465D01*
X20504Y7474D01*
X20519Y7484D01*
X20533Y7493D01*
X20544Y7501D01*
X20553Y7508D01*
X20561Y7514D01*
X20564Y7518D01*
X20566Y7519D01*
X20584Y7534D01*
X20601Y7549D01*
X20614Y7564D01*
X20626Y7576D01*
X20634Y7588D01*
X20641Y7596D01*
X20644Y7601D01*
X20646Y7604D01*
X20656Y7621D01*
X20663Y7639D01*
X20669Y7655D01*
X20676Y7670D01*
X20679Y7684D01*
X20682Y7694D01*
X20684Y7700D01*
Y7703D01*
X20692Y7745D01*
X20694Y7765D01*
X20696Y7784D01*
Y7800D01*
X20697Y7812D01*
Y7451D01*
Y7824D01*
X20696Y7855D01*
X20693Y7885D01*
X20688Y7911D01*
X20683Y7934D01*
X20678Y7952D01*
X20676Y7960D01*
X20673Y7966D01*
X20672Y7971D01*
X20671Y7975D01*
X20669Y7976D01*
Y7977D01*
X20658Y8001D01*
X20646Y8024D01*
X20633Y8042D01*
X20622Y8057D01*
X20612Y8070D01*
X20603Y8080D01*
X20598Y8085D01*
X20596Y8087D01*
X20578Y8102D01*
X20562Y8116D01*
X20546Y8127D01*
X20532Y8136D01*
X20519Y8142D01*
X20509Y8147D01*
X20504Y8150D01*
X20502Y8151D01*
X20484Y8157D01*
X20468Y8162D01*
X20453Y8166D01*
X20441Y8169D01*
X20429Y8170D01*
X20422Y8171D01*
X20697D01*
D02*
G37*
G36*
X21725Y7541D02*
X21717D01*
X21710Y7539D01*
X21701Y7538D01*
X21681Y7532D01*
X21672Y7528D01*
X21665Y7524D01*
X21659Y7523D01*
X21657Y7522D01*
X21641Y7514D01*
X21624Y7507D01*
X21609Y7498D01*
X21594Y7491D01*
X21581Y7483D01*
X21571Y7477D01*
X21565Y7473D01*
X21562Y7472D01*
X21544Y7459D01*
X21525Y7447D01*
X21509Y7436D01*
X21494Y7424D01*
X21481Y7414D01*
X21471Y7407D01*
X21466Y7401D01*
X21464Y7399D01*
X21447Y7384D01*
X21435Y7369D01*
X21424Y7356D01*
X21416Y7343D01*
X21411Y7333D01*
X21407Y7326D01*
X21405Y7319D01*
Y7318D01*
X21397Y7353D01*
X21386Y7384D01*
X21375Y7411D01*
X21362Y7432D01*
X21350Y7449D01*
X21340Y7462D01*
X21336Y7466D01*
X21334Y7469D01*
X21331Y7472D01*
X21320Y7482D01*
X21308Y7491D01*
X21283Y7503D01*
X21256Y7513D01*
X21233Y7521D01*
X21210Y7524D01*
X21201Y7526D01*
X21194D01*
X21186Y7527D01*
X21181D01*
X21179D01*
X21178D01*
X21160Y7526D01*
X21144Y7524D01*
X21129Y7522D01*
X21116Y7519D01*
X21105Y7516D01*
X21096Y7513D01*
X21091Y7512D01*
X21089Y7511D01*
X21074Y7504D01*
X21059Y7497D01*
X21046Y7488D01*
X21036Y7481D01*
X21028Y7474D01*
X21020Y7468D01*
X21016Y7464D01*
X21015Y7463D01*
X21004Y7452D01*
X20994Y7439D01*
X20986Y7428D01*
X20980Y7418D01*
X20974Y7409D01*
X20970Y7402D01*
X20969Y7397D01*
X20968Y7396D01*
X20956Y7367D01*
X20953Y7354D01*
X20950Y7342D01*
X20948Y7331D01*
X20946Y7323D01*
X20945Y7318D01*
Y7316D01*
X20944Y7299D01*
X20943Y7283D01*
X20941Y7267D01*
X20940Y7252D01*
Y7541D01*
D01*
Y6837D01*
X21795D01*
Y6906D01*
Y6837D01*
X21684D01*
X21702Y6838D01*
X21719Y6841D01*
X21734Y6845D01*
X21745Y6850D01*
X21754Y6853D01*
X21761Y6857D01*
X21765Y6860D01*
X21766Y6861D01*
X21776Y6871D01*
X21782Y6882D01*
X21787Y6895D01*
X21791Y6906D01*
X21794Y6916D01*
X21795Y6923D01*
Y6906D01*
Y6923D01*
Y6931D01*
X21794Y6946D01*
X21791Y6960D01*
X21786Y6971D01*
X21781Y6981D01*
X21776Y6990D01*
X21771Y6995D01*
X21769Y6998D01*
X21767Y7000D01*
X21755Y7008D01*
X21742Y7015D01*
X21729Y7020D01*
X21715Y7022D01*
X21702Y7025D01*
X21692Y7026D01*
X21686D01*
X21684D01*
X21431D01*
Y7086D01*
X21432Y7100D01*
X21435Y7111D01*
X21436Y7121D01*
X21439Y7130D01*
X21441Y7135D01*
X21442Y7138D01*
Y7140D01*
X21447Y7150D01*
X21454Y7160D01*
X21460Y7168D01*
X21467Y7177D01*
X21474Y7183D01*
X21479Y7188D01*
X21482Y7192D01*
X21484Y7193D01*
X21495Y7203D01*
X21507Y7215D01*
X21520Y7225D01*
X21532Y7234D01*
X21542Y7242D01*
X21551Y7248D01*
X21556Y7253D01*
X21559Y7254D01*
X21685Y7322D01*
X21699Y7331D01*
X21711Y7338D01*
X21722Y7346D01*
X21730Y7351D01*
X21737Y7354D01*
X21742Y7358D01*
X21745Y7361D01*
X21746D01*
X21760Y7372D01*
X21771Y7383D01*
X21775Y7388D01*
X21779Y7392D01*
X21780Y7394D01*
X21781Y7396D01*
X21786Y7404D01*
X21789Y7413D01*
X21794Y7429D01*
Y7437D01*
X21795Y7443D01*
Y7448D01*
X21794Y7467D01*
X21791Y7476D01*
X21789Y7482D01*
X21787Y7488D01*
X21785Y7492D01*
X21784Y7494D01*
Y7496D01*
X21775Y7509D01*
X21766Y7519D01*
X21759Y7526D01*
X21757Y7528D01*
X21756D01*
X21742Y7536D01*
X21730Y7539D01*
X21725Y7541D01*
D02*
G37*
G36*
X20697Y7280D02*
X19941D01*
X19921Y7279D01*
X19905Y7276D01*
X19890Y7271D01*
X19878Y7266D01*
X19870Y7261D01*
X19862Y7256D01*
X19858Y7254D01*
X19857Y7253D01*
X19847Y7243D01*
X19841Y7231D01*
X19836Y7219D01*
X19832Y7209D01*
X19830Y7199D01*
X19828Y7191D01*
Y7091D01*
Y7184D01*
X19830Y7169D01*
X19833Y7156D01*
X19837Y7144D01*
X19842Y7135D01*
X19848Y7126D01*
X19852Y7121D01*
X19856Y7118D01*
X19857Y7116D01*
X19868Y7108D01*
X19882Y7101D01*
X19896Y7098D01*
X19910Y7095D01*
X19922Y7093D01*
X19932Y7091D01*
X20697D01*
X20586D01*
X20604Y7093D01*
X20622Y7095D01*
X20637Y7099D01*
X20648Y7104D01*
X20657Y7109D01*
X20664Y7113D01*
X20668Y7115D01*
X20669Y7116D01*
X20678Y7126D01*
X20686Y7138D01*
X20691Y7149D01*
X20693Y7160D01*
X20696Y7169D01*
X20697Y7178D01*
Y7191D01*
Y7184D01*
X20696Y7199D01*
X20693Y7213D01*
X20688Y7224D01*
X20683Y7234D01*
X20678Y7243D01*
X20673Y7248D01*
X20671Y7251D01*
X20669Y7253D01*
X20657Y7261D01*
X20644Y7269D01*
X20631Y7274D01*
X20617Y7276D01*
X20604Y7279D01*
X20594Y7280D01*
X20697D01*
D02*
G37*
G36*
Y6954D02*
X20100D01*
X20077Y6953D01*
X20057Y6951D01*
X20038Y6948D01*
X20022Y6944D01*
X20010Y6940D01*
X20000Y6938D01*
X19993Y6935D01*
X19991Y6934D01*
X19973Y6925D01*
X19957Y6916D01*
X19942Y6906D01*
X19930Y6898D01*
X19921Y6889D01*
X19913Y6881D01*
X19908Y6876D01*
X19907Y6875D01*
X19895Y6860D01*
X19885Y6845D01*
X19876Y6829D01*
X19870Y6815D01*
X19865Y6803D01*
X19861Y6793D01*
X19858Y6786D01*
Y6784D01*
X19853Y6763D01*
X19848Y6738D01*
X19846Y6713D01*
X19845Y6689D01*
X19843Y6668D01*
X19842Y6659D01*
Y6660D01*
Y6422D01*
X19843Y6402D01*
X19846Y6383D01*
X19851Y6368D01*
X19856Y6355D01*
X19861Y6347D01*
X19866Y6339D01*
X19868Y6335D01*
X19870Y6334D01*
X19881Y6325D01*
X19895Y6318D01*
X19908Y6313D01*
X19922Y6310D01*
X19936Y6308D01*
X19946Y6307D01*
X20587D01*
X20606Y6308D01*
X20622Y6310D01*
X20636Y6314D01*
X20647Y6319D01*
X20656Y6324D01*
X20663Y6328D01*
X20667Y6330D01*
X20668Y6332D01*
X20678Y6342D01*
X20684Y6353D01*
X20689Y6365D01*
X20693Y6375D01*
X20696Y6385D01*
X20697Y6393D01*
Y6400D01*
X20696Y6415D01*
X20692Y6428D01*
X20688Y6440D01*
X20682Y6449D01*
X20677Y6458D01*
X20673Y6463D01*
X20669Y6467D01*
X20668Y6468D01*
X20657Y6477D01*
X20643Y6484D01*
X20629Y6489D01*
X20616Y6492D01*
X20604Y6494D01*
X20594Y6495D01*
X20588D01*
X20586D01*
X20364D01*
Y6634D01*
X20363Y6663D01*
X20362Y6689D01*
X20358Y6714D01*
X20354Y6738D01*
X20348Y6759D01*
X20343Y6779D01*
X20337Y6796D01*
X20331Y6813D01*
X20324Y6826D01*
X20318Y6839D01*
X20312Y6849D01*
X20307Y6858D01*
X20303Y6864D01*
X20300Y6869D01*
X20298Y6871D01*
X20297Y6873D01*
X20283Y6886D01*
X20270Y6899D01*
X20253Y6910D01*
X20237Y6920D01*
X20221Y6928D01*
X20205Y6934D01*
X20173Y6944D01*
X20158Y6948D01*
X20145Y6950D01*
X20132Y6951D01*
X20121Y6953D01*
X20112Y6954D01*
X20697D01*
D02*
G37*
G36*
X21457Y6663D02*
X21039D01*
X21019Y6662D01*
X21003Y6660D01*
X20988Y6655D01*
X20976Y6650D01*
X20968Y6645D01*
X20960Y6640D01*
X20956Y6637D01*
X20955Y6636D01*
X20945Y6626D01*
X20939Y6615D01*
X20934Y6602D01*
X20930Y6592D01*
X20928Y6582D01*
X20926Y6575D01*
Y5952D01*
X21795D01*
D01*
X21432D01*
X21466Y5954D01*
X21497Y5956D01*
X21526Y5959D01*
X21550Y5962D01*
X21570Y5966D01*
X21577Y5967D01*
X21584Y5970D01*
X21589Y5971D01*
X21592D01*
X21595Y5972D01*
X21596D01*
X21620Y5981D01*
X21642Y5991D01*
X21661Y6002D01*
X21677Y6012D01*
X21691Y6022D01*
X21700Y6030D01*
X21706Y6035D01*
X21709Y6037D01*
X21725Y6055D01*
X21737Y6075D01*
X21750Y6094D01*
X21759Y6112D01*
X21766Y6127D01*
X21771Y6141D01*
X21772Y6146D01*
X21774Y6150D01*
X21775Y6151D01*
Y6152D01*
X21781Y6180D01*
X21786Y6209D01*
X21790Y6236D01*
X21792Y6262D01*
X21794Y6286D01*
Y6295D01*
X21795Y6303D01*
Y6320D01*
X21794Y6350D01*
X21792Y6376D01*
X21789Y6401D01*
X21785Y6421D01*
X21782Y6438D01*
X21779Y6451D01*
X21777Y6456D01*
Y6460D01*
X21776Y6461D01*
Y6462D01*
X21767Y6483D01*
X21759Y6503D01*
X21749Y6520D01*
X21739Y6533D01*
X21730Y6545D01*
X21722Y6553D01*
X21717Y6558D01*
X21716Y6560D01*
X21695Y6582D01*
X21675Y6600D01*
X21655Y6615D01*
X21636Y6626D01*
X21620Y6635D01*
X21607Y6640D01*
X21602Y6641D01*
X21599Y6642D01*
X21597Y6643D01*
X21596D01*
X21570Y6650D01*
X21542Y6655D01*
X21515Y6658D01*
X21490Y6661D01*
X21466Y6662D01*
X21457Y6663D01*
D02*
G37*
G36*
X21520Y5806D02*
X21512D01*
X21500Y5805D01*
X21489Y5802D01*
X21479Y5799D01*
X21470Y5794D01*
X21462Y5789D01*
X21457Y5785D01*
X21455Y5782D01*
X21454Y5781D01*
X21445Y5771D01*
X21439Y5761D01*
X21435Y5751D01*
X21431Y5742D01*
X21430Y5734D01*
X21429Y5727D01*
Y5721D01*
X21430Y5707D01*
X21432Y5695D01*
X21436Y5685D01*
X21440Y5677D01*
X21445Y5671D01*
X21449Y5667D01*
X21451Y5665D01*
X21452Y5664D01*
X21471Y5652D01*
X21489Y5642D01*
X21495Y5640D01*
X21501Y5637D01*
X21505Y5635D01*
X21506D01*
X21530Y5625D01*
X21551Y5614D01*
X21569Y5601D01*
X21584Y5590D01*
X21595Y5580D01*
X21602Y5571D01*
X21607Y5566D01*
X21609Y5564D01*
X21620Y5545D01*
X21627Y5526D01*
X21634Y5507D01*
X21637Y5490D01*
X21640Y5474D01*
X21641Y5461D01*
Y5450D01*
X21640Y5427D01*
X21636Y5406D01*
X21632Y5389D01*
X21626Y5372D01*
X21621Y5359D01*
X21617Y5350D01*
X21614Y5344D01*
X21612Y5341D01*
X21600Y5325D01*
X21586Y5311D01*
X21571Y5299D01*
X21557Y5289D01*
X21544Y5280D01*
X21534Y5275D01*
X21526Y5271D01*
X21525Y5270D01*
X21524D01*
X21500Y5261D01*
X21474Y5255D01*
X21447Y5251D01*
X21422Y5249D01*
X21401Y5246D01*
X21391D01*
X21384Y5245D01*
X21376D01*
X21371D01*
X21369D01*
X21367D01*
X21342Y5246D01*
X21319Y5248D01*
X21296Y5250D01*
X21276Y5254D01*
X21256Y5259D01*
X21239Y5264D01*
X21224Y5269D01*
X21209Y5274D01*
X21196Y5279D01*
X21185Y5284D01*
X21176Y5289D01*
X21169Y5294D01*
X21163Y5298D01*
X21159Y5300D01*
X21156Y5302D01*
X21155D01*
X21141Y5314D01*
X21130Y5325D01*
X21120Y5337D01*
X21111Y5351D01*
X21104Y5364D01*
X21099Y5376D01*
X21089Y5400D01*
X21084Y5422D01*
X21083Y5431D01*
X21081Y5439D01*
X21080Y5446D01*
Y5455D01*
X21081Y5477D01*
X21085Y5497D01*
X21089Y5515D01*
X21094Y5529D01*
X21100Y5541D01*
X21104Y5550D01*
X21108Y5556D01*
X21109Y5557D01*
X21121Y5572D01*
X21135Y5586D01*
X21149Y5599D01*
X21164Y5609D01*
X21176Y5617D01*
X21186Y5625D01*
X21194Y5629D01*
X21195Y5630D01*
X21196D01*
X21210Y5637D01*
X21221Y5644D01*
X21231Y5651D01*
X21239Y5656D01*
X21245Y5661D01*
X21249Y5665D01*
X21251Y5666D01*
X21253Y5667D01*
X21258Y5675D01*
X21261Y5684D01*
X21266Y5702D01*
X21268Y5710D01*
X21269Y5716D01*
Y5722D01*
X21268Y5735D01*
X21265Y5746D01*
X21261Y5756D01*
X21256Y5765D01*
X21251Y5771D01*
X21248Y5776D01*
X21245Y5779D01*
X21244Y5780D01*
X21234Y5787D01*
X21224Y5794D01*
X21215Y5797D01*
X21205Y5801D01*
X21198Y5802D01*
X21191Y5804D01*
X21188D01*
X21186D01*
X21165Y5802D01*
X21145Y5797D01*
X21125Y5790D01*
X21108Y5782D01*
X21093Y5774D01*
X21080Y5767D01*
X21073Y5762D01*
X21071Y5760D01*
X21070D01*
X21048Y5742D01*
X21028Y5722D01*
X21010Y5702D01*
X20996Y5682D01*
X20984Y5664D01*
X20975Y5650D01*
X20971Y5644D01*
X20969Y5640D01*
X20968Y5637D01*
Y5636D01*
X20954Y5605D01*
X20944Y5574D01*
X20936Y5544D01*
X20931Y5515D01*
X20930Y5502D01*
X20929Y5490D01*
X20928Y5480D01*
X20926Y5471D01*
Y5806D01*
D01*
Y5054D01*
X21795D01*
D01*
X21385D01*
X21407Y5055D01*
X21427Y5058D01*
X21445Y5060D01*
X21459Y5061D01*
X21470Y5064D01*
X21477Y5065D01*
X21479D01*
X21480D01*
X21500Y5070D01*
X21520Y5075D01*
X21537Y5081D01*
X21552Y5086D01*
X21566Y5093D01*
X21576Y5096D01*
X21582Y5099D01*
X21585Y5100D01*
X21602Y5109D01*
X21617Y5119D01*
X21631Y5128D01*
X21642Y5136D01*
X21651Y5143D01*
X21659Y5149D01*
X21662Y5153D01*
X21664Y5154D01*
X21682Y5169D01*
X21699Y5184D01*
X21712Y5199D01*
X21724Y5211D01*
X21732Y5223D01*
X21739Y5231D01*
X21742Y5236D01*
X21744Y5239D01*
X21754Y5256D01*
X21761Y5274D01*
X21767Y5290D01*
X21774Y5305D01*
X21777Y5319D01*
X21780Y5329D01*
X21782Y5335D01*
Y5337D01*
X21790Y5380D01*
X21792Y5400D01*
X21794Y5419D01*
Y5435D01*
X21795Y5447D01*
Y5459D01*
X21794Y5490D01*
X21791Y5520D01*
X21786Y5546D01*
X21781Y5569D01*
X21776Y5587D01*
X21774Y5595D01*
X21771Y5601D01*
X21770Y5606D01*
X21769Y5610D01*
X21767Y5611D01*
Y5612D01*
X21756Y5636D01*
X21744Y5659D01*
X21731Y5677D01*
X21720Y5692D01*
X21710Y5705D01*
X21701Y5715D01*
X21696Y5720D01*
X21694Y5722D01*
X21676Y5737D01*
X21660Y5751D01*
X21644Y5762D01*
X21630Y5771D01*
X21617Y5777D01*
X21607Y5782D01*
X21602Y5785D01*
X21600Y5786D01*
X21582Y5792D01*
X21566Y5797D01*
X21551Y5801D01*
X21539Y5804D01*
X21527Y5805D01*
X21520Y5806D01*
D02*
G37*
%LPD*%
G36*
X21392Y15074D02*
X21424Y15070D01*
X21451Y15065D01*
X21474Y15060D01*
X21492Y15054D01*
X21500Y15051D01*
X21506Y15049D01*
X21511Y15046D01*
X21515Y15045D01*
X21516Y15044D01*
X21517D01*
X21540Y15031D01*
X21559Y15019D01*
X21575Y15005D01*
X21589Y14993D01*
X21599Y14980D01*
X21605Y14971D01*
X21610Y14965D01*
X21611Y14963D01*
X21621Y14944D01*
X21629Y14924D01*
X21634Y14906D01*
X21637Y14889D01*
X21640Y14874D01*
X21641Y14863D01*
Y14853D01*
X21640Y14835D01*
X21639Y14819D01*
X21636Y14805D01*
X21632Y14791D01*
X21630Y14781D01*
X21627Y14773D01*
X21626Y14768D01*
X21625Y14766D01*
X21617Y14753D01*
X21609Y14739D01*
X21601Y14728D01*
X21592Y14716D01*
X21585Y14709D01*
X21579Y14701D01*
X21574Y14698D01*
X21572Y14696D01*
X21559Y14686D01*
X21544Y14676D01*
X21529Y14668D01*
X21514Y14661D01*
X21501Y14656D01*
X21491Y14653D01*
X21485Y14650D01*
X21482Y14649D01*
X21461Y14644D01*
X21440Y14640D01*
X21419Y14636D01*
X21400Y14635D01*
X21384Y14634D01*
X21370Y14633D01*
X21365D01*
X21361D01*
X21360D01*
X21359D01*
X21334Y14634D01*
X21311Y14635D01*
X21291Y14638D01*
X21273Y14641D01*
X21258Y14644D01*
X21248Y14646D01*
X21240Y14648D01*
X21238Y14649D01*
X21219Y14656D01*
X21201Y14664D01*
X21186Y14671D01*
X21174Y14679D01*
X21164Y14685D01*
X21156Y14690D01*
X21151Y14694D01*
X21150Y14695D01*
X21138Y14706D01*
X21128Y14718D01*
X21119Y14729D01*
X21111Y14740D01*
X21106Y14749D01*
X21103Y14756D01*
X21100Y14761D01*
X21099Y14763D01*
X21093Y14778D01*
X21088Y14793D01*
X21085Y14808D01*
X21083Y14821D01*
X21081Y14833D01*
X21080Y14843D01*
Y14850D01*
X21081Y14874D01*
X21085Y14896D01*
X21090Y14916D01*
X21096Y14934D01*
X21103Y14948D01*
X21108Y14959D01*
X21111Y14965D01*
X21113Y14968D01*
X21126Y14986D01*
X21141Y15001D01*
X21158Y15015D01*
X21173Y15026D01*
X21186Y15035D01*
X21199Y15041D01*
X21206Y15045D01*
X21208Y15046D01*
X21209D01*
X21233Y15056D01*
X21259Y15062D01*
X21284Y15068D01*
X21308Y15071D01*
X21327Y15074D01*
X21336D01*
X21344Y15075D01*
X21350D01*
X21355D01*
X21357D01*
X21359D01*
X21392Y15074D01*
D02*
G37*
G36*
X20928Y14815D02*
X20931Y14783D01*
X20936Y14754D01*
X20941Y14728D01*
X20945Y14716D01*
X20948Y14706D01*
X20950Y14699D01*
X20953Y14691D01*
X20955Y14685D01*
X20956Y14681D01*
X20958Y14679D01*
Y14678D01*
X20970Y14650D01*
X20984Y14626D01*
X20999Y14604D01*
X21013Y14585D01*
X21025Y14570D01*
X21035Y14559D01*
X21043Y14551D01*
X21044Y14550D01*
X21045Y14549D01*
X21068Y14530D01*
X21090Y14514D01*
X21114Y14500D01*
X21135Y14489D01*
X21154Y14480D01*
X21163Y14476D01*
X21169Y14474D01*
X21175Y14471D01*
X21179Y14470D01*
X21181Y14469D01*
X21183D01*
X21213Y14460D01*
X21244Y14453D01*
X21274Y14448D01*
X21300Y14445D01*
X21312Y14444D01*
X21324Y14443D01*
X21334D01*
X21342Y14441D01*
X20926D01*
Y14850D01*
X20928Y14815D01*
D02*
G37*
G36*
Y14199D02*
X20930Y14186D01*
X20935Y14175D01*
X20940Y14166D01*
X20945Y14159D01*
X20950Y14154D01*
X20953Y14150D01*
X20954Y14149D01*
X20965Y14141D01*
X20978Y14136D01*
X20991Y14131D01*
X21004Y14129D01*
X21015Y14128D01*
X21024Y14126D01*
X21030D01*
X21033D01*
X21507D01*
X21034Y13830D01*
X21018Y13820D01*
X21004Y13812D01*
X20999Y13808D01*
X20995Y13805D01*
X20993Y13803D01*
X20991D01*
X20978Y13794D01*
X20966Y13785D01*
X20960Y13779D01*
X20958Y13778D01*
Y13777D01*
X20949Y13765D01*
X20941Y13755D01*
X20936Y13748D01*
X20935Y13745D01*
Y13744D01*
X20930Y13730D01*
X20928Y13717D01*
X20926Y13710D01*
Y14213D01*
X20928Y14199D01*
D02*
G37*
G36*
Y13690D02*
X20929Y13679D01*
X20933Y13669D01*
X20935Y13660D01*
X20939Y13653D01*
X20943Y13648D01*
X20944Y13644D01*
X20945Y13643D01*
X20953Y13633D01*
X20960Y13625D01*
X20968Y13618D01*
X20976Y13613D01*
X20983Y13608D01*
X20989Y13605D01*
X20993Y13604D01*
X20994Y13603D01*
X21003Y13600D01*
X21014Y13598D01*
X21035Y13595D01*
X21044Y13594D01*
X20926D01*
Y13702D01*
X20928Y13690D01*
D02*
G37*
G36*
X20361Y13515D02*
X20058Y13732D01*
X20361D01*
Y13515D01*
D02*
G37*
G36*
X20086Y13090D02*
X20098Y13087D01*
X20103Y13086D01*
X20107Y13085D01*
X20110Y13084D01*
X20111D01*
X20123Y13077D01*
X20133Y13070D01*
X20140Y13065D01*
X20141Y13064D01*
X20142Y13062D01*
X20151Y13051D01*
X20158Y13040D01*
X20160Y13036D01*
X20162Y13032D01*
X20163Y13030D01*
Y13029D01*
X20167Y13014D01*
X20168Y13000D01*
X20170Y12995D01*
Y12986D01*
X20168Y12969D01*
X20166Y12954D01*
X20161Y12941D01*
X20156Y12930D01*
X20151Y12921D01*
X20146Y12914D01*
X20143Y12910D01*
X20142Y12909D01*
X20131Y12899D01*
X20120Y12892D01*
X20107Y12887D01*
X20096Y12884D01*
X20086Y12881D01*
X20078Y12880D01*
X20073D01*
X20071D01*
X20055Y12881D01*
X20040Y12885D01*
X20027Y12889D01*
X20016Y12895D01*
X20007Y12900D01*
X20001Y12904D01*
X19997Y12907D01*
X19996Y12909D01*
X19986Y12920D01*
X19978Y12932D01*
X19973Y12945D01*
X19970Y12957D01*
X19967Y12969D01*
X19966Y12977D01*
Y12996D01*
X19968Y13006D01*
X19970Y13016D01*
X19972Y13024D01*
X19975Y13031D01*
X19977Y13036D01*
X19978Y13039D01*
X19980Y13040D01*
X19991Y13056D01*
X20003Y13069D01*
X20008Y13072D01*
X20013Y13075D01*
X20016Y13077D01*
X20017D01*
X20026Y13082D01*
X20036Y13085D01*
X20053Y13090D01*
X20060D01*
X20066Y13091D01*
X20070D01*
X20071D01*
X20086Y13090D01*
D02*
G37*
G36*
X20446Y13112D02*
X20458Y13111D01*
X20471Y13109D01*
X20481Y13105D01*
X20489Y13101D01*
X20497Y13099D01*
X20501Y13097D01*
X20502Y13096D01*
X20513Y13090D01*
X20522Y13082D01*
X20531Y13075D01*
X20537Y13067D01*
X20543Y13061D01*
X20547Y13056D01*
X20548Y13052D01*
X20549Y13051D01*
X20554Y13040D01*
X20558Y13029D01*
X20562Y13019D01*
X20563Y13009D01*
X20564Y13000D01*
X20566Y12994D01*
Y12987D01*
X20564Y12974D01*
X20563Y12962D01*
X20561Y12951D01*
X20558Y12941D01*
X20556Y12934D01*
X20553Y12927D01*
X20551Y12924D01*
Y12922D01*
X20544Y12912D01*
X20537Y12904D01*
X20529Y12896D01*
X20522Y12890D01*
X20514Y12885D01*
X20509Y12881D01*
X20506Y12880D01*
X20504Y12879D01*
X20492Y12874D01*
X20479Y12870D01*
X20468Y12866D01*
X20457Y12865D01*
X20447Y12864D01*
X20439Y12862D01*
X20433D01*
X20432D01*
X20409Y12864D01*
X20389Y12867D01*
X20373Y12874D01*
X20359Y12880D01*
X20348Y12886D01*
X20341Y12892D01*
X20336Y12896D01*
X20334Y12897D01*
X20323Y12911D01*
X20315Y12926D01*
X20308Y12940D01*
X20303Y12954D01*
X20301Y12966D01*
X20300Y12975D01*
Y12984D01*
X20301Y12997D01*
X20302Y13010D01*
X20305Y13021D01*
X20307Y13031D01*
X20311Y13039D01*
X20313Y13045D01*
X20315Y13049D01*
X20316Y13050D01*
X20322Y13061D01*
X20330Y13070D01*
X20337Y13077D01*
X20344Y13085D01*
X20352Y13090D01*
X20357Y13094D01*
X20361Y13095D01*
X20362Y13096D01*
X20373Y13102D01*
X20384Y13106D01*
X20396Y13110D01*
X20407Y13111D01*
X20417Y13112D01*
X20424Y13114D01*
X20429D01*
X20431D01*
X20446Y13112D01*
D02*
G37*
G36*
X20696Y12686D02*
X20437D01*
X20464Y12687D01*
X20489Y12691D01*
X20512Y12697D01*
X20532Y12704D01*
X20548Y12710D01*
X20561Y12716D01*
X20564Y12717D01*
X20568Y12720D01*
X20569Y12721D01*
X20571D01*
X20592Y12736D01*
X20609Y12752D01*
X20626Y12769D01*
X20639Y12786D01*
X20649Y12800D01*
X20657Y12812D01*
X20659Y12817D01*
X20662Y12821D01*
X20663Y12822D01*
Y12824D01*
X20674Y12850D01*
X20682Y12879D01*
X20688Y12906D01*
X20692Y12931D01*
X20694Y12954D01*
Y12964D01*
X20696Y12971D01*
Y12686D01*
D02*
G37*
G36*
X21439Y12972D02*
X21124Y13081D01*
X21439Y13192D01*
Y12972D01*
D02*
G37*
G36*
X20286Y12395D02*
X20310Y12394D01*
X20331Y12391D01*
X20348Y12389D01*
X20363Y12385D01*
X20374Y12383D01*
X20381Y12381D01*
X20383Y12380D01*
X20402Y12374D01*
X20418Y12366D01*
X20433Y12360D01*
X20446Y12353D01*
X20456Y12346D01*
X20463Y12343D01*
X20468Y12339D01*
X20469Y12338D01*
X20454Y12318D01*
X20442Y12298D01*
X20429Y12280D01*
X20421Y12264D01*
X20412Y12248D01*
X20406Y12234D01*
X20399Y12221D01*
X20394Y12210D01*
X20392Y12201D01*
X20389Y12193D01*
X20387Y12185D01*
X20386Y12179D01*
X20384Y12175D01*
Y12169D01*
X20386Y12161D01*
X20387Y12154D01*
X20392Y12141D01*
X20396Y12136D01*
X20398Y12133D01*
X20399Y12131D01*
X20401Y12130D01*
X20407Y12124D01*
X20413Y12120D01*
X20426Y12115D01*
X20431Y12114D01*
X20434Y12113D01*
X20437D01*
X20438D01*
X20447Y12114D01*
X20454Y12115D01*
X20467Y12121D01*
X20474Y12128D01*
X20476Y12129D01*
X20477Y12130D01*
X20482Y12138D01*
X20487Y12146D01*
X20498Y12165D01*
X20502Y12173D01*
X20506Y12180D01*
X20508Y12185D01*
X20509Y12186D01*
X20516Y12200D01*
X20521Y12213D01*
X20526Y12224D01*
X20529Y12233D01*
X20532Y12239D01*
X20533Y12244D01*
X20534Y12246D01*
Y12248D01*
X20539Y12221D01*
X20541Y12209D01*
X20542Y12198D01*
X20543Y12188D01*
Y12174D01*
X20542Y12156D01*
X20539Y12140D01*
X20537Y12124D01*
X20532Y12109D01*
X20521Y12083D01*
X20507Y12060D01*
X20493Y12041D01*
X20487Y12034D01*
X20482Y12028D01*
X20477Y12023D01*
X20473Y12019D01*
X20472Y12018D01*
X20471Y12016D01*
X20457Y12005D01*
X20441Y11996D01*
X20424Y11988D01*
X20407Y11980D01*
X20372Y11969D01*
X20338Y11961D01*
X20323Y11959D01*
X20308Y11958D01*
X20295Y11956D01*
X20283Y11955D01*
X20275Y11954D01*
X20267D01*
X20262D01*
X20261D01*
X20236Y11955D01*
X20213Y11956D01*
X20193Y11959D01*
X20175Y11963D01*
X20160Y11965D01*
X20150Y11968D01*
X20142Y11969D01*
X20140Y11970D01*
X20121Y11978D01*
X20103Y11985D01*
X20088Y11993D01*
X20076Y12000D01*
X20066Y12006D01*
X20058Y12011D01*
X20053Y12015D01*
X20052Y12016D01*
X20040Y12028D01*
X20030Y12039D01*
X20021Y12050D01*
X20013Y12061D01*
X20008Y12070D01*
X20005Y12078D01*
X20002Y12083D01*
X20001Y12084D01*
X19995Y12099D01*
X19990Y12114D01*
X19987Y12129D01*
X19985Y12143D01*
X19983Y12154D01*
X19982Y12164D01*
Y12171D01*
X19983Y12195D01*
X19987Y12218D01*
X19992Y12238D01*
X19998Y12255D01*
X20005Y12269D01*
X20010Y12280D01*
X20013Y12286D01*
X20015Y12289D01*
X20028Y12308D01*
X20043Y12323D01*
X20060Y12336D01*
X20075Y12348D01*
X20088Y12356D01*
X20101Y12363D01*
X20108Y12366D01*
X20110Y12368D01*
X20111D01*
X20135Y12378D01*
X20161Y12384D01*
X20186Y12389D01*
X20210Y12393D01*
X20230Y12395D01*
X20238D01*
X20246Y12396D01*
X20252D01*
X20257D01*
X20260D01*
X20261D01*
X20286Y12395D01*
D02*
G37*
G36*
X20758Y11763D02*
X20261D01*
X20296Y11764D01*
X20328Y11766D01*
X20358Y11771D01*
X20384Y11776D01*
X20396Y11778D01*
X20406Y11780D01*
X20416Y11783D01*
X20423Y11785D01*
X20428Y11786D01*
X20433Y11788D01*
X20436Y11789D01*
X20437D01*
X20466Y11800D01*
X20492Y11813D01*
X20516Y11825D01*
X20536Y11838D01*
X20553Y11850D01*
X20566Y11859D01*
X20569Y11863D01*
X20573Y11865D01*
X20574Y11868D01*
X20576D01*
X20597Y11889D01*
X20614Y11911D01*
X20629Y11933D01*
X20643Y11954D01*
X20653Y11971D01*
X20659Y11986D01*
X20662Y11991D01*
X20664Y11995D01*
X20666Y11998D01*
Y11999D01*
X20676Y12029D01*
X20683Y12059D01*
X20689Y12089D01*
X20693Y12116D01*
X20694Y12129D01*
X20696Y12140D01*
Y12150D01*
X20697Y12159D01*
Y12175D01*
X20696Y12219D01*
X20691Y12258D01*
X20688Y12275D01*
X20684Y12291D01*
X20681Y12306D01*
X20677Y12319D01*
X20673Y12331D01*
X20669Y12343D01*
X20666Y12351D01*
X20663Y12359D01*
X20661Y12365D01*
X20658Y12369D01*
X20657Y12371D01*
Y12373D01*
X20677Y12400D01*
X20686Y12413D01*
X20693Y12424D01*
X20699Y12434D01*
X20704Y12441D01*
X20707Y12446D01*
X20708Y12448D01*
X20717Y12461D01*
X20724Y12474D01*
X20729Y12485D01*
X20736Y12494D01*
X20739Y12501D01*
X20742Y12508D01*
X20744Y12511D01*
Y12513D01*
X20749Y12523D01*
X20752Y12533D01*
X20754Y12541D01*
X20757Y12549D01*
Y12554D01*
X20758Y12559D01*
Y11763D01*
D02*
G37*
G36*
X20928Y12472D02*
X20930Y12459D01*
X20935Y12448D01*
X20940Y12439D01*
X20945Y12432D01*
X20950Y12427D01*
X20953Y12423D01*
X20954Y12422D01*
X20965Y12414D01*
X20978Y12409D01*
X20991Y12404D01*
X21004Y12402D01*
X21015Y12401D01*
X21024Y12399D01*
X21030D01*
X21033D01*
X21507D01*
X21034Y12103D01*
X21018Y12093D01*
X21004Y12085D01*
X20999Y12081D01*
X20995Y12078D01*
X20993Y12076D01*
X20991D01*
X20978Y12067D01*
X20966Y12058D01*
X20960Y12052D01*
X20958Y12051D01*
Y12050D01*
X20949Y12038D01*
X20941Y12028D01*
X20936Y12021D01*
X20935Y12018D01*
Y12017D01*
X20930Y12003D01*
X20928Y11990D01*
X20926Y11983D01*
Y12486D01*
X20928Y12472D01*
D02*
G37*
G36*
Y11963D02*
X20929Y11952D01*
X20933Y11942D01*
X20935Y11933D01*
X20939Y11926D01*
X20943Y11921D01*
X20944Y11917D01*
X20945Y11916D01*
X20953Y11906D01*
X20960Y11898D01*
X20968Y11891D01*
X20976Y11886D01*
X20983Y11881D01*
X20989Y11878D01*
X20993Y11877D01*
X20994Y11876D01*
X21003Y11873D01*
X21014Y11871D01*
X21035Y11868D01*
X21044Y11867D01*
X20926D01*
Y11975D01*
X20928Y11963D01*
D02*
G37*
G36*
Y11365D02*
X20930Y11352D01*
X20933Y11347D01*
X20934Y11343D01*
X20935Y11342D01*
Y11341D01*
X20943Y11330D01*
X20950Y11321D01*
X20956Y11315D01*
X20958Y11312D01*
X20959D01*
X20969Y11305D01*
X20979Y11297D01*
X20986Y11292D01*
X20988Y11291D01*
X20989D01*
X21001Y11283D01*
X21015Y11276D01*
X21020Y11272D01*
X21025Y11270D01*
X21028Y11268D01*
X21029Y11267D01*
X21271Y11122D01*
X21029Y10980D01*
X21009Y10967D01*
X20991Y10956D01*
X20978Y10947D01*
X20966Y10940D01*
X20959Y10934D01*
X20953Y10929D01*
X20950Y10926D01*
X20949Y10925D01*
X20941Y10916D01*
X20936Y10907D01*
X20931Y10897D01*
X20929Y10887D01*
X20928Y10879D01*
X20926Y10871D01*
Y11380D01*
X20928Y11365D01*
D02*
G37*
G36*
Y10852D02*
X20930Y10840D01*
X20934Y10829D01*
X20939Y10820D01*
X20944Y10812D01*
X20948Y10807D01*
X20950Y10804D01*
X20951Y10802D01*
X20960Y10794D01*
X20970Y10787D01*
X20980Y10784D01*
X20989Y10781D01*
X20996Y10779D01*
X21003Y10777D01*
X20926D01*
Y10865D01*
X20928Y10852D01*
D02*
G37*
G36*
X20941Y10113D02*
X20944Y10099D01*
X20948Y10086D01*
X20951Y10078D01*
X20955Y10069D01*
X20959Y10064D01*
X20961Y10060D01*
X20963Y10059D01*
X20971Y10050D01*
X20980Y10044D01*
X20990Y10040D01*
X21000Y10038D01*
X21009Y10035D01*
X21015Y10034D01*
X20940D01*
Y10129D01*
X20941Y10113D01*
D02*
G37*
G36*
X20928Y9831D02*
X20931Y9819D01*
X20935Y9806D01*
X20940Y9798D01*
X20946Y9789D01*
X20950Y9784D01*
X20954Y9780D01*
X20955Y9779D01*
X20966Y9770D01*
X20980Y9764D01*
X20994Y9760D01*
X21008Y9758D01*
X21020Y9755D01*
X21030Y9754D01*
X20926D01*
Y9846D01*
X20928Y9831D01*
D02*
G37*
G36*
X20697Y9702D02*
X20586D01*
X20604Y9703D01*
X20622Y9706D01*
X20637Y9710D01*
X20648Y9714D01*
X20657Y9719D01*
X20664Y9723D01*
X20668Y9726D01*
X20669Y9727D01*
X20678Y9737D01*
X20686Y9748D01*
X20691Y9761D01*
X20693Y9771D01*
X20696Y9781D01*
X20697Y9788D01*
Y9702D01*
D02*
G37*
G36*
X20086Y9375D02*
X20098Y9372D01*
X20103Y9371D01*
X20107Y9370D01*
X20110Y9368D01*
X20111D01*
X20123Y9362D01*
X20133Y9355D01*
X20140Y9350D01*
X20141Y9348D01*
X20142Y9347D01*
X20151Y9336D01*
X20158Y9325D01*
X20160Y9321D01*
X20162Y9317D01*
X20163Y9315D01*
Y9313D01*
X20167Y9298D01*
X20168Y9285D01*
X20170Y9280D01*
Y9271D01*
X20168Y9253D01*
X20166Y9238D01*
X20161Y9226D01*
X20156Y9215D01*
X20151Y9206D01*
X20146Y9198D01*
X20143Y9195D01*
X20142Y9193D01*
X20131Y9183D01*
X20120Y9177D01*
X20107Y9172D01*
X20096Y9168D01*
X20086Y9166D01*
X20078Y9165D01*
X20073D01*
X20071D01*
X20055Y9166D01*
X20040Y9170D01*
X20027Y9173D01*
X20016Y9180D01*
X20007Y9185D01*
X20001Y9188D01*
X19997Y9192D01*
X19996Y9193D01*
X19986Y9205D01*
X19978Y9217D01*
X19973Y9230D01*
X19970Y9242D01*
X19967Y9253D01*
X19966Y9262D01*
Y9281D01*
X19968Y9291D01*
X19970Y9301D01*
X19972Y9308D01*
X19975Y9316D01*
X19977Y9321D01*
X19978Y9323D01*
X19980Y9325D01*
X19991Y9341D01*
X20003Y9353D01*
X20008Y9357D01*
X20013Y9360D01*
X20016Y9362D01*
X20017D01*
X20026Y9367D01*
X20036Y9370D01*
X20053Y9375D01*
X20060D01*
X20066Y9376D01*
X20070D01*
X20071D01*
X20086Y9375D01*
D02*
G37*
G36*
X20446Y9397D02*
X20458Y9396D01*
X20471Y9393D01*
X20481Y9390D01*
X20489Y9386D01*
X20497Y9383D01*
X20501Y9382D01*
X20502Y9381D01*
X20513Y9375D01*
X20522Y9367D01*
X20531Y9360D01*
X20537Y9352D01*
X20543Y9346D01*
X20547Y9341D01*
X20548Y9337D01*
X20549Y9336D01*
X20554Y9325D01*
X20558Y9313D01*
X20562Y9303D01*
X20563Y9293D01*
X20564Y9285D01*
X20566Y9278D01*
Y9272D01*
X20564Y9258D01*
X20563Y9247D01*
X20561Y9236D01*
X20558Y9226D01*
X20556Y9218D01*
X20553Y9212D01*
X20551Y9208D01*
Y9207D01*
X20544Y9197D01*
X20537Y9188D01*
X20529Y9181D01*
X20522Y9175D01*
X20514Y9170D01*
X20509Y9166D01*
X20506Y9165D01*
X20504Y9163D01*
X20492Y9158D01*
X20479Y9155D01*
X20468Y9151D01*
X20457Y9150D01*
X20447Y9148D01*
X20439Y9147D01*
X20433D01*
X20432D01*
X20409Y9148D01*
X20389Y9152D01*
X20373Y9158D01*
X20359Y9165D01*
X20348Y9171D01*
X20341Y9177D01*
X20336Y9181D01*
X20334Y9182D01*
X20323Y9196D01*
X20315Y9211D01*
X20308Y9225D01*
X20303Y9238D01*
X20301Y9251D01*
X20300Y9260D01*
Y9268D01*
X20301Y9282D01*
X20302Y9295D01*
X20305Y9306D01*
X20307Y9316D01*
X20311Y9323D01*
X20313Y9330D01*
X20315Y9333D01*
X20316Y9335D01*
X20322Y9346D01*
X20330Y9355D01*
X20337Y9362D01*
X20344Y9370D01*
X20352Y9375D01*
X20357Y9378D01*
X20361Y9380D01*
X20362Y9381D01*
X20373Y9387D01*
X20384Y9391D01*
X20396Y9395D01*
X20407Y9396D01*
X20417Y9397D01*
X20424Y9398D01*
X20429D01*
X20431D01*
X20446Y9397D01*
D02*
G37*
G36*
X21559Y9425D02*
X21574Y9420D01*
X21587Y9413D01*
X21599Y9405D01*
X21607Y9398D01*
X21614Y9390D01*
X21619Y9385D01*
X21620Y9384D01*
X21630Y9366D01*
X21637Y9349D01*
X21644Y9330D01*
X21647Y9311D01*
X21650Y9296D01*
X21651Y9283D01*
Y9271D01*
X21650Y9253D01*
X21649Y9238D01*
X21646Y9223D01*
X21644Y9212D01*
X21641Y9203D01*
X21639Y9195D01*
X21636Y9191D01*
Y9190D01*
X21630Y9180D01*
X21624Y9170D01*
X21617Y9162D01*
X21610Y9155D01*
X21605Y9150D01*
X21600Y9147D01*
X21597Y9144D01*
X21596Y9143D01*
X21576Y9132D01*
X21555Y9122D01*
X21547Y9118D01*
X21540Y9114D01*
X21535Y9113D01*
X21534Y9112D01*
X21521Y9107D01*
X21510Y9100D01*
X21501Y9094D01*
X21494Y9089D01*
X21487Y9084D01*
X21484Y9080D01*
X21481Y9078D01*
X21480Y9077D01*
X21474Y9069D01*
X21469Y9060D01*
X21465Y9052D01*
X21462Y9043D01*
X21461Y9035D01*
X21460Y9029D01*
Y9024D01*
X21461Y9012D01*
X21464Y8999D01*
X21467Y8989D01*
X21472Y8980D01*
X21477Y8973D01*
X21481Y8968D01*
X21484Y8964D01*
X21485Y8963D01*
X21494Y8955D01*
X21504Y8949D01*
X21514Y8945D01*
X21524Y8942D01*
X21531Y8940D01*
X21537Y8939D01*
X20926D01*
Y9274D01*
X20928Y9239D01*
X20931Y9207D01*
X20936Y9178D01*
X20941Y9154D01*
X20944Y9143D01*
X20946Y9133D01*
X20949Y9125D01*
X20951Y9118D01*
X20954Y9113D01*
X20955Y9109D01*
X20956Y9107D01*
Y9105D01*
X20968Y9080D01*
X20981Y9058D01*
X20996Y9038D01*
X21010Y9023D01*
X21023Y9010D01*
X21033Y9002D01*
X21039Y8995D01*
X21040Y8994D01*
X21041D01*
X21063Y8982D01*
X21084Y8972D01*
X21105Y8965D01*
X21125Y8960D01*
X21143Y8958D01*
X21155Y8957D01*
X21160Y8955D01*
X21164D01*
X21166D01*
X21168D01*
X21194Y8957D01*
X21218Y8962D01*
X21240Y8967D01*
X21258Y8974D01*
X21273Y8980D01*
X21284Y8987D01*
X21290Y8990D01*
X21293Y8992D01*
X21310Y9007D01*
X21326Y9023D01*
X21339Y9039D01*
X21350Y9055D01*
X21360Y9069D01*
X21366Y9080D01*
X21370Y9088D01*
X21371Y9089D01*
Y9090D01*
X21381Y9114D01*
X21391Y9139D01*
X21399Y9165D01*
X21406Y9188D01*
X21412Y9209D01*
X21415Y9218D01*
X21416Y9225D01*
X21417Y9231D01*
X21419Y9236D01*
X21420Y9239D01*
Y9240D01*
X21425Y9264D01*
X21431Y9284D01*
X21436Y9303D01*
X21440Y9316D01*
X21444Y9329D01*
X21446Y9338D01*
X21447Y9343D01*
X21449Y9344D01*
X21454Y9358D01*
X21460Y9369D01*
X21465Y9379D01*
X21471Y9388D01*
X21476Y9395D01*
X21480Y9400D01*
X21482Y9403D01*
X21484Y9404D01*
X21492Y9411D01*
X21502Y9416D01*
X21512Y9421D01*
X21521Y9424D01*
X21530Y9425D01*
X21536Y9426D01*
X21541D01*
X21542D01*
X21559Y9425D01*
D02*
G37*
G36*
X21392Y8638D02*
X21424Y8634D01*
X21451Y8629D01*
X21474Y8624D01*
X21492Y8618D01*
X21500Y8615D01*
X21506Y8613D01*
X21511Y8610D01*
X21515Y8609D01*
X21516Y8608D01*
X21517D01*
X21540Y8595D01*
X21559Y8583D01*
X21575Y8569D01*
X21589Y8557D01*
X21599Y8544D01*
X21605Y8535D01*
X21610Y8529D01*
X21611Y8527D01*
X21621Y8508D01*
X21629Y8488D01*
X21634Y8470D01*
X21637Y8453D01*
X21640Y8438D01*
X21641Y8427D01*
Y8417D01*
X21640Y8399D01*
X21639Y8383D01*
X21636Y8369D01*
X21632Y8355D01*
X21630Y8345D01*
X21627Y8337D01*
X21626Y8332D01*
X21625Y8330D01*
X21617Y8317D01*
X21609Y8303D01*
X21601Y8292D01*
X21592Y8280D01*
X21585Y8273D01*
X21579Y8265D01*
X21574Y8262D01*
X21572Y8260D01*
X21559Y8250D01*
X21544Y8241D01*
X21529Y8232D01*
X21514Y8226D01*
X21501Y8220D01*
X21491Y8217D01*
X21485Y8214D01*
X21482Y8213D01*
X21461Y8208D01*
X21440Y8204D01*
X21419Y8201D01*
X21400Y8199D01*
X21384Y8198D01*
X21370Y8197D01*
X21365D01*
X21361D01*
X21360D01*
X21359D01*
X21334Y8198D01*
X21311Y8199D01*
X21291Y8202D01*
X21273Y8206D01*
X21258Y8208D01*
X21248Y8210D01*
X21240Y8212D01*
X21238Y8213D01*
X21219Y8220D01*
X21201Y8228D01*
X21186Y8236D01*
X21174Y8243D01*
X21164Y8249D01*
X21156Y8254D01*
X21151Y8258D01*
X21150Y8259D01*
X21138Y8270D01*
X21128Y8282D01*
X21119Y8293D01*
X21111Y8304D01*
X21106Y8313D01*
X21103Y8320D01*
X21100Y8325D01*
X21099Y8327D01*
X21093Y8342D01*
X21088Y8357D01*
X21085Y8372D01*
X21083Y8385D01*
X21081Y8397D01*
X21080Y8407D01*
Y8414D01*
X21081Y8438D01*
X21085Y8460D01*
X21090Y8480D01*
X21096Y8498D01*
X21103Y8512D01*
X21108Y8523D01*
X21111Y8529D01*
X21113Y8532D01*
X21126Y8550D01*
X21141Y8565D01*
X21158Y8579D01*
X21173Y8590D01*
X21186Y8599D01*
X21199Y8605D01*
X21206Y8609D01*
X21208Y8610D01*
X21209D01*
X21233Y8620D01*
X21259Y8627D01*
X21284Y8632D01*
X21308Y8635D01*
X21327Y8638D01*
X21336D01*
X21344Y8639D01*
X21350D01*
X21355D01*
X21357D01*
X21359D01*
X21392Y8638D01*
D02*
G37*
G36*
X20928Y8379D02*
X20931Y8347D01*
X20936Y8318D01*
X20941Y8292D01*
X20945Y8280D01*
X20948Y8270D01*
X20950Y8263D01*
X20953Y8255D01*
X20955Y8249D01*
X20956Y8245D01*
X20958Y8243D01*
Y8242D01*
X20970Y8214D01*
X20984Y8191D01*
X20999Y8168D01*
X21013Y8149D01*
X21025Y8134D01*
X21035Y8123D01*
X21043Y8116D01*
X21044Y8114D01*
X21045Y8113D01*
X21068Y8094D01*
X21090Y8078D01*
X21114Y8064D01*
X21135Y8053D01*
X21154Y8044D01*
X21163Y8041D01*
X21169Y8038D01*
X21175Y8036D01*
X21179Y8034D01*
X21181Y8033D01*
X21183D01*
X21213Y8024D01*
X21244Y8017D01*
X21274Y8012D01*
X21300Y8009D01*
X21312Y8008D01*
X21324Y8007D01*
X21334D01*
X21342Y8006D01*
X20926D01*
Y8414D01*
X20928Y8379D01*
D02*
G37*
G36*
Y7762D02*
X20931Y7749D01*
X20935Y7737D01*
X20940Y7728D01*
X20946Y7719D01*
X20950Y7714D01*
X20954Y7711D01*
X20955Y7709D01*
X20966Y7701D01*
X20980Y7694D01*
X20994Y7691D01*
X21008Y7688D01*
X21020Y7686D01*
X21030Y7684D01*
X20926D01*
Y7777D01*
X20928Y7762D01*
D02*
G37*
G36*
X21201Y7334D02*
X21214Y7333D01*
X21225Y7329D01*
X21234Y7326D01*
X21241Y7322D01*
X21246Y7319D01*
X21249Y7317D01*
X21250Y7316D01*
X21258Y7308D01*
X21264Y7299D01*
X21274Y7279D01*
X21278Y7272D01*
X21279Y7265D01*
X21281Y7260D01*
Y7258D01*
X21284Y7243D01*
X21286Y7227D01*
X21288Y7211D01*
X21289Y7196D01*
X21290Y7182D01*
Y7026D01*
X21088D01*
Y7195D01*
X21090Y7218D01*
X21091Y7238D01*
X21094Y7253D01*
X21096Y7265D01*
X21098Y7272D01*
X21100Y7276D01*
Y7277D01*
X21110Y7296D01*
X21116Y7302D01*
X21121Y7308D01*
X21126Y7313D01*
X21131Y7317D01*
X21134Y7318D01*
X21135Y7319D01*
X21144Y7324D01*
X21153Y7329D01*
X21170Y7333D01*
X21176Y7334D01*
X21183Y7336D01*
X21186D01*
X21188D01*
X21201Y7334D01*
D02*
G37*
G36*
X20941Y6930D02*
X20944Y6911D01*
X20949Y6897D01*
X20954Y6885D01*
X20959Y6875D01*
X20964Y6868D01*
X20966Y6865D01*
X20968Y6863D01*
X20979Y6855D01*
X20993Y6848D01*
X21006Y6843D01*
X21021Y6841D01*
X21034Y6838D01*
X21044Y6837D01*
X20940D01*
Y6950D01*
X20941Y6930D01*
D02*
G37*
G36*
X20118Y6761D02*
X20131Y6760D01*
X20142Y6756D01*
X20152Y6754D01*
X20160Y6750D01*
X20165Y6747D01*
X20168Y6745D01*
X20170Y6744D01*
X20178Y6737D01*
X20186Y6728D01*
X20197Y6709D01*
X20201Y6700D01*
X20203Y6694D01*
X20206Y6689D01*
Y6688D01*
X20210Y6673D01*
X20212Y6658D01*
X20215Y6643D01*
X20216Y6628D01*
Y6614D01*
X20217Y6604D01*
Y6495D01*
X19990D01*
Y6613D01*
X19991Y6630D01*
X19992Y6647D01*
X19995Y6660D01*
X19997Y6673D01*
X20001Y6685D01*
X20003Y6694D01*
X20006Y6703D01*
X20012Y6717D01*
X20018Y6727D01*
X20022Y6732D01*
X20023Y6733D01*
X20036Y6743D01*
X20048Y6750D01*
X20062Y6755D01*
X20075Y6759D01*
X20086Y6761D01*
X20095Y6763D01*
X20101D01*
X20103D01*
X20118Y6761D01*
D02*
G37*
G36*
X20928Y6552D02*
X20931Y6538D01*
X20935Y6527D01*
X20940Y6517D01*
X20946Y6510D01*
X20950Y6505D01*
X20954Y6501D01*
X20955Y6500D01*
X20966Y6491D01*
X20980Y6485D01*
X20994Y6481D01*
X21008Y6478D01*
X21020Y6476D01*
X21030Y6475D01*
X21036D01*
X21038D01*
X21039D01*
X21445D01*
X21464D01*
X21480Y6473D01*
X21511Y6468D01*
X21536Y6463D01*
X21557Y6456D01*
X21574Y6450D01*
X21585Y6443D01*
X21591Y6438D01*
X21594Y6437D01*
X21602Y6430D01*
X21610Y6421D01*
X21621Y6401D01*
X21630Y6380D01*
X21635Y6358D01*
X21639Y6338D01*
X21640Y6330D01*
Y6322D01*
X21641Y6316D01*
Y6307D01*
X21640Y6284D01*
X21637Y6264D01*
X21634Y6246D01*
X21630Y6231D01*
X21626Y6220D01*
X21622Y6211D01*
X21620Y6206D01*
X21619Y6205D01*
X21609Y6192D01*
X21599Y6182D01*
X21587Y6174D01*
X21576Y6167D01*
X21567Y6161D01*
X21560Y6157D01*
X21554Y6156D01*
X21552Y6155D01*
X21535Y6150D01*
X21516Y6147D01*
X21497Y6145D01*
X21480Y6142D01*
X21465D01*
X21452Y6141D01*
X21447D01*
X21444D01*
X21442D01*
X21441D01*
X21039D01*
X21020Y6140D01*
X21004Y6137D01*
X20989Y6132D01*
X20978Y6129D01*
X20969Y6124D01*
X20961Y6119D01*
X20958Y6116D01*
X20956Y6115D01*
X20946Y6105D01*
X20939Y6092D01*
X20934Y6081D01*
X20930Y6070D01*
X20928Y6060D01*
X20926Y6052D01*
Y6567D01*
X20928Y6552D01*
D02*
G37*
G36*
Y6030D02*
X20931Y6017D01*
X20935Y6005D01*
X20940Y5996D01*
X20946Y5987D01*
X20950Y5982D01*
X20954Y5979D01*
X20955Y5977D01*
X20966Y5969D01*
X20980Y5962D01*
X20994Y5959D01*
X21008Y5956D01*
X21020Y5954D01*
X21030Y5952D01*
X20926D01*
Y6045D01*
X20928Y6030D01*
D02*
G37*
G36*
Y5422D02*
X20931Y5394D01*
X20936Y5366D01*
X20941Y5342D01*
X20946Y5324D01*
X20949Y5315D01*
X20951Y5307D01*
X20954Y5302D01*
X20955Y5299D01*
X20956Y5296D01*
Y5295D01*
X20969Y5269D01*
X20983Y5244D01*
X20998Y5223D01*
X21011Y5203D01*
X21024Y5188D01*
X21034Y5176D01*
X21041Y5169D01*
X21043Y5168D01*
X21044Y5166D01*
X21066Y5148D01*
X21090Y5130D01*
X21113Y5115D01*
X21134Y5104D01*
X21153Y5095D01*
X21161Y5091D01*
X21168Y5088D01*
X21174Y5085D01*
X21178Y5084D01*
X21180Y5083D01*
X21181D01*
X21213Y5073D01*
X21244Y5066D01*
X21274Y5061D01*
X21301Y5058D01*
X21315Y5056D01*
X21326Y5055D01*
X21336D01*
X21345Y5054D01*
X20926D01*
Y5454D01*
X20928Y5422D01*
D02*
G37*
%LPC*%
G36*
X29991Y11638D02*
X29935D01*
X29891Y11627D01*
X29824Y11604D01*
X29769Y11560D01*
X29713Y11504D01*
X29680Y11427D01*
X29658Y11327D01*
Y11316D01*
Y11304D01*
X29669Y11238D01*
X29691Y11160D01*
X29747Y11082D01*
X29769Y11071D01*
X29813Y11038D01*
X29891Y11004D01*
X29991Y10993D01*
X30002D01*
X30035Y11004D01*
X30091Y11016D01*
X30147Y11038D01*
X30191Y11071D01*
X30247Y11138D01*
X30280Y11216D01*
X30291Y11327D01*
Y11338D01*
Y11371D01*
X30280Y11427D01*
X30258Y11482D01*
X30213Y11538D01*
X30169Y11593D01*
X30091Y11627D01*
X29991Y11638D01*
D02*
G37*
%LPD*%
G36*
X30080Y11527D02*
X30135Y11482D01*
X30147Y11449D01*
X30158Y11404D01*
Y11382D01*
X30147Y11349D01*
X30113Y11304D01*
X30047Y11282D01*
X30169Y11093D01*
X30091D01*
X29980Y11282D01*
X29902D01*
Y11093D01*
X29824D01*
Y11538D01*
X30024D01*
X30080Y11527D01*
D02*
G37*
%LPC*%
G36*
X30013Y11482D02*
X29902D01*
Y11338D01*
X30024D01*
X30047Y11349D01*
X30069Y11371D01*
X30080Y11404D01*
Y11416D01*
X30069Y11449D01*
X30058Y11471D01*
X30013Y11482D01*
D02*
G37*
G36*
X26191Y10704D02*
X26158D01*
X26136Y10693D01*
X26091Y10682D01*
X26036Y10649D01*
X25980Y10616D01*
X25925Y10560D01*
X25869Y10493D01*
X25269Y9638D01*
X27080Y6772D01*
X27091Y6760D01*
X27102Y6727D01*
X27125Y6683D01*
X27169Y6638D01*
X27214Y6594D01*
X27258Y6549D01*
X27325Y6516D01*
X27391Y6505D01*
X27414D01*
X27480Y6527D01*
X27525Y6549D01*
X27580Y6583D01*
X27636Y6627D01*
X27691Y6694D01*
X28325Y7616D01*
X26514Y10482D01*
X26503Y10493D01*
X26491Y10516D01*
X26425Y10593D01*
X26314Y10671D01*
X26258Y10693D01*
X26191Y10704D01*
D02*
G37*
%LPD*%
D10*
X37230Y14810D02*
G03*
X37230Y14810I-105J0D01*
G01*
X81126Y13208D02*
G03*
X81126Y13208I-100J0D01*
G01*
D11*
X19252Y13275D02*
G03*
X19252Y13275I-50J0D01*
G01*
X17664Y9400D02*
G03*
X17664Y9400I-50J0D01*
G01*
X13215Y15175D02*
G03*
X13215Y15175I-50J0D01*
G01*
X11875Y16125D02*
G03*
X11875Y16125I-50J0D01*
G01*
X10075Y12625D02*
G03*
X10075Y12625I-50J0D01*
G01*
X17664Y10900D02*
G03*
X17664Y10900I-50J0D01*
G01*
Y5400D02*
G03*
X17664Y5400I-50J0D01*
G01*
Y6900D02*
G03*
X17664Y6900I-50J0D01*
G01*
Y12400D02*
G03*
X17664Y12400I-50J0D01*
G01*
X17989Y8325D02*
X19089Y8325D01*
X17989Y9725D02*
X19089Y9725D01*
X7621Y4350D02*
Y4850D01*
X17989Y9825D02*
X19089Y9825D01*
X17989Y11225D02*
X19089Y11225D01*
X17989Y4325D02*
X19089Y4325D01*
X17989Y5725D02*
X19089Y5725D01*
X17989Y5825D02*
X19089Y5825D01*
X17989Y7225D02*
X19089Y7225D01*
X17989Y11325D02*
X19089Y11325D01*
X17989Y12725D02*
X19089Y12725D01*
D12*
X16305Y5674D02*
G03*
X16305Y5674I-125J0D01*
G01*
X51125Y5225D02*
G03*
X51125Y5225I-125J0D01*
G01*
D13*
X6546Y1365D02*
G03*
X6546Y1365I-200J0D01*
G01*
D14*
X5250Y6110D02*
Y6935D01*
X3525Y6110D02*
X5250D01*
X3525Y14210D02*
X5250D01*
Y13375D02*
Y14210D01*
X19052Y13425D02*
Y13625D01*
X18852Y13425D02*
X19052Y13425D01*
X17852Y13425D02*
X18052D01*
X17852Y13625D02*
X17852Y13425D01*
X18852Y15125D02*
X19052D01*
X19052Y14925D01*
X17852Y15125D02*
X18052Y15125D01*
X17852Y14925D02*
Y15125D01*
X13540Y15175D02*
X13925D01*
X14805D02*
X15190D01*
X13540Y13275D02*
X13925D01*
X14805D02*
X15190D01*
X19504Y4039D02*
X19640Y4175D01*
X4064Y4039D02*
X19504D01*
X19534Y16256D02*
X19640Y16150D01*
X4064Y16256D02*
X19534D01*
X19640Y4175D02*
Y16150D01*
X36475Y11125D02*
Y11425D01*
Y11275D01*
X35575D01*
X35725Y11125D01*
Y11875D02*
X35575Y12025D01*
Y12325D01*
X35725Y12475D01*
X36325D01*
X36475Y12325D01*
Y12025D01*
X36325Y11875D01*
X35725D01*
X36475Y12774D02*
X35575D01*
X35875Y13074D01*
X35575Y13374D01*
X36475D01*
X35575Y13674D02*
X36475D01*
X36025D01*
Y14274D01*
X35575D01*
X36475D01*
X35875Y14574D02*
Y15174D01*
X36475Y14574D01*
Y15174D01*
X6350Y6686D02*
X7250D01*
Y7136D01*
X7100Y7286D01*
X6500D01*
X6350Y7136D01*
Y6686D01*
Y8185D02*
Y7585D01*
X7250D01*
Y8185D01*
X6800Y7585D02*
Y7885D01*
X6350Y8485D02*
X7250D01*
Y8935D01*
X7100Y9085D01*
X6950D01*
X6800Y8935D01*
Y8485D01*
Y8935D01*
X6650Y9085D01*
X6500D01*
X6350Y8935D01*
Y8485D01*
Y9385D02*
X7100D01*
X7250Y9535D01*
Y9835D01*
X7100Y9985D01*
X6350D01*
X6500Y10884D02*
X6350Y10734D01*
Y10434D01*
X6500Y10285D01*
X7100D01*
X7250Y10434D01*
Y10734D01*
X7100Y10884D01*
X6800D01*
Y10584D01*
X31975Y6425D02*
X31825Y6575D01*
Y6875D01*
X31975Y7025D01*
X32125D01*
X32275Y6875D01*
Y6725D01*
Y6875D01*
X32425Y7025D01*
X32575D01*
X32725Y6875D01*
Y6575D01*
X32575Y6425D01*
X32725Y7925D02*
Y7325D01*
X32125Y7925D01*
X31975D01*
X31825Y7775D01*
Y7475D01*
X31975Y7325D01*
X31825Y8224D02*
X32725D01*
X32425D01*
X31825Y8824D01*
X32275Y8374D01*
X32725Y8824D01*
X31825Y9124D02*
X32725D01*
X32275D01*
Y9724D01*
X31825D01*
X32725D01*
X32125Y10024D02*
Y10624D01*
X32725Y10024D01*
Y10624D01*
X4747Y1940D02*
X4597Y1790D01*
Y1490D01*
X4747Y1340D01*
X5347D01*
X5497Y1490D01*
Y1790D01*
X5347Y1940D01*
X5047D01*
Y1640D01*
X5497Y2240D02*
X4597D01*
X5497Y2840D01*
X4597D01*
Y3140D02*
X5497D01*
Y3590D01*
X5347Y3740D01*
X4747D01*
X4597Y3590D01*
Y3140D01*
X4747Y17180D02*
X4597Y17030D01*
Y16730D01*
X4747Y16580D01*
X5347D01*
X5497Y16730D01*
Y17030D01*
X5347Y17180D01*
X5047D01*
Y16880D01*
X5497Y17480D02*
X4597D01*
X5497Y18080D01*
X4597D01*
Y18380D02*
X5497D01*
Y18830D01*
X5347Y18980D01*
X4747D01*
X4597Y18830D01*
Y18380D01*
D15*
X10630Y5670D02*
Y5920D01*
Y5670D02*
X10880D01*
X10630Y10420D02*
Y10670D01*
X10880D01*
X15380D02*
X15630D01*
Y10420D02*
Y10670D01*
Y5670D02*
Y5920D01*
X15380Y5670D02*
X15630D01*
X50800Y6129D02*
X54831Y10160D01*
X46769D02*
X50800Y14191D01*
X46769Y10160D02*
X50800Y6129D01*
Y14191D02*
X54831Y10160D01*
X73921Y11706D02*
X74521Y11706D01*
X74221Y12006D02*
X74521Y11706D01*
X73921Y11706D02*
X74221Y12006D01*
Y11706D02*
Y12006D01*
D16*
X75200Y3913D02*
Y4663D01*
X75575D01*
X75700Y4538D01*
Y4288D01*
X75575Y4163D01*
X75200D01*
X75450D02*
X75700Y3913D01*
X76450Y4663D02*
X75950D01*
Y4288D01*
X76200D01*
X75950D01*
Y3913D01*
X76700Y4538D02*
X76825Y4663D01*
X77075D01*
X77200Y4538D01*
Y4413D01*
X77075Y4288D01*
X76950D01*
X77075D01*
X77200Y4163D01*
Y4038D01*
X77075Y3913D01*
X76825D01*
X76700Y4038D01*
X24921Y12500D02*
Y13250D01*
X25295D01*
X25420Y13125D01*
Y12875D01*
X25295Y12750D01*
X24921D01*
X26045Y13250D02*
X25795D01*
X25670Y13125D01*
Y12625D01*
X25795Y12500D01*
X26045D01*
X26170Y12625D01*
Y13125D01*
X26045Y13250D01*
X26420D02*
Y12500D01*
X26670Y12750D01*
X26920Y12500D01*
Y13250D01*
X27670D02*
X27170D01*
Y12500D01*
X27670D01*
X27170Y12875D02*
X27420D01*
X27920Y12500D02*
Y13250D01*
X28294D01*
X28419Y13125D01*
Y12875D01*
X28294Y12750D01*
X27920D01*
X28170D02*
X28419Y12500D01*
X56040Y6810D02*
Y7710D01*
X56490D01*
X56640Y7560D01*
Y7260D01*
X56490Y7110D01*
X56040D01*
X56940Y7710D02*
X57240D01*
X57090D01*
Y6810D01*
X56940D01*
X57240D01*
X58289Y7560D02*
X58139Y7710D01*
X57839D01*
X57689Y7560D01*
Y6960D01*
X57839Y6810D01*
X58139D01*
X58289Y6960D01*
X58589Y6810D02*
X58889D01*
X58739D01*
Y7710D01*
X58589Y7560D01*
X59339D02*
X59489Y7710D01*
X59789D01*
X59939Y7560D01*
Y7410D01*
X59789Y7260D01*
X59939Y7110D01*
Y6960D01*
X59789Y6810D01*
X59489D01*
X59339Y6960D01*
Y7110D01*
X59489Y7260D01*
X59339Y7410D01*
Y7560D01*
X59489Y7260D02*
X59789D01*
X60838Y7710D02*
X60239D01*
Y7260D01*
X60539D01*
X60239D01*
Y6810D01*
X61738Y7710D02*
X61138D01*
Y7260D01*
X61438Y7410D01*
X61588D01*
X61738Y7260D01*
Y6960D01*
X61588Y6810D01*
X61288D01*
X61138Y6960D01*
X62038Y7710D02*
X62638D01*
Y7560D01*
X62038Y6960D01*
Y6810D01*
X63538Y6960D02*
Y7560D01*
X63388Y7710D01*
X63088D01*
X62938Y7560D01*
Y6960D01*
X63088Y6810D01*
X63388D01*
X63238Y7110D02*
X63538Y6810D01*
X63388D02*
X63538Y6960D01*
X63837Y7560D02*
X63987Y7710D01*
X64287D01*
X64437Y7560D01*
Y7410D01*
X64287Y7260D01*
X64437Y7110D01*
Y6960D01*
X64287Y6810D01*
X63987D01*
X63837Y6960D01*
Y7110D01*
X63987Y7260D01*
X63837Y7410D01*
Y7560D01*
X63987Y7260D02*
X64287D01*
X65187Y6810D02*
Y7710D01*
X64737Y7260D01*
X65337D01*
X26950Y15972D02*
Y16722D01*
X27325D01*
X27450Y16597D01*
Y16347D01*
X27325Y16222D01*
X26950D01*
X27200D02*
X27450Y15972D01*
X27700D02*
Y16472D01*
X27950Y16722D01*
X28200Y16472D01*
Y15972D01*
Y16347D01*
X27700D01*
X28949Y16722D02*
X28450D01*
Y16347D01*
X28699Y16472D01*
X28824D01*
X28949Y16347D01*
Y16097D01*
X28824Y15972D01*
X28574D01*
X28450Y16097D01*
X67580Y3609D02*
Y4358D01*
X67955D01*
X68080Y4233D01*
Y3984D01*
X67955Y3859D01*
X67580D01*
X67830D02*
X68080Y3609D01*
X68830Y4358D02*
X68330D01*
Y3984D01*
X68580D01*
X68330D01*
Y3609D01*
X69080Y4233D02*
X69205Y4358D01*
X69455D01*
X69580Y4233D01*
Y3734D01*
X69455Y3609D01*
X69205D01*
X69080Y3734D01*
Y4233D01*
X72660Y3609D02*
Y4358D01*
X73035D01*
X73160Y4233D01*
Y3984D01*
X73035Y3859D01*
X72660D01*
X72910D02*
X73160Y3609D01*
X73910Y4358D02*
X73410D01*
Y3984D01*
X73660D01*
X73410D01*
Y3609D01*
X74660D02*
X74160D01*
X74660Y4109D01*
Y4233D01*
X74535Y4358D01*
X74285D01*
X74160Y4233D01*
X32025Y15972D02*
Y16722D01*
X32400D01*
X32525Y16597D01*
Y16347D01*
X32400Y16222D01*
X32025D01*
X32275D02*
X32525Y15972D01*
X32775Y16722D02*
Y15972D01*
X33150D01*
X33275Y16097D01*
Y16222D01*
X33150Y16347D01*
X32775D01*
X33150D01*
X33275Y16472D01*
Y16597D01*
X33150Y16722D01*
X32775D01*
X33899Y15972D02*
Y16722D01*
X33525Y16347D01*
X34024D01*
X49800Y15672D02*
Y16422D01*
X50175D01*
X50300Y16297D01*
Y16047D01*
X50175Y15922D01*
X49800D01*
X50050D02*
X50300Y15672D01*
X50550Y16422D02*
Y15672D01*
X50925D01*
X51050Y15797D01*
Y16297D01*
X50925Y16422D01*
X50550D01*
X51800D02*
X51300D01*
Y16047D01*
X51550Y16172D01*
X51675D01*
X51800Y16047D01*
Y15797D01*
X51675Y15672D01*
X51425D01*
X51300Y15797D01*
X37225Y15972D02*
Y16722D01*
X37600D01*
X37725Y16597D01*
Y16347D01*
X37600Y16222D01*
X37225D01*
X37475D02*
X37725Y15972D01*
X37975D02*
Y16472D01*
X38225Y16722D01*
X38475Y16472D01*
Y15972D01*
Y16347D01*
X37975D01*
X38725Y15972D02*
X38974D01*
X38849D01*
Y16722D01*
X38725Y16597D01*
X34560Y3913D02*
Y4663D01*
X34935D01*
X35060Y4538D01*
Y4288D01*
X34935Y4163D01*
X34560D01*
X34810D02*
X35060Y3913D01*
X35810Y4538D02*
X35685Y4663D01*
X35435D01*
X35310Y4538D01*
Y4038D01*
X35435Y3913D01*
X35685D01*
X35810Y4038D01*
X36560Y4663D02*
X36060D01*
Y4288D01*
X36310Y4413D01*
X36435D01*
X36560Y4288D01*
Y4038D01*
X36435Y3913D01*
X36185D01*
X36060Y4038D01*
X22000Y15972D02*
Y16722D01*
X22375D01*
X22500Y16597D01*
Y16347D01*
X22375Y16222D01*
X22000D01*
X22250D02*
X22500Y15972D01*
X23250Y16597D02*
X23125Y16722D01*
X22875D01*
X22750Y16597D01*
Y16097D01*
X22875Y15972D01*
X23125D01*
X23250Y16097D01*
X23500Y15972D02*
X23749D01*
X23624D01*
Y16722D01*
X23500Y16597D01*
X29605Y3913D02*
Y4663D01*
X29980D01*
X30105Y4538D01*
Y4288D01*
X29980Y4163D01*
X29605D01*
X29855D02*
X30105Y3913D01*
X30355Y4663D02*
Y3913D01*
X30730D01*
X30855Y4038D01*
Y4163D01*
X30730Y4288D01*
X30355D01*
X30730D01*
X30855Y4413D01*
Y4538D01*
X30730Y4663D01*
X30355D01*
X31105Y3913D02*
X31355D01*
X31230D01*
Y4663D01*
X31105Y4538D01*
X57425Y15972D02*
Y16722D01*
X57800D01*
X57925Y16597D01*
Y16347D01*
X57800Y16222D01*
X57425D01*
X57675D02*
X57925Y15972D01*
X58675Y16722D02*
X58175D01*
Y16347D01*
X58425D01*
X58175D01*
Y15972D01*
X59424Y16722D02*
X59174Y16597D01*
X58925Y16347D01*
Y16097D01*
X59049Y15972D01*
X59299D01*
X59424Y16097D01*
Y16222D01*
X59299Y16347D01*
X58925D01*
X29480Y15672D02*
Y16422D01*
X29855D01*
X29980Y16297D01*
Y16047D01*
X29855Y15922D01*
X29480D01*
X29730D02*
X29980Y15672D01*
X30230Y16422D02*
Y15672D01*
X30605D01*
X30730Y15797D01*
Y15922D01*
X30605Y16047D01*
X30230D01*
X30605D01*
X30730Y16172D01*
Y16297D01*
X30605Y16422D01*
X30230D01*
X31480D02*
X30980D01*
Y16047D01*
X31230Y16172D01*
X31355D01*
X31480Y16047D01*
Y15797D01*
X31355Y15672D01*
X31105D01*
X30980Y15797D01*
X76575Y13550D02*
X76325Y13300D01*
X76075D01*
X75825Y13550D01*
X76575Y13925D02*
X75825D01*
Y14300D01*
X75950Y14425D01*
X76200D01*
X76325Y14300D01*
Y13925D01*
Y14175D02*
X76575Y14425D01*
Y14675D02*
X76075D01*
X75825Y14924D01*
X76075Y15174D01*
X76575D01*
X76200D01*
Y14675D01*
X75825Y15924D02*
X75950Y15674D01*
X76200Y15424D01*
X76450D01*
X76575Y15549D01*
Y15799D01*
X76450Y15924D01*
X76325D01*
X76200Y15799D01*
Y15424D01*
X76575Y16174D02*
X76325Y16424D01*
X76075D01*
X75825Y16174D01*
X73325Y7790D02*
Y8539D01*
X73700D01*
X73825Y8414D01*
Y8164D01*
X73700Y8039D01*
X73325D01*
X73575D02*
X73825Y7790D01*
X74575Y8539D02*
X74075D01*
Y8164D01*
X74325D01*
X74075D01*
Y7790D01*
X74824Y8414D02*
X74949Y8539D01*
X75199D01*
X75324Y8414D01*
Y8289D01*
X75199Y8164D01*
X75074D01*
X75199D01*
X75324Y8039D01*
Y7914D01*
X75199Y7790D01*
X74949D01*
X74824Y7914D01*
X52350Y15972D02*
Y16722D01*
X52725D01*
X52850Y16597D01*
Y16347D01*
X52725Y16222D01*
X52350D01*
X52600D02*
X52850Y15972D01*
X53100D02*
Y16472D01*
X53350Y16722D01*
X53600Y16472D01*
Y15972D01*
Y16347D01*
X53100D01*
X54224Y15972D02*
Y16722D01*
X53850Y16347D01*
X54349D01*
X44720Y3913D02*
Y4663D01*
X45095D01*
X45220Y4538D01*
Y4288D01*
X45095Y4163D01*
X44720D01*
X44970D02*
X45220Y3913D01*
X45470Y4663D02*
Y3913D01*
X45845D01*
X45970Y4038D01*
Y4163D01*
X45845Y4288D01*
X45470D01*
X45845D01*
X45970Y4413D01*
Y4538D01*
X45845Y4663D01*
X45470D01*
X46220Y4538D02*
X46345Y4663D01*
X46595D01*
X46720Y4538D01*
Y4038D01*
X46595Y3913D01*
X46345D01*
X46220Y4038D01*
Y4538D01*
X62525Y15972D02*
Y16722D01*
X62900D01*
X63025Y16597D01*
Y16347D01*
X62900Y16222D01*
X62525D01*
X62775D02*
X63025Y15972D01*
X63775Y16722D02*
X63275D01*
Y16347D01*
X63525D01*
X63275D01*
Y15972D01*
X64399D02*
Y16722D01*
X64025Y16347D01*
X64524D01*
X21860Y3609D02*
Y4358D01*
X22235D01*
X22360Y4233D01*
Y3984D01*
X22235Y3859D01*
X21860D01*
X22110D02*
X22360Y3609D01*
X22610Y4358D02*
Y3609D01*
X22985D01*
X23110Y3734D01*
Y4233D01*
X22985Y4358D01*
X22610D01*
X23360Y4233D02*
X23485Y4358D01*
X23735D01*
X23860Y4233D01*
Y3734D01*
X23735Y3609D01*
X23485D01*
X23360Y3734D01*
Y4233D01*
X65540Y4538D02*
X65415Y4663D01*
X65165D01*
X65040Y4538D01*
Y4038D01*
X65165Y3913D01*
X65415D01*
X65540Y4038D01*
Y4288D01*
X65290D01*
X65790Y3913D02*
Y4663D01*
X66290Y3913D01*
Y4663D01*
X66540D02*
Y3913D01*
X66915D01*
X67040Y4038D01*
Y4538D01*
X66915Y4663D01*
X66540D01*
X47250Y15972D02*
Y16722D01*
X47625D01*
X47750Y16597D01*
Y16347D01*
X47625Y16222D01*
X47250D01*
X47500D02*
X47750Y15972D01*
X48000Y16722D02*
Y15972D01*
X48375D01*
X48500Y16097D01*
Y16597D01*
X48375Y16722D01*
X48000D01*
X49249D02*
X48999Y16597D01*
X48750Y16347D01*
Y16097D01*
X48874Y15972D01*
X49124D01*
X49249Y16097D01*
Y16222D01*
X49124Y16347D01*
X48750D01*
X42700Y16597D02*
X42575Y16722D01*
X42325D01*
X42200Y16597D01*
Y16097D01*
X42325Y15972D01*
X42575D01*
X42700Y16097D01*
Y16347D01*
X42450D01*
X42950Y15972D02*
Y16722D01*
X43450Y15972D01*
Y16722D01*
X43700D02*
Y15972D01*
X44074D01*
X44199Y16097D01*
Y16597D01*
X44074Y16722D01*
X43700D01*
X79391Y4928D02*
Y5677D01*
X79766D01*
X79891Y5552D01*
Y5302D01*
X79766Y5178D01*
X79391D01*
X79641D02*
X79891Y4928D01*
X80141D02*
Y5427D01*
X80391Y5677D01*
X80641Y5427D01*
Y4928D01*
Y5302D01*
X80141D01*
X80891Y5552D02*
X81016Y5677D01*
X81266D01*
X81391Y5552D01*
Y5427D01*
X81266Y5302D01*
X81141D01*
X81266D01*
X81391Y5178D01*
Y5053D01*
X81266Y4928D01*
X81016D01*
X80891Y5053D01*
X37100Y3609D02*
Y4358D01*
X37475D01*
X37600Y4233D01*
Y3984D01*
X37475Y3859D01*
X37100D01*
X37350D02*
X37600Y3609D01*
X38350Y4233D02*
X38225Y4358D01*
X37975D01*
X37850Y4233D01*
Y3734D01*
X37975Y3609D01*
X38225D01*
X38350Y3734D01*
X39100Y4358D02*
X38850Y4233D01*
X38600Y3984D01*
Y3734D01*
X38725Y3609D01*
X38975D01*
X39100Y3734D01*
Y3859D01*
X38975Y3984D01*
X38600D01*
X59960Y3913D02*
Y4663D01*
X60335D01*
X60460Y4538D01*
Y4288D01*
X60335Y4163D01*
X59960D01*
X60210D02*
X60460Y3913D01*
X60710Y4663D02*
Y3913D01*
X61085D01*
X61210Y4038D01*
Y4538D01*
X61085Y4663D01*
X60710D01*
X61960Y3913D02*
X61460D01*
X61960Y4413D01*
Y4538D01*
X61835Y4663D01*
X61585D01*
X61460Y4538D01*
X39640Y15672D02*
Y16422D01*
X40015D01*
X40140Y16297D01*
Y16047D01*
X40015Y15922D01*
X39640D01*
X39890D02*
X40140Y15672D01*
X40390D02*
Y16172D01*
X40640Y16422D01*
X40890Y16172D01*
Y15672D01*
Y16047D01*
X40390D01*
X41140Y16297D02*
X41265Y16422D01*
X41515D01*
X41640Y16297D01*
Y15797D01*
X41515Y15672D01*
X41265D01*
X41140Y15797D01*
Y16297D01*
X44720Y15672D02*
Y16422D01*
X45095D01*
X45220Y16297D01*
Y16047D01*
X45095Y15922D01*
X44720D01*
X44970D02*
X45220Y15672D01*
X45470Y16422D02*
Y15672D01*
X45845D01*
X45970Y15797D01*
Y16297D01*
X45845Y16422D01*
X45470D01*
X46220D02*
X46720D01*
Y16297D01*
X46220Y15797D01*
Y15672D01*
X39640Y3913D02*
Y4663D01*
X40015D01*
X40140Y4538D01*
Y4288D01*
X40015Y4163D01*
X39640D01*
X39890D02*
X40140Y3913D01*
X40390Y4663D02*
Y3913D01*
X40765D01*
X40890Y4038D01*
Y4538D01*
X40765Y4663D01*
X40390D01*
X41515Y3913D02*
Y4663D01*
X41140Y4288D01*
X41640D01*
X24400Y15672D02*
Y16422D01*
X24775D01*
X24900Y16297D01*
Y16047D01*
X24775Y15922D01*
X24400D01*
X24650D02*
X24900Y15672D01*
X25650Y16297D02*
X25525Y16422D01*
X25275D01*
X25150Y16297D01*
Y15797D01*
X25275Y15672D01*
X25525D01*
X25650Y15797D01*
X25900Y16297D02*
X26025Y16422D01*
X26275D01*
X26400Y16297D01*
Y15797D01*
X26275Y15672D01*
X26025D01*
X25900Y15797D01*
Y16297D01*
X74050Y13950D02*
X73800Y13700D01*
X73550D01*
X73300Y13950D01*
X74050Y14325D02*
X73300D01*
Y14700D01*
X73425Y14825D01*
X73675D01*
X73800Y14700D01*
Y14325D01*
Y14575D02*
X74050Y14825D01*
Y15075D02*
X73550D01*
X73300Y15324D01*
X73550Y15574D01*
X74050D01*
X73675D01*
Y15075D01*
X73300Y15824D02*
Y16324D01*
X73425D01*
X73925Y15824D01*
X74050D01*
Y16574D02*
X73800Y16824D01*
X73550D01*
X73300Y16574D01*
X57400Y3609D02*
Y4358D01*
X57775D01*
X57900Y4233D01*
Y3984D01*
X57775Y3859D01*
X57400D01*
X57650D02*
X57900Y3609D01*
X58650Y4233D02*
X58525Y4358D01*
X58275D01*
X58150Y4233D01*
Y3734D01*
X58275Y3609D01*
X58525D01*
X58650Y3734D01*
X58900Y4233D02*
X59024Y4358D01*
X59274D01*
X59399Y4233D01*
Y4109D01*
X59274Y3984D01*
X59149D01*
X59274D01*
X59399Y3859D01*
Y3734D01*
X59274Y3609D01*
X59024D01*
X58900Y3734D01*
X42680Y4233D02*
X42555Y4358D01*
X42305D01*
X42180Y4233D01*
Y3734D01*
X42305Y3609D01*
X42555D01*
X42680Y3734D01*
Y3984D01*
X42430D01*
X42930Y3609D02*
Y4358D01*
X43430Y3609D01*
Y4358D01*
X43680D02*
Y3609D01*
X44055D01*
X44180Y3734D01*
Y4233D01*
X44055Y4358D01*
X43680D01*
X52340Y3609D02*
Y4358D01*
X52715D01*
X52840Y4233D01*
Y3984D01*
X52715Y3859D01*
X52340D01*
X52590D02*
X52840Y3609D01*
X53590Y4233D02*
X53465Y4358D01*
X53215D01*
X53090Y4233D01*
Y3734D01*
X53215Y3609D01*
X53465D01*
X53590Y3734D01*
X53840Y4358D02*
X54340D01*
Y4233D01*
X53840Y3734D01*
Y3609D01*
X67725Y15972D02*
Y16722D01*
X68100D01*
X68225Y16597D01*
Y16347D01*
X68100Y16222D01*
X67725D01*
X67975D02*
X68225Y15972D01*
X68975Y16722D02*
X68475D01*
Y15972D01*
X68975D01*
X68475Y16347D02*
X68725D01*
X69225Y15972D02*
X69474D01*
X69349D01*
Y16722D01*
X69225Y16597D01*
X47125Y3609D02*
Y4358D01*
X47500D01*
X47625Y4233D01*
Y3984D01*
X47500Y3859D01*
X47125D01*
X47375D02*
X47625Y3609D01*
X47875Y4358D02*
Y3609D01*
X48250D01*
X48375Y3734D01*
Y3859D01*
X48250Y3984D01*
X47875D01*
X48250D01*
X48375Y4109D01*
Y4233D01*
X48250Y4358D01*
X47875D01*
X48625Y4233D02*
X48749Y4358D01*
X48999D01*
X49124Y4233D01*
Y4109D01*
X48999Y3984D01*
X48874D01*
X48999D01*
X49124Y3859D01*
Y3734D01*
X48999Y3609D01*
X48749D01*
X48625Y3734D01*
X49800Y3913D02*
Y4663D01*
X50175D01*
X50300Y4538D01*
Y4288D01*
X50175Y4163D01*
X49800D01*
X50050D02*
X50300Y3913D01*
X51050Y4663D02*
X50550D01*
Y3913D01*
X51050D01*
X50550Y4288D02*
X50800D01*
X51800Y3913D02*
X51300D01*
X51800Y4413D01*
Y4538D01*
X51675Y4663D01*
X51425D01*
X51300Y4538D01*
X32020Y3609D02*
Y4358D01*
X32395D01*
X32520Y4233D01*
Y3984D01*
X32395Y3859D01*
X32020D01*
X32270D02*
X32520Y3609D01*
X33270Y4233D02*
X33145Y4358D01*
X32895D01*
X32770Y4233D01*
Y3734D01*
X32895Y3609D01*
X33145D01*
X33270Y3734D01*
X33895Y3609D02*
Y4358D01*
X33520Y3984D01*
X34020D01*
X72989Y13072D02*
Y12323D01*
X73489D01*
X74239Y13072D02*
X73739D01*
Y12323D01*
X74239D01*
X73739Y12697D02*
X73989D01*
X74489Y13072D02*
Y12323D01*
X74863D01*
X74988Y12447D01*
Y12947D01*
X74863Y13072D01*
X74489D01*
X75238Y12947D02*
X75363Y13072D01*
X75613D01*
X75738Y12947D01*
Y12447D01*
X75613Y12323D01*
X75363D01*
X75238Y12447D01*
Y12947D01*
X65540Y16297D02*
X65415Y16422D01*
X65165D01*
X65040Y16297D01*
Y15797D01*
X65165Y15672D01*
X65415D01*
X65540Y15797D01*
Y16047D01*
X65290D01*
X65790Y15672D02*
Y16422D01*
X66290Y15672D01*
Y16422D01*
X66540D02*
Y15672D01*
X66915D01*
X67040Y15797D01*
Y16297D01*
X66915Y16422D01*
X66540D01*
X24525Y3913D02*
Y4663D01*
X24900D01*
X25025Y4538D01*
Y4288D01*
X24900Y4163D01*
X24525D01*
X24775D02*
X25025Y3913D01*
X25275Y4663D02*
Y3913D01*
X25650D01*
X25775Y4038D01*
Y4538D01*
X25650Y4663D01*
X25275D01*
X26025Y3913D02*
X26275D01*
X26150D01*
Y4663D01*
X26025Y4538D01*
X34560Y15672D02*
Y16422D01*
X34935D01*
X35060Y16297D01*
Y16047D01*
X34935Y15922D01*
X34560D01*
X34810D02*
X35060Y15672D01*
X35310D02*
Y16172D01*
X35560Y16422D01*
X35810Y16172D01*
Y15672D01*
Y16047D01*
X35310D01*
X36560Y15672D02*
X36060D01*
X36560Y16172D01*
Y16297D01*
X36435Y16422D01*
X36185D01*
X36060Y16297D01*
X59960Y15672D02*
Y16422D01*
X60335D01*
X60460Y16297D01*
Y16047D01*
X60335Y15922D01*
X59960D01*
X60210D02*
X60460Y15672D01*
X61210Y16422D02*
X60710D01*
Y16047D01*
X60960D01*
X60710D01*
Y15672D01*
X61960Y16422D02*
X61460D01*
Y16047D01*
X61710Y16172D01*
X61835D01*
X61960Y16047D01*
Y15797D01*
X61835Y15672D01*
X61585D01*
X61460Y15797D01*
X26940Y3609D02*
Y4358D01*
X27315D01*
X27440Y4233D01*
Y3984D01*
X27315Y3859D01*
X26940D01*
X27190D02*
X27440Y3609D01*
X27690Y4358D02*
Y3609D01*
X28065D01*
X28190Y3734D01*
Y3859D01*
X28065Y3984D01*
X27690D01*
X28065D01*
X28190Y4109D01*
Y4233D01*
X28065Y4358D01*
X27690D01*
X28940Y3609D02*
X28440D01*
X28940Y4109D01*
Y4233D01*
X28815Y4358D01*
X28565D01*
X28440Y4233D01*
X70120Y15672D02*
Y16422D01*
X70495D01*
X70620Y16297D01*
Y16047D01*
X70495Y15922D01*
X70120D01*
X70370D02*
X70620Y15672D01*
X71370Y16422D02*
X70870D01*
Y15672D01*
X71370D01*
X70870Y16047D02*
X71120D01*
X71620Y16297D02*
X71745Y16422D01*
X71995D01*
X72120Y16297D01*
Y15797D01*
X71995Y15672D01*
X71745D01*
X71620Y15797D01*
Y16297D01*
X54880Y3913D02*
Y4663D01*
X55255D01*
X55380Y4538D01*
Y4288D01*
X55255Y4163D01*
X54880D01*
X55130D02*
X55380Y3913D01*
X56130Y4538D02*
X56005Y4663D01*
X55755D01*
X55630Y4538D01*
Y4038D01*
X55755Y3913D01*
X56005D01*
X56130Y4038D01*
X56880Y3913D02*
X56380D01*
X56880Y4413D01*
Y4538D01*
X56755Y4663D01*
X56505D01*
X56380Y4538D01*
X54880Y15672D02*
Y16422D01*
X55255D01*
X55380Y16297D01*
Y16047D01*
X55255Y15922D01*
X54880D01*
X55130D02*
X55380Y15672D01*
X56130Y16422D02*
X55630D01*
Y16047D01*
X55880D01*
X55630D01*
Y15672D01*
X56380Y16422D02*
X56880D01*
Y16297D01*
X56380Y15797D01*
Y15672D01*
X70245Y3913D02*
Y4663D01*
X70620D01*
X70745Y4538D01*
Y4288D01*
X70620Y4163D01*
X70245D01*
X70495D02*
X70745Y3913D01*
X71495Y4663D02*
X70995D01*
Y4288D01*
X71245D01*
X70995D01*
Y3913D01*
X71745D02*
X71995D01*
X71870D01*
Y4663D01*
X71745Y4538D01*
X62500Y3609D02*
Y4358D01*
X62875D01*
X63000Y4233D01*
Y3984D01*
X62875Y3859D01*
X62500D01*
X62750D02*
X63000Y3609D01*
X63250Y4358D02*
Y3609D01*
X63625D01*
X63750Y3734D01*
Y4233D01*
X63625Y4358D01*
X63250D01*
X64000Y4233D02*
X64125Y4358D01*
X64375D01*
X64500Y4233D01*
Y4109D01*
X64375Y3984D01*
X64250D01*
X64375D01*
X64500Y3859D01*
Y3734D01*
X64375Y3609D01*
X64125D01*
X64000Y3734D01*
X79891Y14722D02*
X79766Y14847D01*
X79516D01*
X79391Y14722D01*
Y14597D01*
X79516Y14472D01*
X79766D01*
X79891Y14347D01*
Y14222D01*
X79766Y14097D01*
X79516D01*
X79391Y14222D01*
X80141Y14847D02*
Y14097D01*
X80391Y14347D01*
X80641Y14097D01*
Y14847D01*
X80891Y14722D02*
X81016Y14847D01*
X81266D01*
X81391Y14722D01*
Y14222D01*
X81266Y14097D01*
X81016D01*
X80891Y14222D01*
Y14722D01*
X5946Y5175D02*
Y5925D01*
X6321D01*
X6446Y5800D01*
Y5550D01*
X6321Y5425D01*
X5946D01*
X7196Y5800D02*
X7071Y5925D01*
X6821D01*
X6696Y5800D01*
Y5675D01*
X6821Y5550D01*
X7071D01*
X7196Y5425D01*
Y5300D01*
X7071Y5175D01*
X6821D01*
X6696Y5300D01*
D17*
X34284Y8163D02*
D03*
D18*
X34284Y7763D02*
D03*
Y8563D02*
D03*
D19*
X7667Y4600D02*
D03*
M02*
