G04*
G04 #@! TF.GenerationSoftware,Altium Limited,Altium Designer,20.2.4 (192)*
G04*
G04 Layer_Color=32896*
%FSLAX43Y43*%
%MOMM*%
G71*
G04*
G04 #@! TF.SameCoordinates,AF46D1C0-80E4-4F08-9089-F3FA465175DE*
G04*
G04*
G04 #@! TF.FilePolarity,Positive*
G04*
G01*
G75*
%ADD10C,0.254*%
%ADD14C,0.150*%
%ADD15C,0.200*%
%ADD16C,0.125*%
%ADD126C,0.120*%
%ADD127C,0.120*%
G36*
X65375Y8105D02*
Y5900D01*
X50274D01*
Y8121D01*
X52250D01*
Y9982D01*
X65375D01*
Y8105D01*
D02*
G37*
G36*
X34530Y15474D02*
X34615Y15469D01*
X34698Y15461D01*
X34781Y15449D01*
X34862Y15436D01*
X34937Y15417D01*
X35087Y15376D01*
X35227Y15327D01*
X35359Y15272D01*
X35481Y15215D01*
X35538Y15184D01*
X35592Y15156D01*
X35644Y15125D01*
X35693Y15094D01*
X35737Y15065D01*
X35781Y15037D01*
X35820Y15008D01*
X35859Y14982D01*
X35893Y14956D01*
X35921Y14933D01*
X35950Y14912D01*
X35973Y14892D01*
X35994Y14873D01*
X36009Y14860D01*
X36022Y14847D01*
X36033Y14840D01*
X36038Y14835D01*
X36040Y14832D01*
X36100Y14772D01*
X36154Y14713D01*
X36206Y14653D01*
X36255Y14599D01*
X36299Y14542D01*
X36341Y14487D01*
X36377Y14436D01*
X36411Y14384D01*
X36442Y14334D01*
X36470Y14285D01*
X36496Y14239D01*
X36520Y14195D01*
X36556Y14109D01*
X36587Y14031D01*
X36608Y13961D01*
X36623Y13902D01*
X36634Y13847D01*
X36639Y13803D01*
Y13767D01*
Y13741D01*
Y13733D01*
Y13726D01*
Y13723D01*
Y13720D01*
X37103D01*
X36333Y12775D01*
X35564Y13720D01*
X35939D01*
X35947Y13741D01*
X35955Y13762D01*
Y13785D01*
Y13809D01*
X35952Y13832D01*
X35947Y13858D01*
X35932Y13910D01*
X35906Y13964D01*
X35875Y14021D01*
X35841Y14075D01*
X35802Y14130D01*
X35763Y14179D01*
X35724Y14228D01*
X35688Y14272D01*
X35654Y14309D01*
X35623Y14340D01*
X35603Y14363D01*
X35587Y14379D01*
X35582Y14384D01*
X35538Y14425D01*
X35491Y14464D01*
X35398Y14537D01*
X35302Y14599D01*
X35206Y14651D01*
X35110Y14695D01*
X35014Y14733D01*
X34924Y14762D01*
X34836Y14788D01*
X34755Y14806D01*
X34680Y14822D01*
X34613Y14832D01*
X34584Y14835D01*
X34556Y14837D01*
X34530Y14840D01*
X34509Y14842D01*
X34491D01*
X34473Y14845D01*
X34444D01*
X34346Y14842D01*
X34250Y14832D01*
X34159Y14816D01*
X34071Y14796D01*
X33988Y14772D01*
X33908Y14746D01*
X33836Y14718D01*
X33766Y14689D01*
X33706Y14661D01*
X33649Y14632D01*
X33602Y14607D01*
X33561Y14583D01*
X33530Y14562D01*
X33504Y14547D01*
X33491Y14537D01*
X33486Y14534D01*
X33411Y14474D01*
X33341Y14412D01*
X33276Y14347D01*
X33219Y14280D01*
X33165Y14215D01*
X33118Y14148D01*
X33076Y14083D01*
X33040Y14021D01*
X33009Y13964D01*
X32981Y13910D01*
X32960Y13860D01*
X32942Y13819D01*
X32926Y13785D01*
X32918Y13759D01*
X32916Y13752D01*
X32913Y13744D01*
X32911Y13741D01*
Y13739D01*
X32890Y13759D01*
X32864Y13783D01*
X32836Y13809D01*
X32804Y13840D01*
X32740Y13902D01*
X32675Y13967D01*
X32644Y13998D01*
X32615Y14026D01*
X32587Y14052D01*
X32564Y14075D01*
X32545Y14096D01*
X32530Y14109D01*
X32519Y14119D01*
X32517Y14122D01*
X32437Y14055D01*
X32400Y14024D01*
X32367Y13993D01*
X32336Y13967D01*
X32315Y13948D01*
X32299Y13936D01*
X32294Y13930D01*
X32338Y14055D01*
X32390Y14174D01*
X32450Y14285D01*
X32512Y14391D01*
X32576Y14490D01*
X32644Y14581D01*
X32711Y14664D01*
X32776Y14741D01*
X32841Y14809D01*
X32900Y14868D01*
X32955Y14920D01*
X33001Y14961D01*
X33043Y14995D01*
X33058Y15008D01*
X33071Y15018D01*
X33082Y15029D01*
X33089Y15034D01*
X33095Y15039D01*
X33097D01*
X33211Y15117D01*
X33328Y15184D01*
X33444Y15241D01*
X33561Y15293D01*
X33675Y15335D01*
X33786Y15371D01*
X33895Y15399D01*
X33996Y15423D01*
X34089Y15441D01*
X34178Y15454D01*
X34216Y15459D01*
X34253Y15464D01*
X34286Y15467D01*
X34317Y15469D01*
X34346Y15472D01*
X34372Y15474D01*
X34393D01*
X34411Y15477D01*
X34444D01*
X34530Y15474D01*
D02*
G37*
G36*
X34566Y14303D02*
X34597Y14301D01*
X34636Y14296D01*
X34680Y14288D01*
X34732Y14280D01*
X34786Y14265D01*
X34843Y14249D01*
X34906Y14228D01*
X34968Y14200D01*
X35033Y14169D01*
X35097Y14132D01*
X35162Y14088D01*
X35227Y14039D01*
X35286Y13982D01*
X35289Y13980D01*
X35299Y13967D01*
X35315Y13948D01*
X35336Y13925D01*
X35359Y13894D01*
X35387Y13858D01*
X35416Y13814D01*
X35444Y13765D01*
X35476Y13710D01*
X35504Y13651D01*
X35530Y13588D01*
X35556Y13518D01*
X35577Y13446D01*
X35592Y13368D01*
X35603Y13288D01*
X35605Y13205D01*
Y13200D01*
Y13184D01*
X35603Y13161D01*
X35600Y13130D01*
X35595Y13088D01*
X35587Y13044D01*
X35579Y12992D01*
X35566Y12935D01*
X35548Y12876D01*
X35527Y12814D01*
X35501Y12749D01*
X35470Y12684D01*
X35434Y12617D01*
X35393Y12552D01*
X35343Y12487D01*
X35286Y12425D01*
X35284Y12422D01*
X35271Y12412D01*
X35255Y12397D01*
X35229Y12376D01*
X35198Y12350D01*
X35162Y12324D01*
X35121Y12296D01*
X35071Y12264D01*
X35020Y12233D01*
X34960Y12205D01*
X34898Y12179D01*
X34830Y12153D01*
X34758Y12132D01*
X34683Y12117D01*
X34605Y12106D01*
X34522Y12104D01*
X34504D01*
X34483Y12106D01*
X34457Y12109D01*
X34424Y12112D01*
X34385Y12117D01*
X34341Y12125D01*
X34292Y12135D01*
X34240Y12148D01*
X34185Y12163D01*
X34128Y12184D01*
X34071Y12207D01*
X34014Y12236D01*
X33955Y12270D01*
X33898Y12306D01*
X33841Y12350D01*
X33838Y12353D01*
X33828Y12360D01*
X33812Y12376D01*
X33794Y12394D01*
X33771Y12417D01*
X33742Y12446D01*
X33714Y12479D01*
X33683Y12518D01*
X33652Y12560D01*
X33618Y12606D01*
X33587Y12656D01*
X33558Y12710D01*
X33530Y12770D01*
X33504Y12832D01*
X33483Y12897D01*
X33465Y12964D01*
X33548D01*
Y12961D01*
X33551Y12951D01*
X33556Y12938D01*
X33564Y12920D01*
X33574Y12897D01*
X33584Y12868D01*
X33600Y12840D01*
X33615Y12806D01*
X33636Y12772D01*
X33657Y12736D01*
X33683Y12697D01*
X33709Y12661D01*
X33740Y12622D01*
X33773Y12586D01*
X33810Y12549D01*
X33851Y12516D01*
X33854Y12513D01*
X33861Y12508D01*
X33874Y12500D01*
X33893Y12487D01*
X33913Y12474D01*
X33939Y12461D01*
X33970Y12443D01*
X34004Y12428D01*
X34040Y12412D01*
X34082Y12397D01*
X34123Y12381D01*
X34170Y12368D01*
X34219Y12355D01*
X34268Y12347D01*
X34320Y12342D01*
X34374Y12340D01*
X34390D01*
X34406Y12342D01*
X34431D01*
X34460Y12347D01*
X34494Y12353D01*
X34530Y12360D01*
X34571Y12368D01*
X34615Y12381D01*
X34662Y12397D01*
X34711Y12415D01*
X34761Y12438D01*
X34810Y12464D01*
X34859Y12495D01*
X34908Y12531D01*
X34955Y12573D01*
X34957Y12575D01*
X34965Y12583D01*
X34978Y12596D01*
X34994Y12614D01*
X35014Y12638D01*
X35035Y12663D01*
X35058Y12695D01*
X35082Y12731D01*
X35108Y12770D01*
X35134Y12814D01*
X35157Y12860D01*
X35178Y12910D01*
X35198Y12964D01*
X35214Y13018D01*
X35227Y13078D01*
X35235Y13140D01*
X33439D01*
Y13143D01*
Y13145D01*
X33437Y13161D01*
Y13182D01*
Y13205D01*
Y13207D01*
Y13210D01*
Y13226D01*
X33439Y13249D01*
X33442Y13280D01*
X33447Y13321D01*
X33455Y13366D01*
X33463Y13417D01*
X33475Y13474D01*
X33494Y13534D01*
X33514Y13596D01*
X33540Y13661D01*
X33571Y13726D01*
X33608Y13790D01*
X33652Y13858D01*
X33701Y13920D01*
X33758Y13982D01*
X33760Y13985D01*
X33773Y13995D01*
X33789Y14013D01*
X33815Y14034D01*
X33846Y14057D01*
X33882Y14086D01*
X33924Y14114D01*
X33973Y14145D01*
X34025Y14174D01*
X34084Y14202D01*
X34146Y14231D01*
X34214Y14257D01*
X34286Y14275D01*
X34362Y14293D01*
X34439Y14303D01*
X34522Y14306D01*
X34543D01*
X34566Y14303D01*
D02*
G37*
G36*
X33286Y13138D02*
X32895D01*
X32887Y13106D01*
X32885Y13073D01*
X32882Y13039D01*
X32885Y13005D01*
X32887Y12972D01*
X32895Y12938D01*
X32913Y12868D01*
X32942Y12801D01*
X32975Y12733D01*
X33012Y12666D01*
X33051Y12604D01*
X33092Y12544D01*
X33131Y12492D01*
X33170Y12443D01*
X33206Y12402D01*
X33235Y12368D01*
X33258Y12342D01*
X33266Y12334D01*
X33273Y12327D01*
X33276Y12324D01*
X33279Y12321D01*
X33325Y12277D01*
X33372Y12239D01*
X33418Y12200D01*
X33468Y12163D01*
X33564Y12101D01*
X33665Y12047D01*
X33763Y12000D01*
X33859Y11961D01*
X33952Y11930D01*
X34040Y11904D01*
X34123Y11884D01*
X34201Y11871D01*
X34268Y11860D01*
X34299Y11855D01*
X34328Y11853D01*
X34354Y11850D01*
X34374Y11847D01*
X34395D01*
X34411Y11845D01*
X34442D01*
X34543Y11847D01*
X34639Y11858D01*
X34735Y11873D01*
X34823Y11894D01*
X34908Y11920D01*
X34991Y11946D01*
X35066Y11974D01*
X35134Y12005D01*
X35196Y12036D01*
X35253Y12065D01*
X35302Y12091D01*
X35343Y12117D01*
X35375Y12137D01*
X35398Y12153D01*
X35413Y12163D01*
X35419Y12166D01*
X35496Y12228D01*
X35569Y12293D01*
X35634Y12363D01*
X35693Y12433D01*
X35748Y12500D01*
X35794Y12570D01*
X35838Y12638D01*
X35877Y12702D01*
X35908Y12764D01*
X35937Y12819D01*
X35960Y12871D01*
X35978Y12912D01*
X35991Y12948D01*
X36001Y12974D01*
X36004Y12985D01*
X36007Y12992D01*
X36009Y12995D01*
Y12998D01*
X36033Y12977D01*
X36058Y12951D01*
X36087Y12923D01*
X36118Y12891D01*
X36185Y12827D01*
X36253Y12759D01*
X36284Y12728D01*
X36315Y12697D01*
X36341Y12671D01*
X36364Y12645D01*
X36385Y12627D01*
X36400Y12612D01*
X36411Y12601D01*
X36413Y12599D01*
X36496Y12666D01*
X36535Y12700D01*
X36571Y12731D01*
X36600Y12759D01*
X36623Y12780D01*
X36639Y12793D01*
X36641Y12798D01*
X36644D01*
X36597Y12669D01*
X36546Y12544D01*
X36486Y12428D01*
X36421Y12316D01*
X36354Y12215D01*
X36286Y12119D01*
X36217Y12031D01*
X36149Y11951D01*
X36084Y11881D01*
X36022Y11819D01*
X35965Y11764D01*
X35919Y11720D01*
X35877Y11684D01*
X35862Y11669D01*
X35846Y11658D01*
X35836Y11650D01*
X35828Y11643D01*
X35823Y11640D01*
X35820Y11637D01*
X35763Y11596D01*
X35704Y11557D01*
X35584Y11487D01*
X35465Y11425D01*
X35346Y11373D01*
X35229Y11329D01*
X35113Y11290D01*
X35004Y11262D01*
X34900Y11236D01*
X34805Y11218D01*
X34716Y11202D01*
X34675Y11197D01*
X34639Y11192D01*
X34602Y11189D01*
X34571Y11187D01*
X34543Y11184D01*
X34517Y11181D01*
X34494D01*
X34476Y11179D01*
X34442D01*
X34354Y11181D01*
X34266Y11187D01*
X34180Y11194D01*
X34097Y11207D01*
X34017Y11223D01*
X33937Y11241D01*
X33784Y11285D01*
X33641Y11337D01*
X33507Y11394D01*
X33444Y11422D01*
X33382Y11454D01*
X33325Y11485D01*
X33268Y11518D01*
X33216Y11549D01*
X33167Y11580D01*
X33121Y11612D01*
X33076Y11640D01*
X33035Y11671D01*
X32999Y11697D01*
X32962Y11726D01*
X32931Y11749D01*
X32905Y11772D01*
X32880Y11793D01*
X32859Y11811D01*
X32843Y11827D01*
X32830Y11840D01*
X32820Y11847D01*
X32815Y11853D01*
X32812Y11855D01*
X32750Y11917D01*
X32693Y11982D01*
X32639Y12044D01*
X32589Y12104D01*
X32543Y12166D01*
X32499Y12226D01*
X32457Y12283D01*
X32421Y12340D01*
X32387Y12397D01*
X32356Y12451D01*
X32328Y12505D01*
X32302Y12557D01*
X32255Y12658D01*
X32222Y12749D01*
X32193Y12834D01*
X32172Y12910D01*
X32157Y12977D01*
X32152Y13005D01*
X32146Y13031D01*
X32144Y13057D01*
X32141Y13078D01*
X32139Y13096D01*
X32136Y13109D01*
Y13122D01*
Y13130D01*
Y13135D01*
Y13138D01*
X31659D01*
X32473Y13948D01*
X33286Y13138D01*
D02*
G37*
G36*
X14776Y10241D02*
X13867Y9255D01*
X13774Y8091D01*
X14747Y7097D01*
X14692Y7050D01*
X13765Y7998D01*
X13744Y7778D01*
X13740Y7719D01*
X13735Y7668D01*
Y7647D01*
Y7630D01*
Y7621D01*
Y7617D01*
Y7592D01*
X13731Y7575D01*
Y7562D01*
Y7549D01*
X13727Y7541D01*
Y7537D01*
X13723Y7520D01*
X13718Y7507D01*
X13714Y7503D01*
Y7499D01*
X13702Y7494D01*
X13697Y7490D01*
X13693D01*
Y7367D01*
X13532D01*
Y7490D01*
X12881D01*
X12847Y7448D01*
X12813Y7418D01*
X12775Y7393D01*
X12737Y7380D01*
X12703Y7372D01*
X12677Y7367D01*
X12661Y7363D01*
X12652D01*
X12614Y7367D01*
X12576Y7376D01*
X12546Y7384D01*
X12517Y7401D01*
X12496Y7414D01*
X12479Y7422D01*
X12470Y7431D01*
X12466Y7435D01*
X12441Y7465D01*
X12419Y7499D01*
X12407Y7528D01*
X12394Y7558D01*
X12390Y7587D01*
X12386Y7609D01*
Y7621D01*
Y7626D01*
X12390Y7655D01*
X11814Y7037D01*
X11751Y7088D01*
X12589Y7998D01*
X12474Y9200D01*
X12259D01*
Y9521D01*
X12271D01*
X11569Y10232D01*
Y10346D01*
X12381Y9517D01*
X12453D01*
X12436Y9674D01*
X12415Y9665D01*
X12398Y9661D01*
X12381Y9657D01*
X12377D01*
X12343Y9661D01*
X12314Y9674D01*
X12297Y9686D01*
X12288Y9691D01*
X12267Y9720D01*
X12254Y9750D01*
X12250Y9771D01*
Y9775D01*
Y9779D01*
X12259Y9813D01*
X12271Y9839D01*
X12284Y9856D01*
X12292Y9864D01*
X12322Y9885D01*
X12347Y9898D01*
X12369Y9902D01*
X12377D01*
X12419Y9889D01*
X12453Y9868D01*
X12470Y9851D01*
X12479Y9847D01*
Y9843D01*
X12496Y9864D01*
X12517Y9881D01*
X12563Y9915D01*
X12580Y9928D01*
X12597Y9936D01*
X12610Y9940D01*
X12614Y9944D01*
X12652Y9966D01*
X12699Y9978D01*
X12745Y9991D01*
X12792Y10004D01*
X12834Y10012D01*
X12868Y10016D01*
X12889Y10021D01*
X12898D01*
Y10063D01*
X13338D01*
Y10038D01*
X13388Y10033D01*
X13431Y10025D01*
X13448D01*
X13460Y10021D01*
X13469D01*
X13511Y10016D01*
X13545Y10008D01*
X13570Y10004D01*
X13579D01*
Y10016D01*
X13740D01*
Y9953D01*
X13782Y9932D01*
X13816Y9911D01*
X13841Y9889D01*
X13862Y9873D01*
X13879Y9856D01*
X13888Y9843D01*
X13896Y9839D01*
Y9834D01*
X13905Y9818D01*
X13913Y9801D01*
X13926Y9784D01*
X13930Y9775D01*
Y9771D01*
X14027D01*
Y9669D01*
X13905D01*
X13875Y9390D01*
X14776Y10372D01*
Y10241D01*
D02*
G37*
G36*
X14666Y5920D02*
X11857D01*
Y6339D01*
X14666D01*
Y5920D01*
D02*
G37*
G36*
X14130Y15441D02*
X14306Y15416D01*
X14470Y15384D01*
X14615Y15347D01*
X14678Y15328D01*
X14734Y15309D01*
X14785Y15290D01*
X14829Y15277D01*
X14860Y15265D01*
X14886Y15252D01*
X14898Y15246D01*
X14904D01*
X15068Y15164D01*
X15219Y15082D01*
X15351Y14994D01*
X15471Y14906D01*
X15565Y14831D01*
X15603Y14799D01*
X15635Y14768D01*
X15660Y14742D01*
X15679Y14724D01*
X15691Y14717D01*
X15697Y14711D01*
X15817Y14579D01*
X15924Y14447D01*
X16012Y14308D01*
X16088Y14189D01*
X16151Y14082D01*
X16170Y14031D01*
X16188Y13993D01*
X16207Y13962D01*
X16220Y13937D01*
X16226Y13924D01*
Y13918D01*
X16289Y13748D01*
X16333Y13578D01*
X16371Y13414D01*
X16390Y13270D01*
X16396Y13200D01*
X16402Y13137D01*
X16409Y13087D01*
Y13043D01*
X16415Y13005D01*
Y12980D01*
Y12961D01*
Y12955D01*
X16409Y12766D01*
X16384Y12584D01*
X16352Y12420D01*
X16321Y12275D01*
X16302Y12212D01*
X16283Y12156D01*
X16270Y12105D01*
X16258Y12067D01*
X16245Y12030D01*
X16232Y12004D01*
X16226Y11992D01*
Y11986D01*
X16151Y11822D01*
X16063Y11671D01*
X15974Y11532D01*
X15893Y11419D01*
X15817Y11318D01*
X15779Y11281D01*
X15754Y11249D01*
X15729Y11224D01*
X15710Y11205D01*
X15704Y11193D01*
X15697Y11186D01*
X15565Y11067D01*
X15427Y10960D01*
X15295Y10865D01*
X15169Y10790D01*
X15062Y10733D01*
X15018Y10708D01*
X14980Y10689D01*
X14948Y10670D01*
X14923Y10658D01*
X14911Y10651D01*
X14904D01*
X14734Y10588D01*
X14565Y10544D01*
X14401Y10506D01*
X14250Y10488D01*
X14187Y10481D01*
X14124Y10475D01*
X14067Y10469D01*
X14023D01*
X13985Y10462D01*
X13885D01*
X13841Y10469D01*
X13759D01*
X13715Y10475D01*
X13677D01*
Y11237D01*
X13771Y11224D01*
X13847Y11218D01*
X13872Y11211D01*
X13916D01*
X14048Y11218D01*
X14174Y11230D01*
X14294Y11255D01*
X14395Y11281D01*
X14476Y11306D01*
X14539Y11331D01*
X14565Y11337D01*
X14583Y11344D01*
X14590Y11350D01*
X14596D01*
X14709Y11407D01*
X14816Y11469D01*
X14904Y11526D01*
X14986Y11589D01*
X15055Y11639D01*
X15100Y11683D01*
X15131Y11709D01*
X15144Y11721D01*
X15225Y11809D01*
X15301Y11904D01*
X15364Y11998D01*
X15414Y12080D01*
X15452Y12156D01*
X15483Y12218D01*
X15502Y12256D01*
X15509Y12263D01*
Y12269D01*
X15553Y12388D01*
X15584Y12508D01*
X15609Y12628D01*
X15622Y12728D01*
X15635Y12816D01*
X15641Y12886D01*
Y12911D01*
Y12930D01*
Y12942D01*
Y12949D01*
X15635Y13081D01*
X15622Y13207D01*
X15597Y13320D01*
X15572Y13421D01*
X15553Y13502D01*
X15528Y13565D01*
X15521Y13591D01*
X15515Y13609D01*
X15509Y13616D01*
Y13622D01*
X15452Y13735D01*
X15395Y13842D01*
X15332Y13937D01*
X15276Y14019D01*
X15225Y14082D01*
X15181Y14132D01*
X15156Y14163D01*
X15144Y14176D01*
X15055Y14258D01*
X14961Y14333D01*
X14867Y14396D01*
X14785Y14453D01*
X14709Y14491D01*
X14646Y14522D01*
X14609Y14541D01*
X14602Y14547D01*
X14596D01*
X14476Y14591D01*
X14357Y14629D01*
X14237Y14654D01*
X14137Y14667D01*
X14048Y14679D01*
X13979Y14686D01*
X13753D01*
X13715Y14679D01*
X13690Y14673D01*
X13677Y14667D01*
Y15428D01*
X13727Y15435D01*
X13771D01*
X13803Y15441D01*
X13816D01*
X13860Y15447D01*
X13941D01*
X14130Y15441D01*
D02*
G37*
G36*
X9901Y15435D02*
X10083Y15410D01*
X10247Y15378D01*
X10392Y15347D01*
X10454Y15328D01*
X10511Y15309D01*
X10561Y15290D01*
X10599Y15277D01*
X10637Y15265D01*
X10662Y15252D01*
X10675Y15246D01*
X10681D01*
X10845Y15164D01*
X10996Y15082D01*
X11128Y14994D01*
X11248Y14906D01*
X11342Y14831D01*
X11380Y14799D01*
X11411Y14768D01*
X11443Y14742D01*
X11462Y14724D01*
X11468Y14717D01*
X11474Y14711D01*
X11594Y14579D01*
X11701Y14447D01*
X11795Y14308D01*
X11871Y14189D01*
X11934Y14082D01*
X11959Y14031D01*
X11978Y13993D01*
X11997Y13962D01*
X12003Y13937D01*
X12015Y13924D01*
Y13918D01*
X12078Y13748D01*
X12129Y13578D01*
X12160Y13414D01*
X12185Y13270D01*
X12192Y13200D01*
X12198Y13137D01*
X12204Y13087D01*
Y13043D01*
X12211Y13005D01*
Y12980D01*
Y12961D01*
Y12955D01*
X12204Y12766D01*
X12179Y12584D01*
X12148Y12420D01*
X12116Y12275D01*
X12097Y12212D01*
X12078Y12156D01*
X12066Y12105D01*
X12053Y12067D01*
X12041Y12030D01*
X12028Y12004D01*
X12022Y11992D01*
Y11986D01*
X11946Y11822D01*
X11858Y11671D01*
X11770Y11532D01*
X11688Y11419D01*
X11613Y11318D01*
X11581Y11281D01*
X11556Y11249D01*
X11531Y11224D01*
X11512Y11205D01*
X11506Y11193D01*
X11499Y11186D01*
X11367Y11067D01*
X11235Y10960D01*
X11103Y10865D01*
X10983Y10790D01*
X10876Y10733D01*
X10826Y10708D01*
X10788Y10689D01*
X10757Y10670D01*
X10731Y10658D01*
X10719Y10651D01*
X10713D01*
X10536Y10588D01*
X10366Y10538D01*
X10196Y10506D01*
X10045Y10481D01*
X9976Y10475D01*
X9913Y10469D01*
X9863Y10462D01*
X9812D01*
X9775Y10456D01*
X9674D01*
X9636Y10462D01*
X9592D01*
X9536Y10469D01*
X9491D01*
X9466Y10475D01*
X9454D01*
Y11237D01*
X9542Y11224D01*
X9617Y11218D01*
X9649Y11211D01*
X9693D01*
X9806Y11218D01*
X9913Y11230D01*
X10014Y11243D01*
X10102Y11262D01*
X10178Y11281D01*
X10234Y11300D01*
X10272Y11306D01*
X10278Y11312D01*
X10285D01*
X10385Y11356D01*
X10486Y11400D01*
X10568Y11444D01*
X10643Y11495D01*
X10706Y11532D01*
X10757Y11564D01*
X10782Y11589D01*
X10794Y11595D01*
X10876Y11665D01*
X10945Y11740D01*
X11008Y11809D01*
X11065Y11879D01*
X11109Y11935D01*
X11147Y11979D01*
X11166Y12011D01*
X11172Y12023D01*
X11229Y12118D01*
X11273Y12212D01*
X11310Y12307D01*
X11342Y12388D01*
X11361Y12464D01*
X11380Y12521D01*
X11386Y12558D01*
X11392Y12565D01*
Y12571D01*
X9951Y12577D01*
Y13326D01*
X11386D01*
X11355Y13433D01*
X11323Y13534D01*
X11285Y13622D01*
X11248Y13704D01*
X11216Y13767D01*
X11191Y13817D01*
X11172Y13849D01*
X11166Y13861D01*
X11103Y13949D01*
X11040Y14037D01*
X10977Y14107D01*
X10920Y14176D01*
X10864Y14226D01*
X10826Y14264D01*
X10801Y14289D01*
X10788Y14296D01*
X10700Y14358D01*
X10612Y14415D01*
X10530Y14465D01*
X10448Y14503D01*
X10385Y14535D01*
X10329Y14560D01*
X10297Y14572D01*
X10285Y14579D01*
X10178Y14617D01*
X10071Y14642D01*
X9970Y14661D01*
X9882Y14673D01*
X9806Y14679D01*
X9743Y14686D01*
X9643D01*
X9605Y14679D01*
X9573Y14673D01*
X9561Y14667D01*
X9510Y14661D01*
X9473Y14648D01*
X9447Y14642D01*
X9441D01*
X9435Y15428D01*
X9485Y15435D01*
X9573D01*
X9624Y15441D01*
X9712D01*
X9901Y15435D01*
D02*
G37*
%LPC*%
G36*
X60727Y9667D02*
X60714D01*
X60698Y9666D01*
X60677Y9664D01*
X60655Y9662D01*
X60631Y9658D01*
X60605Y9651D01*
X60579Y9643D01*
X60575Y9642D01*
X60568Y9640D01*
X60555Y9634D01*
X60538Y9627D01*
X60520Y9617D01*
X60500Y9606D01*
X60479Y9593D01*
X60461Y9579D01*
X60459Y9577D01*
X60453Y9571D01*
X60444Y9562D01*
X60433Y9551D01*
X60420Y9538D01*
X60409Y9521D01*
X60396Y9503D01*
X60387Y9482D01*
X60385Y9480D01*
X60383Y9473D01*
X60379Y9462D01*
X60374Y9447D01*
X60368Y9429D01*
X60364Y9408D01*
X60363Y9386D01*
X60361Y9362D01*
Y9358D01*
Y9347D01*
X60363Y9332D01*
X60364Y9312D01*
X60370Y9290D01*
X60375Y9266D01*
X60385Y9242D01*
X60398Y9218D01*
X60400Y9216D01*
X60405Y9206D01*
X60413Y9195D01*
X60425Y9180D01*
X60440Y9162D01*
X60457Y9142D01*
X60479Y9121D01*
X60503Y9099D01*
X60500Y9097D01*
X60492Y9093D01*
X60479Y9086D01*
X60464Y9075D01*
X60446Y9064D01*
X60427Y9049D01*
X60409Y9034D01*
X60392Y9018D01*
X60390Y9016D01*
X60385Y9010D01*
X60375Y9001D01*
X60366Y8988D01*
X60355Y8973D01*
X60344Y8956D01*
X60333Y8938D01*
X60324Y8918D01*
X60322Y8916D01*
X60320Y8908D01*
X60316Y8897D01*
X60311Y8882D01*
X60307Y8866D01*
X60303Y8845D01*
X60301Y8823D01*
X60300Y8799D01*
Y8786D01*
X60301Y8771D01*
X60303Y8753D01*
X60307Y8729D01*
X60313Y8705D01*
X60320Y8679D01*
X60331Y8651D01*
X60333Y8647D01*
X60337Y8638D01*
X60344Y8625D01*
X60355Y8608D01*
X60368Y8588D01*
X60383Y8566D01*
X60401Y8545D01*
X60424Y8523D01*
X60425Y8521D01*
X60435Y8514D01*
X60446Y8505D01*
X60463Y8492D01*
X60485Y8477D01*
X60509Y8464D01*
X60535Y8449D01*
X60564Y8436D01*
X60568Y8434D01*
X60579Y8431D01*
X60596Y8427D01*
X60618Y8421D01*
X60644Y8414D01*
X60675Y8410D01*
X60709Y8406D01*
X60746Y8405D01*
X60762D01*
X60783Y8406D01*
X60807Y8408D01*
X60835Y8414D01*
X60866Y8419D01*
X60896Y8429D01*
X60927Y8440D01*
X60931Y8442D01*
X60940Y8447D01*
X60955Y8455D01*
X60974Y8466D01*
X60994Y8479D01*
X61016Y8494D01*
X61038Y8512D01*
X61059Y8531D01*
X61061Y8532D01*
X61068Y8540D01*
X61077Y8551D01*
X61088Y8564D01*
X61101Y8581D01*
X61114Y8601D01*
X61127Y8621D01*
X61138Y8642D01*
X61140Y8644D01*
X61142Y8651D01*
X61146Y8662D01*
X61151Y8677D01*
X61161Y8708D01*
X61162Y8725D01*
X61164Y8740D01*
Y8747D01*
X61162Y8756D01*
X61161Y8768D01*
X61157Y8781D01*
X61151Y8793D01*
X61144Y8806D01*
X61133Y8818D01*
X61131Y8819D01*
X61127Y8823D01*
X61120Y8827D01*
X61111Y8834D01*
X61099Y8840D01*
X61087Y8843D01*
X61070Y8847D01*
X61053Y8849D01*
X61049D01*
X61038Y8847D01*
X61025Y8843D01*
X61009Y8834D01*
X61007D01*
X61005Y8832D01*
X60996Y8825D01*
X60987Y8814D01*
X60979Y8801D01*
Y8799D01*
X60977Y8795D01*
X60975Y8790D01*
X60972Y8782D01*
X60962Y8760D01*
X60951Y8734D01*
X60938Y8706D01*
X60922Y8677D01*
X60905Y8649D01*
X60887Y8625D01*
X60885Y8623D01*
X60877Y8616D01*
X60866Y8608D01*
X60850Y8597D01*
X60829Y8588D01*
X60805Y8579D01*
X60775Y8571D01*
X60744Y8569D01*
X60735D01*
X60725Y8571D01*
X60712Y8573D01*
X60696Y8575D01*
X60679Y8581D01*
X60662Y8586D01*
X60644Y8594D01*
X60642Y8595D01*
X60637Y8599D01*
X60627Y8605D01*
X60616Y8612D01*
X60603Y8623D01*
X60590Y8636D01*
X60577Y8653D01*
X60564Y8669D01*
X60563Y8671D01*
X60559Y8679D01*
X60553Y8690D01*
X60548Y8705D01*
X60542Y8721D01*
X60537Y8742D01*
X60533Y8764D01*
X60531Y8788D01*
Y8790D01*
Y8792D01*
Y8797D01*
Y8805D01*
X60535Y8823D01*
X60538Y8845D01*
X60544Y8869D01*
X60555Y8895D01*
X60568Y8921D01*
X60587Y8943D01*
X60588Y8945D01*
X60596Y8953D01*
X60609Y8962D01*
X60625Y8973D01*
X60646Y8982D01*
X60672Y8992D01*
X60703Y8999D01*
X60737Y9001D01*
X60750D01*
X60766Y8999D01*
X60788Y8997D01*
X60794D01*
X60800Y8995D01*
X60807D01*
X60824Y8993D01*
X60842D01*
X60851Y8995D01*
X60861Y8997D01*
X60885Y9003D01*
X60896Y9008D01*
X60907Y9016D01*
X60909Y9018D01*
X60911Y9019D01*
X60914Y9025D01*
X60918Y9032D01*
X60924Y9042D01*
X60927Y9053D01*
X60929Y9066D01*
X60931Y9080D01*
Y9082D01*
Y9088D01*
X60929Y9095D01*
X60927Y9105D01*
X60924Y9114D01*
X60918Y9125D01*
X60911Y9136D01*
X60901Y9145D01*
X60900Y9147D01*
X60896Y9149D01*
X60888Y9153D01*
X60877Y9158D01*
X60866Y9164D01*
X60850Y9168D01*
X60831Y9169D01*
X60811Y9171D01*
X60762D01*
X60748Y9173D01*
X60729Y9177D01*
X60709Y9182D01*
X60687Y9190D01*
X60664Y9201D01*
X60642Y9216D01*
X60640Y9218D01*
X60633Y9225D01*
X60624Y9234D01*
X60614Y9249D01*
X60603Y9267D01*
X60596Y9292D01*
X60588Y9318D01*
X60587Y9347D01*
Y9351D01*
Y9358D01*
X60588Y9369D01*
X60592Y9386D01*
X60598Y9403D01*
X60605Y9421D01*
X60616Y9440D01*
X60631Y9458D01*
X60633Y9460D01*
X60638Y9466D01*
X60650Y9473D01*
X60662Y9482D01*
X60679Y9492D01*
X60701Y9499D01*
X60724Y9505D01*
X60751Y9506D01*
X60770D01*
X60781Y9505D01*
X60809Y9501D01*
X60837Y9492D01*
X60838D01*
X60842Y9490D01*
X60848Y9486D01*
X60855Y9480D01*
X60874Y9469D01*
X60890Y9453D01*
Y9451D01*
X60894Y9449D01*
X60898Y9443D01*
X60901Y9436D01*
X60912Y9417D01*
X60925Y9392D01*
Y9390D01*
X60927Y9386D01*
X60931Y9379D01*
X60935Y9369D01*
X60946Y9347D01*
X60957Y9323D01*
X60959Y9319D01*
X60964Y9312D01*
X60974Y9303D01*
X60988Y9293D01*
X60992Y9292D01*
X61001Y9290D01*
X61018Y9286D01*
X61038Y9284D01*
X61044D01*
X61051Y9286D01*
X61059Y9288D01*
X61068Y9292D01*
X61079Y9295D01*
X61090Y9303D01*
X61101Y9312D01*
X61103Y9314D01*
X61105Y9318D01*
X61111Y9323D01*
X61114Y9332D01*
X61120Y9342D01*
X61125Y9355D01*
X61127Y9367D01*
X61129Y9384D01*
Y9386D01*
Y9392D01*
X61127Y9401D01*
X61125Y9412D01*
X61124Y9427D01*
X61118Y9442D01*
X61112Y9458D01*
X61103Y9477D01*
X61101Y9479D01*
X61098Y9484D01*
X61092Y9495D01*
X61083Y9506D01*
X61072Y9521D01*
X61059Y9536D01*
X61044Y9553D01*
X61025Y9569D01*
X61024Y9571D01*
X61016Y9577D01*
X61005Y9584D01*
X60990Y9595D01*
X60972Y9606D01*
X60950Y9617D01*
X60925Y9629D01*
X60898Y9640D01*
X60894Y9642D01*
X60885Y9643D01*
X60868Y9649D01*
X60848Y9655D01*
X60822Y9658D01*
X60794Y9664D01*
X60762Y9666D01*
X60727Y9667D01*
D02*
G37*
G36*
X58672D02*
X58659D01*
X58642Y9666D01*
X58622Y9664D01*
X58600Y9662D01*
X58576Y9658D01*
X58550Y9651D01*
X58524Y9643D01*
X58520Y9642D01*
X58513Y9640D01*
X58500Y9634D01*
X58483Y9627D01*
X58465Y9617D01*
X58444Y9606D01*
X58424Y9593D01*
X58405Y9579D01*
X58403Y9577D01*
X58398Y9571D01*
X58389Y9562D01*
X58378Y9551D01*
X58365Y9538D01*
X58353Y9521D01*
X58341Y9503D01*
X58331Y9482D01*
X58329Y9480D01*
X58328Y9473D01*
X58324Y9462D01*
X58318Y9447D01*
X58313Y9429D01*
X58309Y9408D01*
X58307Y9386D01*
X58305Y9362D01*
Y9358D01*
Y9347D01*
X58307Y9332D01*
X58309Y9312D01*
X58315Y9290D01*
X58320Y9266D01*
X58329Y9242D01*
X58342Y9218D01*
X58344Y9216D01*
X58350Y9206D01*
X58357Y9195D01*
X58370Y9180D01*
X58385Y9162D01*
X58402Y9142D01*
X58424Y9121D01*
X58448Y9099D01*
X58444Y9097D01*
X58437Y9093D01*
X58424Y9086D01*
X58409Y9075D01*
X58391Y9064D01*
X58372Y9049D01*
X58353Y9034D01*
X58337Y9018D01*
X58335Y9016D01*
X58329Y9010D01*
X58320Y9001D01*
X58311Y8988D01*
X58300Y8973D01*
X58289Y8956D01*
X58278Y8938D01*
X58268Y8918D01*
X58266Y8916D01*
X58265Y8908D01*
X58261Y8897D01*
X58255Y8882D01*
X58252Y8866D01*
X58248Y8845D01*
X58246Y8823D01*
X58244Y8799D01*
Y8786D01*
X58246Y8771D01*
X58248Y8753D01*
X58252Y8729D01*
X58257Y8705D01*
X58265Y8679D01*
X58276Y8651D01*
X58278Y8647D01*
X58281Y8638D01*
X58289Y8625D01*
X58300Y8608D01*
X58313Y8588D01*
X58328Y8566D01*
X58346Y8545D01*
X58368Y8523D01*
X58370Y8521D01*
X58379Y8514D01*
X58391Y8505D01*
X58407Y8492D01*
X58429Y8477D01*
X58453Y8464D01*
X58479Y8449D01*
X58509Y8436D01*
X58513Y8434D01*
X58524Y8431D01*
X58540Y8427D01*
X58563Y8421D01*
X58589Y8414D01*
X58620Y8410D01*
X58653Y8406D01*
X58690Y8405D01*
X58707D01*
X58728Y8406D01*
X58752Y8408D01*
X58779Y8414D01*
X58811Y8419D01*
X58840Y8429D01*
X58872Y8440D01*
X58876Y8442D01*
X58885Y8447D01*
X58900Y8455D01*
X58918Y8466D01*
X58939Y8479D01*
X58961Y8494D01*
X58983Y8512D01*
X59003Y8531D01*
X59005Y8532D01*
X59013Y8540D01*
X59022Y8551D01*
X59033Y8564D01*
X59046Y8581D01*
X59059Y8601D01*
X59072Y8621D01*
X59083Y8642D01*
X59085Y8644D01*
X59087Y8651D01*
X59090Y8662D01*
X59096Y8677D01*
X59105Y8708D01*
X59107Y8725D01*
X59109Y8740D01*
Y8747D01*
X59107Y8756D01*
X59105Y8768D01*
X59102Y8781D01*
X59096Y8793D01*
X59089Y8806D01*
X59077Y8818D01*
X59076Y8819D01*
X59072Y8823D01*
X59065Y8827D01*
X59055Y8834D01*
X59044Y8840D01*
X59031Y8843D01*
X59015Y8847D01*
X58998Y8849D01*
X58994D01*
X58983Y8847D01*
X58970Y8843D01*
X58953Y8834D01*
X58952D01*
X58950Y8832D01*
X58940Y8825D01*
X58931Y8814D01*
X58924Y8801D01*
Y8799D01*
X58922Y8795D01*
X58920Y8790D01*
X58916Y8782D01*
X58907Y8760D01*
X58896Y8734D01*
X58883Y8706D01*
X58866Y8677D01*
X58850Y8649D01*
X58831Y8625D01*
X58829Y8623D01*
X58822Y8616D01*
X58811Y8608D01*
X58794Y8597D01*
X58774Y8588D01*
X58750Y8579D01*
X58720Y8571D01*
X58689Y8569D01*
X58679D01*
X58670Y8571D01*
X58657Y8573D01*
X58640Y8575D01*
X58624Y8581D01*
X58607Y8586D01*
X58589Y8594D01*
X58587Y8595D01*
X58581Y8599D01*
X58572Y8605D01*
X58561Y8612D01*
X58548Y8623D01*
X58535Y8636D01*
X58522Y8653D01*
X58509Y8669D01*
X58507Y8671D01*
X58503Y8679D01*
X58498Y8690D01*
X58492Y8705D01*
X58487Y8721D01*
X58481Y8742D01*
X58478Y8764D01*
X58476Y8788D01*
Y8790D01*
Y8792D01*
Y8797D01*
Y8805D01*
X58479Y8823D01*
X58483Y8845D01*
X58489Y8869D01*
X58500Y8895D01*
X58513Y8921D01*
X58531Y8943D01*
X58533Y8945D01*
X58540Y8953D01*
X58553Y8962D01*
X58570Y8973D01*
X58590Y8982D01*
X58616Y8992D01*
X58648Y8999D01*
X58681Y9001D01*
X58694D01*
X58711Y8999D01*
X58733Y8997D01*
X58739D01*
X58744Y8995D01*
X58752D01*
X58768Y8993D01*
X58787D01*
X58796Y8995D01*
X58805Y8997D01*
X58829Y9003D01*
X58840Y9008D01*
X58852Y9016D01*
X58853Y9018D01*
X58855Y9019D01*
X58859Y9025D01*
X58863Y9032D01*
X58868Y9042D01*
X58872Y9053D01*
X58874Y9066D01*
X58876Y9080D01*
Y9082D01*
Y9088D01*
X58874Y9095D01*
X58872Y9105D01*
X58868Y9114D01*
X58863Y9125D01*
X58855Y9136D01*
X58846Y9145D01*
X58844Y9147D01*
X58840Y9149D01*
X58833Y9153D01*
X58822Y9158D01*
X58811Y9164D01*
X58794Y9168D01*
X58776Y9169D01*
X58755Y9171D01*
X58707D01*
X58692Y9173D01*
X58674Y9177D01*
X58653Y9182D01*
X58631Y9190D01*
X58609Y9201D01*
X58587Y9216D01*
X58585Y9218D01*
X58578Y9225D01*
X58568Y9234D01*
X58559Y9249D01*
X58548Y9267D01*
X58540Y9292D01*
X58533Y9318D01*
X58531Y9347D01*
Y9351D01*
Y9358D01*
X58533Y9369D01*
X58537Y9386D01*
X58542Y9403D01*
X58550Y9421D01*
X58561Y9440D01*
X58576Y9458D01*
X58578Y9460D01*
X58583Y9466D01*
X58594Y9473D01*
X58607Y9482D01*
X58624Y9492D01*
X58646Y9499D01*
X58668Y9505D01*
X58696Y9506D01*
X58715D01*
X58726Y9505D01*
X58753Y9501D01*
X58781Y9492D01*
X58783D01*
X58787Y9490D01*
X58792Y9486D01*
X58800Y9480D01*
X58818Y9469D01*
X58835Y9453D01*
Y9451D01*
X58839Y9449D01*
X58842Y9443D01*
X58846Y9436D01*
X58857Y9417D01*
X58870Y9392D01*
Y9390D01*
X58872Y9386D01*
X58876Y9379D01*
X58879Y9369D01*
X58890Y9347D01*
X58902Y9323D01*
X58903Y9319D01*
X58909Y9312D01*
X58918Y9303D01*
X58933Y9293D01*
X58937Y9292D01*
X58946Y9290D01*
X58963Y9286D01*
X58983Y9284D01*
X58989D01*
X58996Y9286D01*
X59003Y9288D01*
X59013Y9292D01*
X59024Y9295D01*
X59035Y9303D01*
X59046Y9312D01*
X59048Y9314D01*
X59050Y9318D01*
X59055Y9323D01*
X59059Y9332D01*
X59065Y9342D01*
X59070Y9355D01*
X59072Y9367D01*
X59074Y9384D01*
Y9386D01*
Y9392D01*
X59072Y9401D01*
X59070Y9412D01*
X59068Y9427D01*
X59063Y9442D01*
X59057Y9458D01*
X59048Y9477D01*
X59046Y9479D01*
X59042Y9484D01*
X59037Y9495D01*
X59027Y9506D01*
X59016Y9521D01*
X59003Y9536D01*
X58989Y9553D01*
X58970Y9569D01*
X58968Y9571D01*
X58961Y9577D01*
X58950Y9584D01*
X58935Y9595D01*
X58916Y9606D01*
X58894Y9617D01*
X58870Y9629D01*
X58842Y9640D01*
X58839Y9642D01*
X58829Y9643D01*
X58813Y9649D01*
X58792Y9655D01*
X58766Y9658D01*
X58739Y9664D01*
X58707Y9666D01*
X58672Y9667D01*
D02*
G37*
G36*
X52978D02*
X52965D01*
X52948Y9666D01*
X52928Y9664D01*
X52906Y9662D01*
X52882Y9658D01*
X52856Y9651D01*
X52830Y9643D01*
X52826Y9642D01*
X52819Y9640D01*
X52806Y9634D01*
X52789Y9627D01*
X52771Y9617D01*
X52750Y9606D01*
X52730Y9593D01*
X52711Y9579D01*
X52710Y9577D01*
X52704Y9571D01*
X52695Y9562D01*
X52684Y9551D01*
X52671Y9538D01*
X52660Y9521D01*
X52647Y9503D01*
X52637Y9482D01*
X52636Y9480D01*
X52634Y9473D01*
X52630Y9462D01*
X52624Y9447D01*
X52619Y9429D01*
X52615Y9408D01*
X52613Y9386D01*
X52611Y9362D01*
Y9358D01*
Y9347D01*
X52613Y9332D01*
X52615Y9312D01*
X52621Y9290D01*
X52626Y9266D01*
X52636Y9242D01*
X52649Y9218D01*
X52650Y9216D01*
X52656Y9206D01*
X52663Y9195D01*
X52676Y9180D01*
X52691Y9162D01*
X52708Y9142D01*
X52730Y9121D01*
X52754Y9099D01*
X52750Y9097D01*
X52743Y9093D01*
X52730Y9086D01*
X52715Y9075D01*
X52697Y9064D01*
X52678Y9049D01*
X52660Y9034D01*
X52643Y9018D01*
X52641Y9016D01*
X52636Y9010D01*
X52626Y9001D01*
X52617Y8988D01*
X52606Y8973D01*
X52595Y8956D01*
X52584Y8938D01*
X52574Y8918D01*
X52573Y8916D01*
X52571Y8908D01*
X52567Y8897D01*
X52561Y8882D01*
X52558Y8866D01*
X52554Y8845D01*
X52552Y8823D01*
X52550Y8799D01*
Y8786D01*
X52552Y8771D01*
X52554Y8753D01*
X52558Y8729D01*
X52563Y8705D01*
X52571Y8679D01*
X52582Y8651D01*
X52584Y8647D01*
X52587Y8638D01*
X52595Y8625D01*
X52606Y8608D01*
X52619Y8588D01*
X52634Y8566D01*
X52652Y8545D01*
X52674Y8523D01*
X52676Y8521D01*
X52686Y8514D01*
X52697Y8505D01*
X52713Y8492D01*
X52736Y8477D01*
X52760Y8464D01*
X52786Y8449D01*
X52815Y8436D01*
X52819Y8434D01*
X52830Y8431D01*
X52847Y8427D01*
X52869Y8421D01*
X52895Y8414D01*
X52926Y8410D01*
X52960Y8406D01*
X52997Y8405D01*
X53013D01*
X53034Y8406D01*
X53058Y8408D01*
X53085Y8414D01*
X53117Y8419D01*
X53147Y8429D01*
X53178Y8440D01*
X53182Y8442D01*
X53191Y8447D01*
X53206Y8455D01*
X53224Y8466D01*
X53245Y8479D01*
X53267Y8494D01*
X53289Y8512D01*
X53310Y8531D01*
X53311Y8532D01*
X53319Y8540D01*
X53328Y8551D01*
X53339Y8564D01*
X53352Y8581D01*
X53365Y8601D01*
X53378Y8621D01*
X53389Y8642D01*
X53391Y8644D01*
X53393Y8651D01*
X53397Y8662D01*
X53402Y8677D01*
X53411Y8708D01*
X53413Y8725D01*
X53415Y8740D01*
Y8747D01*
X53413Y8756D01*
X53411Y8768D01*
X53408Y8781D01*
X53402Y8793D01*
X53395Y8806D01*
X53384Y8818D01*
X53382Y8819D01*
X53378Y8823D01*
X53371Y8827D01*
X53361Y8834D01*
X53350Y8840D01*
X53337Y8843D01*
X53321Y8847D01*
X53304Y8849D01*
X53300D01*
X53289Y8847D01*
X53276Y8843D01*
X53260Y8834D01*
X53258D01*
X53256Y8832D01*
X53247Y8825D01*
X53237Y8814D01*
X53230Y8801D01*
Y8799D01*
X53228Y8795D01*
X53226Y8790D01*
X53223Y8782D01*
X53213Y8760D01*
X53202Y8734D01*
X53189Y8706D01*
X53173Y8677D01*
X53156Y8649D01*
X53137Y8625D01*
X53136Y8623D01*
X53128Y8616D01*
X53117Y8608D01*
X53100Y8597D01*
X53080Y8588D01*
X53056Y8579D01*
X53026Y8571D01*
X52995Y8569D01*
X52986D01*
X52976Y8571D01*
X52963Y8573D01*
X52947Y8575D01*
X52930Y8581D01*
X52913Y8586D01*
X52895Y8594D01*
X52893Y8595D01*
X52887Y8599D01*
X52878Y8605D01*
X52867Y8612D01*
X52854Y8623D01*
X52841Y8636D01*
X52828Y8653D01*
X52815Y8669D01*
X52813Y8671D01*
X52810Y8679D01*
X52804Y8690D01*
X52798Y8705D01*
X52793Y8721D01*
X52787Y8742D01*
X52784Y8764D01*
X52782Y8788D01*
Y8790D01*
Y8792D01*
Y8797D01*
Y8805D01*
X52786Y8823D01*
X52789Y8845D01*
X52795Y8869D01*
X52806Y8895D01*
X52819Y8921D01*
X52837Y8943D01*
X52839Y8945D01*
X52847Y8953D01*
X52860Y8962D01*
X52876Y8973D01*
X52897Y8982D01*
X52923Y8992D01*
X52954Y8999D01*
X52987Y9001D01*
X53000D01*
X53017Y8999D01*
X53039Y8997D01*
X53045D01*
X53050Y8995D01*
X53058D01*
X53074Y8993D01*
X53093D01*
X53102Y8995D01*
X53111Y8997D01*
X53136Y9003D01*
X53147Y9008D01*
X53158Y9016D01*
X53160Y9018D01*
X53161Y9019D01*
X53165Y9025D01*
X53169Y9032D01*
X53174Y9042D01*
X53178Y9053D01*
X53180Y9066D01*
X53182Y9080D01*
Y9082D01*
Y9088D01*
X53180Y9095D01*
X53178Y9105D01*
X53174Y9114D01*
X53169Y9125D01*
X53161Y9136D01*
X53152Y9145D01*
X53150Y9147D01*
X53147Y9149D01*
X53139Y9153D01*
X53128Y9158D01*
X53117Y9164D01*
X53100Y9168D01*
X53082Y9169D01*
X53061Y9171D01*
X53013D01*
X52998Y9173D01*
X52980Y9177D01*
X52960Y9182D01*
X52937Y9190D01*
X52915Y9201D01*
X52893Y9216D01*
X52891Y9218D01*
X52884Y9225D01*
X52874Y9234D01*
X52865Y9249D01*
X52854Y9267D01*
X52847Y9292D01*
X52839Y9318D01*
X52837Y9347D01*
Y9351D01*
Y9358D01*
X52839Y9369D01*
X52843Y9386D01*
X52848Y9403D01*
X52856Y9421D01*
X52867Y9440D01*
X52882Y9458D01*
X52884Y9460D01*
X52889Y9466D01*
X52900Y9473D01*
X52913Y9482D01*
X52930Y9492D01*
X52952Y9499D01*
X52974Y9505D01*
X53002Y9506D01*
X53021D01*
X53032Y9505D01*
X53060Y9501D01*
X53087Y9492D01*
X53089D01*
X53093Y9490D01*
X53098Y9486D01*
X53106Y9480D01*
X53124Y9469D01*
X53141Y9453D01*
Y9451D01*
X53145Y9449D01*
X53148Y9443D01*
X53152Y9436D01*
X53163Y9417D01*
X53176Y9392D01*
Y9390D01*
X53178Y9386D01*
X53182Y9379D01*
X53185Y9369D01*
X53197Y9347D01*
X53208Y9323D01*
X53210Y9319D01*
X53215Y9312D01*
X53224Y9303D01*
X53239Y9293D01*
X53243Y9292D01*
X53252Y9290D01*
X53269Y9286D01*
X53289Y9284D01*
X53295D01*
X53302Y9286D01*
X53310Y9288D01*
X53319Y9292D01*
X53330Y9295D01*
X53341Y9303D01*
X53352Y9312D01*
X53354Y9314D01*
X53356Y9318D01*
X53361Y9323D01*
X53365Y9332D01*
X53371Y9342D01*
X53376Y9355D01*
X53378Y9367D01*
X53380Y9384D01*
Y9386D01*
Y9392D01*
X53378Y9401D01*
X53376Y9412D01*
X53374Y9427D01*
X53369Y9442D01*
X53363Y9458D01*
X53354Y9477D01*
X53352Y9479D01*
X53348Y9484D01*
X53343Y9495D01*
X53334Y9506D01*
X53323Y9521D01*
X53310Y9536D01*
X53295Y9553D01*
X53276Y9569D01*
X53274Y9571D01*
X53267Y9577D01*
X53256Y9584D01*
X53241Y9595D01*
X53223Y9606D01*
X53200Y9617D01*
X53176Y9629D01*
X53148Y9640D01*
X53145Y9642D01*
X53136Y9643D01*
X53119Y9649D01*
X53098Y9655D01*
X53073Y9658D01*
X53045Y9664D01*
X53013Y9666D01*
X52978Y9667D01*
D02*
G37*
G36*
X57685Y9669D02*
X57667D01*
X57646Y9667D01*
X57620Y9664D01*
X57589Y9660D01*
X57557Y9653D01*
X57524Y9642D01*
X57491Y9629D01*
X57489D01*
X57487Y9627D01*
X57476Y9621D01*
X57461Y9612D01*
X57441Y9599D01*
X57418Y9584D01*
X57394Y9564D01*
X57370Y9540D01*
X57348Y9514D01*
X57346Y9510D01*
X57339Y9501D01*
X57328Y9484D01*
X57315Y9462D01*
X57300Y9434D01*
X57285Y9401D01*
X57270Y9364D01*
X57257Y9323D01*
Y9321D01*
X57255Y9318D01*
X57254Y9312D01*
X57252Y9303D01*
X57250Y9292D01*
X57248Y9279D01*
X57244Y9264D01*
X57241Y9247D01*
X57235Y9210D01*
X57231Y9166D01*
X57228Y9116D01*
X57226Y9064D01*
Y9036D01*
X57228Y9023D01*
Y9006D01*
Y8988D01*
X57230Y8968D01*
X57233Y8923D01*
X57241Y8875D01*
X57248Y8827D01*
X57259Y8779D01*
Y8777D01*
X57261Y8773D01*
X57263Y8768D01*
X57265Y8758D01*
X57268Y8747D01*
X57272Y8734D01*
X57283Y8706D01*
X57298Y8673D01*
X57313Y8640D01*
X57333Y8605D01*
X57355Y8571D01*
X57359Y8568D01*
X57367Y8558D01*
X57380Y8544D01*
X57398Y8525D01*
X57420Y8505D01*
X57446Y8484D01*
X57476Y8464D01*
X57507Y8447D01*
X57509D01*
X57511Y8445D01*
X57517Y8444D01*
X57522Y8442D01*
X57541Y8434D01*
X57565Y8427D01*
X57594Y8419D01*
X57628Y8412D01*
X57665Y8408D01*
X57705Y8406D01*
X57724D01*
X57744Y8408D01*
X57770Y8412D01*
X57800Y8416D01*
X57831Y8423D01*
X57865Y8434D01*
X57896Y8447D01*
X57900Y8449D01*
X57909Y8455D01*
X57924Y8464D01*
X57942Y8477D01*
X57963Y8492D01*
X57983Y8508D01*
X58002Y8529D01*
X58020Y8551D01*
X58022Y8555D01*
X58028Y8562D01*
X58033Y8573D01*
X58041Y8588D01*
X58050Y8606D01*
X58055Y8627D01*
X58061Y8647D01*
X58063Y8669D01*
Y8671D01*
Y8675D01*
X58061Y8682D01*
X58059Y8690D01*
X58052Y8710D01*
X58046Y8721D01*
X58037Y8732D01*
X58035Y8734D01*
X58031Y8736D01*
X58026Y8742D01*
X58018Y8747D01*
X58007Y8751D01*
X57996Y8756D01*
X57983Y8758D01*
X57968Y8760D01*
X57963D01*
X57955Y8758D01*
X57946D01*
X57924Y8751D01*
X57913Y8747D01*
X57902Y8740D01*
X57900D01*
X57896Y8736D01*
X57891Y8731D01*
X57885Y8725D01*
X57878Y8716D01*
X57870Y8705D01*
X57863Y8693D01*
X57857Y8679D01*
X57855Y8677D01*
X57854Y8671D01*
X57850Y8662D01*
X57842Y8649D01*
X57835Y8636D01*
X57824Y8623D01*
X57811Y8610D01*
X57796Y8597D01*
X57794Y8595D01*
X57789Y8594D01*
X57779Y8588D01*
X57768Y8582D01*
X57754Y8577D01*
X57737Y8573D01*
X57718Y8569D01*
X57698Y8568D01*
X57691D01*
X57681Y8569D01*
X57668Y8571D01*
X57655Y8573D01*
X57639Y8579D01*
X57624Y8584D01*
X57607Y8592D01*
X57605Y8594D01*
X57600Y8595D01*
X57592Y8601D01*
X57581Y8610D01*
X57570Y8619D01*
X57557Y8631D01*
X57546Y8645D01*
X57533Y8660D01*
Y8662D01*
X57531Y8664D01*
X57528Y8669D01*
X57524Y8679D01*
X57518Y8688D01*
X57513Y8701D01*
X57507Y8716D01*
X57502Y8734D01*
X57494Y8755D01*
X57489Y8779D01*
X57483Y8805D01*
X57478Y8832D01*
X57472Y8864D01*
X57467Y8899D01*
X57463Y8938D01*
X57461Y8979D01*
X57463Y8975D01*
X57470Y8968D01*
X57481Y8956D01*
X57498Y8942D01*
X57517Y8925D01*
X57537Y8908D01*
X57561Y8893D01*
X57587Y8879D01*
X57591Y8877D01*
X57598Y8873D01*
X57613Y8869D01*
X57631Y8864D01*
X57654Y8856D01*
X57679Y8853D01*
X57709Y8849D01*
X57739Y8847D01*
X57752D01*
X57768Y8849D01*
X57787Y8851D01*
X57809Y8855D01*
X57835Y8860D01*
X57861Y8868D01*
X57887Y8877D01*
X57891Y8879D01*
X57898Y8882D01*
X57911Y8890D01*
X57928Y8899D01*
X57946Y8912D01*
X57966Y8927D01*
X57985Y8943D01*
X58005Y8962D01*
X58007Y8964D01*
X58013Y8971D01*
X58022Y8984D01*
X58033Y8999D01*
X58046Y9018D01*
X58059Y9040D01*
X58072Y9066D01*
X58083Y9092D01*
X58085Y9095D01*
X58087Y9105D01*
X58091Y9119D01*
X58096Y9140D01*
X58102Y9162D01*
X58105Y9188D01*
X58107Y9218D01*
X58109Y9247D01*
Y9262D01*
X58107Y9279D01*
X58105Y9301D01*
X58102Y9325D01*
X58096Y9353D01*
X58089Y9382D01*
X58079Y9412D01*
X58078Y9416D01*
X58074Y9425D01*
X58066Y9440D01*
X58057Y9458D01*
X58046Y9479D01*
X58031Y9503D01*
X58015Y9525D01*
X57994Y9547D01*
X57992Y9549D01*
X57983Y9556D01*
X57972Y9567D01*
X57955Y9580D01*
X57937Y9593D01*
X57913Y9608D01*
X57887Y9623D01*
X57859Y9636D01*
X57857D01*
X57855Y9638D01*
X57844Y9642D01*
X57829Y9647D01*
X57807Y9653D01*
X57781Y9658D01*
X57752Y9664D01*
X57720Y9667D01*
X57685Y9669D01*
D02*
G37*
G36*
X61668Y8977D02*
X61392D01*
X61381Y8975D01*
X61366Y8973D01*
X61351Y8969D01*
X61336Y8964D01*
X61322Y8956D01*
X61309Y8947D01*
X61307Y8945D01*
X61303Y8942D01*
X61299Y8936D01*
X61292Y8927D01*
X61286Y8918D01*
X61283Y8905D01*
X61279Y8890D01*
X61277Y8873D01*
Y8866D01*
X61279Y8858D01*
X61281Y8847D01*
X61285Y8836D01*
X61290Y8823D01*
X61298Y8812D01*
X61309Y8801D01*
X61311Y8799D01*
X61314Y8797D01*
X61322Y8792D01*
X61331Y8788D01*
X61344Y8782D01*
X61361Y8777D01*
X61379Y8775D01*
X61401Y8773D01*
X61677D01*
X61688Y8775D01*
X61703Y8777D01*
X61718Y8781D01*
X61733Y8784D01*
X61748Y8792D01*
X61761Y8801D01*
X61762Y8803D01*
X61766Y8806D01*
X61770Y8812D01*
X61775Y8821D01*
X61783Y8831D01*
X61786Y8843D01*
X61790Y8856D01*
X61792Y8873D01*
Y8881D01*
X61790Y8890D01*
X61788Y8899D01*
X61785Y8912D01*
X61779Y8923D01*
X61772Y8936D01*
X61762Y8947D01*
X61761Y8949D01*
X61757Y8953D01*
X61749Y8956D01*
X61738Y8962D01*
X61725Y8968D01*
X61709Y8973D01*
X61690Y8975D01*
X61668Y8977D01*
D02*
G37*
G36*
X54282Y9340D02*
X54272D01*
X54263Y9338D01*
X54250Y9336D01*
X54237Y9332D01*
X54224Y9325D01*
X54213Y9318D01*
X54204Y9306D01*
X54202Y9305D01*
X54200Y9301D01*
X54195Y9292D01*
X54189Y9280D01*
X54182Y9264D01*
X54174Y9245D01*
X54165Y9223D01*
X54156Y9195D01*
X53969Y8673D01*
X53769Y9218D01*
X53767Y9221D01*
X53765Y9229D01*
X53760Y9240D01*
X53754Y9255D01*
X53739Y9286D01*
X53730Y9301D01*
X53722Y9312D01*
X53721Y9314D01*
X53719Y9316D01*
X53713Y9321D01*
X53704Y9327D01*
X53695Y9330D01*
X53682Y9336D01*
X53669Y9338D01*
X53652Y9340D01*
X53645D01*
X53637Y9338D01*
X53626Y9336D01*
X53615Y9332D01*
X53602Y9327D01*
X53591Y9319D01*
X53578Y9310D01*
X53576Y9308D01*
X53572Y9305D01*
X53569Y9299D01*
X53561Y9290D01*
X53552Y9269D01*
X53548Y9256D01*
X53547Y9242D01*
Y9232D01*
X53548Y9221D01*
X53552Y9206D01*
Y9203D01*
X53556Y9193D01*
X53560Y9182D01*
X53565Y9168D01*
X53567Y9164D01*
X53571Y9156D01*
X53574Y9143D01*
X53582Y9127D01*
X53802Y8581D01*
Y8579D01*
X53804Y8577D01*
X53806Y8571D01*
X53808Y8564D01*
X53817Y8545D01*
X53826Y8519D01*
Y8518D01*
X53828Y8514D01*
X53832Y8506D01*
X53835Y8499D01*
X53847Y8479D01*
X53860Y8458D01*
Y8456D01*
X53863Y8455D01*
X53872Y8444D01*
X53887Y8431D01*
X53906Y8419D01*
X53908D01*
X53909Y8418D01*
X53915Y8416D01*
X53922Y8412D01*
X53943Y8406D01*
X53969Y8405D01*
X53976D01*
X53985Y8406D01*
X53997Y8408D01*
X54022Y8414D01*
X54035Y8419D01*
X54047Y8427D01*
X54048Y8429D01*
X54052Y8431D01*
X54063Y8442D01*
X54078Y8456D01*
X54091Y8475D01*
Y8477D01*
X54093Y8481D01*
X54097Y8488D01*
X54102Y8497D01*
X54108Y8512D01*
X54115Y8531D01*
X54126Y8553D01*
X54137Y8581D01*
X54356Y9121D01*
Y9123D01*
X54358Y9125D01*
X54361Y9134D01*
X54365Y9147D01*
X54372Y9162D01*
Y9164D01*
X54374Y9166D01*
X54376Y9175D01*
X54382Y9188D01*
X54385Y9203D01*
Y9205D01*
Y9206D01*
X54387Y9216D01*
X54389Y9229D01*
Y9243D01*
X54387Y9255D01*
X54384Y9269D01*
X54376Y9286D01*
Y9288D01*
X54374Y9290D01*
X54365Y9301D01*
X54354Y9312D01*
X54337Y9325D01*
X54335D01*
X54334Y9327D01*
X54328Y9330D01*
X54321Y9332D01*
X54302Y9338D01*
X54282Y9340D01*
D02*
G37*
G36*
X54937Y9342D02*
X54915D01*
X54902Y9340D01*
X54889Y9338D01*
X54858Y9334D01*
X54821Y9327D01*
X54782Y9318D01*
X54743Y9303D01*
X54706Y9284D01*
X54704D01*
X54702Y9282D01*
X54689Y9273D01*
X54672Y9262D01*
X54652Y9243D01*
X54628Y9223D01*
X54604Y9197D01*
X54582Y9169D01*
X54561Y9136D01*
Y9134D01*
X54559Y9132D01*
X54554Y9121D01*
X54546Y9103D01*
X54537Y9080D01*
X54528Y9053D01*
X54521Y9021D01*
X54515Y8988D01*
X54513Y8953D01*
Y8938D01*
X54515Y8923D01*
X54519Y8906D01*
X54526Y8886D01*
X54534Y8868D01*
X54546Y8853D01*
X54563Y8840D01*
X54565Y8838D01*
X54572Y8836D01*
X54583Y8832D01*
X54598Y8829D01*
X54619Y8823D01*
X54643Y8819D01*
X54671Y8818D01*
X54702Y8816D01*
X55152D01*
Y8812D01*
Y8803D01*
X55150Y8788D01*
X55148Y8768D01*
X55145Y8747D01*
X55139Y8723D01*
X55132Y8699D01*
X55122Y8675D01*
X55120Y8673D01*
X55117Y8666D01*
X55109Y8655D01*
X55100Y8642D01*
X55089Y8627D01*
X55074Y8612D01*
X55059Y8599D01*
X55041Y8586D01*
X55039Y8584D01*
X55032Y8582D01*
X55020Y8577D01*
X55008Y8571D01*
X54991Y8566D01*
X54970Y8562D01*
X54948Y8558D01*
X54926Y8556D01*
X54911D01*
X54902Y8558D01*
X54878Y8560D01*
X54852Y8566D01*
X54850D01*
X54846Y8568D01*
X54839Y8569D01*
X54830Y8573D01*
X54809Y8582D01*
X54785Y8595D01*
X54783Y8597D01*
X54780Y8599D01*
X54774Y8603D01*
X54767Y8608D01*
X54746Y8623D01*
X54726Y8640D01*
X54724Y8642D01*
X54721Y8644D01*
X54715Y8649D01*
X54708Y8656D01*
X54696Y8666D01*
X54685Y8677D01*
X54656Y8705D01*
X54652Y8706D01*
X54643Y8712D01*
X54628Y8718D01*
X54606Y8719D01*
X54600D01*
X54593Y8718D01*
X54585D01*
X54567Y8710D01*
X54558Y8706D01*
X54548Y8699D01*
X54546D01*
X54545Y8695D01*
X54537Y8686D01*
X54530Y8669D01*
X54526Y8658D01*
Y8645D01*
Y8644D01*
Y8640D01*
X54528Y8632D01*
X54530Y8625D01*
X54532Y8614D01*
X54535Y8601D01*
X54543Y8586D01*
X54550Y8571D01*
X54552Y8569D01*
X54554Y8564D01*
X54561Y8556D01*
X54569Y8545D01*
X54578Y8534D01*
X54591Y8521D01*
X54606Y8506D01*
X54624Y8492D01*
X54626Y8490D01*
X54633Y8486D01*
X54645Y8479D01*
X54658Y8469D01*
X54676Y8460D01*
X54698Y8449D01*
X54722Y8440D01*
X54748Y8429D01*
X54752Y8427D01*
X54761Y8425D01*
X54776Y8421D01*
X54798Y8418D01*
X54822Y8412D01*
X54852Y8408D01*
X54885Y8406D01*
X54921Y8405D01*
X54941D01*
X54958Y8406D01*
X54976Y8408D01*
X54996Y8412D01*
X55020Y8416D01*
X55046Y8421D01*
X55102Y8436D01*
X55132Y8445D01*
X55159Y8458D01*
X55187Y8473D01*
X55215Y8490D01*
X55241Y8508D01*
X55265Y8531D01*
X55267Y8532D01*
X55270Y8536D01*
X55276Y8544D01*
X55283Y8553D01*
X55293Y8566D01*
X55304Y8582D01*
X55315Y8599D01*
X55326Y8621D01*
X55337Y8644D01*
X55348Y8669D01*
X55359Y8697D01*
X55369Y8729D01*
X55376Y8762D01*
X55382Y8795D01*
X55385Y8834D01*
X55387Y8873D01*
Y8890D01*
X55385Y8910D01*
X55383Y8934D01*
X55380Y8964D01*
X55374Y8995D01*
X55367Y9029D01*
X55357Y9062D01*
Y9064D01*
X55356Y9066D01*
X55352Y9077D01*
X55345Y9093D01*
X55335Y9114D01*
X55322Y9136D01*
X55307Y9162D01*
X55291Y9188D01*
X55270Y9212D01*
X55269Y9216D01*
X55259Y9223D01*
X55246Y9234D01*
X55230Y9247D01*
X55209Y9264D01*
X55185Y9279D01*
X55158Y9295D01*
X55126Y9308D01*
X55124D01*
X55122Y9310D01*
X55111Y9314D01*
X55093Y9319D01*
X55070Y9325D01*
X55043Y9330D01*
X55011Y9336D01*
X54974Y9340D01*
X54937Y9342D01*
D02*
G37*
G36*
X63371Y9671D02*
X63357D01*
X63340Y9669D01*
X63320Y9667D01*
X63296Y9664D01*
X63268Y9658D01*
X63242Y9651D01*
X63214Y9642D01*
X63210Y9640D01*
X63203Y9636D01*
X63188Y9630D01*
X63171Y9621D01*
X63153Y9608D01*
X63133Y9595D01*
X63110Y9579D01*
X63090Y9558D01*
X63088Y9556D01*
X63081Y9549D01*
X63071Y9538D01*
X63059Y9521D01*
X63044Y9503D01*
X63029Y9479D01*
X63014Y9453D01*
X62999Y9425D01*
Y9423D01*
X62996Y9419D01*
X62994Y9410D01*
X62988Y9399D01*
X62984Y9384D01*
X62979Y9367D01*
X62973Y9347D01*
X62966Y9323D01*
X62960Y9297D01*
X62955Y9267D01*
X62949Y9236D01*
X62944Y9201D01*
X62940Y9162D01*
X62936Y9121D01*
X62934Y9077D01*
Y8982D01*
X62936Y8949D01*
X62938Y8912D01*
X62942Y8873D01*
X62947Y8832D01*
X62953Y8793D01*
Y8792D01*
Y8790D01*
X62955Y8784D01*
X62957Y8777D01*
X62960Y8758D01*
X62966Y8734D01*
X62975Y8705D01*
X62986Y8675D01*
X62999Y8644D01*
X63014Y8612D01*
Y8610D01*
X63016Y8608D01*
X63020Y8603D01*
X63025Y8595D01*
X63036Y8579D01*
X63055Y8556D01*
X63075Y8532D01*
X63101Y8506D01*
X63131Y8482D01*
X63164Y8460D01*
X63166D01*
X63168Y8458D01*
X63173Y8455D01*
X63181Y8453D01*
X63199Y8444D01*
X63223Y8434D01*
X63253Y8423D01*
X63288Y8416D01*
X63325Y8408D01*
X63366Y8406D01*
X63379D01*
X63388Y8408D01*
X63399D01*
X63412Y8410D01*
X63442Y8416D01*
X63479Y8425D01*
X63516Y8436D01*
X63557Y8455D01*
X63596Y8479D01*
X63597D01*
X63599Y8482D01*
X63605Y8486D01*
X63612Y8492D01*
X63631Y8508D01*
X63651Y8531D01*
X63677Y8560D01*
X63701Y8594D01*
X63725Y8634D01*
X63747Y8679D01*
X63749Y8682D01*
X63751Y8692D01*
X63757Y8705D01*
X63762Y8725D01*
X63768Y8747D01*
X63775Y8773D01*
X63781Y8803D01*
X63786Y8832D01*
Y8834D01*
Y8836D01*
X63788Y8847D01*
X63790Y8864D01*
X63792Y8888D01*
X63794Y8916D01*
X63796Y8947D01*
X63797Y8981D01*
Y9062D01*
X63796Y9093D01*
X63794Y9129D01*
X63792Y9168D01*
X63788Y9206D01*
X63784Y9245D01*
Y9247D01*
Y9251D01*
X63783Y9255D01*
Y9262D01*
X63779Y9282D01*
X63773Y9306D01*
X63768Y9334D01*
X63760Y9364D01*
X63753Y9393D01*
X63742Y9423D01*
Y9425D01*
X63740Y9429D01*
X63736Y9434D01*
X63733Y9443D01*
X63721Y9464D01*
X63707Y9492D01*
X63686Y9521D01*
X63662Y9551D01*
X63633Y9580D01*
X63599Y9606D01*
X63597D01*
X63596Y9610D01*
X63590Y9612D01*
X63583Y9617D01*
X63573Y9621D01*
X63562Y9627D01*
X63534Y9640D01*
X63501Y9651D01*
X63462Y9662D01*
X63420Y9669D01*
X63371Y9671D01*
D02*
G37*
G36*
X62348D02*
X62331D01*
X62312Y9669D01*
X62288Y9667D01*
X62260Y9664D01*
X62231Y9660D01*
X62201Y9653D01*
X62172Y9643D01*
X62168Y9642D01*
X62159Y9638D01*
X62146Y9632D01*
X62127Y9625D01*
X62107Y9614D01*
X62086Y9603D01*
X62066Y9588D01*
X62046Y9571D01*
X62044Y9569D01*
X62036Y9564D01*
X62027Y9553D01*
X62016Y9542D01*
X62005Y9525D01*
X61992Y9508D01*
X61979Y9488D01*
X61970Y9467D01*
X61968Y9466D01*
X61966Y9458D01*
X61962Y9445D01*
X61957Y9430D01*
X61953Y9412D01*
X61949Y9392D01*
X61948Y9369D01*
X61946Y9345D01*
Y9342D01*
Y9330D01*
X61948Y9316D01*
X61951Y9295D01*
X61957Y9273D01*
X61964Y9247D01*
X61973Y9223D01*
X61988Y9197D01*
X61990Y9193D01*
X61996Y9186D01*
X62007Y9175D01*
X62020Y9160D01*
X62038Y9142D01*
X62059Y9125D01*
X62085Y9106D01*
X62114Y9090D01*
X62110Y9088D01*
X62103Y9084D01*
X62090Y9079D01*
X62073Y9071D01*
X62055Y9060D01*
X62035Y9047D01*
X62014Y9034D01*
X61996Y9018D01*
X61994Y9016D01*
X61988Y9010D01*
X61979Y9001D01*
X61968Y8988D01*
X61957Y8973D01*
X61946Y8955D01*
X61933Y8936D01*
X61923Y8914D01*
X61922Y8912D01*
X61920Y8903D01*
X61916Y8892D01*
X61911Y8875D01*
X61907Y8856D01*
X61903Y8834D01*
X61901Y8808D01*
X61899Y8782D01*
Y8764D01*
X61901Y8743D01*
X61905Y8718D01*
X61912Y8688D01*
X61922Y8655D01*
X61935Y8621D01*
X61951Y8588D01*
X61953Y8584D01*
X61961Y8573D01*
X61973Y8558D01*
X61990Y8540D01*
X62011Y8518D01*
X62036Y8495D01*
X62068Y8475D01*
X62103Y8455D01*
X62105D01*
X62107Y8453D01*
X62112Y8451D01*
X62122Y8447D01*
X62131Y8444D01*
X62142Y8440D01*
X62170Y8431D01*
X62205Y8421D01*
X62244Y8414D01*
X62290Y8408D01*
X62338Y8406D01*
X62362D01*
X62373Y8408D01*
X62388D01*
X62420Y8412D01*
X62457Y8418D01*
X62497Y8427D01*
X62538Y8438D01*
X62577Y8455D01*
X62579D01*
X62581Y8456D01*
X62586Y8460D01*
X62594Y8464D01*
X62610Y8475D01*
X62633Y8490D01*
X62657Y8508D01*
X62683Y8531D01*
X62707Y8558D01*
X62727Y8588D01*
Y8590D01*
X62729Y8592D01*
X62735Y8603D01*
X62744Y8621D01*
X62751Y8644D01*
X62760Y8673D01*
X62770Y8705D01*
X62775Y8742D01*
X62777Y8781D01*
Y8790D01*
X62775Y8803D01*
X62773Y8818D01*
X62770Y8836D01*
X62766Y8856D01*
X62759Y8879D01*
X62751Y8905D01*
X62740Y8929D01*
X62725Y8955D01*
X62709Y8981D01*
X62686Y9006D01*
X62662Y9030D01*
X62635Y9053D01*
X62601Y9073D01*
X62564Y9090D01*
X62566Y9092D01*
X62572Y9093D01*
X62581Y9099D01*
X62590Y9105D01*
X62605Y9114D01*
X62618Y9125D01*
X62635Y9138D01*
X62649Y9153D01*
X62666Y9169D01*
X62683Y9188D01*
X62696Y9210D01*
X62709Y9232D01*
X62720Y9258D01*
X62729Y9286D01*
X62735Y9316D01*
X62736Y9347D01*
Y9349D01*
Y9351D01*
Y9362D01*
X62735Y9377D01*
X62731Y9399D01*
X62725Y9423D01*
X62716Y9449D01*
X62705Y9477D01*
X62690Y9505D01*
X62688Y9508D01*
X62681Y9517D01*
X62672Y9530D01*
X62655Y9549D01*
X62636Y9567D01*
X62614Y9588D01*
X62586Y9606D01*
X62555Y9625D01*
X62553D01*
X62551Y9627D01*
X62546Y9629D01*
X62538Y9632D01*
X62520Y9640D01*
X62496Y9649D01*
X62466Y9656D01*
X62429Y9664D01*
X62390Y9669D01*
X62348Y9671D01*
D02*
G37*
G36*
X59713D02*
X59698D01*
X59681Y9669D01*
X59661Y9667D01*
X59637Y9664D01*
X59609Y9658D01*
X59583Y9651D01*
X59555Y9642D01*
X59551Y9640D01*
X59544Y9636D01*
X59529Y9630D01*
X59513Y9621D01*
X59494Y9608D01*
X59474Y9595D01*
X59452Y9579D01*
X59431Y9558D01*
X59429Y9556D01*
X59422Y9549D01*
X59413Y9538D01*
X59400Y9521D01*
X59385Y9503D01*
X59370Y9479D01*
X59355Y9453D01*
X59340Y9425D01*
Y9423D01*
X59337Y9419D01*
X59335Y9410D01*
X59329Y9399D01*
X59326Y9384D01*
X59320Y9367D01*
X59314Y9347D01*
X59307Y9323D01*
X59302Y9297D01*
X59296Y9267D01*
X59290Y9236D01*
X59285Y9201D01*
X59281Y9162D01*
X59277Y9121D01*
X59276Y9077D01*
Y8982D01*
X59277Y8949D01*
X59279Y8912D01*
X59283Y8873D01*
X59289Y8832D01*
X59294Y8793D01*
Y8792D01*
Y8790D01*
X59296Y8784D01*
X59298Y8777D01*
X59302Y8758D01*
X59307Y8734D01*
X59316Y8705D01*
X59327Y8675D01*
X59340Y8644D01*
X59355Y8612D01*
Y8610D01*
X59357Y8608D01*
X59361Y8603D01*
X59366Y8595D01*
X59377Y8579D01*
X59396Y8556D01*
X59416Y8532D01*
X59442Y8506D01*
X59472Y8482D01*
X59505Y8460D01*
X59507D01*
X59509Y8458D01*
X59514Y8455D01*
X59522Y8453D01*
X59540Y8444D01*
X59564Y8434D01*
X59594Y8423D01*
X59629Y8416D01*
X59666Y8408D01*
X59707Y8406D01*
X59720D01*
X59729Y8408D01*
X59740D01*
X59753Y8410D01*
X59783Y8416D01*
X59820Y8425D01*
X59857Y8436D01*
X59898Y8455D01*
X59937Y8479D01*
X59938D01*
X59940Y8482D01*
X59946Y8486D01*
X59953Y8492D01*
X59972Y8508D01*
X59992Y8531D01*
X60018Y8560D01*
X60042Y8594D01*
X60066Y8634D01*
X60088Y8679D01*
X60090Y8682D01*
X60092Y8692D01*
X60098Y8705D01*
X60103Y8725D01*
X60109Y8747D01*
X60116Y8773D01*
X60122Y8803D01*
X60127Y8832D01*
Y8834D01*
Y8836D01*
X60129Y8847D01*
X60131Y8864D01*
X60133Y8888D01*
X60135Y8916D01*
X60137Y8947D01*
X60138Y8981D01*
Y9062D01*
X60137Y9093D01*
X60135Y9129D01*
X60133Y9168D01*
X60129Y9206D01*
X60126Y9245D01*
Y9247D01*
Y9251D01*
X60124Y9255D01*
Y9262D01*
X60120Y9282D01*
X60114Y9306D01*
X60109Y9334D01*
X60101Y9364D01*
X60094Y9393D01*
X60083Y9423D01*
Y9425D01*
X60081Y9429D01*
X60077Y9434D01*
X60074Y9443D01*
X60063Y9464D01*
X60048Y9492D01*
X60027Y9521D01*
X60003Y9551D01*
X59974Y9580D01*
X59940Y9606D01*
X59938D01*
X59937Y9610D01*
X59931Y9612D01*
X59924Y9617D01*
X59914Y9621D01*
X59903Y9627D01*
X59876Y9640D01*
X59842Y9651D01*
X59803Y9662D01*
X59761Y9669D01*
X59713Y9671D01*
D02*
G37*
G36*
X64525Y9682D02*
X64497D01*
X64488Y9680D01*
X64477D01*
X64447Y9673D01*
X64432Y9669D01*
X64420Y9662D01*
X64418D01*
X64414Y9658D01*
X64407Y9655D01*
X64399Y9647D01*
X64381Y9632D01*
X64364Y9610D01*
X64362Y9608D01*
X64360Y9605D01*
X64357Y9599D01*
X64351Y9590D01*
X64338Y9569D01*
X64327Y9543D01*
Y9542D01*
X64325Y9538D01*
X64321Y9529D01*
X64316Y9517D01*
X64312Y9505D01*
X64305Y9488D01*
X64297Y9469D01*
X64290Y9447D01*
X63966Y8651D01*
Y8649D01*
X63964Y8647D01*
X63960Y8636D01*
X63953Y8619D01*
X63945Y8601D01*
X63940Y8579D01*
X63933Y8556D01*
X63929Y8536D01*
X63927Y8518D01*
Y8510D01*
X63929Y8503D01*
X63931Y8492D01*
X63936Y8481D01*
X63942Y8468D01*
X63951Y8453D01*
X63964Y8440D01*
X63966Y8438D01*
X63970Y8434D01*
X63977Y8429D01*
X63988Y8423D01*
X64001Y8416D01*
X64016Y8410D01*
X64033Y8406D01*
X64051Y8405D01*
X64062D01*
X64068Y8406D01*
X64084Y8410D01*
X64101Y8416D01*
X64105Y8418D01*
X64112Y8423D01*
X64125Y8431D01*
X64136Y8444D01*
X64138Y8447D01*
X64145Y8458D01*
X64157Y8475D01*
X64168Y8499D01*
Y8501D01*
X64170Y8505D01*
X64173Y8512D01*
X64177Y8521D01*
X64186Y8544D01*
X64195Y8566D01*
X64255Y8721D01*
X64758D01*
X64818Y8562D01*
Y8560D01*
X64819Y8558D01*
X64823Y8547D01*
X64829Y8531D01*
X64838Y8512D01*
X64847Y8490D01*
X64856Y8469D01*
X64868Y8451D01*
X64877Y8436D01*
X64879Y8434D01*
X64881Y8431D01*
X64888Y8427D01*
X64895Y8421D01*
X64907Y8414D01*
X64921Y8410D01*
X64938Y8406D01*
X64956Y8405D01*
X64964D01*
X64973Y8406D01*
X64984Y8408D01*
X64997Y8412D01*
X65010Y8419D01*
X65025Y8427D01*
X65040Y8438D01*
X65042Y8440D01*
X65045Y8444D01*
X65051Y8451D01*
X65056Y8460D01*
X65064Y8473D01*
X65069Y8486D01*
X65073Y8501D01*
X65075Y8516D01*
Y8519D01*
X65073Y8532D01*
X65071Y8549D01*
X65068Y8568D01*
Y8569D01*
X65066Y8573D01*
X65064Y8579D01*
X65060Y8588D01*
X65056Y8599D01*
X65053Y8612D01*
X65045Y8627D01*
X65040Y8644D01*
X64723Y9447D01*
Y9449D01*
X64721Y9453D01*
X64718Y9460D01*
X64714Y9469D01*
X64710Y9482D01*
X64705Y9495D01*
X64692Y9529D01*
X64690Y9530D01*
X64688Y9538D01*
X64684Y9545D01*
X64679Y9558D01*
X64666Y9584D01*
X64651Y9610D01*
X64649Y9612D01*
X64647Y9616D01*
X64642Y9621D01*
X64636Y9629D01*
X64618Y9645D01*
X64594Y9662D01*
X64592Y9664D01*
X64588Y9666D01*
X64579Y9669D01*
X64570Y9673D01*
X64557Y9677D01*
X64542Y9679D01*
X64525Y9682D01*
D02*
G37*
G36*
X56420Y9662D02*
X55961D01*
X55939Y9660D01*
X55915Y9658D01*
X55891Y9656D01*
X55869Y9655D01*
X55865D01*
X55857Y9653D01*
X55846Y9651D01*
X55832Y9649D01*
X55815Y9643D01*
X55796Y9640D01*
X55759Y9625D01*
X55757Y9623D01*
X55750Y9621D01*
X55739Y9616D01*
X55724Y9606D01*
X55709Y9597D01*
X55693Y9586D01*
X55674Y9571D01*
X55657Y9555D01*
X55656Y9553D01*
X55650Y9547D01*
X55643Y9538D01*
X55632Y9525D01*
X55620Y9510D01*
X55609Y9492D01*
X55598Y9471D01*
X55589Y9449D01*
X55587Y9447D01*
X55585Y9438D01*
X55582Y9427D01*
X55576Y9410D01*
X55572Y9392D01*
X55569Y9369D01*
X55567Y9347D01*
X55565Y9321D01*
Y9319D01*
Y9316D01*
Y9308D01*
X55567Y9299D01*
Y9286D01*
X55569Y9273D01*
X55574Y9242D01*
X55583Y9206D01*
X55598Y9169D01*
X55619Y9132D01*
X55630Y9116D01*
X55645Y9099D01*
X55648Y9095D01*
X55659Y9086D01*
X55678Y9071D01*
X55704Y9055D01*
X55735Y9034D01*
X55756Y9025D01*
X55776Y9016D01*
X55800Y9006D01*
X55824Y8997D01*
X55852Y8990D01*
X55880Y8982D01*
X55876Y8981D01*
X55869Y8975D01*
X55856Y8968D01*
X55839Y8956D01*
X55820Y8942D01*
X55798Y8923D01*
X55776Y8903D01*
X55754Y8879D01*
X55750Y8875D01*
X55743Y8868D01*
X55732Y8853D01*
X55717Y8834D01*
X55700Y8812D01*
X55682Y8788D01*
X55663Y8760D01*
X55645Y8731D01*
X55643Y8727D01*
X55637Y8718D01*
X55628Y8703D01*
X55617Y8684D01*
X55606Y8662D01*
X55593Y8638D01*
X55582Y8614D01*
X55570Y8590D01*
X55569Y8588D01*
X55567Y8581D01*
X55563Y8569D01*
X55557Y8556D01*
X55548Y8527D01*
X55546Y8514D01*
X55545Y8505D01*
Y8501D01*
X55546Y8490D01*
X55552Y8475D01*
X55561Y8456D01*
Y8455D01*
X55563Y8453D01*
X55572Y8444D01*
X55585Y8431D01*
X55604Y8419D01*
X55606D01*
X55607Y8418D01*
X55613Y8416D01*
X55620Y8412D01*
X55641Y8406D01*
X55665Y8405D01*
X55672D01*
X55680Y8406D01*
X55689D01*
X55713Y8414D01*
X55726Y8418D01*
X55737Y8425D01*
X55739D01*
X55741Y8429D01*
X55754Y8438D01*
X55769Y8453D01*
X55785Y8473D01*
Y8475D01*
X55789Y8479D01*
X55793Y8486D01*
X55800Y8497D01*
X55807Y8508D01*
X55817Y8525D01*
X55828Y8544D01*
X55841Y8564D01*
X55941Y8731D01*
Y8732D01*
X55943Y8734D01*
X55950Y8745D01*
X55959Y8762D01*
X55972Y8782D01*
X55989Y8805D01*
X56006Y8827D01*
X56022Y8849D01*
X56039Y8869D01*
X56041Y8871D01*
X56046Y8877D01*
X56056Y8886D01*
X56065Y8895D01*
X56080Y8906D01*
X56093Y8918D01*
X56109Y8929D01*
X56126Y8936D01*
X56128D01*
X56133Y8940D01*
X56143Y8942D01*
X56156Y8945D01*
X56170Y8949D01*
X56191Y8951D01*
X56211Y8955D01*
X56322D01*
Y8556D01*
Y8553D01*
Y8544D01*
X56324Y8531D01*
X56326Y8514D01*
X56331Y8494D01*
X56337Y8475D01*
X56346Y8456D01*
X56357Y8442D01*
X56359Y8440D01*
X56363Y8436D01*
X56372Y8431D01*
X56381Y8423D01*
X56394Y8416D01*
X56411Y8410D01*
X56428Y8406D01*
X56448Y8405D01*
X56457D01*
X56468Y8406D01*
X56481Y8410D01*
X56496Y8414D01*
X56513Y8419D01*
X56528Y8429D01*
X56541Y8442D01*
X56543Y8444D01*
X56546Y8449D01*
X56550Y8458D01*
X56556Y8471D01*
X56563Y8486D01*
X56567Y8506D01*
X56570Y8531D01*
X56572Y8556D01*
Y9521D01*
X56570Y9536D01*
X56568Y9553D01*
X56563Y9571D01*
X56557Y9592D01*
X56548Y9610D01*
X56537Y9625D01*
X56535Y9627D01*
X56530Y9630D01*
X56520Y9636D01*
X56509Y9643D01*
X56493Y9651D01*
X56472Y9656D01*
X56448Y9660D01*
X56420Y9662D01*
D02*
G37*
G36*
X63477Y7811D02*
X63363D01*
X63470D01*
X63461Y7810D01*
X63451Y7808D01*
X63438Y7804D01*
X63426Y7799D01*
X63411Y7791D01*
X63398Y7782D01*
X63396Y7780D01*
X63392Y7776D01*
X63387Y7771D01*
X63379Y7761D01*
X63374Y7749D01*
X63368Y7736D01*
X63364Y7719D01*
X63363Y7699D01*
Y7700D01*
Y7347D01*
Y7689D01*
X63364Y7680D01*
X63366Y7669D01*
X63372Y7656D01*
X63377Y7643D01*
X63387Y7630D01*
X63398Y7617D01*
X63400Y7615D01*
X63403Y7613D01*
X63411Y7608D01*
X63420Y7602D01*
X63431Y7597D01*
X63446Y7593D01*
X63461Y7589D01*
X63477Y7587D01*
X63485D01*
X63494Y7589D01*
X63505Y7591D01*
X63518Y7595D01*
X63531Y7599D01*
X63546Y7606D01*
X63559Y7615D01*
X63561Y7617D01*
X63564Y7621D01*
X63570Y7628D01*
X63576Y7637D01*
X63581Y7649D01*
X63587Y7663D01*
X63590Y7680D01*
X63592Y7699D01*
Y7582D01*
Y7708D01*
X63590Y7715D01*
X63588Y7728D01*
X63585Y7741D01*
X63577Y7754D01*
X63570Y7767D01*
X63559Y7780D01*
X63557Y7782D01*
X63553Y7786D01*
X63546Y7789D01*
X63535Y7797D01*
X63524Y7802D01*
X63509Y7806D01*
X63494Y7810D01*
X63477Y7811D01*
D02*
G37*
G36*
X58108Y7811D02*
X58100D01*
X58091Y7810D01*
X58082Y7808D01*
X58069Y7804D01*
X58056Y7799D01*
X58041Y7791D01*
X58028Y7782D01*
X58026Y7780D01*
X58022Y7776D01*
X58017Y7771D01*
X58009Y7761D01*
X58004Y7749D01*
X57998Y7736D01*
X57995Y7719D01*
X57993Y7699D01*
Y7700D01*
Y7347D01*
Y7689D01*
X57995Y7680D01*
X57996Y7669D01*
X58002Y7656D01*
X58008Y7643D01*
X58017Y7630D01*
X58028Y7617D01*
X58030Y7615D01*
X58033Y7613D01*
X58041Y7608D01*
X58050Y7602D01*
X58061Y7597D01*
X58076Y7593D01*
X58091Y7589D01*
X58108Y7587D01*
X58115Y7587D01*
X58124Y7589D01*
X58135Y7591D01*
X58148Y7595D01*
X58161Y7599D01*
X58176Y7606D01*
X58189Y7615D01*
X58191Y7617D01*
X58195Y7621D01*
X58200Y7628D01*
X58206Y7637D01*
X58211Y7649D01*
X58217Y7663D01*
X58221Y7680D01*
X58222Y7699D01*
Y7561D01*
Y7708D01*
X58221Y7715D01*
X58219Y7728D01*
X58215Y7741D01*
X58208Y7754D01*
X58200Y7767D01*
X58189Y7780D01*
X58187Y7782D01*
X58183Y7786D01*
X58176Y7789D01*
X58165Y7797D01*
X58154Y7802D01*
X58139Y7806D01*
X58124Y7810D01*
X58108Y7811D01*
D02*
G37*
G36*
X65025Y7800D02*
Y7674D01*
X65024Y7689D01*
X65020Y7706D01*
X65016Y7724D01*
X65009Y7741D01*
X64998Y7758D01*
X64985Y7771D01*
X64983Y7773D01*
X64977Y7776D01*
X64968Y7780D01*
X64955Y7786D01*
X64938Y7791D01*
X64918Y7797D01*
X64896Y7799D01*
X64870Y7800D01*
X64768D01*
X64753Y7799D01*
X64722Y7795D01*
X64705Y7791D01*
X64692Y7787D01*
X64690D01*
X64687Y7786D01*
X64674Y7776D01*
X64659Y7763D01*
X64651Y7752D01*
X64646Y7741D01*
Y7739D01*
X64642Y7736D01*
X64640Y7726D01*
X64635Y7715D01*
X64629Y7700D01*
X64624Y7682D01*
X64618Y7660D01*
X64611Y7634D01*
X64429Y6958D01*
X64250Y7634D01*
Y7637D01*
X64246Y7647D01*
X64242Y7660D01*
X64238Y7674D01*
X64227Y7710D01*
X64222Y7726D01*
X64216Y7741D01*
Y7743D01*
X64212Y7747D01*
X64211Y7752D01*
X64205Y7760D01*
X64190Y7774D01*
X64181Y7782D01*
X64170Y7787D01*
X64168D01*
X64164Y7789D01*
X64155Y7791D01*
X64144Y7795D01*
X64131Y7797D01*
X64112Y7799D01*
X64092Y7800D01*
X63979D01*
X63964Y7799D01*
X63950Y7797D01*
X63931Y7793D01*
X63911Y7787D01*
X63892Y7780D01*
X63875Y7771D01*
X63874Y7769D01*
X63868Y7765D01*
X63863Y7758D01*
X63853Y7747D01*
X63846Y7732D01*
X63840Y7713D01*
X63835Y7689D01*
X63833Y7661D01*
Y6543D01*
X65025D01*
D01*
X64920D01*
X64929Y6545D01*
X64942Y6547D01*
X64955Y6550D01*
X64968Y6558D01*
X64981Y6565D01*
X64994Y6576D01*
X64996Y6578D01*
X64999Y6584D01*
X65003Y6591D01*
X65009Y6602D01*
X65016Y6619D01*
X65020Y6638D01*
X65024Y6658D01*
X65025Y6684D01*
Y7800D01*
D02*
G37*
G36*
X62707Y7480D02*
X62692D01*
D01*
D01*
D01*
X62298D01*
X62692D01*
X62676Y7478D01*
X62653Y7476D01*
X62627Y7473D01*
X62602Y7469D01*
X62572Y7462D01*
X62544Y7452D01*
X62540Y7450D01*
X62531Y7449D01*
X62518Y7441D01*
X62500Y7434D01*
X62479Y7424D01*
X62459Y7413D01*
X62437Y7400D01*
X62416Y7386D01*
X62415Y7384D01*
X62407Y7378D01*
X62398Y7371D01*
X62387Y7360D01*
X62374Y7347D01*
X62361Y7332D01*
X62350Y7315D01*
X62339Y7297D01*
X62337Y7295D01*
X62335Y7289D01*
X62329Y7280D01*
X62324Y7269D01*
X62315Y7241D01*
X62313Y7226D01*
X62311Y7212D01*
Y7210D01*
Y7204D01*
X62313Y7197D01*
X62315Y7187D01*
X62318Y7174D01*
X62324Y7163D01*
X62331Y7150D01*
X62342Y7139D01*
X62344Y7137D01*
X62348Y7136D01*
X62353Y7130D01*
X62363Y7126D01*
X62374Y7121D01*
X62387Y7115D01*
X62400Y7113D01*
X62416Y7112D01*
X62420D01*
X62433Y7113D01*
X62448Y7117D01*
X62463Y7126D01*
X62466Y7130D01*
X62476Y7137D01*
X62489Y7152D01*
X62505Y7174D01*
X62507Y7178D01*
X62513Y7186D01*
X62522Y7197D01*
X62533Y7212D01*
X62546Y7226D01*
X62561Y7243D01*
X62577Y7258D01*
X62594Y7271D01*
X62596Y7273D01*
X62602Y7276D01*
X62613Y7282D01*
X62626Y7287D01*
X62642Y7293D01*
X62663Y7299D01*
X62685Y7302D01*
X62711Y7304D01*
X62720D01*
X62727Y7302D01*
X62746Y7300D01*
X62770Y7295D01*
X62796Y7284D01*
X62824Y7269D01*
X62850Y7250D01*
X62863Y7237D01*
X62876Y7223D01*
X62877Y7219D01*
X62885Y7208D01*
X62894Y7189D01*
X62905Y7165D01*
X62918Y7134D01*
X62927Y7097D01*
X62935Y7054D01*
X62937Y7004D01*
Y7000D01*
Y6993D01*
Y6980D01*
X62935Y6965D01*
X62933Y6947D01*
X62931Y6926D01*
X62922Y6884D01*
Y6882D01*
X62918Y6875D01*
X62914Y6865D01*
X62909Y6852D01*
X62896Y6823D01*
X62876Y6791D01*
X62874Y6789D01*
X62870Y6786D01*
X62863Y6778D01*
X62855Y6771D01*
X62844Y6762D01*
X62831Y6752D01*
X62802Y6734D01*
X62800D01*
X62794Y6730D01*
X62785Y6728D01*
X62774Y6725D01*
X62759Y6721D01*
X62744Y6719D01*
X62707Y6715D01*
X62696D01*
X62683Y6717D01*
X62666Y6719D01*
X62648Y6723D01*
X62627Y6728D01*
X62607Y6736D01*
X62589Y6747D01*
X62587Y6749D01*
X62579Y6752D01*
X62570Y6760D01*
X62559Y6771D01*
X62546Y6784D01*
X62531Y6802D01*
X62516Y6821D01*
X62502Y6845D01*
X62500Y6847D01*
X62498Y6850D01*
X62494Y6858D01*
X62489Y6867D01*
X62474Y6886D01*
X62457Y6904D01*
X62455Y6906D01*
X62452Y6908D01*
X62448Y6912D01*
X62440Y6915D01*
X62420Y6923D01*
X62409Y6926D01*
X62389D01*
X62381Y6925D01*
X62372Y6923D01*
X62361Y6919D01*
X62348Y6913D01*
X62337Y6906D01*
X62326Y6895D01*
X62324Y6893D01*
X62322Y6889D01*
X62316Y6884D01*
X62311Y6875D01*
X62302Y6852D01*
X62300Y6839D01*
X62298Y6826D01*
Y6828D01*
Y6819D01*
X62300Y6810D01*
X62302Y6799D01*
X62303Y6786D01*
X62309Y6769D01*
X62315Y6752D01*
X62324Y6734D01*
X62326Y6732D01*
X62329Y6726D01*
X62335Y6717D01*
X62344Y6704D01*
X62355Y6689D01*
X62368Y6675D01*
X62385Y6658D01*
X62403Y6641D01*
X62405Y6639D01*
X62413Y6634D01*
X62424Y6626D01*
X62439Y6617D01*
X62459Y6606D01*
X62481Y6593D01*
X62507Y6582D01*
X62535Y6571D01*
X62539Y6569D01*
X62550Y6567D01*
X62565Y6563D01*
X62587Y6558D01*
X62614Y6552D01*
X62644Y6549D01*
X62679Y6547D01*
X62716Y6545D01*
X62737D01*
X62752Y6547D01*
X62770Y6549D01*
X62790Y6552D01*
X62813Y6556D01*
X62839Y6560D01*
X62890Y6575D01*
X62918Y6586D01*
X62946Y6597D01*
X62974Y6612D01*
X63001Y6628D01*
X63026Y6647D01*
X63050Y6669D01*
X63051Y6671D01*
X63055Y6675D01*
X63061Y6682D01*
X63068Y6691D01*
X63077Y6704D01*
X63087Y6719D01*
X63098Y6738D01*
X63109Y6758D01*
X63120Y6780D01*
X63131Y6804D01*
X63140Y6832D01*
X63150Y6862D01*
X63157Y6893D01*
X63163Y6928D01*
X63166Y6963D01*
X63168Y7002D01*
Y6558D01*
Y7026D01*
X63166Y7037D01*
X63164Y7052D01*
X63161Y7086D01*
X63155Y7124D01*
X63146Y7167D01*
X63133Y7210D01*
X63114Y7250D01*
Y7252D01*
X63113Y7256D01*
X63109Y7262D01*
X63103Y7269D01*
X63092Y7287D01*
X63074Y7313D01*
X63051Y7339D01*
X63024Y7367D01*
X62992Y7395D01*
X62955Y7419D01*
X62953D01*
X62950Y7421D01*
X62944Y7424D01*
X62937Y7428D01*
X62927Y7434D01*
X62914Y7437D01*
X62902Y7443D01*
X62885Y7450D01*
X62850Y7462D01*
X62807Y7471D01*
X62759Y7478D01*
X62707Y7480D01*
D02*
G37*
G36*
X59878D02*
X59863D01*
D01*
D01*
D01*
X59469D01*
X59863D01*
X59846Y7478D01*
X59824Y7476D01*
X59798Y7473D01*
X59772Y7469D01*
X59743Y7462D01*
X59715Y7452D01*
X59711Y7450D01*
X59702Y7449D01*
X59689Y7441D01*
X59670Y7434D01*
X59650Y7424D01*
X59630Y7413D01*
X59607Y7400D01*
X59587Y7386D01*
X59585Y7384D01*
X59578Y7378D01*
X59569Y7371D01*
X59557Y7360D01*
X59544Y7347D01*
X59531Y7332D01*
X59520Y7315D01*
X59509Y7297D01*
X59507Y7295D01*
X59506Y7289D01*
X59500Y7280D01*
X59494Y7269D01*
X59485Y7241D01*
X59483Y7226D01*
X59481Y7212D01*
Y7210D01*
Y7204D01*
X59483Y7197D01*
X59485Y7187D01*
X59489Y7174D01*
X59494Y7163D01*
X59502Y7150D01*
X59513Y7139D01*
X59515Y7137D01*
X59519Y7136D01*
X59524Y7130D01*
X59533Y7126D01*
X59544Y7121D01*
X59557Y7115D01*
X59570Y7113D01*
X59587Y7112D01*
X59591D01*
X59604Y7113D01*
X59619Y7117D01*
X59633Y7126D01*
X59637Y7130D01*
X59646Y7137D01*
X59659Y7152D01*
X59676Y7174D01*
X59678Y7178D01*
X59683Y7186D01*
X59693Y7197D01*
X59704Y7212D01*
X59717Y7226D01*
X59731Y7243D01*
X59748Y7258D01*
X59765Y7271D01*
X59767Y7273D01*
X59772Y7276D01*
X59783Y7282D01*
X59796Y7287D01*
X59813Y7293D01*
X59833Y7299D01*
X59856Y7302D01*
X59881Y7304D01*
X59891D01*
X59898Y7302D01*
X59917Y7300D01*
X59941Y7295D01*
X59967Y7284D01*
X59994Y7269D01*
X60020Y7250D01*
X60033Y7237D01*
X60046Y7223D01*
X60048Y7219D01*
X60056Y7208D01*
X60065Y7189D01*
X60076Y7165D01*
X60089Y7134D01*
X60098Y7097D01*
X60105Y7054D01*
X60107Y7004D01*
Y7000D01*
Y6993D01*
Y6980D01*
X60105Y6965D01*
X60104Y6947D01*
X60102Y6926D01*
X60093Y6884D01*
Y6882D01*
X60089Y6875D01*
X60085Y6865D01*
X60080Y6852D01*
X60067Y6823D01*
X60046Y6791D01*
X60044Y6789D01*
X60041Y6786D01*
X60033Y6778D01*
X60026Y6771D01*
X60015Y6762D01*
X60002Y6752D01*
X59972Y6734D01*
X59970D01*
X59965Y6730D01*
X59956Y6728D01*
X59944Y6725D01*
X59930Y6721D01*
X59915Y6719D01*
X59878Y6715D01*
X59867D01*
X59854Y6717D01*
X59837Y6719D01*
X59818Y6723D01*
X59798Y6728D01*
X59778Y6736D01*
X59759Y6747D01*
X59757Y6749D01*
X59750Y6752D01*
X59741Y6760D01*
X59730Y6771D01*
X59717Y6784D01*
X59702Y6802D01*
X59687Y6821D01*
X59672Y6845D01*
X59670Y6847D01*
X59669Y6850D01*
X59665Y6858D01*
X59659Y6867D01*
X59644Y6886D01*
X59628Y6904D01*
X59626Y6906D01*
X59622Y6908D01*
X59619Y6912D01*
X59611Y6915D01*
X59591Y6923D01*
X59580Y6926D01*
X59559D01*
X59552Y6925D01*
X59543Y6923D01*
X59531Y6919D01*
X59519Y6913D01*
X59507Y6906D01*
X59496Y6895D01*
X59494Y6893D01*
X59493Y6889D01*
X59487Y6884D01*
X59481Y6875D01*
X59472Y6852D01*
X59470Y6839D01*
X59469Y6826D01*
Y6819D01*
X59470Y6810D01*
X59472Y6799D01*
X59474Y6786D01*
X59480Y6769D01*
X59485Y6752D01*
X59494Y6734D01*
X59496Y6732D01*
X59500Y6726D01*
X59506Y6717D01*
X59515Y6704D01*
X59526Y6689D01*
X59539Y6675D01*
X59556Y6658D01*
X59574Y6641D01*
X59576Y6639D01*
X59583Y6634D01*
X59594Y6626D01*
X59609Y6617D01*
X59630Y6606D01*
X59652Y6593D01*
X59678Y6582D01*
X59706Y6571D01*
X59709Y6569D01*
X59720Y6567D01*
X59735Y6563D01*
X59757Y6558D01*
X59785Y6552D01*
X59815Y6549D01*
X59850Y6547D01*
X59887Y6545D01*
X59907D01*
X59922Y6547D01*
X59941Y6549D01*
X59961Y6552D01*
X59983Y6556D01*
X60009Y6560D01*
X60061Y6575D01*
X60089Y6586D01*
X60117Y6597D01*
X60144Y6612D01*
X60172Y6628D01*
X60196Y6647D01*
X60220Y6669D01*
X60222Y6671D01*
X60226Y6675D01*
X60231Y6682D01*
X60239Y6691D01*
X60248Y6704D01*
X60257Y6719D01*
X60268Y6738D01*
X60280Y6758D01*
X60291Y6780D01*
X60302Y6804D01*
X60311Y6832D01*
X60320Y6862D01*
X60328Y6893D01*
X60333Y6928D01*
X60337Y6963D01*
X60339Y7002D01*
Y6621D01*
Y7026D01*
X60337Y7037D01*
X60335Y7052D01*
X60331Y7086D01*
X60326Y7124D01*
X60317Y7167D01*
X60304Y7210D01*
X60285Y7250D01*
Y7252D01*
X60283Y7256D01*
X60280Y7262D01*
X60274Y7269D01*
X60263Y7287D01*
X60244Y7313D01*
X60222Y7339D01*
X60194Y7367D01*
X60163Y7395D01*
X60126Y7419D01*
X60124D01*
X60120Y7421D01*
X60115Y7424D01*
X60107Y7428D01*
X60098Y7434D01*
X60085Y7437D01*
X60072Y7443D01*
X60056Y7450D01*
X60020Y7462D01*
X59978Y7471D01*
X59930Y7478D01*
X59878Y7480D01*
D02*
G37*
G36*
X54556Y7808D02*
X53689D01*
X54108D01*
X54097Y7806D01*
X54084D01*
X54054Y7802D01*
X54019Y7799D01*
X53982Y7791D01*
X53945Y7780D01*
X53910Y7767D01*
X53908Y7765D01*
X53901Y7761D01*
X53889Y7756D01*
X53875Y7747D01*
X53858Y7736D01*
X53841Y7723D01*
X53823Y7708D01*
X53806Y7691D01*
X53804Y7689D01*
X53799Y7684D01*
X53789Y7673D01*
X53780Y7660D01*
X53769Y7645D01*
X53756Y7626D01*
X53745Y7604D01*
X53736Y7582D01*
X53734Y7580D01*
X53732Y7571D01*
X53728Y7560D01*
X53723Y7543D01*
X53717Y7524D01*
X53714Y7502D01*
X53712Y7478D01*
X53710Y7454D01*
Y7452D01*
Y7449D01*
Y7443D01*
Y7436D01*
X53712Y7417D01*
X53717Y7391D01*
X53723Y7362D01*
X53732Y7330D01*
X53745Y7297D01*
X53764Y7263D01*
X53765Y7260D01*
X53773Y7249D01*
X53782Y7234D01*
X53797Y7215D01*
X53812Y7193D01*
X53830Y7171D01*
X53849Y7149D01*
X53869Y7128D01*
X53871Y7126D01*
X53880Y7119D01*
X53893Y7108D01*
X53912Y7091D01*
X53938Y7071D01*
X53969Y7043D01*
X54006Y7013D01*
X54051Y6976D01*
X54052Y6975D01*
X54056Y6973D01*
X54062Y6967D01*
X54071Y6960D01*
X54093Y6941D01*
X54119Y6917D01*
X54149Y6891D01*
X54176Y6865D01*
X54202Y6839D01*
X54214Y6826D01*
X54223Y6815D01*
Y6813D01*
X54226Y6812D01*
X54236Y6800D01*
X54249Y6784D01*
X54265Y6762D01*
X53814D01*
X53802Y6760D01*
X53788Y6758D01*
X53771Y6754D01*
X53754Y6750D01*
X53738Y6743D01*
X53725Y6734D01*
X53723Y6732D01*
X53719Y6728D01*
X53714Y6723D01*
X53706Y6715D01*
X53701Y6704D01*
X53695Y6691D01*
X53691Y6678D01*
X53689Y6662D01*
D01*
Y6654D01*
X53691Y6647D01*
X53693Y6638D01*
X53697Y6626D01*
X53701Y6613D01*
X53708Y6602D01*
X53717Y6591D01*
X53719Y6589D01*
X53723Y6588D01*
X53728Y6582D01*
X53738Y6578D01*
X53751Y6573D01*
X53764Y6567D01*
X53780Y6565D01*
X53801Y6563D01*
X53689D01*
X54432D01*
X54443Y6565D01*
X54456Y6567D01*
X54473Y6571D01*
X54489Y6578D01*
X54506Y6586D01*
X54521Y6597D01*
X54523Y6599D01*
X54526Y6602D01*
X54532Y6610D01*
X54538Y6621D01*
X54545Y6632D01*
X54551Y6647D01*
X54554Y6663D01*
X54556Y6680D01*
Y6686D01*
X54554Y6693D01*
X54552Y6700D01*
X54551Y6713D01*
X54547Y6726D01*
X54541Y6741D01*
X54534Y6760D01*
X54532Y6762D01*
X54530Y6769D01*
X54525Y6776D01*
X54519Y6789D01*
X54502Y6815D01*
X54493Y6828D01*
X54484Y6839D01*
X54482Y6841D01*
X54478Y6845D01*
X54473Y6850D01*
X54465Y6860D01*
X54454Y6869D01*
X54443Y6880D01*
X54415Y6908D01*
X54384Y6939D01*
X54351Y6973D01*
X54315Y7006D01*
X54280Y7037D01*
X54278Y7039D01*
X54276Y7041D01*
X54265Y7050D01*
X54249Y7065D01*
X54230Y7082D01*
X54208Y7100D01*
X54188Y7119D01*
X54167Y7136D01*
X54151Y7149D01*
X54147Y7150D01*
X54139Y7158D01*
X54126Y7167D01*
X54110Y7178D01*
X54093Y7193D01*
X54073Y7210D01*
X54054Y7228D01*
X54036Y7247D01*
X54034Y7249D01*
X54028Y7256D01*
X54019Y7265D01*
X54010Y7278D01*
X53999Y7293D01*
X53986Y7312D01*
X53975Y7330D01*
X53965Y7349D01*
X53964Y7350D01*
X53962Y7358D01*
X53958Y7367D01*
X53952Y7380D01*
X53949Y7397D01*
X53945Y7413D01*
X53943Y7432D01*
X53941Y7450D01*
Y7452D01*
Y7460D01*
X53943Y7469D01*
X53945Y7482D01*
X53947Y7497D01*
X53952Y7513D01*
X53958Y7530D01*
X53967Y7547D01*
X53969Y7549D01*
X53973Y7554D01*
X53978Y7561D01*
X53986Y7571D01*
X53995Y7582D01*
X54008Y7593D01*
X54021Y7604D01*
X54038Y7613D01*
X54039Y7615D01*
X54045Y7617D01*
X54054Y7621D01*
X54065Y7626D01*
X54080Y7630D01*
X54097Y7634D01*
X54115Y7636D01*
X54134Y7637D01*
X54145D01*
X54152Y7636D01*
X54173Y7632D01*
X54197Y7624D01*
X54225Y7613D01*
X54254Y7597D01*
X54269Y7586D01*
X54282Y7573D01*
X54295Y7556D01*
X54308Y7539D01*
X54310Y7536D01*
X54312Y7532D01*
X54315Y7526D01*
X54319Y7517D01*
X54325Y7504D01*
X54330Y7489D01*
X54338Y7469D01*
Y7467D01*
X54341Y7460D01*
X54345Y7450D01*
X54351Y7437D01*
X54363Y7410D01*
X54373Y7395D01*
X54382Y7382D01*
X54384Y7380D01*
X54386Y7378D01*
X54391Y7373D01*
X54401Y7367D01*
X54410Y7362D01*
X54423Y7358D01*
X54438Y7354D01*
X54454Y7352D01*
X54462D01*
X54469Y7354D01*
X54478Y7356D01*
X54489Y7360D01*
X54502Y7363D01*
X54513Y7371D01*
X54525Y7380D01*
X54526Y7382D01*
X54528Y7386D01*
X54534Y7391D01*
X54538Y7400D01*
X54543Y7412D01*
X54549Y7424D01*
X54551Y7439D01*
X54552Y7456D01*
Y7458D01*
Y7467D01*
X54551Y7478D01*
X54549Y7493D01*
X54547Y7511D01*
X54541Y7532D01*
X54536Y7554D01*
X54526Y7578D01*
X54525Y7582D01*
X54521Y7589D01*
X54515Y7600D01*
X54506Y7615D01*
X54497Y7634D01*
X54482Y7652D01*
X54467Y7673D01*
X54449Y7691D01*
X54447Y7693D01*
X54439Y7700D01*
X54428Y7710D01*
X54414Y7721D01*
X54393Y7734D01*
X54371Y7749D01*
X54345Y7761D01*
X54317Y7774D01*
X54315D01*
X54314Y7776D01*
X54302Y7780D01*
X54286Y7786D01*
X54264Y7791D01*
X54236Y7797D01*
X54204Y7802D01*
X54169Y7806D01*
X54130Y7808D01*
X54556D01*
D02*
G37*
G36*
X52501D02*
X51634D01*
X52053D01*
X52042Y7806D01*
X52029D01*
X51999Y7802D01*
X51964Y7799D01*
X51927Y7791D01*
X51890Y7780D01*
X51854Y7767D01*
X51853Y7765D01*
X51845Y7761D01*
X51834Y7756D01*
X51819Y7747D01*
X51803Y7736D01*
X51786Y7723D01*
X51767Y7708D01*
X51751Y7691D01*
X51749Y7689D01*
X51743Y7684D01*
X51734Y7673D01*
X51725Y7660D01*
X51714Y7645D01*
X51701Y7626D01*
X51690Y7604D01*
X51680Y7582D01*
X51679Y7580D01*
X51677Y7571D01*
X51673Y7560D01*
X51667Y7543D01*
X51662Y7524D01*
X51658Y7502D01*
X51656Y7478D01*
X51655Y7454D01*
Y7452D01*
Y7449D01*
Y7443D01*
Y7436D01*
X51656Y7417D01*
X51662Y7391D01*
X51667Y7362D01*
X51677Y7330D01*
X51690Y7297D01*
X51708Y7263D01*
X51710Y7260D01*
X51717Y7249D01*
X51727Y7234D01*
X51742Y7215D01*
X51756Y7193D01*
X51775Y7171D01*
X51793Y7149D01*
X51814Y7128D01*
X51816Y7126D01*
X51825Y7119D01*
X51838Y7108D01*
X51856Y7091D01*
X51882Y7071D01*
X51914Y7043D01*
X51951Y7013D01*
X51995Y6976D01*
X51997Y6975D01*
X52001Y6973D01*
X52006Y6967D01*
X52016Y6960D01*
X52038Y6941D01*
X52064Y6917D01*
X52093Y6891D01*
X52121Y6865D01*
X52147Y6839D01*
X52158Y6826D01*
X52167Y6815D01*
Y6813D01*
X52171Y6812D01*
X52180Y6800D01*
X52193Y6784D01*
X52210Y6762D01*
X51758D01*
X51747Y6760D01*
X51732Y6758D01*
X51716Y6754D01*
X51699Y6750D01*
X51682Y6743D01*
X51669Y6734D01*
X51667Y6732D01*
X51664Y6728D01*
X51658Y6723D01*
X51651Y6715D01*
X51645Y6704D01*
X51640Y6691D01*
X51636Y6678D01*
X51634Y6662D01*
D01*
Y6654D01*
X51636Y6647D01*
X51638Y6638D01*
X51642Y6626D01*
X51645Y6613D01*
X51653Y6602D01*
X51662Y6591D01*
X51664Y6589D01*
X51667Y6588D01*
X51673Y6582D01*
X51682Y6578D01*
X51695Y6573D01*
X51708Y6567D01*
X51725Y6565D01*
X51745Y6563D01*
X51634D01*
X52377D01*
X52388Y6565D01*
X52401Y6567D01*
X52417Y6571D01*
X52434Y6578D01*
X52451Y6586D01*
X52466Y6597D01*
X52467Y6599D01*
X52471Y6602D01*
X52477Y6610D01*
X52482Y6621D01*
X52490Y6632D01*
X52495Y6647D01*
X52499Y6663D01*
X52501Y6680D01*
Y6686D01*
X52499Y6693D01*
X52497Y6700D01*
X52495Y6713D01*
X52491Y6726D01*
X52486Y6741D01*
X52479Y6760D01*
X52477Y6762D01*
X52475Y6769D01*
X52469Y6776D01*
X52464Y6789D01*
X52447Y6815D01*
X52438Y6828D01*
X52429Y6839D01*
X52427Y6841D01*
X52423Y6845D01*
X52417Y6850D01*
X52410Y6860D01*
X52399Y6869D01*
X52388Y6880D01*
X52360Y6908D01*
X52329Y6939D01*
X52295Y6973D01*
X52260Y7006D01*
X52225Y7037D01*
X52223Y7039D01*
X52221Y7041D01*
X52210Y7050D01*
X52193Y7065D01*
X52175Y7082D01*
X52153Y7100D01*
X52132Y7119D01*
X52112Y7136D01*
X52095Y7149D01*
X52092Y7150D01*
X52084Y7158D01*
X52071Y7167D01*
X52054Y7178D01*
X52038Y7193D01*
X52017Y7210D01*
X51999Y7228D01*
X51980Y7247D01*
X51979Y7249D01*
X51973Y7256D01*
X51964Y7265D01*
X51954Y7278D01*
X51943Y7293D01*
X51930Y7312D01*
X51919Y7330D01*
X51910Y7349D01*
X51908Y7350D01*
X51906Y7358D01*
X51903Y7367D01*
X51897Y7380D01*
X51893Y7397D01*
X51890Y7413D01*
X51888Y7432D01*
X51886Y7450D01*
Y7452D01*
Y7460D01*
X51888Y7469D01*
X51890Y7482D01*
X51892Y7497D01*
X51897Y7513D01*
X51903Y7530D01*
X51912Y7547D01*
X51914Y7549D01*
X51917Y7554D01*
X51923Y7561D01*
X51930Y7571D01*
X51940Y7582D01*
X51953Y7593D01*
X51966Y7604D01*
X51982Y7613D01*
X51984Y7615D01*
X51990Y7617D01*
X51999Y7621D01*
X52010Y7626D01*
X52025Y7630D01*
X52042Y7634D01*
X52060Y7636D01*
X52079Y7637D01*
X52090D01*
X52097Y7636D01*
X52117Y7632D01*
X52142Y7624D01*
X52169Y7613D01*
X52199Y7597D01*
X52214Y7586D01*
X52227Y7573D01*
X52240Y7556D01*
X52253Y7539D01*
X52254Y7536D01*
X52256Y7532D01*
X52260Y7526D01*
X52264Y7517D01*
X52269Y7504D01*
X52275Y7489D01*
X52282Y7469D01*
Y7467D01*
X52286Y7460D01*
X52290Y7450D01*
X52295Y7437D01*
X52308Y7410D01*
X52317Y7395D01*
X52327Y7382D01*
X52329Y7380D01*
X52330Y7378D01*
X52336Y7373D01*
X52345Y7367D01*
X52354Y7362D01*
X52367Y7358D01*
X52382Y7354D01*
X52399Y7352D01*
X52406D01*
X52414Y7354D01*
X52423Y7356D01*
X52434Y7360D01*
X52447Y7363D01*
X52458Y7371D01*
X52469Y7380D01*
X52471Y7382D01*
X52473Y7386D01*
X52479Y7391D01*
X52482Y7400D01*
X52488Y7412D01*
X52493Y7424D01*
X52495Y7439D01*
X52497Y7456D01*
Y7458D01*
Y7467D01*
X52495Y7478D01*
X52493Y7493D01*
X52491Y7511D01*
X52486Y7532D01*
X52480Y7554D01*
X52471Y7578D01*
X52469Y7582D01*
X52466Y7589D01*
X52460Y7600D01*
X52451Y7615D01*
X52441Y7634D01*
X52427Y7652D01*
X52412Y7673D01*
X52393Y7691D01*
X52391Y7693D01*
X52384Y7700D01*
X52373Y7710D01*
X52358Y7721D01*
X52338Y7734D01*
X52316Y7749D01*
X52290Y7761D01*
X52262Y7774D01*
X52260D01*
X52258Y7776D01*
X52247Y7780D01*
X52230Y7786D01*
X52208Y7791D01*
X52180Y7797D01*
X52149Y7802D01*
X52114Y7806D01*
X52075Y7808D01*
X52501D01*
D02*
G37*
G36*
X59157Y7821D02*
X59148D01*
X59139Y7819D01*
X59126Y7817D01*
X59113Y7811D01*
X59098Y7806D01*
X59085Y7797D01*
X59072Y7784D01*
X59070Y7782D01*
X59067Y7776D01*
X59063Y7769D01*
X59056Y7758D01*
X59050Y7743D01*
X59046Y7724D01*
X59043Y7704D01*
X59041Y7680D01*
Y7337D01*
X59039Y7339D01*
X59033Y7347D01*
X59026Y7356D01*
X59015Y7367D01*
X59002Y7380D01*
X58987Y7393D01*
X58972Y7408D01*
X58957Y7419D01*
X58956Y7421D01*
X58950Y7424D01*
X58941Y7430D01*
X58930Y7436D01*
X58917Y7443D01*
X58900Y7450D01*
X58865Y7463D01*
X58863D01*
X58856Y7465D01*
X58845Y7469D01*
X58832Y7471D01*
X58815Y7474D01*
X58796Y7476D01*
X58756Y7478D01*
X58741D01*
X58724Y7476D01*
X58702Y7473D01*
X58678Y7469D01*
X58652Y7462D01*
X58626Y7452D01*
X58600Y7439D01*
X58596Y7437D01*
X58589Y7432D01*
X58576Y7424D01*
X58561Y7412D01*
X58545Y7397D01*
X58526Y7378D01*
X58508Y7356D01*
X58493Y7332D01*
X58491Y7330D01*
X58489Y7324D01*
X58485Y7317D01*
X58480Y7306D01*
X58474Y7291D01*
X58469Y7276D01*
X58459Y7239D01*
Y7237D01*
X58458Y7230D01*
X58456Y7221D01*
X58454Y7206D01*
Y7189D01*
X58452Y7169D01*
X58450Y7147D01*
Y6671D01*
X58452Y6658D01*
X58454Y6643D01*
X58458Y6626D01*
X58465Y6610D01*
X58472Y6593D01*
X58483Y6578D01*
X58485Y6576D01*
X58489Y6573D01*
X58496Y6567D01*
X58506Y6562D01*
X58517Y6554D01*
X58532Y6549D01*
X58548Y6545D01*
X58567Y6543D01*
X58450D01*
X58572D01*
X58578Y6545D01*
X58583D01*
X58602Y6550D01*
X58622Y6560D01*
X58633Y6567D01*
X58645Y6576D01*
X58654Y6588D01*
X58661Y6602D01*
X58669Y6617D01*
X58674Y6636D01*
X58678Y6658D01*
X58680Y6682D01*
Y7071D01*
Y7073D01*
Y7076D01*
Y7082D01*
Y7089D01*
X58682Y7108D01*
X58683Y7134D01*
X58687Y7160D01*
X58695Y7187D01*
X58702Y7215D01*
X58713Y7239D01*
X58715Y7241D01*
X58720Y7249D01*
X58728Y7258D01*
X58741Y7271D01*
X58757Y7282D01*
X58780Y7291D01*
X58807Y7299D01*
X58839Y7300D01*
X58850D01*
X58861Y7299D01*
X58876Y7297D01*
X58893Y7291D01*
X58911Y7286D01*
X58932Y7276D01*
X58950Y7265D01*
X58952Y7263D01*
X58957Y7260D01*
X58967Y7250D01*
X58978Y7239D01*
X58989Y7226D01*
X59000Y7210D01*
X59013Y7191D01*
X59022Y7169D01*
Y7167D01*
X59026Y7160D01*
X59028Y7145D01*
X59032Y7126D01*
X59035Y7102D01*
X59037Y7069D01*
X59041Y7032D01*
Y7010D01*
Y6986D01*
Y6682D01*
Y6678D01*
Y6671D01*
X59043Y6658D01*
X59044Y6643D01*
X59048Y6626D01*
X59054Y6610D01*
X59061Y6593D01*
X59072Y6578D01*
X59074Y6576D01*
X59078Y6573D01*
X59085Y6567D01*
X59094Y6562D01*
X59107Y6554D01*
X59122Y6549D01*
X59139Y6545D01*
X59157Y6543D01*
X58737D01*
X59270D01*
Y7691D01*
X59269Y7704D01*
X59267Y7719D01*
X59263Y7737D01*
X59257Y7754D01*
X59250Y7771D01*
X59241Y7786D01*
X59239Y7787D01*
X59235Y7791D01*
X59228Y7797D01*
X59219Y7804D01*
X59207Y7810D01*
X59193Y7815D01*
X59176Y7819D01*
X59157Y7821D01*
D02*
G37*
G36*
X61985Y7478D02*
X61976D01*
X61965Y7476D01*
X61953Y7474D01*
X61940Y7469D01*
X61926Y7463D01*
X61915Y7454D01*
X61903Y7441D01*
X61902Y7439D01*
X61900Y7434D01*
X61894Y7426D01*
X61890Y7413D01*
X61885Y7399D01*
X61881Y7380D01*
X61878Y7358D01*
X61876Y7334D01*
X61874Y7337D01*
X61868Y7345D01*
X61859Y7358D01*
X61850Y7374D01*
X61837Y7391D01*
X61822Y7410D01*
X61807Y7426D01*
X61791Y7441D01*
X61789Y7443D01*
X61783Y7447D01*
X61772Y7452D01*
X61759Y7460D01*
X61742Y7467D01*
X61722Y7473D01*
X61700Y7476D01*
X61674Y7478D01*
X61465D01*
X61661D01*
X61648Y7476D01*
X61629Y7474D01*
X61607Y7469D01*
X61583Y7463D01*
X61559Y7454D01*
X61533Y7441D01*
X61529Y7439D01*
X61522Y7434D01*
X61511Y7426D01*
X61498Y7415D01*
X61487Y7402D01*
X61476Y7386D01*
X61468Y7365D01*
X61465Y7345D01*
Y7347D01*
Y7337D01*
X61466Y7330D01*
X61468Y7321D01*
X61472Y7310D01*
X61478Y7297D01*
X61485Y7286D01*
X61494Y7274D01*
X61496Y7273D01*
X61500Y7271D01*
X61505Y7267D01*
X61513Y7262D01*
X61533Y7252D01*
X61544Y7250D01*
X61557Y7249D01*
X61565D01*
X61570Y7250D01*
X61578Y7252D01*
X61589Y7254D01*
X61602Y7258D01*
X61618Y7263D01*
X61620D01*
X61626Y7265D01*
X61635Y7269D01*
X61646Y7273D01*
X61674Y7278D01*
X61703Y7280D01*
X61711D01*
X61720Y7278D01*
X61733Y7276D01*
X61746Y7273D01*
X61759Y7269D01*
X61774Y7262D01*
X61787Y7252D01*
X61789Y7250D01*
X61792Y7247D01*
X61798Y7241D01*
X61805Y7232D01*
X61813Y7221D01*
X61822Y7208D01*
X61829Y7191D01*
X61837Y7173D01*
Y7171D01*
X61839Y7163D01*
X61842Y7152D01*
X61846Y7137D01*
X61850Y7119D01*
X61853Y7099D01*
X61857Y7075D01*
X61861Y7049D01*
Y7045D01*
Y7036D01*
X61863Y7021D01*
Y7000D01*
X61865Y6975D01*
Y6945D01*
X61866Y6912D01*
Y6875D01*
Y6682D01*
Y6678D01*
Y6671D01*
X61868Y6658D01*
X61870Y6643D01*
X61874Y6625D01*
X61881Y6608D01*
X61889Y6591D01*
X61900Y6576D01*
X61902Y6575D01*
X61905Y6571D01*
X61913Y6565D01*
X61922Y6560D01*
X61935Y6554D01*
X61950Y6549D01*
X61965Y6545D01*
X61983Y6543D01*
X61465D01*
X62096D01*
Y7337D01*
X62094Y7347D01*
X62090Y7373D01*
X62081Y7400D01*
X62068Y7428D01*
X62059Y7443D01*
X62050Y7454D01*
X62037Y7463D01*
X62022Y7471D01*
X62005Y7476D01*
X61985Y7478D01*
D02*
G37*
G36*
X57759Y7476D02*
X57652D01*
D01*
X57645D01*
X57635Y7474D01*
X57624Y7473D01*
X57611Y7469D01*
X57598Y7462D01*
X57585Y7454D01*
X57572Y7443D01*
X57571Y7441D01*
X57567Y7437D01*
X57563Y7430D01*
X57556Y7419D01*
X57550Y7406D01*
X57547Y7389D01*
X57543Y7371D01*
X57541Y7349D01*
Y7323D01*
X57537Y7324D01*
X57530Y7334D01*
X57517Y7349D01*
X57500Y7365D01*
X57480Y7384D01*
X57458Y7404D01*
X57434Y7423D01*
X57408Y7437D01*
X57404Y7439D01*
X57395Y7443D01*
X57380Y7450D01*
X57361Y7458D01*
X57337Y7463D01*
X57311Y7471D01*
X57280Y7474D01*
X57248Y7476D01*
X57230D01*
X57209Y7473D01*
X57184Y7469D01*
X57154Y7463D01*
X57121Y7452D01*
X57085Y7439D01*
X57052Y7421D01*
X57050D01*
X57048Y7419D01*
X57037Y7410D01*
X57021Y7399D01*
X57000Y7380D01*
X56978Y7358D01*
X56956Y7330D01*
X56932Y7297D01*
X56911Y7260D01*
Y7258D01*
X56910Y7254D01*
X56906Y7249D01*
X56902Y7241D01*
X56898Y7232D01*
X56895Y7219D01*
X56889Y7206D01*
X56884Y7189D01*
X56874Y7154D01*
X56865Y7112D01*
X56860Y7063D01*
X56858Y7012D01*
Y6993D01*
X56860Y6973D01*
X56861Y6949D01*
X56865Y6917D01*
X56871Y6886D01*
X56878Y6850D01*
X56889Y6817D01*
Y6815D01*
X56891Y6813D01*
X56895Y6802D01*
X56902Y6786D01*
X56910Y6765D01*
X56923Y6741D01*
X56935Y6717D01*
X56952Y6691D01*
X56971Y6667D01*
X56972Y6665D01*
X56980Y6658D01*
X56991Y6647D01*
X57006Y6634D01*
X57024Y6619D01*
X57045Y6602D01*
X57069Y6588D01*
X57095Y6575D01*
X57098Y6573D01*
X57108Y6569D01*
X57122Y6565D01*
X57141Y6560D01*
X57163Y6552D01*
X57189Y6549D01*
X57219Y6545D01*
X57248Y6543D01*
X57265D01*
X57284Y6545D01*
X57306Y6549D01*
X57332Y6552D01*
X57359Y6560D01*
X57387Y6569D01*
X57415Y6582D01*
X57419Y6584D01*
X57426Y6589D01*
X57439Y6599D01*
X57456Y6612D01*
X57474Y6628D01*
X57497Y6647D01*
X57519Y6671D01*
X57541Y6699D01*
Y6354D01*
Y6352D01*
Y6347D01*
Y6339D01*
X57543Y6330D01*
X57547Y6306D01*
X57554Y6278D01*
X57569Y6249D01*
X57576Y6236D01*
X57587Y6225D01*
X57600Y6215D01*
X57615Y6208D01*
X57632Y6202D01*
X57652Y6201D01*
X57759D01*
Y7358D01*
X57758Y7369D01*
X57756Y7384D01*
X57752Y7399D01*
X57748Y7415D01*
X57741Y7430D01*
X57732Y7443D01*
X57730Y7445D01*
X57726Y7449D01*
X57719Y7454D01*
X57711Y7460D01*
X57698Y7465D01*
X57685Y7471D01*
X57671Y7474D01*
X57652Y7476D01*
X57759D01*
D02*
G37*
G36*
X53541Y7810D02*
D01*
Y7200D01*
X53540Y7232D01*
X53538Y7267D01*
X53536Y7306D01*
X53532Y7345D01*
X53528Y7384D01*
Y7386D01*
Y7389D01*
X53527Y7393D01*
Y7400D01*
X53523Y7421D01*
X53517Y7445D01*
X53512Y7473D01*
X53504Y7502D01*
X53497Y7532D01*
X53486Y7561D01*
Y7563D01*
X53484Y7567D01*
X53480Y7573D01*
X53477Y7582D01*
X53465Y7602D01*
X53451Y7630D01*
X53430Y7660D01*
X53406Y7689D01*
X53377Y7719D01*
X53343Y7745D01*
X53341D01*
X53340Y7749D01*
X53334Y7750D01*
X53327Y7756D01*
X53317Y7760D01*
X53306Y7765D01*
X53278Y7778D01*
X53245Y7789D01*
X53206Y7800D01*
X53164Y7808D01*
X53115Y7810D01*
X53101D01*
X53084Y7808D01*
X53064Y7806D01*
X53040Y7802D01*
X53012Y7797D01*
X52986Y7789D01*
X52958Y7780D01*
X52954Y7778D01*
X52947Y7774D01*
X52932Y7769D01*
X52916Y7760D01*
X52897Y7747D01*
X52877Y7734D01*
X52854Y7717D01*
X52834Y7697D01*
X52832Y7695D01*
X52825Y7687D01*
X52816Y7676D01*
X52803Y7660D01*
X52788Y7641D01*
X52773Y7617D01*
X52758Y7591D01*
X52743Y7563D01*
Y7561D01*
X52740Y7558D01*
X52738Y7549D01*
X52732Y7537D01*
X52728Y7523D01*
X52723Y7506D01*
X52717Y7486D01*
X52710Y7462D01*
X52704Y7436D01*
X52699Y7406D01*
X52693Y7374D01*
X52688Y7339D01*
X52684Y7300D01*
X52680Y7260D01*
X52678Y7215D01*
Y7121D01*
X52680Y7087D01*
X52682Y7050D01*
X52686Y7012D01*
X52691Y6971D01*
X52697Y6932D01*
Y6930D01*
Y6928D01*
X52699Y6923D01*
X52701Y6915D01*
X52704Y6897D01*
X52710Y6873D01*
X52719Y6843D01*
X52730Y6813D01*
X52743Y6782D01*
X52758Y6750D01*
Y6749D01*
X52760Y6747D01*
X52764Y6741D01*
X52769Y6734D01*
X52780Y6717D01*
X52799Y6695D01*
X52819Y6671D01*
X52845Y6645D01*
X52875Y6621D01*
X52908Y6599D01*
X52910D01*
X52912Y6597D01*
X52917Y6593D01*
X52925Y6591D01*
X52943Y6582D01*
X52967Y6573D01*
X52997Y6562D01*
X53032Y6554D01*
X53069Y6547D01*
X53110Y6545D01*
X52678D01*
X53123D01*
X53132Y6547D01*
X53143D01*
X53156Y6549D01*
X53186Y6554D01*
X53223Y6563D01*
X53260Y6575D01*
X53301Y6593D01*
X53340Y6617D01*
X53341D01*
X53343Y6621D01*
X53349Y6625D01*
X53356Y6630D01*
X53375Y6647D01*
X53395Y6669D01*
X53421Y6699D01*
X53445Y6732D01*
X53469Y6773D01*
X53491Y6817D01*
X53493Y6821D01*
X53495Y6830D01*
X53501Y6843D01*
X53506Y6863D01*
X53512Y6886D01*
X53519Y6912D01*
X53525Y6941D01*
X53530Y6971D01*
Y6973D01*
Y6975D01*
X53532Y6986D01*
X53534Y7002D01*
X53536Y7026D01*
X53538Y7054D01*
X53540Y7086D01*
X53541Y7119D01*
Y6612D01*
Y7810D01*
D02*
G37*
G36*
X51486D02*
D01*
Y7200D01*
X51484Y7232D01*
X51482Y7267D01*
X51480Y7306D01*
X51477Y7345D01*
X51473Y7384D01*
Y7386D01*
Y7389D01*
X51471Y7393D01*
Y7400D01*
X51468Y7421D01*
X51462Y7445D01*
X51456Y7473D01*
X51449Y7502D01*
X51442Y7532D01*
X51430Y7561D01*
Y7563D01*
X51429Y7567D01*
X51425Y7573D01*
X51421Y7582D01*
X51410Y7602D01*
X51395Y7630D01*
X51375Y7660D01*
X51351Y7689D01*
X51321Y7719D01*
X51288Y7745D01*
X51286D01*
X51284Y7749D01*
X51279Y7750D01*
X51271Y7756D01*
X51262Y7760D01*
X51251Y7765D01*
X51223Y7778D01*
X51190Y7789D01*
X51151Y7800D01*
X51108Y7808D01*
X51060Y7810D01*
X51045D01*
X51029Y7808D01*
X51008Y7806D01*
X50984Y7802D01*
X50956Y7797D01*
X50931Y7789D01*
X50903Y7780D01*
X50899Y7778D01*
X50892Y7774D01*
X50877Y7769D01*
X50860Y7760D01*
X50842Y7747D01*
X50821Y7734D01*
X50799Y7717D01*
X50779Y7697D01*
X50777Y7695D01*
X50769Y7687D01*
X50760Y7676D01*
X50747Y7660D01*
X50732Y7641D01*
X50718Y7617D01*
X50703Y7591D01*
X50688Y7563D01*
Y7561D01*
X50684Y7558D01*
X50682Y7549D01*
X50677Y7537D01*
X50673Y7523D01*
X50668Y7506D01*
X50662Y7486D01*
X50655Y7462D01*
X50649Y7436D01*
X50644Y7406D01*
X50638Y7374D01*
X50632Y7339D01*
X50629Y7300D01*
X50625Y7260D01*
X50623Y7215D01*
Y7121D01*
X50625Y7087D01*
X50627Y7050D01*
X50631Y7012D01*
X50636Y6971D01*
X50642Y6932D01*
Y6930D01*
Y6928D01*
X50644Y6923D01*
X50645Y6915D01*
X50649Y6897D01*
X50655Y6873D01*
X50664Y6843D01*
X50675Y6813D01*
X50688Y6782D01*
X50703Y6750D01*
Y6749D01*
X50705Y6747D01*
X50708Y6741D01*
X50714Y6734D01*
X50725Y6717D01*
X50744Y6695D01*
X50764Y6671D01*
X50790Y6645D01*
X50819Y6621D01*
X50853Y6599D01*
X50855D01*
X50856Y6597D01*
X50862Y6593D01*
X50869Y6591D01*
X50888Y6582D01*
X50912Y6573D01*
X50942Y6562D01*
X50977Y6554D01*
X51014Y6547D01*
X51055Y6545D01*
X50623D01*
X51068D01*
X51077Y6547D01*
X51088D01*
X51101Y6549D01*
X51131Y6554D01*
X51168Y6563D01*
X51205Y6575D01*
X51245Y6593D01*
X51284Y6617D01*
X51286D01*
X51288Y6621D01*
X51293Y6625D01*
X51301Y6630D01*
X51319Y6647D01*
X51340Y6669D01*
X51366Y6699D01*
X51390Y6732D01*
X51414Y6773D01*
X51436Y6817D01*
X51438Y6821D01*
X51440Y6830D01*
X51445Y6843D01*
X51451Y6863D01*
X51456Y6886D01*
X51464Y6912D01*
X51469Y6941D01*
X51475Y6971D01*
Y6973D01*
Y6975D01*
X51477Y6986D01*
X51479Y7002D01*
X51480Y7026D01*
X51482Y7054D01*
X51484Y7086D01*
X51486Y7119D01*
Y6617D01*
Y7810D01*
D02*
G37*
G36*
X56369Y7821D02*
X55075D01*
X55700D01*
X55687Y7819D01*
X55674D01*
X55641Y7815D01*
X55602Y7808D01*
X55562Y7800D01*
X55517Y7787D01*
X55473Y7771D01*
X55471D01*
X55467Y7769D01*
X55462Y7765D01*
X55452Y7761D01*
X55443Y7756D01*
X55430Y7750D01*
X55402Y7734D01*
X55369Y7715D01*
X55336Y7691D01*
X55300Y7661D01*
X55265Y7630D01*
X55263Y7628D01*
X55262Y7626D01*
X55256Y7621D01*
X55250Y7615D01*
X55234Y7595D01*
X55213Y7571D01*
X55191Y7541D01*
X55167Y7506D01*
X55145Y7465D01*
X55125Y7423D01*
Y7421D01*
X55123Y7417D01*
X55119Y7412D01*
X55117Y7402D01*
X55113Y7391D01*
X55108Y7378D01*
X55099Y7349D01*
X55091Y7312D01*
X55082Y7269D01*
X55076Y7223D01*
X55075Y7174D01*
D01*
Y7158D01*
X55076Y7145D01*
Y7130D01*
X55078Y7112D01*
X55082Y7091D01*
X55086Y7069D01*
X55097Y7019D01*
X55112Y6965D01*
X55134Y6908D01*
X55149Y6878D01*
X55163Y6850D01*
X55165Y6849D01*
X55167Y6845D01*
X55173Y6836D01*
X55180Y6826D01*
X55187Y6813D01*
X55199Y6799D01*
X55226Y6765D01*
X55260Y6728D01*
X55300Y6689D01*
X55347Y6650D01*
X55400Y6615D01*
X55402D01*
X55408Y6612D01*
X55415Y6608D01*
X55426Y6602D01*
X55439Y6595D01*
X55456Y6588D01*
X55474Y6580D01*
X55497Y6573D01*
X55519Y6565D01*
X55545Y6558D01*
X55599Y6543D01*
X55660Y6534D01*
X55691Y6532D01*
X55723Y6530D01*
X55075D01*
X55739D01*
X55752Y6532D01*
X55769D01*
X55787Y6534D01*
X55808Y6538D01*
X55830Y6541D01*
X55880Y6550D01*
X55936Y6565D01*
X55991Y6588D01*
X56021Y6600D01*
X56049Y6615D01*
X56050Y6617D01*
X56054Y6619D01*
X56063Y6625D01*
X56073Y6630D01*
X56086Y6639D01*
X56100Y6650D01*
X56134Y6676D01*
X56171Y6710D01*
X56210Y6750D01*
X56248Y6797D01*
X56284Y6849D01*
Y6850D01*
X56287Y6856D01*
X56291Y6863D01*
X56297Y6875D01*
X56304Y6889D01*
X56311Y6906D01*
X56319Y6925D01*
X56326Y6945D01*
X56334Y6969D01*
X56341Y6995D01*
X56356Y7049D01*
X56365Y7110D01*
X56367Y7141D01*
X56369Y7174D01*
Y6530D01*
D01*
D01*
Y7191D01*
X56367Y7204D01*
Y7219D01*
X56365Y7237D01*
X56361Y7258D01*
X56358Y7280D01*
X56348Y7330D01*
X56334Y7384D01*
X56311Y7441D01*
X56298Y7469D01*
X56284Y7497D01*
X56282Y7499D01*
X56280Y7504D01*
X56274Y7511D01*
X56267Y7521D01*
X56260Y7534D01*
X56248Y7549D01*
X56221Y7582D01*
X56187Y7621D01*
X56148Y7660D01*
X56100Y7699D01*
X56049Y7734D01*
X56047Y7736D01*
X56041Y7737D01*
X56034Y7741D01*
X56023Y7747D01*
X56008Y7754D01*
X55991Y7761D01*
X55973Y7769D01*
X55952Y7778D01*
X55928Y7786D01*
X55902Y7793D01*
X55849Y7808D01*
X55787Y7817D01*
X55756Y7821D01*
X56369D01*
D02*
G37*
G36*
X61392Y7478D02*
Y7028D01*
X61391Y7047D01*
X61389Y7073D01*
X61385Y7102D01*
X61379Y7134D01*
X61372Y7167D01*
X61361Y7200D01*
Y7202D01*
X61359Y7204D01*
X61355Y7215D01*
X61348Y7232D01*
X61337Y7252D01*
X61326Y7274D01*
X61309Y7300D01*
X61291Y7324D01*
X61270Y7349D01*
X61266Y7352D01*
X61259Y7360D01*
X61246Y7371D01*
X61229Y7384D01*
X61207Y7400D01*
X61183Y7415D01*
X61155Y7432D01*
X61124Y7445D01*
X61122D01*
X61120Y7447D01*
X61109Y7450D01*
X61092Y7456D01*
X61068Y7462D01*
X61041Y7467D01*
X61009Y7473D01*
X60974Y7476D01*
X60937Y7478D01*
X60918D01*
X60900Y7476D01*
X60874Y7474D01*
X60844Y7469D01*
X60811Y7463D01*
X60780Y7454D01*
X60746Y7443D01*
X60744D01*
X60742Y7441D01*
X60731Y7437D01*
X60717Y7430D01*
X60696Y7419D01*
X60674Y7404D01*
X60650Y7389D01*
X60626Y7369D01*
X60602Y7347D01*
X60600Y7345D01*
X60592Y7336D01*
X60581Y7323D01*
X60567Y7306D01*
X60552Y7284D01*
X60537Y7258D01*
X60522Y7230D01*
X60509Y7199D01*
X60507Y7195D01*
X60504Y7184D01*
X60498Y7167D01*
X60493Y7143D01*
X60487Y7115D01*
X60481Y7084D01*
X60478Y7047D01*
X60476Y7010D01*
Y7012D01*
Y6993D01*
X60478Y6973D01*
X60480Y6947D01*
X60483Y6917D01*
X60491Y6886D01*
X60498Y6852D01*
X60509Y6819D01*
X60511Y6815D01*
X60515Y6804D01*
X60522Y6789D01*
X60533Y6769D01*
X60546Y6745D01*
X60561Y6721D01*
X60580Y6695D01*
X60602Y6671D01*
X60604Y6669D01*
X60613Y6660D01*
X60626Y6649D01*
X60642Y6636D01*
X60665Y6619D01*
X60689Y6604D01*
X60717Y6588D01*
X60748Y6575D01*
X60752Y6573D01*
X60763Y6569D01*
X60780Y6565D01*
X60804Y6560D01*
X60831Y6552D01*
X60863Y6549D01*
X60898Y6545D01*
X60937Y6543D01*
X60476D01*
X60954D01*
X60974Y6545D01*
X61000Y6547D01*
X61028Y6550D01*
X61059Y6558D01*
X61092Y6565D01*
X61124Y6576D01*
X61128Y6578D01*
X61139Y6582D01*
X61154Y6591D01*
X61174Y6600D01*
X61196Y6615D01*
X61220Y6632D01*
X61244Y6650D01*
X61268Y6673D01*
X61270Y6676D01*
X61278Y6684D01*
X61289Y6697D01*
X61304Y6715D01*
X61318Y6738D01*
X61333Y6762D01*
X61348Y6789D01*
X61361Y6821D01*
Y6823D01*
X61363Y6825D01*
X61366Y6836D01*
X61370Y6854D01*
X61376Y6876D01*
X61383Y6904D01*
X61387Y6936D01*
X61391Y6973D01*
X61392Y7010D01*
Y6552D01*
Y7478D01*
D02*
G37*
G36*
X63479D02*
X63470D01*
X63461Y7476D01*
X63450Y7474D01*
X63437Y7469D01*
X63424Y7463D01*
X63409Y7454D01*
X63396Y7443D01*
X63394Y7441D01*
X63390Y7437D01*
X63385Y7428D01*
X63379Y7417D01*
X63374Y7404D01*
X63368Y7387D01*
X63364Y7369D01*
X63363Y7347D01*
Y6671D01*
X63364Y6658D01*
X63366Y6643D01*
X63370Y6626D01*
X63377Y6610D01*
X63385Y6593D01*
X63396Y6578D01*
X63398Y6576D01*
X63401Y6573D01*
X63409Y6567D01*
X63418Y6562D01*
X63431Y6554D01*
X63446Y6549D01*
X63461Y6545D01*
X63479Y6543D01*
X63363D01*
X63592D01*
Y7350D01*
X63590Y7363D01*
X63588Y7378D01*
X63585Y7395D01*
X63579Y7412D01*
X63572Y7428D01*
X63561Y7443D01*
X63559Y7445D01*
X63555Y7449D01*
X63548Y7454D01*
X63538Y7462D01*
X63527Y7467D01*
X63513Y7473D01*
X63498Y7476D01*
X63479Y7478D01*
D02*
G37*
G36*
X58109Y7478D02*
X58100D01*
X58091Y7476D01*
X58080Y7474D01*
X58067Y7469D01*
X58054Y7463D01*
X58039Y7454D01*
X58026Y7443D01*
X58024Y7441D01*
X58021Y7437D01*
X58015Y7428D01*
X58009Y7417D01*
X58004Y7404D01*
X57998Y7387D01*
X57995Y7369D01*
X57993Y7347D01*
Y6671D01*
X57995Y6658D01*
X57996Y6643D01*
X58000Y6626D01*
X58008Y6610D01*
X58015Y6593D01*
X58026Y6578D01*
X58028Y6576D01*
X58032Y6573D01*
X58039Y6567D01*
X58048Y6562D01*
X58061Y6554D01*
X58076Y6549D01*
X58091Y6545D01*
X58109Y6543D01*
X57993D01*
X58222Y6543D01*
Y7350D01*
X58221Y7363D01*
X58219Y7378D01*
X58215Y7395D01*
X58209Y7412D01*
X58202Y7428D01*
X58191Y7443D01*
X58189Y7445D01*
X58185Y7449D01*
X58178Y7454D01*
X58169Y7462D01*
X58158Y7467D01*
X58143Y7473D01*
X58128Y7476D01*
X58109Y7478D01*
D02*
G37*
%LPD*%
G36*
X57707Y9503D02*
X57722Y9501D01*
X57741Y9495D01*
X57763Y9488D01*
X57785Y9475D01*
X57807Y9458D01*
X57829Y9434D01*
X57831Y9430D01*
X57839Y9421D01*
X57846Y9406D01*
X57857Y9386D01*
X57866Y9360D01*
X57876Y9329D01*
X57883Y9293D01*
X57885Y9253D01*
Y9251D01*
Y9247D01*
Y9242D01*
X57883Y9234D01*
X57881Y9214D01*
X57878Y9188D01*
X57872Y9160D01*
X57861Y9129D01*
X57848Y9101D01*
X57829Y9073D01*
X57828Y9069D01*
X57820Y9062D01*
X57807Y9053D01*
X57791Y9040D01*
X57770Y9027D01*
X57746Y9018D01*
X57718Y9010D01*
X57689Y9006D01*
X57679D01*
X57670Y9008D01*
X57657Y9010D01*
X57641Y9012D01*
X57624Y9018D01*
X57607Y9023D01*
X57589Y9032D01*
X57587Y9034D01*
X57581Y9038D01*
X57572Y9043D01*
X57561Y9053D01*
X57548Y9064D01*
X57535Y9079D01*
X57522Y9093D01*
X57511Y9112D01*
X57509Y9114D01*
X57505Y9121D01*
X57502Y9132D01*
X57494Y9147D01*
X57489Y9166D01*
X57485Y9188D01*
X57481Y9210D01*
X57479Y9236D01*
Y9238D01*
Y9245D01*
Y9258D01*
X57481Y9271D01*
X57483Y9288D01*
X57487Y9306D01*
X57496Y9343D01*
Y9345D01*
X57498Y9351D01*
X57502Y9360D01*
X57507Y9371D01*
X57520Y9399D01*
X57541Y9427D01*
X57542Y9429D01*
X57546Y9432D01*
X57552Y9440D01*
X57559Y9447D01*
X57570Y9456D01*
X57581Y9467D01*
X57609Y9484D01*
X57611Y9486D01*
X57617Y9488D01*
X57624Y9492D01*
X57635Y9495D01*
X57646Y9499D01*
X57661Y9501D01*
X57678Y9505D01*
X57698D01*
X57707Y9503D01*
D02*
G37*
G36*
X54974Y9179D02*
X54995Y9175D01*
X55017Y9168D01*
X55039Y9156D01*
X55063Y9142D01*
X55085Y9121D01*
X55087Y9119D01*
X55095Y9110D01*
X55104Y9097D01*
X55115Y9077D01*
X55126Y9053D01*
X55137Y9023D01*
X55146Y8988D01*
X55152Y8947D01*
X54735D01*
Y8949D01*
Y8953D01*
X54737Y8958D01*
Y8966D01*
X54741Y8988D01*
X54746Y9014D01*
X54756Y9042D01*
X54767Y9071D01*
X54782Y9099D01*
X54800Y9123D01*
X54802Y9125D01*
X54809Y9132D01*
X54822Y9142D01*
X54839Y9153D01*
X54859Y9164D01*
X54883Y9173D01*
X54913Y9180D01*
X54945Y9182D01*
X54959D01*
X54974Y9179D01*
D02*
G37*
G36*
X63388Y9499D02*
X63407Y9495D01*
X63431Y9486D01*
X63457Y9473D01*
X63470Y9464D01*
X63481Y9453D01*
X63494Y9440D01*
X63505Y9425D01*
X63514Y9408D01*
X63523Y9388D01*
Y9386D01*
X63525Y9382D01*
X63527Y9377D01*
X63531Y9367D01*
X63533Y9355D01*
X63536Y9340D01*
X63540Y9323D01*
X63544Y9303D01*
X63549Y9279D01*
X63553Y9255D01*
X63557Y9225D01*
X63558Y9193D01*
X63562Y9160D01*
X63564Y9123D01*
X63566Y9084D01*
Y9042D01*
Y9040D01*
Y9034D01*
Y9027D01*
Y9016D01*
Y9001D01*
X63564Y8986D01*
Y8949D01*
X63562Y8908D01*
X63558Y8864D01*
X63553Y8821D01*
X63547Y8781D01*
Y8779D01*
X63546Y8777D01*
Y8771D01*
X63544Y8764D01*
X63540Y8745D01*
X63533Y8725D01*
X63525Y8699D01*
X63514Y8675D01*
X63501Y8651D01*
X63486Y8629D01*
X63484Y8627D01*
X63479Y8621D01*
X63468Y8612D01*
X63455Y8603D01*
X63438Y8594D01*
X63418Y8584D01*
X63394Y8579D01*
X63368Y8577D01*
X63355D01*
X63340Y8581D01*
X63323Y8584D01*
X63305Y8590D01*
X63284Y8599D01*
X63264Y8612D01*
X63247Y8631D01*
X63246Y8632D01*
X63240Y8640D01*
X63233Y8653D01*
X63223Y8669D01*
X63212Y8692D01*
X63201Y8718D01*
X63192Y8749D01*
X63184Y8784D01*
Y8786D01*
Y8790D01*
X63183Y8795D01*
X63181Y8803D01*
Y8812D01*
X63179Y8825D01*
X63177Y8838D01*
X63175Y8855D01*
X63173Y8873D01*
X63171Y8892D01*
X63170Y8938D01*
X63166Y8990D01*
Y9047D01*
Y9049D01*
Y9055D01*
Y9062D01*
Y9073D01*
Y9086D01*
X63168Y9101D01*
Y9138D01*
X63171Y9177D01*
X63175Y9219D01*
X63179Y9262D01*
X63186Y9301D01*
Y9303D01*
Y9305D01*
X63188Y9310D01*
X63190Y9318D01*
X63194Y9334D01*
X63201Y9356D01*
X63210Y9380D01*
X63221Y9405D01*
X63234Y9429D01*
X63249Y9449D01*
X63251Y9451D01*
X63257Y9456D01*
X63266Y9466D01*
X63281Y9475D01*
X63297Y9484D01*
X63318Y9493D01*
X63342Y9499D01*
X63370Y9501D01*
X63381D01*
X63388Y9499D01*
D02*
G37*
G36*
X62370Y9508D02*
X62388Y9505D01*
X62409Y9497D01*
X62429Y9490D01*
X62451Y9477D01*
X62470Y9460D01*
X62472Y9458D01*
X62477Y9451D01*
X62485Y9440D01*
X62494Y9425D01*
X62503Y9406D01*
X62510Y9386D01*
X62516Y9360D01*
X62518Y9332D01*
Y9329D01*
Y9321D01*
X62516Y9306D01*
X62512Y9290D01*
X62507Y9271D01*
X62497Y9251D01*
X62486Y9230D01*
X62470Y9212D01*
X62468Y9210D01*
X62460Y9205D01*
X62449Y9197D01*
X62435Y9190D01*
X62416Y9180D01*
X62394Y9173D01*
X62368Y9168D01*
X62340Y9166D01*
X62325D01*
X62316Y9168D01*
X62294Y9171D01*
X62270Y9177D01*
X62268D01*
X62264Y9179D01*
X62259Y9182D01*
X62249Y9186D01*
X62233Y9197D01*
X62214Y9212D01*
X62212Y9214D01*
X62210Y9216D01*
X62201Y9227D01*
X62188Y9243D01*
X62177Y9266D01*
Y9267D01*
X62175Y9271D01*
X62173Y9277D01*
X62170Y9286D01*
X62166Y9308D01*
X62164Y9334D01*
Y9336D01*
Y9343D01*
X62166Y9353D01*
Y9364D01*
X62173Y9393D01*
X62179Y9408D01*
X62186Y9423D01*
X62188Y9425D01*
X62190Y9430D01*
X62196Y9438D01*
X62203Y9447D01*
X62212Y9456D01*
X62222Y9467D01*
X62249Y9486D01*
X62251Y9488D01*
X62257Y9490D01*
X62264Y9493D01*
X62275Y9499D01*
X62290Y9503D01*
X62305Y9506D01*
X62323Y9508D01*
X62342Y9510D01*
X62355D01*
X62370Y9508D01*
D02*
G37*
G36*
X62373Y9001D02*
X62394Y8997D01*
X62418Y8990D01*
X62442Y8981D01*
X62466Y8966D01*
X62488Y8947D01*
X62490Y8945D01*
X62497Y8936D01*
X62507Y8923D01*
X62516Y8906D01*
X62527Y8882D01*
X62536Y8855D01*
X62544Y8823D01*
X62546Y8786D01*
Y8782D01*
Y8775D01*
X62544Y8764D01*
X62542Y8747D01*
X62540Y8731D01*
X62535Y8710D01*
X62529Y8690D01*
X62520Y8671D01*
X62518Y8669D01*
X62514Y8664D01*
X62509Y8655D01*
X62499Y8644D01*
X62490Y8631D01*
X62477Y8618D01*
X62462Y8605D01*
X62446Y8594D01*
X62444Y8592D01*
X62436Y8590D01*
X62427Y8586D01*
X62414Y8581D01*
X62397Y8575D01*
X62381Y8571D01*
X62360Y8569D01*
X62338Y8568D01*
X62329D01*
X62318Y8569D01*
X62303Y8571D01*
X62288Y8573D01*
X62270Y8579D01*
X62253Y8584D01*
X62235Y8594D01*
X62233Y8595D01*
X62227Y8599D01*
X62218Y8605D01*
X62207Y8614D01*
X62196Y8625D01*
X62183Y8638D01*
X62170Y8653D01*
X62159Y8671D01*
X62157Y8673D01*
X62155Y8681D01*
X62149Y8692D01*
X62144Y8705D01*
X62140Y8723D01*
X62135Y8742D01*
X62133Y8764D01*
X62131Y8788D01*
Y8792D01*
Y8799D01*
X62133Y8812D01*
X62135Y8827D01*
X62138Y8845D01*
X62142Y8864D01*
X62149Y8884D01*
X62159Y8903D01*
X62160Y8905D01*
X62164Y8910D01*
X62170Y8919D01*
X62179Y8931D01*
X62190Y8942D01*
X62203Y8955D01*
X62218Y8966D01*
X62235Y8977D01*
X62236Y8979D01*
X62244Y8981D01*
X62253Y8986D01*
X62266Y8992D01*
X62283Y8995D01*
X62301Y9001D01*
X62322Y9003D01*
X62344Y9005D01*
X62359D01*
X62373Y9001D01*
D02*
G37*
G36*
X59729Y9499D02*
X59748Y9495D01*
X59772Y9486D01*
X59798Y9473D01*
X59811Y9464D01*
X59822Y9453D01*
X59835Y9440D01*
X59846Y9425D01*
X59855Y9408D01*
X59864Y9388D01*
Y9386D01*
X59866Y9382D01*
X59868Y9377D01*
X59872Y9367D01*
X59874Y9355D01*
X59877Y9340D01*
X59881Y9323D01*
X59885Y9303D01*
X59890Y9279D01*
X59894Y9255D01*
X59898Y9225D01*
X59900Y9193D01*
X59903Y9160D01*
X59905Y9123D01*
X59907Y9084D01*
Y9042D01*
Y9040D01*
Y9034D01*
Y9027D01*
Y9016D01*
Y9001D01*
X59905Y8986D01*
Y8949D01*
X59903Y8908D01*
X59900Y8864D01*
X59894Y8821D01*
X59889Y8781D01*
Y8779D01*
X59887Y8777D01*
Y8771D01*
X59885Y8764D01*
X59881Y8745D01*
X59874Y8725D01*
X59866Y8699D01*
X59855Y8675D01*
X59842Y8651D01*
X59827Y8629D01*
X59826Y8627D01*
X59820Y8621D01*
X59809Y8612D01*
X59796Y8603D01*
X59779Y8594D01*
X59759Y8584D01*
X59735Y8579D01*
X59709Y8577D01*
X59696D01*
X59681Y8581D01*
X59664Y8584D01*
X59646Y8590D01*
X59626Y8599D01*
X59605Y8612D01*
X59589Y8631D01*
X59587Y8632D01*
X59581Y8640D01*
X59574Y8653D01*
X59564Y8669D01*
X59553Y8692D01*
X59542Y8718D01*
X59533Y8749D01*
X59526Y8784D01*
Y8786D01*
Y8790D01*
X59524Y8795D01*
X59522Y8803D01*
Y8812D01*
X59520Y8825D01*
X59518Y8838D01*
X59516Y8855D01*
X59514Y8873D01*
X59513Y8892D01*
X59511Y8938D01*
X59507Y8990D01*
Y9047D01*
Y9049D01*
Y9055D01*
Y9062D01*
Y9073D01*
Y9086D01*
X59509Y9101D01*
Y9138D01*
X59513Y9177D01*
X59516Y9219D01*
X59520Y9262D01*
X59527Y9301D01*
Y9303D01*
Y9305D01*
X59529Y9310D01*
X59531Y9318D01*
X59535Y9334D01*
X59542Y9356D01*
X59551Y9380D01*
X59563Y9405D01*
X59576Y9429D01*
X59590Y9449D01*
X59592Y9451D01*
X59598Y9456D01*
X59607Y9466D01*
X59622Y9475D01*
X59639Y9484D01*
X59659Y9493D01*
X59683Y9499D01*
X59711Y9501D01*
X59722D01*
X59729Y9499D01*
D02*
G37*
G36*
X64692Y8908D02*
X64321D01*
X64508Y9419D01*
X64692Y8908D01*
D02*
G37*
G36*
X56322Y9134D02*
X56067D01*
X56044Y9136D01*
X56020Y9138D01*
X55996Y9140D01*
X55970Y9143D01*
X55946Y9149D01*
X55944D01*
X55937Y9153D01*
X55926Y9156D01*
X55911Y9162D01*
X55896Y9168D01*
X55882Y9177D01*
X55865Y9188D01*
X55852Y9201D01*
X55850Y9203D01*
X55846Y9208D01*
X55841Y9218D01*
X55835Y9229D01*
X55830Y9243D01*
X55824Y9262D01*
X55820Y9282D01*
X55819Y9306D01*
Y9308D01*
Y9316D01*
X55820Y9325D01*
X55822Y9338D01*
X55826Y9351D01*
X55830Y9367D01*
X55837Y9382D01*
X55846Y9397D01*
X55848Y9399D01*
X55852Y9403D01*
X55857Y9410D01*
X55865Y9419D01*
X55876Y9429D01*
X55887Y9438D01*
X55902Y9447D01*
X55919Y9455D01*
X55920Y9456D01*
X55928Y9458D01*
X55939Y9462D01*
X55957Y9466D01*
X55980Y9469D01*
X56009Y9471D01*
X56046Y9475D01*
X56322D01*
Y9134D01*
D02*
G37*
G36*
X64796Y6684D02*
Y6680D01*
Y6673D01*
X64798Y6660D01*
X64799Y6645D01*
X64803Y6626D01*
X64811Y6610D01*
X64818Y6593D01*
X64829Y6578D01*
X64831Y6576D01*
X64835Y6573D01*
X64842Y6567D01*
X64851Y6562D01*
X64862Y6554D01*
X64877Y6549D01*
X64894Y6545D01*
X64912Y6543D01*
X64437D01*
X64444Y6545D01*
X64455D01*
X64479Y6550D01*
X64505Y6562D01*
X64507D01*
X64511Y6565D01*
X64522Y6575D01*
X64537Y6589D01*
X64551Y6610D01*
Y6612D01*
X64553Y6615D01*
X64557Y6621D01*
X64561Y6628D01*
X64570Y6650D01*
X64579Y6675D01*
Y6676D01*
X64581Y6680D01*
X64583Y6688D01*
X64585Y6699D01*
X64590Y6721D01*
X64598Y6749D01*
X64796Y7537D01*
Y6684D01*
D02*
G37*
G36*
X64262Y6749D02*
Y6745D01*
X64266Y6736D01*
X64270Y6723D01*
X64274Y6706D01*
X64283Y6669D01*
X64288Y6650D01*
X64294Y6636D01*
Y6634D01*
X64296Y6630D01*
X64300Y6623D01*
X64303Y6615D01*
X64318Y6593D01*
X64327Y6582D01*
X64338Y6571D01*
X64340Y6569D01*
X64344Y6567D01*
X64351Y6562D01*
X64362Y6558D01*
X64375Y6552D01*
X64390Y6547D01*
X64409Y6545D01*
X64429Y6543D01*
X63957D01*
X63966Y6545D01*
X63979Y6547D01*
X63992Y6552D01*
X64005Y6558D01*
X64018Y6567D01*
X64031Y6578D01*
X64033Y6580D01*
X64037Y6586D01*
X64040Y6593D01*
X64046Y6604D01*
X64053Y6619D01*
X64057Y6638D01*
X64061Y6660D01*
X64062Y6684D01*
Y7537D01*
X64262Y6749D01*
D02*
G37*
G36*
X63835Y6660D02*
X63837Y6645D01*
X63840Y6626D01*
X63848Y6610D01*
X63855Y6593D01*
X63866Y6578D01*
X63868Y6576D01*
X63872Y6573D01*
X63879Y6567D01*
X63888Y6562D01*
X63900Y6554D01*
X63914Y6549D01*
X63931Y6545D01*
X63950Y6543D01*
X63833D01*
Y6673D01*
X63835Y6660D01*
D02*
G37*
G36*
X59270Y6543D02*
X59163D01*
X59169Y6545D01*
X59174D01*
X59193Y6550D01*
X59213Y6560D01*
X59224Y6567D01*
X59235Y6576D01*
X59244Y6588D01*
X59252Y6602D01*
X59259Y6617D01*
X59265Y6636D01*
X59269Y6658D01*
X59270Y6682D01*
Y6543D01*
D02*
G37*
G36*
X62096D02*
X61990D01*
X62000Y6545D01*
X62013Y6547D01*
X62026Y6552D01*
X62039Y6558D01*
X62052Y6567D01*
X62065Y6578D01*
X62066Y6580D01*
X62070Y6586D01*
X62074Y6593D01*
X62079Y6604D01*
X62087Y6619D01*
X62090Y6638D01*
X62094Y6658D01*
X62096Y6682D01*
Y6543D01*
D02*
G37*
G36*
X57321Y7304D02*
X57337Y7302D01*
X57359Y7297D01*
X57385Y7287D01*
X57413Y7274D01*
X57441Y7256D01*
X57467Y7230D01*
X57469Y7226D01*
X57476Y7217D01*
X57487Y7199D01*
X57498Y7174D01*
X57511Y7143D01*
X57521Y7106D01*
X57528Y7062D01*
X57532Y7010D01*
Y7008D01*
Y7004D01*
Y6997D01*
X57530Y6987D01*
Y6976D01*
X57528Y6962D01*
X57524Y6932D01*
X57515Y6897D01*
X57504Y6862D01*
X57489Y6828D01*
X57467Y6797D01*
X57463Y6793D01*
X57456Y6786D01*
X57441Y6773D01*
X57421Y6760D01*
X57398Y6745D01*
X57371Y6732D01*
X57339Y6725D01*
X57304Y6721D01*
X57295D01*
X57284Y6723D01*
X57269Y6725D01*
X57252Y6728D01*
X57235Y6734D01*
X57217Y6741D01*
X57198Y6752D01*
X57197Y6754D01*
X57189Y6758D01*
X57182Y6767D01*
X57169Y6778D01*
X57158Y6791D01*
X57143Y6808D01*
X57130Y6828D01*
X57119Y6852D01*
X57117Y6856D01*
X57113Y6863D01*
X57110Y6878D01*
X57104Y6897D01*
X57098Y6921D01*
X57093Y6949D01*
X57091Y6980D01*
X57089Y7013D01*
Y7015D01*
Y7017D01*
Y7028D01*
X57091Y7045D01*
X57093Y7067D01*
X57097Y7091D01*
X57102Y7117D01*
X57110Y7143D01*
X57119Y7169D01*
X57121Y7173D01*
X57124Y7180D01*
X57130Y7191D01*
X57139Y7206D01*
X57150Y7223D01*
X57163Y7239D01*
X57178Y7256D01*
X57197Y7271D01*
X57198Y7273D01*
X57206Y7276D01*
X57215Y7282D01*
X57228Y7289D01*
X57245Y7295D01*
X57261Y7300D01*
X57282Y7304D01*
X57304Y7306D01*
X57313D01*
X57321Y7304D01*
D02*
G37*
G36*
X57759Y6201D02*
X57663D01*
X57674Y6202D01*
X57687Y6206D01*
X57702Y6210D01*
X57717Y6217D01*
X57730Y6228D01*
X57739Y6241D01*
Y6243D01*
X57743Y6249D01*
X57745Y6258D01*
X57748Y6271D01*
X57752Y6286D01*
X57756Y6306D01*
X57758Y6328D01*
X57759Y6354D01*
Y6201D01*
D02*
G37*
G36*
X53132Y7637D02*
X53151Y7634D01*
X53175Y7624D01*
X53201Y7611D01*
X53214Y7602D01*
X53225Y7591D01*
X53238Y7578D01*
X53249Y7563D01*
X53258Y7547D01*
X53267Y7526D01*
Y7524D01*
X53269Y7521D01*
X53271Y7515D01*
X53275Y7506D01*
X53277Y7493D01*
X53280Y7478D01*
X53284Y7462D01*
X53288Y7441D01*
X53293Y7417D01*
X53297Y7393D01*
X53301Y7363D01*
X53303Y7332D01*
X53306Y7299D01*
X53308Y7262D01*
X53310Y7223D01*
Y7180D01*
Y7178D01*
Y7173D01*
Y7165D01*
Y7154D01*
Y7139D01*
X53308Y7124D01*
Y7087D01*
X53306Y7047D01*
X53303Y7002D01*
X53297Y6960D01*
X53291Y6919D01*
Y6917D01*
X53290Y6915D01*
Y6910D01*
X53288Y6902D01*
X53284Y6884D01*
X53277Y6863D01*
X53269Y6837D01*
X53258Y6813D01*
X53245Y6789D01*
X53230Y6767D01*
X53228Y6765D01*
X53223Y6760D01*
X53212Y6750D01*
X53199Y6741D01*
X53182Y6732D01*
X53162Y6723D01*
X53138Y6717D01*
X53112Y6715D01*
X53099D01*
X53084Y6719D01*
X53067Y6723D01*
X53049Y6728D01*
X53028Y6738D01*
X53008Y6750D01*
X52991Y6769D01*
X52990Y6771D01*
X52984Y6778D01*
X52977Y6791D01*
X52967Y6808D01*
X52956Y6830D01*
X52945Y6856D01*
X52936Y6887D01*
X52928Y6923D01*
Y6925D01*
Y6928D01*
X52927Y6934D01*
X52925Y6941D01*
Y6950D01*
X52923Y6963D01*
X52921Y6976D01*
X52919Y6993D01*
X52917Y7012D01*
X52916Y7030D01*
X52914Y7076D01*
X52910Y7128D01*
Y7186D01*
Y7187D01*
Y7193D01*
Y7200D01*
Y7212D01*
Y7224D01*
X52912Y7239D01*
Y7276D01*
X52916Y7315D01*
X52919Y7358D01*
X52923Y7400D01*
X52930Y7439D01*
Y7441D01*
Y7443D01*
X52932Y7449D01*
X52934Y7456D01*
X52938Y7473D01*
X52945Y7495D01*
X52954Y7519D01*
X52965Y7543D01*
X52978Y7567D01*
X52993Y7587D01*
X52995Y7589D01*
X53001Y7595D01*
X53010Y7604D01*
X53025Y7613D01*
X53041Y7623D01*
X53062Y7632D01*
X53086Y7637D01*
X53114Y7639D01*
X53125D01*
X53132Y7637D01*
D02*
G37*
G36*
X51077D02*
X51095Y7634D01*
X51119Y7624D01*
X51145Y7611D01*
X51158Y7602D01*
X51169Y7591D01*
X51182Y7578D01*
X51193Y7563D01*
X51203Y7547D01*
X51212Y7526D01*
Y7524D01*
X51214Y7521D01*
X51216Y7515D01*
X51219Y7506D01*
X51221Y7493D01*
X51225Y7478D01*
X51229Y7462D01*
X51232Y7441D01*
X51238Y7417D01*
X51242Y7393D01*
X51245Y7363D01*
X51247Y7332D01*
X51251Y7299D01*
X51253Y7262D01*
X51255Y7223D01*
Y7180D01*
Y7178D01*
Y7173D01*
Y7165D01*
Y7154D01*
Y7139D01*
X51253Y7124D01*
Y7087D01*
X51251Y7047D01*
X51247Y7002D01*
X51242Y6960D01*
X51236Y6919D01*
Y6917D01*
X51234Y6915D01*
Y6910D01*
X51232Y6902D01*
X51229Y6884D01*
X51221Y6863D01*
X51214Y6837D01*
X51203Y6813D01*
X51190Y6789D01*
X51175Y6767D01*
X51173Y6765D01*
X51168Y6760D01*
X51156Y6750D01*
X51143Y6741D01*
X51127Y6732D01*
X51106Y6723D01*
X51082Y6717D01*
X51056Y6715D01*
X51043D01*
X51029Y6719D01*
X51012Y6723D01*
X50993Y6728D01*
X50973Y6738D01*
X50953Y6750D01*
X50936Y6769D01*
X50934Y6771D01*
X50929Y6778D01*
X50921Y6791D01*
X50912Y6808D01*
X50901Y6830D01*
X50890Y6856D01*
X50881Y6887D01*
X50873Y6923D01*
Y6925D01*
Y6928D01*
X50871Y6934D01*
X50869Y6941D01*
Y6950D01*
X50868Y6963D01*
X50866Y6976D01*
X50864Y6993D01*
X50862Y7012D01*
X50860Y7030D01*
X50858Y7076D01*
X50855Y7128D01*
Y7186D01*
Y7187D01*
Y7193D01*
Y7200D01*
Y7212D01*
Y7224D01*
X50856Y7239D01*
Y7276D01*
X50860Y7315D01*
X50864Y7358D01*
X50868Y7400D01*
X50875Y7439D01*
Y7441D01*
Y7443D01*
X50877Y7449D01*
X50879Y7456D01*
X50882Y7473D01*
X50890Y7495D01*
X50899Y7519D01*
X50910Y7543D01*
X50923Y7567D01*
X50938Y7587D01*
X50940Y7589D01*
X50945Y7595D01*
X50955Y7604D01*
X50969Y7613D01*
X50986Y7623D01*
X51006Y7632D01*
X51031Y7637D01*
X51058Y7639D01*
X51069D01*
X51077Y7637D01*
D02*
G37*
G36*
X55747Y7693D02*
X55760D01*
X55774Y7691D01*
X55791Y7689D01*
X55808Y7686D01*
X55849Y7678D01*
X55893Y7665D01*
X55939Y7649D01*
X55984Y7624D01*
X55986D01*
X55989Y7621D01*
X55995Y7617D01*
X56004Y7611D01*
X56024Y7597D01*
X56052Y7574D01*
X56082Y7547D01*
X56113Y7515D01*
X56145Y7476D01*
X56173Y7434D01*
Y7432D01*
X56176Y7428D01*
X56178Y7423D01*
X56184Y7413D01*
X56189Y7402D01*
X56195Y7389D01*
X56200Y7374D01*
X56206Y7358D01*
X56219Y7319D01*
X56230Y7274D01*
X56237Y7226D01*
X56241Y7174D01*
Y7173D01*
Y7169D01*
Y7162D01*
X56239Y7150D01*
Y7137D01*
X56237Y7123D01*
X56236Y7106D01*
X56232Y7089D01*
X56224Y7049D01*
X56211Y7004D01*
X56195Y6958D01*
X56173Y6913D01*
Y6912D01*
X56169Y6908D01*
X56165Y6902D01*
X56160Y6893D01*
X56145Y6873D01*
X56123Y6845D01*
X56095Y6815D01*
X56063Y6784D01*
X56026Y6752D01*
X55984Y6725D01*
X55982D01*
X55978Y6721D01*
X55973Y6719D01*
X55963Y6713D01*
X55952Y6708D01*
X55939Y6702D01*
X55923Y6697D01*
X55906Y6691D01*
X55867Y6678D01*
X55823Y6667D01*
X55774Y6660D01*
X55723Y6656D01*
X55710D01*
X55699Y6658D01*
X55686D01*
X55673Y6660D01*
X55656Y6662D01*
X55637Y6665D01*
X55597Y6673D01*
X55554Y6686D01*
X55508Y6702D01*
X55463Y6725D01*
X55462D01*
X55458Y6728D01*
X55452Y6732D01*
X55443Y6738D01*
X55421Y6752D01*
X55395Y6775D01*
X55363Y6800D01*
X55332Y6832D01*
X55300Y6869D01*
X55273Y6912D01*
Y6913D01*
X55269Y6917D01*
X55265Y6923D01*
X55262Y6932D01*
X55256Y6943D01*
X55250Y6956D01*
X55245Y6973D01*
X55237Y6989D01*
X55225Y7028D01*
X55213Y7073D01*
X55206Y7123D01*
X55202Y7174D01*
Y7176D01*
Y7180D01*
Y7187D01*
X55204Y7199D01*
Y7210D01*
X55206Y7224D01*
X55208Y7241D01*
X55212Y7260D01*
X55219Y7299D01*
X55232Y7343D01*
X55249Y7387D01*
X55273Y7434D01*
Y7436D01*
X55276Y7439D01*
X55280Y7445D01*
X55286Y7454D01*
X55300Y7476D01*
X55323Y7502D01*
X55350Y7534D01*
X55382Y7565D01*
X55421Y7597D01*
X55463Y7624D01*
X55465D01*
X55469Y7628D01*
X55474Y7632D01*
X55484Y7636D01*
X55495Y7641D01*
X55508Y7647D01*
X55523Y7652D01*
X55539Y7660D01*
X55578Y7673D01*
X55623Y7684D01*
X55671Y7691D01*
X55723Y7695D01*
X55736D01*
X55747Y7693D01*
D02*
G37*
%LPC*%
G36*
X55712Y7532D02*
X55702D01*
X55691Y7530D01*
X55678Y7528D01*
X55662Y7526D01*
X55641Y7521D01*
X55621Y7515D01*
X55599Y7506D01*
X55574Y7495D01*
X55550Y7482D01*
X55528Y7465D01*
X55504Y7445D01*
X55482Y7421D01*
X55462Y7395D01*
X55443Y7363D01*
X55428Y7326D01*
X55567Y7295D01*
Y7297D01*
X55569Y7300D01*
X55573Y7306D01*
X55576Y7313D01*
X55587Y7332D01*
X55602Y7354D01*
X55623Y7376D01*
X55649Y7395D01*
X55663Y7402D01*
X55680Y7408D01*
X55699Y7412D01*
X55717Y7413D01*
X55730D01*
X55745Y7410D01*
X55763Y7406D01*
X55784Y7399D01*
X55806Y7387D01*
X55826Y7371D01*
X55845Y7350D01*
X55847Y7347D01*
X55852Y7339D01*
X55860Y7324D01*
X55867Y7306D01*
X55874Y7282D01*
X55882Y7254D01*
X55887Y7221D01*
X55889Y7184D01*
Y7180D01*
Y7171D01*
X55887Y7154D01*
Y7136D01*
X55886Y7113D01*
X55882Y7091D01*
X55876Y7067D01*
X55871Y7045D01*
X55869Y7043D01*
X55867Y7036D01*
X55863Y7026D01*
X55856Y7013D01*
X55839Y6986D01*
X55828Y6973D01*
X55815Y6962D01*
X55813Y6960D01*
X55808Y6958D01*
X55800Y6952D01*
X55789Y6949D01*
X55776Y6943D01*
X55760Y6937D01*
X55743Y6936D01*
X55724Y6934D01*
X55719D01*
X55713Y6936D01*
X55706D01*
X55686Y6941D01*
X55662Y6952D01*
X55647Y6960D01*
X55634Y6969D01*
X55621Y6980D01*
X55608Y6995D01*
X55595Y7012D01*
X55584Y7030D01*
X55574Y7052D01*
X55565Y7078D01*
X55428Y7032D01*
Y7030D01*
X55432Y7023D01*
X55436Y7012D01*
X55443Y6999D01*
X55450Y6982D01*
X55462Y6963D01*
X55474Y6943D01*
X55491Y6923D01*
X55510Y6902D01*
X55532Y6882D01*
X55556Y6863D01*
X55584Y6847D01*
X55615Y6834D01*
X55649Y6823D01*
X55687Y6815D01*
X55728Y6813D01*
X55741D01*
X55758Y6815D01*
X55778Y6819D01*
X55802Y6823D01*
X55828Y6830D01*
X55854Y6839D01*
X55882Y6852D01*
X55886Y6854D01*
X55893Y6860D01*
X55906Y6869D01*
X55923Y6884D01*
X55941Y6900D01*
X55960Y6921D01*
X55978Y6947D01*
X55995Y6975D01*
Y6976D01*
X55997Y6978D01*
X56002Y6989D01*
X56008Y7008D01*
X56015Y7030D01*
X56024Y7060D01*
X56030Y7093D01*
X56036Y7132D01*
X56037Y7173D01*
Y7174D01*
Y7178D01*
Y7184D01*
Y7191D01*
X56036Y7212D01*
X56032Y7236D01*
X56028Y7265D01*
X56021Y7297D01*
X56011Y7328D01*
X55999Y7360D01*
Y7362D01*
X55997Y7363D01*
X55991Y7373D01*
X55982Y7387D01*
X55969Y7406D01*
X55954Y7426D01*
X55934Y7447D01*
X55911Y7467D01*
X55886Y7486D01*
X55882Y7487D01*
X55873Y7493D01*
X55856Y7500D01*
X55836Y7510D01*
X55810Y7517D01*
X55780Y7524D01*
X55749Y7530D01*
X55712Y7532D01*
D02*
G37*
%LPD*%
G36*
X60961Y7306D02*
X60976Y7304D01*
X60994Y7299D01*
X61015Y7293D01*
X61035Y7284D01*
X61055Y7273D01*
X61057Y7271D01*
X61063Y7265D01*
X61072Y7258D01*
X61083Y7247D01*
X61096Y7232D01*
X61109Y7213D01*
X61122Y7193D01*
X61133Y7169D01*
X61135Y7165D01*
X61137Y7156D01*
X61142Y7143D01*
X61146Y7123D01*
X61152Y7100D01*
X61157Y7073D01*
X61159Y7043D01*
X61161Y7010D01*
Y7008D01*
Y7006D01*
Y6995D01*
X61159Y6978D01*
X61157Y6956D01*
X61155Y6932D01*
X61150Y6904D01*
X61144Y6876D01*
X61135Y6850D01*
X61133Y6847D01*
X61129Y6839D01*
X61124Y6828D01*
X61115Y6813D01*
X61104Y6797D01*
X61091Y6780D01*
X61076Y6763D01*
X61057Y6749D01*
X61055Y6747D01*
X61048Y6743D01*
X61037Y6738D01*
X61022Y6732D01*
X61005Y6725D01*
X60985Y6719D01*
X60961Y6715D01*
X60937Y6713D01*
X60926D01*
X60920Y6715D01*
X60900Y6717D01*
X60876Y6723D01*
X60850Y6732D01*
X60822Y6747D01*
X60794Y6765D01*
X60770Y6791D01*
Y6793D01*
X60768Y6795D01*
X60761Y6806D01*
X60750Y6825D01*
X60739Y6849D01*
X60728Y6880D01*
X60717Y6917D01*
X60709Y6960D01*
X60707Y7010D01*
Y7012D01*
Y7015D01*
Y7023D01*
Y7034D01*
X60709Y7045D01*
X60711Y7058D01*
X60715Y7089D01*
X60722Y7124D01*
X60733Y7162D01*
X60750Y7197D01*
X60770Y7228D01*
Y7230D01*
X60772Y7232D01*
X60781Y7241D01*
X60794Y7254D01*
X60815Y7269D01*
X60837Y7282D01*
X60867Y7295D01*
X60900Y7304D01*
X60918Y7308D01*
X60948D01*
X60961Y7306D01*
D02*
G37*
G36*
X63592Y6543D02*
X63487D01*
X63496Y6545D01*
X63509Y6547D01*
X63522Y6552D01*
X63535Y6558D01*
X63548Y6567D01*
X63561Y6578D01*
X63563Y6580D01*
X63566Y6586D01*
X63570Y6593D01*
X63576Y6606D01*
X63583Y6619D01*
X63587Y6638D01*
X63590Y6658D01*
X63592Y6682D01*
Y6543D01*
D02*
G37*
G36*
X58222D02*
X58117D01*
X58126Y6545D01*
X58139Y6547D01*
X58152Y6552D01*
X58165Y6558D01*
X58178Y6567D01*
X58191Y6578D01*
X58193Y6580D01*
X58196Y6586D01*
X58200Y6593D01*
X58206Y6606D01*
X58213Y6619D01*
X58217Y6638D01*
X58221Y6658D01*
X58222Y6682D01*
Y6543D01*
D02*
G37*
%LPC*%
G36*
X34522Y13977D02*
X34504D01*
X34491Y13974D01*
X34473D01*
X34455Y13972D01*
X34408Y13964D01*
X34354Y13954D01*
X34294Y13936D01*
X34232Y13910D01*
X34170Y13876D01*
X34167D01*
X34162Y13871D01*
X34152Y13863D01*
X34139Y13855D01*
X34123Y13842D01*
X34105Y13829D01*
X34064Y13793D01*
X34020Y13749D01*
X33973Y13695D01*
X33929Y13632D01*
X33890Y13562D01*
X35178D01*
X35175Y13568D01*
X35170Y13581D01*
X35157Y13601D01*
X35141Y13627D01*
X35121Y13658D01*
X35095Y13695D01*
X35064Y13731D01*
X35027Y13770D01*
X34986Y13809D01*
X34937Y13845D01*
X34885Y13881D01*
X34825Y13912D01*
X34758Y13938D01*
X34685Y13959D01*
X34608Y13972D01*
X34522Y13977D01*
D02*
G37*
G36*
X13257Y9991D02*
X12974D01*
Y9923D01*
X13257D01*
Y9991D01*
D02*
G37*
G36*
X13363Y9944D02*
X13338D01*
Y9856D01*
X12898D01*
Y9936D01*
X12855Y9928D01*
X12821Y9919D01*
X12788Y9911D01*
X12762Y9906D01*
X12741Y9898D01*
X12724Y9894D01*
X12716Y9889D01*
X12711D01*
X12661Y9873D01*
X12627Y9860D01*
X12606Y9847D01*
X12597Y9843D01*
X12572Y9826D01*
X12559Y9809D01*
X12551Y9801D01*
X12546Y9796D01*
X12529Y9779D01*
X12525Y9771D01*
X13575D01*
Y9911D01*
X13537Y9919D01*
X13498Y9928D01*
X13460Y9932D01*
X13422Y9936D01*
X13388Y9940D01*
X13363Y9944D01*
D02*
G37*
G36*
X13740Y9851D02*
Y9771D01*
X13829D01*
X13824Y9779D01*
X13820Y9788D01*
X13816Y9796D01*
X13812Y9801D01*
X13790Y9818D01*
X13769Y9834D01*
X13748Y9847D01*
X13740Y9851D01*
D02*
G37*
G36*
X12343Y9445D02*
Y9267D01*
X12470D01*
Y9314D01*
X12343Y9445D01*
D02*
G37*
G36*
X13816Y9669D02*
X12517D01*
X12529Y9517D01*
X12572D01*
Y9318D01*
X12796Y9098D01*
Y9204D01*
X13346D01*
Y9022D01*
X12864D01*
X13211Y8667D01*
X13786Y9289D01*
X13816Y9669D01*
D02*
G37*
G36*
X13774Y9157D02*
X13266Y8611D01*
X13693Y8180D01*
X13774Y9157D01*
D02*
G37*
G36*
X12576Y9208D02*
Y9195D01*
X12563D01*
X12661Y8074D01*
X13160Y8611D01*
X12576Y9208D01*
D02*
G37*
G36*
X13215Y8556D02*
X12669Y7968D01*
X12682Y7884D01*
X12720Y7879D01*
X12749Y7867D01*
X12779Y7854D01*
X12804Y7841D01*
X12826Y7829D01*
X12838Y7816D01*
X12847Y7807D01*
X12851Y7803D01*
X12872Y7778D01*
X12889Y7748D01*
X12902Y7719D01*
X12910Y7689D01*
X12914Y7664D01*
X12919Y7642D01*
Y7630D01*
Y7626D01*
Y7613D01*
Y7609D01*
Y7604D01*
X12914Y7592D01*
Y7587D01*
X13642D01*
X13680Y8074D01*
X13215Y8556D01*
D02*
G37*
G36*
X12661Y7769D02*
X12652D01*
X12610Y7761D01*
X12580Y7748D01*
X12559Y7736D01*
X12551Y7727D01*
X12525Y7693D01*
X12512Y7659D01*
X12508Y7634D01*
Y7630D01*
Y7626D01*
X12517Y7583D01*
X12529Y7554D01*
X12542Y7532D01*
X12551Y7524D01*
X12584Y7499D01*
X12618Y7486D01*
X12644Y7482D01*
X12652D01*
X12694Y7490D01*
X12724Y7503D01*
X12745Y7515D01*
X12754Y7524D01*
X12779Y7558D01*
X12792Y7592D01*
X12796Y7617D01*
Y7621D01*
Y7626D01*
X12788Y7668D01*
X12775Y7697D01*
X12762Y7719D01*
X12754Y7727D01*
X12720Y7752D01*
X12686Y7765D01*
X12661Y7769D01*
D02*
G37*
%LPD*%
G36*
X12677Y7706D02*
X12694Y7697D01*
X12711Y7689D01*
X12716Y7685D01*
X12733Y7664D01*
X12741Y7647D01*
X12745Y7630D01*
Y7626D01*
X12741Y7600D01*
X12728Y7579D01*
X12720Y7562D01*
X12716Y7558D01*
X12694Y7541D01*
X12673Y7532D01*
X12656Y7528D01*
X12652D01*
X12622Y7537D01*
X12601Y7545D01*
X12584Y7562D01*
X12576Y7579D01*
X12567Y7596D01*
X12563Y7613D01*
Y7621D01*
Y7626D01*
X12567Y7651D01*
X12576Y7668D01*
X12584Y7681D01*
X12589Y7685D01*
X12610Y7702D01*
X12631Y7706D01*
X12644Y7710D01*
X12652D01*
X12677Y7706D01*
D02*
G37*
D10*
X65325Y12000D02*
X83325D01*
X65325Y6000D02*
Y12000D01*
Y6000D02*
X83325D01*
Y12000D01*
D14*
X18000Y13420D02*
X23575D01*
X24825D01*
X25975D02*
X26625D01*
X21275Y5625D02*
Y13420D01*
X23575Y5625D02*
Y13420D01*
X26625Y5625D02*
Y13420D01*
X18000Y5625D02*
Y13420D01*
Y5625D02*
X26625D01*
X4747Y3140D02*
X4597Y3290D01*
Y3590D01*
X4747Y3740D01*
X5347D01*
X5497Y3590D01*
Y3290D01*
X5347Y3140D01*
X5047D01*
Y3440D01*
X5497Y2840D02*
X4597D01*
X5497Y2240D01*
X4597D01*
Y1940D02*
X5497D01*
Y1490D01*
X5347Y1340D01*
X4747D01*
X4597Y1490D01*
Y1940D01*
X4747Y18380D02*
X4597Y18530D01*
Y18830D01*
X4747Y18980D01*
X5347D01*
X5497Y18830D01*
Y18530D01*
X5347Y18380D01*
X5047D01*
Y18680D01*
X5497Y18080D02*
X4597D01*
X5497Y17480D01*
X4597D01*
Y17180D02*
X5497D01*
Y16730D01*
X5347Y16580D01*
X4747D01*
X4597Y16730D01*
Y17180D01*
D15*
X2657Y11430D02*
G03*
X2657Y11430I-102J0D01*
G01*
D16*
X48200Y11425D02*
Y12175D01*
X47825D01*
X47700Y12050D01*
Y11800D01*
X47825Y11675D01*
X48200D01*
X47950D02*
X47700Y11425D01*
X47450D02*
Y11925D01*
X47200Y12175D01*
X46950Y11925D01*
Y11425D01*
Y11800D01*
X47450D01*
X46201Y12175D02*
X46451Y12050D01*
X46700Y11800D01*
Y11550D01*
X46576Y11425D01*
X46326D01*
X46201Y11550D01*
Y11675D01*
X46326Y11800D01*
X46700D01*
X48200Y12925D02*
Y13675D01*
X47825D01*
X47700Y13550D01*
Y13300D01*
X47825Y13175D01*
X48200D01*
X47950D02*
X47700Y12925D01*
X47450D02*
Y13425D01*
X47200Y13675D01*
X46950Y13425D01*
Y12925D01*
Y13300D01*
X47450D01*
X46700Y13675D02*
X46201D01*
Y13550D01*
X46700Y13050D01*
Y12925D01*
X37223Y7500D02*
Y8250D01*
X36849D01*
X36724Y8125D01*
Y7875D01*
X36849Y7750D01*
X37223D01*
X36974D02*
X36724Y7500D01*
X35974Y8125D02*
X36099Y8250D01*
X36349D01*
X36474Y8125D01*
Y7625D01*
X36349Y7500D01*
X36099D01*
X35974Y7625D01*
X35724Y7500D02*
X35474D01*
X35599D01*
Y8250D01*
X35724Y8125D01*
X37223Y9007D02*
Y9757D01*
X36849D01*
X36724Y9632D01*
Y9382D01*
X36849Y9257D01*
X37223D01*
X36974D02*
X36724Y9007D01*
X35974Y9632D02*
X36099Y9757D01*
X36349D01*
X36474Y9632D01*
Y9132D01*
X36349Y9007D01*
X36099D01*
X35974Y9132D01*
X35724Y9632D02*
X35599Y9757D01*
X35349D01*
X35224Y9632D01*
Y9132D01*
X35349Y9007D01*
X35599D01*
X35724Y9132D01*
Y9632D01*
X23733Y14608D02*
X23849Y14725D01*
X24083D01*
X24199Y14608D01*
Y14142D01*
X24083Y14025D01*
X23849D01*
X23733Y14142D01*
X23150Y14725D02*
X23383D01*
X23499Y14608D01*
Y14142D01*
X23383Y14025D01*
X23150D01*
X23033Y14142D01*
Y14608D01*
X23150Y14725D01*
X22800Y14025D02*
Y14725D01*
X22333Y14025D01*
Y14725D01*
X22100Y14025D02*
Y14725D01*
X21633Y14025D01*
Y14725D01*
X20934D02*
X21400D01*
Y14025D01*
X20934D01*
X21400Y14375D02*
X21167D01*
X20234Y14608D02*
X20350Y14725D01*
X20584D01*
X20700Y14608D01*
Y14142D01*
X20584Y14025D01*
X20350D01*
X20234Y14142D01*
X20001Y14725D02*
X19534D01*
X19767D01*
Y14025D01*
X19301Y14725D02*
X19068D01*
X19184D01*
Y14025D01*
X19301D01*
X19068D01*
X18368Y14725D02*
X18601D01*
X18718Y14608D01*
Y14142D01*
X18601Y14025D01*
X18368D01*
X18251Y14142D01*
Y14608D01*
X18368Y14725D01*
X18018Y14025D02*
Y14725D01*
X17551Y14025D01*
Y14725D01*
X16852Y14608D02*
X16968Y14725D01*
X17201D01*
X17318Y14608D01*
Y14492D01*
X17201Y14375D01*
X16968D01*
X16852Y14258D01*
Y14142D01*
X16968Y14025D01*
X17201D01*
X17318Y14142D01*
X8245Y3609D02*
Y4358D01*
X7745Y3609D01*
Y4358D01*
X6995Y4233D02*
X7120Y4358D01*
X7370D01*
X7495Y4233D01*
Y3734D01*
X7370Y3609D01*
X7120D01*
X6995Y3734D01*
X7245Y16722D02*
X7745D01*
X7995Y16472D01*
X7745Y16222D01*
X7245D01*
Y15972D02*
X7995D01*
Y15597D01*
X7870Y15472D01*
X7745D01*
X7620Y15597D01*
Y15972D01*
Y15597D01*
X7495Y15472D01*
X7370D01*
X7245Y15597D01*
Y15972D01*
Y15222D02*
X7870D01*
X7995Y15098D01*
Y14848D01*
X7870Y14723D01*
X7245D01*
X7370Y13973D02*
X7245Y14098D01*
Y14348D01*
X7370Y14473D01*
X7495D01*
X7620Y14348D01*
Y14098D01*
X7745Y13973D01*
X7870D01*
X7995Y14098D01*
Y14348D01*
X7870Y14473D01*
X34020Y15972D02*
Y16722D01*
X33645D01*
X33520Y16597D01*
Y16347D01*
X33645Y16222D01*
X34020D01*
X33770D02*
X33520Y15972D01*
X33270Y16722D02*
Y15972D01*
X32895D01*
X32770Y16097D01*
Y16222D01*
X32895Y16347D01*
X33270D01*
X32895D01*
X32770Y16472D01*
Y16597D01*
X32895Y16722D01*
X33270D01*
X32145Y15972D02*
Y16722D01*
X32520Y16347D01*
X32020D01*
X76575Y16175D02*
X76325Y16425D01*
X76075D01*
X75825Y16175D01*
X76575Y15800D02*
X75825D01*
Y15425D01*
X75950Y15300D01*
X76200D01*
X76325Y15425D01*
Y15800D01*
Y15550D02*
X76575Y15300D01*
Y15050D02*
X76075D01*
X75825Y14801D01*
X76075Y14551D01*
X76575D01*
X76200D01*
Y15050D01*
X75825Y13801D02*
X75950Y14051D01*
X76200Y14301D01*
X76450D01*
X76575Y14176D01*
Y13926D01*
X76450Y13801D01*
X76325D01*
X76200Y13926D01*
Y14301D01*
X76575Y13551D02*
X76325Y13301D01*
X76075D01*
X75825Y13551D01*
X28940Y15972D02*
Y16722D01*
X28565D01*
X28440Y16597D01*
Y16347D01*
X28565Y16222D01*
X28940D01*
X28690D02*
X28440Y15972D01*
X28190D02*
Y16472D01*
X27940Y16722D01*
X27690Y16472D01*
Y15972D01*
Y16347D01*
X28190D01*
X26940Y16722D02*
X27440D01*
Y16347D01*
X27190Y16472D01*
X27065D01*
X26940Y16347D01*
Y16097D01*
X27065Y15972D01*
X27315D01*
X27440Y16097D01*
X74660Y3609D02*
Y4358D01*
X74285D01*
X74160Y4233D01*
Y3984D01*
X74285Y3859D01*
X74660D01*
X74410D02*
X74160Y3609D01*
X73410Y4358D02*
X73910D01*
Y3984D01*
X73660D01*
X73910D01*
Y3609D01*
X72660D02*
X73160D01*
X72660Y4109D01*
Y4233D01*
X72785Y4358D01*
X73035D01*
X73160Y4233D01*
X74050Y16575D02*
X73800Y16825D01*
X73550D01*
X73300Y16575D01*
X74050Y16200D02*
X73300D01*
Y15825D01*
X73425Y15700D01*
X73675D01*
X73800Y15825D01*
Y16200D01*
Y15950D02*
X74050Y15700D01*
Y15450D02*
X73550D01*
X73300Y15201D01*
X73550Y14951D01*
X74050D01*
X73675D01*
Y15450D01*
X73300Y14701D02*
Y14201D01*
X73425D01*
X73925Y14701D01*
X74050D01*
Y13951D02*
X73800Y13701D01*
X73550D01*
X73300Y13951D01*
X23750Y15975D02*
Y16725D01*
X23375D01*
X23250Y16600D01*
Y16350D01*
X23375Y16225D01*
X23750D01*
X23500D02*
X23250Y15975D01*
X22500Y16600D02*
X22625Y16725D01*
X22875D01*
X23000Y16600D01*
Y16100D01*
X22875Y15975D01*
X22625D01*
X22500Y16100D01*
X22250Y15975D02*
X22001D01*
X22126D01*
Y16725D01*
X22250Y16600D01*
X26400Y15672D02*
Y16422D01*
X26025D01*
X25900Y16297D01*
Y16047D01*
X26025Y15922D01*
X26400D01*
X26150D02*
X25900Y15672D01*
X25150Y16297D02*
X25275Y16422D01*
X25525D01*
X25650Y16297D01*
Y15797D01*
X25525Y15672D01*
X25275D01*
X25150Y15797D01*
X24900Y16297D02*
X24775Y16422D01*
X24525D01*
X24400Y16297D01*
Y15797D01*
X24525Y15672D01*
X24775D01*
X24900Y15797D01*
Y16297D01*
X59400Y3609D02*
Y4358D01*
X59025D01*
X58900Y4233D01*
Y3984D01*
X59025Y3859D01*
X59400D01*
X59150D02*
X58900Y3609D01*
X58150Y4233D02*
X58275Y4358D01*
X58525D01*
X58650Y4233D01*
Y3734D01*
X58525Y3609D01*
X58275D01*
X58150Y3734D01*
X57900Y4233D02*
X57776Y4358D01*
X57526D01*
X57401Y4233D01*
Y4109D01*
X57526Y3984D01*
X57651D01*
X57526D01*
X57401Y3859D01*
Y3734D01*
X57526Y3609D01*
X57776D01*
X57900Y3734D01*
X38975Y15972D02*
Y16722D01*
X38600D01*
X38475Y16597D01*
Y16347D01*
X38600Y16222D01*
X38975D01*
X38725D02*
X38475Y15972D01*
X38225D02*
Y16472D01*
X37975Y16722D01*
X37725Y16472D01*
Y15972D01*
Y16347D01*
X38225D01*
X37475Y15972D02*
X37225D01*
X37350D01*
Y16722D01*
X37475Y16597D01*
X61960Y15672D02*
Y16422D01*
X61585D01*
X61460Y16297D01*
Y16047D01*
X61585Y15922D01*
X61960D01*
X61710D02*
X61460Y15672D01*
X60710Y16422D02*
X61210D01*
Y16047D01*
X60960D01*
X61210D01*
Y15672D01*
X59960Y16422D02*
X60460D01*
Y16047D01*
X60210Y16172D01*
X60085D01*
X59960Y16047D01*
Y15797D01*
X60085Y15672D01*
X60335D01*
X60460Y15797D01*
X31355Y3913D02*
Y4663D01*
X30980D01*
X30855Y4538D01*
Y4288D01*
X30980Y4163D01*
X31355D01*
X31105D02*
X30855Y3913D01*
X30605Y4663D02*
Y3913D01*
X30230D01*
X30105Y4038D01*
Y4163D01*
X30230Y4288D01*
X30605D01*
X30230D01*
X30105Y4413D01*
Y4538D01*
X30230Y4663D01*
X30605D01*
X29855Y3913D02*
X29605D01*
X29730D01*
Y4663D01*
X29855Y4538D01*
X64500Y3609D02*
Y4358D01*
X64125D01*
X64000Y4233D01*
Y3984D01*
X64125Y3859D01*
X64500D01*
X64250D02*
X64000Y3609D01*
X63750Y4358D02*
Y3609D01*
X63375D01*
X63250Y3734D01*
Y4233D01*
X63375Y4358D01*
X63750D01*
X63000Y4233D02*
X62875Y4358D01*
X62625D01*
X62500Y4233D01*
Y4109D01*
X62625Y3984D01*
X62750D01*
X62625D01*
X62500Y3859D01*
Y3734D01*
X62625Y3609D01*
X62875D01*
X63000Y3734D01*
X54340Y3609D02*
Y4358D01*
X53965D01*
X53840Y4233D01*
Y3984D01*
X53965Y3859D01*
X54340D01*
X54090D02*
X53840Y3609D01*
X53090Y4233D02*
X53215Y4358D01*
X53465D01*
X53590Y4233D01*
Y3734D01*
X53465Y3609D01*
X53215D01*
X53090Y3734D01*
X52840Y4358D02*
X52340D01*
Y4233D01*
X52840Y3734D01*
Y3609D01*
X51800Y15672D02*
Y16422D01*
X51425D01*
X51300Y16297D01*
Y16047D01*
X51425Y15922D01*
X51800D01*
X51550D02*
X51300Y15672D01*
X51050Y16422D02*
Y15672D01*
X50675D01*
X50550Y15797D01*
Y16297D01*
X50675Y16422D01*
X51050D01*
X49800D02*
X50300D01*
Y16047D01*
X50050Y16172D01*
X49925D01*
X49800Y16047D01*
Y15797D01*
X49925Y15672D01*
X50175D01*
X50300Y15797D01*
X28940Y3609D02*
Y4358D01*
X28565D01*
X28440Y4233D01*
Y3984D01*
X28565Y3859D01*
X28940D01*
X28690D02*
X28440Y3609D01*
X28190Y4358D02*
Y3609D01*
X27815D01*
X27690Y3734D01*
Y3859D01*
X27815Y3984D01*
X28190D01*
X27815D01*
X27690Y4109D01*
Y4233D01*
X27815Y4358D01*
X28190D01*
X26940Y3609D02*
X27440D01*
X26940Y4109D01*
Y4233D01*
X27065Y4358D01*
X27315D01*
X27440Y4233D01*
X43680D02*
X43805Y4358D01*
X44055D01*
X44180Y4233D01*
Y3734D01*
X44055Y3609D01*
X43805D01*
X43680Y3734D01*
Y3984D01*
X43930D01*
X43430Y3609D02*
Y4358D01*
X42930Y3609D01*
Y4358D01*
X42680D02*
Y3609D01*
X42305D01*
X42180Y3734D01*
Y4233D01*
X42305Y4358D01*
X42680D01*
X31480Y15672D02*
Y16422D01*
X31105D01*
X30980Y16297D01*
Y16047D01*
X31105Y15922D01*
X31480D01*
X31230D02*
X30980Y15672D01*
X30730Y16422D02*
Y15672D01*
X30355D01*
X30230Y15797D01*
Y15922D01*
X30355Y16047D01*
X30730D01*
X30355D01*
X30230Y16172D01*
Y16297D01*
X30355Y16422D01*
X30730D01*
X29480D02*
X29980D01*
Y16047D01*
X29730Y16172D01*
X29605D01*
X29480Y16047D01*
Y15797D01*
X29605Y15672D01*
X29855D01*
X29980Y15797D01*
X56880Y3913D02*
Y4663D01*
X56505D01*
X56380Y4538D01*
Y4288D01*
X56505Y4163D01*
X56880D01*
X56630D02*
X56380Y3913D01*
X55630Y4538D02*
X55755Y4663D01*
X56005D01*
X56130Y4538D01*
Y4038D01*
X56005Y3913D01*
X55755D01*
X55630Y4038D01*
X54880Y3913D02*
X55380D01*
X54880Y4413D01*
Y4538D01*
X55005Y4663D01*
X55255D01*
X55380Y4538D01*
X23860Y3609D02*
Y4358D01*
X23485D01*
X23360Y4233D01*
Y3984D01*
X23485Y3859D01*
X23860D01*
X23610D02*
X23360Y3609D01*
X23110Y4358D02*
Y3609D01*
X22735D01*
X22610Y3734D01*
Y4233D01*
X22735Y4358D01*
X23110D01*
X22360Y4233D02*
X22235Y4358D01*
X21985D01*
X21860Y4233D01*
Y3734D01*
X21985Y3609D01*
X22235D01*
X22360Y3734D01*
Y4233D01*
X49135Y3609D02*
Y4358D01*
X48760D01*
X48635Y4233D01*
Y3984D01*
X48760Y3859D01*
X49135D01*
X48885D02*
X48635Y3609D01*
X48385Y4358D02*
Y3609D01*
X48010D01*
X47885Y3734D01*
Y3859D01*
X48010Y3984D01*
X48385D01*
X48010D01*
X47885Y4109D01*
Y4233D01*
X48010Y4358D01*
X48385D01*
X47635Y4233D02*
X47510Y4358D01*
X47260D01*
X47135Y4233D01*
Y4109D01*
X47260Y3984D01*
X47385D01*
X47260D01*
X47135Y3859D01*
Y3734D01*
X47260Y3609D01*
X47510D01*
X47635Y3734D01*
X77200Y3913D02*
Y4663D01*
X76825D01*
X76700Y4538D01*
Y4288D01*
X76825Y4163D01*
X77200D01*
X76950D02*
X76700Y3913D01*
X75950Y4663D02*
X76450D01*
Y4288D01*
X76200D01*
X76450D01*
Y3913D01*
X75700Y4538D02*
X75575Y4663D01*
X75325D01*
X75200Y4538D01*
Y4413D01*
X75325Y4288D01*
X75450D01*
X75325D01*
X75200Y4163D01*
Y4038D01*
X75325Y3913D01*
X75575D01*
X75700Y4038D01*
X61960Y3913D02*
Y4663D01*
X61585D01*
X61460Y4538D01*
Y4288D01*
X61585Y4163D01*
X61960D01*
X61710D02*
X61460Y3913D01*
X61210Y4663D02*
Y3913D01*
X60835D01*
X60710Y4038D01*
Y4538D01*
X60835Y4663D01*
X61210D01*
X59960Y3913D02*
X60460D01*
X59960Y4413D01*
Y4538D01*
X60085Y4663D01*
X60335D01*
X60460Y4538D01*
X69450Y15972D02*
Y16722D01*
X69075D01*
X68950Y16597D01*
Y16347D01*
X69075Y16222D01*
X69450D01*
X69200D02*
X68950Y15972D01*
X68200Y16722D02*
X68700D01*
Y15972D01*
X68200D01*
X68700Y16347D02*
X68450D01*
X67950Y15972D02*
X67701D01*
X67826D01*
Y16722D01*
X67950Y16597D01*
X43680D02*
X43805Y16722D01*
X44055D01*
X44180Y16597D01*
Y16097D01*
X44055Y15972D01*
X43805D01*
X43680Y16097D01*
Y16347D01*
X43930D01*
X43430Y15972D02*
Y16722D01*
X42930Y15972D01*
Y16722D01*
X42680D02*
Y15972D01*
X42305D01*
X42180Y16097D01*
Y16597D01*
X42305Y16722D01*
X42680D01*
X66540Y4538D02*
X66665Y4663D01*
X66915D01*
X67040Y4538D01*
Y4038D01*
X66915Y3913D01*
X66665D01*
X66540Y4038D01*
Y4288D01*
X66790D01*
X66290Y3913D02*
Y4663D01*
X65790Y3913D01*
Y4663D01*
X65540D02*
Y3913D01*
X65165D01*
X65040Y4038D01*
Y4538D01*
X65165Y4663D01*
X65540D01*
X59425Y15972D02*
Y16722D01*
X59050D01*
X58925Y16597D01*
Y16347D01*
X59050Y16222D01*
X59425D01*
X59175D02*
X58925Y15972D01*
X58175Y16722D02*
X58675D01*
Y16347D01*
X58425D01*
X58675D01*
Y15972D01*
X57426Y16722D02*
X57676Y16597D01*
X57925Y16347D01*
Y16097D01*
X57801Y15972D01*
X57551D01*
X57426Y16097D01*
Y16222D01*
X57551Y16347D01*
X57925D01*
X46720Y15672D02*
Y16422D01*
X46345D01*
X46220Y16297D01*
Y16047D01*
X46345Y15922D01*
X46720D01*
X46470D02*
X46220Y15672D01*
X45970Y16422D02*
Y15672D01*
X45595D01*
X45470Y15797D01*
Y16297D01*
X45595Y16422D01*
X45970D01*
X45220D02*
X44720D01*
Y16297D01*
X45220Y15797D01*
Y15672D01*
X36560D02*
Y16422D01*
X36185D01*
X36060Y16297D01*
Y16047D01*
X36185Y15922D01*
X36560D01*
X36310D02*
X36060Y15672D01*
X35810D02*
Y16172D01*
X35560Y16422D01*
X35310Y16172D01*
Y15672D01*
Y16047D01*
X35810D01*
X34560Y15672D02*
X35060D01*
X34560Y16172D01*
Y16297D01*
X34685Y16422D01*
X34935D01*
X35060Y16297D01*
X66540D02*
X66665Y16422D01*
X66915D01*
X67040Y16297D01*
Y15797D01*
X66915Y15672D01*
X66665D01*
X66540Y15797D01*
Y16047D01*
X66790D01*
X66290Y15672D02*
Y16422D01*
X65790Y15672D01*
Y16422D01*
X65540D02*
Y15672D01*
X65165D01*
X65040Y15797D01*
Y16297D01*
X65165Y16422D01*
X65540D01*
X41640Y15672D02*
Y16422D01*
X41265D01*
X41140Y16297D01*
Y16047D01*
X41265Y15922D01*
X41640D01*
X41390D02*
X41140Y15672D01*
X40890D02*
Y16172D01*
X40640Y16422D01*
X40390Y16172D01*
Y15672D01*
Y16047D01*
X40890D01*
X40140Y16297D02*
X40015Y16422D01*
X39765D01*
X39640Y16297D01*
Y15797D01*
X39765Y15672D01*
X40015D01*
X40140Y15797D01*
Y16297D01*
X34020Y3609D02*
Y4358D01*
X33645D01*
X33520Y4233D01*
Y3984D01*
X33645Y3859D01*
X34020D01*
X33770D02*
X33520Y3609D01*
X32770Y4233D02*
X32895Y4358D01*
X33145D01*
X33270Y4233D01*
Y3734D01*
X33145Y3609D01*
X32895D01*
X32770Y3734D01*
X32145Y3609D02*
Y4358D01*
X32520Y3984D01*
X32020D01*
X51800Y3913D02*
Y4663D01*
X51425D01*
X51300Y4538D01*
Y4288D01*
X51425Y4163D01*
X51800D01*
X51550D02*
X51300Y3913D01*
X50550Y4663D02*
X51050D01*
Y3913D01*
X50550D01*
X51050Y4288D02*
X50800D01*
X49800Y3913D02*
X50300D01*
X49800Y4413D01*
Y4538D01*
X49925Y4663D01*
X50175D01*
X50300Y4538D01*
X41640Y3913D02*
Y4663D01*
X41265D01*
X41140Y4538D01*
Y4288D01*
X41265Y4163D01*
X41640D01*
X41390D02*
X41140Y3913D01*
X40890Y4663D02*
Y3913D01*
X40515D01*
X40390Y4038D01*
Y4538D01*
X40515Y4663D01*
X40890D01*
X39765Y3913D02*
Y4663D01*
X40140Y4288D01*
X39640D01*
X39100Y3609D02*
Y4358D01*
X38725D01*
X38600Y4233D01*
Y3984D01*
X38725Y3859D01*
X39100D01*
X38850D02*
X38600Y3609D01*
X37850Y4233D02*
X37975Y4358D01*
X38225D01*
X38350Y4233D01*
Y3734D01*
X38225Y3609D01*
X37975D01*
X37850Y3734D01*
X37100Y4358D02*
X37350Y4233D01*
X37600Y3984D01*
Y3734D01*
X37475Y3609D01*
X37225D01*
X37100Y3734D01*
Y3859D01*
X37225Y3984D01*
X37600D01*
X71995Y3913D02*
Y4663D01*
X71620D01*
X71495Y4538D01*
Y4288D01*
X71620Y4163D01*
X71995D01*
X71745D02*
X71495Y3913D01*
X70745Y4663D02*
X71245D01*
Y4288D01*
X70995D01*
X71245D01*
Y3913D01*
X70495D02*
X70245D01*
X70370D01*
Y4663D01*
X70495Y4538D01*
X56880Y15672D02*
Y16422D01*
X56505D01*
X56380Y16297D01*
Y16047D01*
X56505Y15922D01*
X56880D01*
X56630D02*
X56380Y15672D01*
X55630Y16422D02*
X56130D01*
Y16047D01*
X55880D01*
X56130D01*
Y15672D01*
X55380Y16422D02*
X54880D01*
Y16297D01*
X55380Y15797D01*
Y15672D01*
X72120D02*
Y16422D01*
X71745D01*
X71620Y16297D01*
Y16047D01*
X71745Y15922D01*
X72120D01*
X71870D02*
X71620Y15672D01*
X70870Y16422D02*
X71370D01*
Y15672D01*
X70870D01*
X71370Y16047D02*
X71120D01*
X70620Y16297D02*
X70495Y16422D01*
X70245D01*
X70120Y16297D01*
Y15797D01*
X70245Y15672D01*
X70495D01*
X70620Y15797D01*
Y16297D01*
X54340Y15972D02*
Y16722D01*
X53965D01*
X53840Y16597D01*
Y16347D01*
X53965Y16222D01*
X54340D01*
X54090D02*
X53840Y15972D01*
X53590D02*
Y16472D01*
X53340Y16722D01*
X53090Y16472D01*
Y15972D01*
Y16347D01*
X53590D01*
X52465Y15972D02*
Y16722D01*
X52840Y16347D01*
X52340D01*
X64500Y15972D02*
Y16722D01*
X64125D01*
X64000Y16597D01*
Y16347D01*
X64125Y16222D01*
X64500D01*
X64250D02*
X64000Y15972D01*
X63250Y16722D02*
X63750D01*
Y16347D01*
X63500D01*
X63750D01*
Y15972D01*
X62625D02*
Y16722D01*
X63000Y16347D01*
X62500D01*
X49260Y15972D02*
Y16722D01*
X48885D01*
X48760Y16597D01*
Y16347D01*
X48885Y16222D01*
X49260D01*
X49010D02*
X48760Y15972D01*
X48510Y16722D02*
Y15972D01*
X48135D01*
X48010Y16097D01*
Y16597D01*
X48135Y16722D01*
X48510D01*
X47260D02*
X47510Y16597D01*
X47760Y16347D01*
Y16097D01*
X47635Y15972D01*
X47385D01*
X47260Y16097D01*
Y16222D01*
X47385Y16347D01*
X47760D01*
X36560Y3913D02*
Y4663D01*
X36185D01*
X36060Y4538D01*
Y4288D01*
X36185Y4163D01*
X36560D01*
X36310D02*
X36060Y3913D01*
X35310Y4538D02*
X35435Y4663D01*
X35685D01*
X35810Y4538D01*
Y4038D01*
X35685Y3913D01*
X35435D01*
X35310Y4038D01*
X34560Y4663D02*
X35060D01*
Y4288D01*
X34810Y4413D01*
X34685D01*
X34560Y4288D01*
Y4038D01*
X34685Y3913D01*
X34935D01*
X35060Y4038D01*
X46720Y3913D02*
Y4663D01*
X46345D01*
X46220Y4538D01*
Y4288D01*
X46345Y4163D01*
X46720D01*
X46470D02*
X46220Y3913D01*
X45970Y4663D02*
Y3913D01*
X45595D01*
X45470Y4038D01*
Y4163D01*
X45595Y4288D01*
X45970D01*
X45595D01*
X45470Y4413D01*
Y4538D01*
X45595Y4663D01*
X45970D01*
X45220Y4538D02*
X45095Y4663D01*
X44845D01*
X44720Y4538D01*
Y4038D01*
X44845Y3913D01*
X45095D01*
X45220Y4038D01*
Y4538D01*
X26275Y3913D02*
Y4663D01*
X25900D01*
X25775Y4538D01*
Y4288D01*
X25900Y4163D01*
X26275D01*
X26025D02*
X25775Y3913D01*
X25525Y4663D02*
Y3913D01*
X25150D01*
X25025Y4038D01*
Y4538D01*
X25150Y4663D01*
X25525D01*
X24775Y3913D02*
X24525D01*
X24650D01*
Y4663D01*
X24775Y4538D01*
X69580Y3609D02*
Y4358D01*
X69205D01*
X69080Y4233D01*
Y3984D01*
X69205Y3859D01*
X69580D01*
X69330D02*
X69080Y3609D01*
X68330Y4358D02*
X68830D01*
Y3984D01*
X68580D01*
X68830D01*
Y3609D01*
X68080Y4233D02*
X67955Y4358D01*
X67705D01*
X67580Y4233D01*
Y3734D01*
X67705Y3609D01*
X67955D01*
X68080Y3734D01*
Y4233D01*
X10722Y4663D02*
X10472D01*
X10597D01*
Y3913D01*
X10722D01*
X10472D01*
X10098Y4663D02*
Y3913D01*
X9723D01*
X9598Y4038D01*
Y4538D01*
X9723Y4663D01*
X10098D01*
X11535Y16422D02*
Y15922D01*
X11285Y15672D01*
X11035Y15922D01*
Y16422D01*
X10410D02*
X10660D01*
X10785Y16297D01*
Y15797D01*
X10660Y15672D01*
X10410D01*
X10285Y15797D01*
Y16297D01*
X10410Y16422D01*
X9535D02*
X10035D01*
Y16047D01*
X9785D01*
X10035D01*
Y15672D01*
X8785Y16422D02*
X9285D01*
Y16047D01*
X9035D01*
X9285D01*
Y15672D01*
X9615Y7297D02*
X9740Y7422D01*
X9990D01*
X10115Y7297D01*
Y6797D01*
X9990Y6672D01*
X9740D01*
X9615Y6797D01*
Y7047D01*
X9865D01*
X9365Y6672D02*
Y7422D01*
X8865Y6672D01*
Y7422D01*
X8615D02*
Y6672D01*
X8241D01*
X8116Y6797D01*
Y7297D01*
X8241Y7422D01*
X8615D01*
X26975Y11647D02*
Y11147D01*
Y11397D01*
X27725D01*
Y10897D02*
X27225D01*
X26975Y10647D01*
X27225Y10397D01*
X27725D01*
X27350D01*
Y10897D01*
X27725Y10147D02*
X26975D01*
Y9772D01*
X27100Y9647D01*
X27350D01*
X27475Y9772D01*
Y10147D01*
Y9897D02*
X27725Y9647D01*
X27100Y8898D02*
X26975Y9023D01*
Y9273D01*
X27100Y9398D01*
X27600D01*
X27725Y9273D01*
Y9023D01*
X27600Y8898D01*
X27350D01*
Y9148D01*
X26975Y8148D02*
Y8648D01*
X27725D01*
Y8148D01*
X27350Y8648D02*
Y8398D01*
X26975Y7898D02*
Y7398D01*
Y7648D01*
X27725D01*
X16915Y12397D02*
X17665D01*
Y12022D01*
X17540Y11897D01*
X17040D01*
X16915Y12022D01*
Y12397D01*
Y11147D02*
Y11647D01*
X17665D01*
Y11147D01*
X17290Y11647D02*
Y11397D01*
X16915Y10897D02*
X17665D01*
Y10522D01*
X17540Y10397D01*
X17415D01*
X17290Y10522D01*
Y10897D01*
Y10522D01*
X17165Y10397D01*
X17040D01*
X16915Y10522D01*
Y10897D01*
Y10147D02*
X17540D01*
X17665Y10022D01*
Y9772D01*
X17540Y9647D01*
X16915D01*
X17040Y8898D02*
X16915Y9023D01*
Y9273D01*
X17040Y9398D01*
X17540D01*
X17665Y9273D01*
Y9023D01*
X17540Y8898D01*
X17290D01*
Y9148D01*
X17040Y8148D02*
X16915Y8273D01*
Y8523D01*
X17040Y8648D01*
X17540D01*
X17665Y8523D01*
Y8273D01*
X17540Y8148D01*
X17290D01*
Y8398D01*
X16915Y7398D02*
Y7898D01*
X17665D01*
Y7398D01*
X17290Y7898D02*
Y7648D01*
X17665Y7148D02*
X16915D01*
Y6773D01*
X17040Y6648D01*
X17290D01*
X17415Y6773D01*
Y7148D01*
Y6898D02*
X17665Y6648D01*
X13325Y16722D02*
Y15972D01*
X12950D01*
X12825Y16097D01*
Y16597D01*
X12950Y16722D01*
X13325D01*
X12575Y16597D02*
X12450Y16722D01*
X12200D01*
X12075Y16597D01*
Y16472D01*
X12200Y16347D01*
X12325D01*
X12200D01*
X12075Y16222D01*
Y16097D01*
X12200Y15972D01*
X12450D01*
X12575Y16097D01*
X15865Y16422D02*
Y15672D01*
X15490D01*
X15365Y15797D01*
Y16297D01*
X15490Y16422D01*
X15865D01*
X15115Y16297D02*
X14990Y16422D01*
X14740D01*
X14615Y16297D01*
Y15797D01*
X14740Y15672D01*
X14990D01*
X15115Y15797D01*
Y16297D01*
X18280Y16597D02*
X18405Y16722D01*
X18655D01*
X18780Y16597D01*
Y16097D01*
X18655Y15972D01*
X18405D01*
X18280Y16097D01*
Y16347D01*
X18530D01*
X18030Y15972D02*
Y16722D01*
X17530Y15972D01*
Y16722D01*
X17280D02*
Y15972D01*
X16905D01*
X16780Y16097D01*
Y16597D01*
X16905Y16722D01*
X17280D01*
X21320Y16422D02*
Y15922D01*
X21070Y15672D01*
X20820Y15922D01*
Y16422D01*
X20570D02*
X20070D01*
X20320D01*
Y15672D01*
X19320Y16297D02*
X19445Y16422D01*
X19695D01*
X19820Y16297D01*
Y15797D01*
X19695Y15672D01*
X19445D01*
X19320Y15797D01*
Y16047D01*
X19570D01*
X20945Y4663D02*
Y3913D01*
X20570D01*
X20445Y4038D01*
Y4538D01*
X20570Y4663D01*
X20945D01*
X19695Y3913D02*
X20195D01*
X19695Y4413D01*
Y4538D01*
X19820Y4663D01*
X20070D01*
X20195Y4538D01*
X18280Y4358D02*
Y3609D01*
X17905D01*
X17780Y3734D01*
Y4233D01*
X17905Y4358D01*
X18280D01*
X17530Y3609D02*
X17280D01*
X17405D01*
Y4358D01*
X17530Y4233D01*
X13325Y3609D02*
Y4358D01*
X12950D01*
X12825Y4233D01*
Y3984D01*
X12950Y3859D01*
X13325D01*
X13075D02*
X12825Y3609D01*
X12575Y4358D02*
X12075Y3609D01*
Y4358D02*
X12575Y3609D01*
X15865Y4663D02*
X15365D01*
X15615D01*
Y3913D01*
X15115Y4663D02*
X14615Y3913D01*
Y4663D02*
X15115Y3913D01*
X10115Y6152D02*
Y5402D01*
X9740D01*
X9615Y5527D01*
Y5652D01*
X9740Y5777D01*
X10115D01*
X9740D01*
X9615Y5902D01*
Y6027D01*
X9740Y6152D01*
X10115D01*
X8990D02*
X9240D01*
X9365Y6027D01*
Y5527D01*
X9240Y5402D01*
X8990D01*
X8865Y5527D01*
Y6027D01*
X8990Y6152D01*
X8241D02*
X8491D01*
X8615Y6027D01*
Y5527D01*
X8491Y5402D01*
X8241D01*
X8116Y5527D01*
Y6027D01*
X8241Y6152D01*
X7866D02*
X7366D01*
X7616D01*
Y5402D01*
X20945Y11810D02*
Y11060D01*
X20570D01*
X20445Y11185D01*
Y11685D01*
X20570Y11810D01*
X20945D01*
X19695Y11060D02*
X20195D01*
X19695Y11560D01*
Y11685D01*
X19820Y11810D01*
X20070D01*
X20195Y11685D01*
X20945Y10535D02*
Y9785D01*
X20570D01*
X20445Y9910D01*
Y10410D01*
X20570Y10535D01*
X20945D01*
X20195Y9785D02*
X19945D01*
X20070D01*
Y10535D01*
X20195Y10410D01*
X20945Y9260D02*
Y8510D01*
X20570D01*
X20445Y8635D01*
Y9135D01*
X20570Y9260D01*
X20945D01*
X20195Y9135D02*
X20070Y9260D01*
X19820D01*
X19695Y9135D01*
Y8635D01*
X19820Y8510D01*
X20070D01*
X20195Y8635D01*
Y9135D01*
X20945Y13085D02*
Y12335D01*
X20570D01*
X20445Y12460D01*
Y12960D01*
X20570Y13085D01*
X20945D01*
X20195Y12960D02*
X20070Y13085D01*
X19820D01*
X19695Y12960D01*
Y12835D01*
X19820Y12710D01*
X19945D01*
X19820D01*
X19695Y12585D01*
Y12460D01*
X19820Y12335D01*
X20070D01*
X20195Y12460D01*
X20945Y7235D02*
Y7985D01*
X20570D01*
X20445Y7860D01*
Y7610D01*
X20570Y7485D01*
X20945D01*
X20695D02*
X20445Y7235D01*
X20195Y7985D02*
X19695Y7235D01*
Y7985D02*
X20195Y7235D01*
X20945Y6710D02*
X20445D01*
X20695D01*
Y5960D01*
X20195Y6710D02*
X19695Y5960D01*
Y6710D02*
X20195Y5960D01*
X26308Y12335D02*
Y13085D01*
X25933D01*
X25808Y12960D01*
Y12710D01*
X25933Y12585D01*
X26308D01*
X26058D02*
X25808Y12335D01*
X25059Y13085D02*
X25558D01*
Y12335D01*
X25059D01*
X25558Y12710D02*
X25309D01*
X24809Y12960D02*
X24684Y13085D01*
X24434D01*
X24309Y12960D01*
Y12835D01*
X24434Y12710D01*
X24559D01*
X24434D01*
X24309Y12585D01*
Y12460D01*
X24434Y12335D01*
X24684D01*
X24809Y12460D01*
X26308Y11060D02*
Y11810D01*
X25933D01*
X25808Y11685D01*
Y11435D01*
X25933Y11310D01*
X26308D01*
X26058D02*
X25808Y11060D01*
X25558D02*
Y11560D01*
X25309Y11810D01*
X25059Y11560D01*
Y11060D01*
Y11435D01*
X25558D01*
X24809Y11685D02*
X24684Y11810D01*
X24434D01*
X24309Y11685D01*
Y11560D01*
X24434Y11435D01*
X24559D01*
X24434D01*
X24309Y11310D01*
Y11185D01*
X24434Y11060D01*
X24684D01*
X24809Y11185D01*
X26308Y9785D02*
Y10535D01*
X25933D01*
X25808Y10410D01*
Y10160D01*
X25933Y10035D01*
X26308D01*
X26058D02*
X25808Y9785D01*
X25558Y10535D02*
Y9785D01*
X25184D01*
X25059Y9910D01*
Y10035D01*
X25184Y10160D01*
X25558D01*
X25184D01*
X25059Y10285D01*
Y10410D01*
X25184Y10535D01*
X25558D01*
X24309D02*
X24559Y10410D01*
X24809Y10160D01*
Y9910D01*
X24684Y9785D01*
X24434D01*
X24309Y9910D01*
Y10035D01*
X24434Y10160D01*
X24809D01*
X26308Y8510D02*
Y9260D01*
X25933D01*
X25808Y9135D01*
Y8885D01*
X25933Y8760D01*
X26308D01*
X26058D02*
X25808Y8510D01*
X25558Y9260D02*
Y8510D01*
X25184D01*
X25059Y8635D01*
Y8760D01*
X25184Y8885D01*
X25558D01*
X25184D01*
X25059Y9010D01*
Y9135D01*
X25184Y9260D01*
X25558D01*
X24809D02*
X24309D01*
Y9135D01*
X24809Y8635D01*
Y8510D01*
X26308Y7235D02*
Y7985D01*
X25933D01*
X25808Y7860D01*
Y7610D01*
X25933Y7485D01*
X26308D01*
X26058D02*
X25808Y7235D01*
X25059Y7985D02*
X25558D01*
Y7610D01*
X25309D01*
X25558D01*
Y7235D01*
X24809Y7860D02*
X24684Y7985D01*
X24434D01*
X24309Y7860D01*
Y7360D01*
X24434Y7235D01*
X24684D01*
X24809Y7360D01*
Y7860D01*
X26308Y5960D02*
Y6710D01*
X25933D01*
X25808Y6585D01*
Y6335D01*
X25933Y6210D01*
X26308D01*
X26058D02*
X25808Y5960D01*
X25059Y6710D02*
X25558D01*
Y6335D01*
X25309D01*
X25558D01*
Y5960D01*
X24809D02*
X24559D01*
X24684D01*
Y6710D01*
X24809Y6585D01*
X18554Y7485D02*
X18429Y7610D01*
Y7860D01*
X18554Y7985D01*
X19054D01*
X19179Y7860D01*
Y7610D01*
X19054Y7485D01*
X18429Y7235D02*
X19179D01*
Y6860D01*
X19054Y6735D01*
X18554D01*
X18429Y6860D01*
Y7235D01*
X18554Y5986D02*
X18429Y6110D01*
Y6360D01*
X18554Y6485D01*
X19054D01*
X19179Y6360D01*
Y6110D01*
X19054Y5986D01*
X14455Y5450D02*
X14580Y5575D01*
X14830D01*
X14955Y5450D01*
Y4950D01*
X14830Y4825D01*
X14580D01*
X14455Y4950D01*
X14205Y5575D02*
Y4825D01*
X13830D01*
X13705Y4950D01*
Y5450D01*
X13830Y5575D01*
X14205D01*
X12956Y5450D02*
X13081Y5575D01*
X13331D01*
X13455Y5450D01*
Y4950D01*
X13331Y4825D01*
X13081D01*
X12956Y4950D01*
D126*
X74896Y12538D02*
X75591Y13233D01*
X72821Y12538D02*
X73650Y13367D01*
X44300Y14050D02*
X48600D01*
X44300Y11025D02*
Y14050D01*
X48600Y11025D02*
Y14050D01*
X44300Y11025D02*
X48600D01*
X34723Y7100D02*
Y10125D01*
X39948Y7100D02*
Y10125D01*
X34723D02*
X39948D01*
X34723Y7100D02*
X39948D01*
X48600Y12538D02*
X74896Y12538D01*
D127*
X31950Y8600D02*
X34723D01*
X30786Y9764D02*
X31950Y8600D01*
X30786Y9764D02*
Y13964D01*
X26100Y15500D02*
X26525Y15075D01*
X26525D02*
X26525D01*
X28825D02*
X29675D01*
X26300D02*
X27050D01*
X23472D02*
X24475D01*
X29675D02*
X30786Y13964D01*
X22875Y15672D02*
X23472Y15075D01*
M02*
