G04*
G04 #@! TF.GenerationSoftware,Altium Limited,Altium Designer,20.2.4 (192)*
G04*
G04 Layer_Color=16711935*
%FSLAX43Y43*%
%MOMM*%
G71*
G04*
G04 #@! TF.SameCoordinates,AF46D1C0-80E4-4F08-9089-F3FA465175DE*
G04*
G04*
G04 #@! TF.FilePolarity,Negative*
G04*
G01*
G75*
%ADD48C,1.050*%
%ADD52R,1.325X0.500*%
%ADD58R,0.770X0.620*%
%ADD81C,1.020*%
%ADD82C,1.820*%
%ADD84C,1.902*%
G04:AMPARAMS|DCode=86|XSize=1.17mm|YSize=0.96mm|CornerRadius=0.48mm|HoleSize=0mm|Usage=FLASHONLY|Rotation=270.000|XOffset=0mm|YOffset=0mm|HoleType=Round|Shape=RoundedRectangle|*
%AMROUNDEDRECTD86*
21,1,1.170,0.000,0,0,270.0*
21,1,0.210,0.960,0,0,270.0*
1,1,0.960,0.000,-0.105*
1,1,0.960,0.000,0.105*
1,1,0.960,0.000,0.105*
1,1,0.960,0.000,-0.105*
%
%ADD86ROUNDEDRECTD86*%
G04:AMPARAMS|DCode=87|XSize=2.12mm|YSize=2.22mm|CornerRadius=0.58mm|HoleSize=0mm|Usage=FLASHONLY|Rotation=270.000|XOffset=0mm|YOffset=0mm|HoleType=Round|Shape=RoundedRectangle|*
%AMROUNDEDRECTD87*
21,1,2.120,1.060,0,0,270.0*
21,1,0.960,2.220,0,0,270.0*
1,1,1.160,-0.530,-0.480*
1,1,1.160,-0.530,0.480*
1,1,1.160,0.530,0.480*
1,1,1.160,0.530,-0.480*
%
%ADD87ROUNDEDRECTD87*%
%ADD88C,0.120*%
%ADD89C,3.720*%
%ADD90C,0.500*%
%ADD122C,0.920*%
%ADD123C,0.920*%
%ADD124O,1.902X4.543*%
%ADD125O,1.902X4.137*%
D48*
X45200Y11775D02*
D03*
Y13275D02*
D03*
D52*
X38544Y9357D02*
D03*
X38544Y7850D02*
D03*
X22198Y11430D02*
D03*
Y10160D02*
D03*
Y8890D02*
D03*
Y12700D02*
D03*
Y6350D02*
D03*
Y7620D02*
D03*
D58*
X38207Y9357D02*
D03*
Y7850D02*
D03*
X21860Y11430D02*
D03*
Y10160D02*
D03*
Y8890D02*
D03*
Y12700D02*
D03*
Y6350D02*
D03*
Y7620D02*
D03*
D81*
X39207Y9357D02*
D03*
Y7850D02*
D03*
X43450Y11785D02*
D03*
X43450Y13285D02*
D03*
X22860Y11430D02*
D03*
Y10160D02*
D03*
Y8890D02*
D03*
Y12700D02*
D03*
Y6350D02*
D03*
Y7620D02*
D03*
D82*
X27940Y14402D02*
D03*
X25400D02*
D03*
D84*
X10160Y17577D02*
D03*
X12700Y17983D02*
D03*
X73660Y2337D02*
D03*
X66040Y2743D02*
D03*
X68580Y2337D02*
D03*
X71120Y2743D02*
D03*
X63500Y2337D02*
D03*
X60960Y2743D02*
D03*
X58420Y2337D02*
D03*
X55880Y2743D02*
D03*
X53340Y2337D02*
D03*
X50800Y2743D02*
D03*
X48260Y2337D02*
D03*
X45720Y2743D02*
D03*
X43180Y2337D02*
D03*
X40640Y2743D02*
D03*
X38100Y2337D02*
D03*
X35560Y2743D02*
D03*
X33020Y2337D02*
D03*
X30480Y2743D02*
D03*
X27940Y2337D02*
D03*
X25400Y2743D02*
D03*
X22860Y2337D02*
D03*
X20320Y2743D02*
D03*
X17780Y2337D02*
D03*
X15240Y2743D02*
D03*
X12700Y2337D02*
D03*
X76200Y17577D02*
D03*
X73660Y17983D02*
D03*
X71120Y17577D02*
D03*
X68580Y17983D02*
D03*
X66040Y17577D02*
D03*
X63500Y17983D02*
D03*
X60960Y17577D02*
D03*
X58420Y17983D02*
D03*
X55880Y17577D02*
D03*
X53340Y17983D02*
D03*
X50800Y17577D02*
D03*
X48260Y17983D02*
D03*
X45720Y17577D02*
D03*
X43180Y17983D02*
D03*
X40640Y17577D02*
D03*
X38100Y17983D02*
D03*
X35560Y17577D02*
D03*
X33020Y17983D02*
D03*
X30480Y17577D02*
D03*
X27940Y17983D02*
D03*
X25400Y17577D02*
D03*
X17780Y17983D02*
D03*
X22860D02*
D03*
X20320Y17577D02*
D03*
X7620Y2337D02*
D03*
X10160Y2743D02*
D03*
X76200D02*
D03*
X15240Y17577D02*
D03*
X7620Y17983D02*
D03*
D86*
X5050Y12385D02*
D03*
Y7935D02*
D03*
D87*
X2150Y6423D02*
D03*
Y13898D02*
D03*
D88*
X81280Y2540D02*
D03*
Y17780D02*
D03*
D89*
X2540D02*
D03*
Y2540D02*
D03*
D90*
X14365Y14225D02*
D03*
D122*
X3190Y10795D02*
D03*
Y9525D02*
D03*
X4460Y10795D02*
D03*
Y9525D02*
D03*
X5730Y10795D02*
D03*
Y9525D02*
D03*
D123*
X10810Y5777D02*
D03*
X10810Y7047D02*
D03*
D124*
X10160Y18999D02*
D03*
X66040Y1321D02*
D03*
X71120D02*
D03*
X60960D02*
D03*
X55880D02*
D03*
X50800D02*
D03*
X45720D02*
D03*
X40640D02*
D03*
X35560D02*
D03*
X30480D02*
D03*
X25400D02*
D03*
X20320D02*
D03*
X15240D02*
D03*
X10160D02*
D03*
X76200Y18999D02*
D03*
X71120D02*
D03*
X66040D02*
D03*
X60960D02*
D03*
X55880D02*
D03*
X50800D02*
D03*
X45720D02*
D03*
X40640D02*
D03*
X35560D02*
D03*
X30480D02*
D03*
X25400D02*
D03*
X20320D02*
D03*
X76200Y1321D02*
D03*
X15240Y18999D02*
D03*
D125*
X12700Y19202D02*
D03*
X73660Y1118D02*
D03*
X68580D02*
D03*
X63500D02*
D03*
X58420D02*
D03*
X53340D02*
D03*
X48260D02*
D03*
X43180D02*
D03*
X38100D02*
D03*
X33020D02*
D03*
X27940D02*
D03*
X22860D02*
D03*
X17780D02*
D03*
X12700D02*
D03*
X7620D02*
D03*
X73660Y19202D02*
D03*
X68580D02*
D03*
X63500D02*
D03*
X58420D02*
D03*
X53340D02*
D03*
X48260D02*
D03*
X43180D02*
D03*
X38100D02*
D03*
X33020D02*
D03*
X27940D02*
D03*
X17780D02*
D03*
X22860D02*
D03*
X7620D02*
D03*
M02*
