G04*
G04 #@! TF.GenerationSoftware,Altium Limited,Altium Designer,20.2.4 (192)*
G04*
G04 Layer_Physical_Order=2*
G04 Layer_Color=32768*
%FSLAX43Y43*%
%MOMM*%
G71*
G04*
G04 #@! TF.SameCoordinates,AF46D1C0-80E4-4F08-9089-F3FA465175DE*
G04*
G04*
G04 #@! TF.FilePolarity,Negative*
G04*
G01*
G75*
%ADD109C,1.016*%
%ADD110C,1.200*%
%ADD111C,1.620*%
%ADD112C,1.600*%
G04:AMPARAMS|DCode=113|XSize=2.524mm|YSize=2.524mm|CornerRadius=0mm|HoleSize=0mm|Usage=FLASHONLY|Rotation=0.000|XOffset=0mm|YOffset=0mm|HoleType=Round|Shape=Relief|Width=0.254mm|Gap=0.254mm|Entries=4|*
%AMTHD113*
7,0,0,2.524,2.016,0.254,45*
%
%ADD113THD113*%
%ADD114C,1.150*%
%ADD115O,1.140X1.350*%
%ADD116O,1.700X1.100*%
%ADD117C,3.300*%
%ADD118C,0.800*%
D109*
X2540Y20320D02*
G03*
X0Y17780I0J-2540D01*
G01*
X83820D02*
G03*
X81280Y20320I-2540J0D01*
G01*
Y0D02*
G03*
X83820Y2540I0J2540D01*
G01*
X0D02*
G03*
X2540Y0I2540J0D01*
G01*
Y0D02*
Y0D01*
Y0D02*
X81280Y0D01*
X2540Y20320D02*
X81280Y20320D01*
X2540Y20320D02*
Y20320D01*
X0Y2540D02*
Y17780D01*
X83820Y2540D02*
Y17780D01*
D110*
X39207Y9357D02*
D03*
Y7850D02*
D03*
X43450Y11785D02*
D03*
X43450Y13285D02*
D03*
X22860Y11430D02*
D03*
Y10160D02*
D03*
Y8890D02*
D03*
Y12700D02*
D03*
Y6350D02*
D03*
Y7620D02*
D03*
D111*
X27940Y14402D02*
D03*
X25400D02*
D03*
D112*
X10160Y20320D02*
D03*
Y17577D02*
D03*
X12700Y20320D02*
D03*
Y17983D02*
D03*
X73660Y0D02*
D03*
Y2337D02*
D03*
X68580Y0D02*
D03*
X66040D02*
D03*
X71120D02*
D03*
X63500D02*
D03*
X60960D02*
D03*
X58420D02*
D03*
X55880D02*
D03*
X53340D02*
D03*
X50800D02*
D03*
X48260D02*
D03*
X45720D02*
D03*
X43180D02*
D03*
X40640D02*
D03*
X38100D02*
D03*
X35560D02*
D03*
X33020D02*
D03*
X30480D02*
D03*
X27940D02*
D03*
X25400D02*
D03*
X22860D02*
D03*
X20320D02*
D03*
X17780D02*
D03*
X15240D02*
D03*
X12700D02*
D03*
X10160D02*
D03*
X7620D02*
D03*
X76200Y20320D02*
D03*
X73660D02*
D03*
X71120D02*
D03*
X68580D02*
D03*
X66040D02*
D03*
X63500D02*
D03*
X60960D02*
D03*
X58420D02*
D03*
X55880D02*
D03*
X53340D02*
D03*
X50800D02*
D03*
X48260D02*
D03*
X45720D02*
D03*
X43180D02*
D03*
X40640D02*
D03*
X38100D02*
D03*
X35560D02*
D03*
X33020D02*
D03*
X30480D02*
D03*
X27940D02*
D03*
X25400D02*
D03*
X17780D02*
D03*
X22860D02*
D03*
X20320D02*
D03*
X68580Y2337D02*
D03*
X71120Y2743D02*
D03*
X63500Y2337D02*
D03*
X60960Y2743D02*
D03*
X58420Y2337D02*
D03*
X55880Y2743D02*
D03*
X53340Y2337D02*
D03*
X50800Y2743D02*
D03*
X48260Y2337D02*
D03*
X45720Y2743D02*
D03*
X40640D02*
D03*
X38100Y2337D02*
D03*
X35560Y2743D02*
D03*
X33020Y2337D02*
D03*
X30480Y2743D02*
D03*
X27940Y2337D02*
D03*
X25400Y2743D02*
D03*
X22860Y2337D02*
D03*
X20320Y2743D02*
D03*
X17780Y2337D02*
D03*
X15240Y2743D02*
D03*
X12700Y2337D02*
D03*
X76200Y17577D02*
D03*
X73660Y17983D02*
D03*
X71120Y17577D02*
D03*
X68580Y17983D02*
D03*
X63500D02*
D03*
X60960Y17577D02*
D03*
X58420Y17983D02*
D03*
X55880Y17577D02*
D03*
X53340Y17983D02*
D03*
X50800Y17577D02*
D03*
X48260Y17983D02*
D03*
X45720Y17577D02*
D03*
X40640D02*
D03*
X38100Y17983D02*
D03*
X35560Y17577D02*
D03*
X33020Y17983D02*
D03*
X30480Y17577D02*
D03*
X27940Y17983D02*
D03*
X25400Y17577D02*
D03*
X22860Y17983D02*
D03*
X20320Y17577D02*
D03*
X7620Y2337D02*
D03*
X10160Y2743D02*
D03*
X76200D02*
D03*
Y0D02*
D03*
X15240Y17577D02*
D03*
Y20320D02*
D03*
X7620Y17983D02*
D03*
Y20320D02*
D03*
D113*
X66040Y2743D02*
D03*
X43180Y2337D02*
D03*
X66040Y17577D02*
D03*
X43180Y17983D02*
D03*
X17780D02*
D03*
D114*
X4200Y8160D02*
D03*
Y12160D02*
D03*
D115*
X5050Y12385D02*
D03*
Y7935D02*
D03*
D116*
X2150Y5985D02*
D03*
Y14335D02*
D03*
D117*
X81280Y2540D02*
D03*
Y17780D02*
D03*
D118*
X48600Y11850D02*
D03*
X49350D02*
D03*
X44725Y14200D02*
D03*
X54276Y15380D02*
D03*
X44200Y5150D02*
D03*
X45398Y5653D02*
D03*
X69993Y8950D02*
D03*
X53775Y9900D02*
D03*
X53300Y9425D02*
D03*
X59947Y14753D02*
D03*
X61422Y14500D02*
D03*
X61925Y15000D02*
D03*
X57945Y8460D02*
D03*
X58895Y7510D02*
D03*
X59370Y7035D02*
D03*
X31975Y14975D02*
D03*
X54414Y4850D02*
D03*
X44625Y7875D02*
D03*
X43875D02*
D03*
X51260Y4857D02*
D03*
X48255Y15327D02*
D03*
X63401Y13875D02*
D03*
X49987Y12741D02*
D03*
X30100Y15400D02*
D03*
X50625Y15375D02*
D03*
X33020Y14697D02*
D03*
X25650Y7620D02*
D03*
X31082Y15127D02*
D03*
X58420Y7985D02*
D03*
X56800Y9895D02*
D03*
X51450Y7035D02*
D03*
X51975Y10875D02*
D03*
X51225D02*
D03*
X50975Y7510D02*
D03*
X50025Y8460D02*
D03*
X50500Y7985D02*
D03*
X49525Y8950D02*
D03*
X45333Y7875D02*
D03*
X50694Y12741D02*
D03*
X54276Y14697D02*
D03*
X50650Y11371D02*
D03*
X55850Y14859D02*
D03*
X50625Y13875D02*
D03*
X10425Y12075D02*
D03*
X73275Y9375D02*
D03*
X21935Y10755D02*
D03*
Y9485D02*
D03*
X19564Y9175D02*
D03*
X19539Y10575D02*
D03*
X21040Y11435D02*
D03*
X20565Y8790D02*
D03*
X19715Y8200D02*
D03*
X13115Y16050D02*
D03*
X16264Y7424D02*
D03*
X12051Y11325D02*
D03*
X13215Y12075D02*
D03*
X15115Y11775D02*
D03*
X15815Y10581D02*
D03*
X12115Y16475D02*
D03*
X18189Y12973D02*
D03*
X13540Y3725D02*
D03*
X15449Y5784D02*
D03*
X15990Y5297D02*
D03*
X17015Y5425D02*
D03*
X19490Y11225D02*
D03*
X20115Y6200D02*
D03*
X19614Y12175D02*
D03*
X19490Y6525D02*
D03*
X19940Y5525D02*
D03*
X19490Y5025D02*
D03*
X19990Y9675D02*
D03*
X17659Y14775D02*
D03*
X19215Y13317D02*
D03*
X13865Y16400D02*
D03*
X20215Y7700D02*
D03*
X11376Y11375D02*
D03*
X20540Y13985D02*
D03*
X9715Y7924D02*
D03*
Y8925D02*
D03*
X10810Y5777D02*
D03*
X9885D02*
D03*
X8515Y7675D02*
D03*
X7870Y11000D02*
D03*
X8725Y14525D02*
D03*
X17400Y12973D02*
D03*
X17599Y11125D02*
D03*
X17264Y9600D02*
D03*
X17615Y7100D02*
D03*
X19890Y7125D02*
D03*
X5125Y4600D02*
D03*
M02*
