G04*
G04 #@! TF.GenerationSoftware,Altium Limited,Altium Designer,20.2.4 (192)*
G04*
G04 Layer_Physical_Order=4*
G04 Layer_Color=16711680*
%FSLAX43Y43*%
%MOMM*%
G71*
G04*
G04 #@! TF.SameCoordinates,AF46D1C0-80E4-4F08-9089-F3FA465175DE*
G04*
G04*
G04 #@! TF.FilePolarity,Positive*
G04*
G01*
G75*
%ADD14C,0.150*%
G04:AMPARAMS|DCode=20|XSize=1.05mm|YSize=0.84mm|CornerRadius=0.42mm|HoleSize=0mm|Usage=FLASHONLY|Rotation=270.000|XOffset=0mm|YOffset=0mm|HoleType=Round|Shape=RoundedRectangle|*
%AMROUNDEDRECTD20*
21,1,1.050,0.000,0,0,270.0*
21,1,0.210,0.840,0,0,270.0*
1,1,0.840,0.000,-0.105*
1,1,0.840,0.000,0.105*
1,1,0.840,0.000,0.105*
1,1,0.840,0.000,-0.105*
%
%ADD20ROUNDEDRECTD20*%
G04:AMPARAMS|DCode=21|XSize=2mm|YSize=2.1mm|CornerRadius=0.52mm|HoleSize=0mm|Usage=FLASHONLY|Rotation=270.000|XOffset=0mm|YOffset=0mm|HoleType=Round|Shape=RoundedRectangle|*
%AMROUNDEDRECTD21*
21,1,2.000,1.060,0,0,270.0*
21,1,0.960,2.100,0,0,270.0*
1,1,1.040,-0.530,-0.480*
1,1,1.040,-0.530,0.480*
1,1,1.040,0.530,0.480*
1,1,1.040,0.530,-0.480*
%
%ADD21ROUNDEDRECTD21*%
%ADD31C,0.250*%
%ADD47R,0.650X0.500*%
%ADD90C,0.500*%
%ADD102R,0.350X0.250*%
%ADD103C,0.900*%
%ADD104C,1.700*%
%ADD105O,1.702X4.343*%
%ADD106C,1.702*%
%ADD107O,1.702X3.937*%
%ADD108C,3.600*%
%ADD120C,0.800*%
%ADD121C,0.800*%
G36*
X67520Y17983D02*
X67556Y17709D01*
X67579Y17654D01*
X67580Y17649D01*
X67614Y17538D01*
X67640Y17441D01*
X67657Y17353D01*
X67667Y17277D01*
X67669Y17211D01*
X67666Y17157D01*
X67658Y17115D01*
X67647Y17084D01*
X67635Y17062D01*
X67626Y17051D01*
X64180Y13605D01*
X63903D01*
X63831Y13732D01*
X63860Y13875D01*
X63825Y14051D01*
X63725Y14199D01*
X63577Y14299D01*
X63401Y14334D01*
X63225Y14299D01*
X63077Y14199D01*
X63064Y14181D01*
X63056Y14174D01*
X63047Y14167D01*
X63040Y14163D01*
X63033Y14159D01*
X63028Y14157D01*
X63024Y14156D01*
X63023Y14155D01*
X61886D01*
X61818Y14282D01*
X61846Y14324D01*
X61866Y14423D01*
X61925Y14541D01*
X62101Y14576D01*
X62249Y14676D01*
X62349Y14824D01*
X62384Y15000D01*
X62349Y15176D01*
X62249Y15324D01*
X62101Y15424D01*
X61925Y15459D01*
X61903Y15454D01*
X61892Y15455D01*
X61882Y15457D01*
X61873Y15459D01*
X61866Y15461D01*
X61861Y15463D01*
X61857Y15465D01*
X61856Y15466D01*
X60914Y16408D01*
X60981Y16520D01*
X61234Y16553D01*
X61490Y16659D01*
X61710Y16827D01*
X61878Y17047D01*
X61984Y17302D01*
X62020Y17577D01*
X62013Y17628D01*
X62020Y17678D01*
Y18034D01*
X62395D01*
X62440Y17983D01*
X62476Y17709D01*
X62582Y17453D01*
X62750Y17234D01*
X62970Y17065D01*
X63226Y16959D01*
X63500Y16923D01*
X63774Y16959D01*
X64030Y17065D01*
X64250Y17234D01*
X64418Y17453D01*
X64524Y17709D01*
X64560Y17983D01*
X64605Y18034D01*
X64980D01*
Y17704D01*
X66040D01*
X67100D01*
Y18034D01*
X67475D01*
X67520Y17983D01*
D02*
G37*
G36*
X13516Y17703D02*
X13493Y17476D01*
X13491Y17377D01*
X13495Y17287D01*
X13505Y17206D01*
X13521Y17135D01*
X13544Y17073D01*
X13573Y17021D01*
X13608Y16978D01*
X13488Y16886D01*
X13455Y16912D01*
X13410Y16938D01*
X13351Y16963D01*
X13278Y16989D01*
X13094Y17041D01*
X12856Y17092D01*
X12670Y17125D01*
X12659Y17123D01*
X12353Y17070D01*
X12269Y17048D01*
X12193Y17023D01*
X12127Y16995D01*
X12068Y16965D01*
X12019Y16932D01*
X11978Y16897D01*
X11872Y17003D01*
X11909Y17046D01*
X11938Y17095D01*
X11959Y17150D01*
X11973Y17211D01*
X11979Y17278D01*
X11978Y17350D01*
X11969Y17428D01*
X11953Y17513D01*
X11929Y17603D01*
X11898Y17699D01*
X12660Y17211D01*
X13537Y17831D01*
X13516Y17703D01*
D02*
G37*
G36*
X44660Y17678D02*
X44667Y17628D01*
X44660Y17577D01*
X44696Y17302D01*
X44802Y17047D01*
X44970Y16827D01*
X45190Y16659D01*
X45318Y16606D01*
X45293Y16479D01*
X41067D01*
X41042Y16606D01*
X41170Y16659D01*
X41390Y16827D01*
X41558Y17047D01*
X41664Y17302D01*
X41700Y17577D01*
X41693Y17628D01*
X41700Y17678D01*
Y18034D01*
X42075D01*
X42120Y17983D01*
X42156Y17709D01*
X42262Y17453D01*
X42430Y17234D01*
X42650Y17065D01*
X42906Y16959D01*
X43053Y16940D01*
Y17983D01*
X43307D01*
Y16940D01*
X43454Y16959D01*
X43710Y17065D01*
X43930Y17234D01*
X44098Y17453D01*
X44204Y17709D01*
X44240Y17983D01*
X44285Y18034D01*
X44660D01*
Y17678D01*
D02*
G37*
G36*
X59900D02*
X59907Y17628D01*
X59900Y17577D01*
X59936Y17302D01*
X60042Y17047D01*
X60148Y16908D01*
X60086Y16781D01*
X56754D01*
X56692Y16908D01*
X56798Y17047D01*
X56904Y17302D01*
X56940Y17577D01*
X56933Y17628D01*
X56940Y17678D01*
Y18034D01*
X57315D01*
X57360Y17983D01*
X57396Y17709D01*
X57502Y17453D01*
X57670Y17234D01*
X57890Y17065D01*
X58146Y16959D01*
X58420Y16923D01*
X58694Y16959D01*
X58950Y17065D01*
X59170Y17234D01*
X59338Y17453D01*
X59444Y17709D01*
X59480Y17983D01*
X59525Y18034D01*
X59900D01*
Y17678D01*
D02*
G37*
G36*
X54820D02*
X54827Y17628D01*
X54820Y17577D01*
X54856Y17302D01*
X54962Y17047D01*
X55068Y16908D01*
X55006Y16781D01*
X51992D01*
X51956Y16817D01*
X51950Y16824D01*
X51937Y16849D01*
X51920Y16889D01*
X51904Y16945D01*
X51889Y17016D01*
X51876Y17096D01*
X51855Y17435D01*
X51855Y17538D01*
X51860Y17577D01*
X51853Y17628D01*
X51860Y17678D01*
Y18034D01*
X52235D01*
X52280Y17983D01*
X52316Y17709D01*
X52422Y17453D01*
X52590Y17234D01*
X52810Y17065D01*
X53066Y16959D01*
X53340Y16923D01*
X53614Y16959D01*
X53870Y17065D01*
X54090Y17234D01*
X54258Y17453D01*
X54364Y17709D01*
X54400Y17983D01*
X54445Y18034D01*
X54820D01*
Y17678D01*
D02*
G37*
G36*
X39580D02*
X39587Y17628D01*
X39580Y17577D01*
X39616Y17302D01*
X39722Y17047D01*
X39890Y16827D01*
X40110Y16659D01*
X40238Y16606D01*
X40213Y16479D01*
X35987D01*
X35962Y16606D01*
X36090Y16659D01*
X36310Y16827D01*
X36478Y17047D01*
X36584Y17302D01*
X36620Y17577D01*
X36613Y17628D01*
X36620Y17678D01*
Y18034D01*
X36995D01*
X37040Y17983D01*
X37076Y17709D01*
X37182Y17453D01*
X37350Y17234D01*
X37570Y17065D01*
X37826Y16959D01*
X38100Y16923D01*
X38374Y16959D01*
X38630Y17065D01*
X38850Y17234D01*
X39018Y17453D01*
X39124Y17709D01*
X39160Y17983D01*
X39205Y18034D01*
X39580D01*
Y17678D01*
D02*
G37*
G36*
X34500D02*
X34507Y17628D01*
X34500Y17577D01*
X34536Y17302D01*
X34642Y17047D01*
X34810Y16827D01*
X35030Y16659D01*
X35158Y16606D01*
X35133Y16479D01*
X30907D01*
X30882Y16606D01*
X31010Y16659D01*
X31230Y16827D01*
X31398Y17047D01*
X31504Y17302D01*
X31540Y17577D01*
X31533Y17628D01*
X31540Y17678D01*
Y18034D01*
X31915D01*
X31960Y17983D01*
X31996Y17709D01*
X32102Y17453D01*
X32270Y17234D01*
X32490Y17065D01*
X32746Y16959D01*
X33020Y16923D01*
X33294Y16959D01*
X33550Y17065D01*
X33770Y17234D01*
X33938Y17453D01*
X34044Y17709D01*
X34080Y17983D01*
X34125Y18034D01*
X34500D01*
Y17678D01*
D02*
G37*
G36*
X28739Y17658D02*
X28705Y17438D01*
X28699Y17341D01*
X28700Y17253D01*
X28709Y17174D01*
X28724Y17103D01*
X28746Y17041D01*
X28776Y16987D01*
X28813Y16942D01*
X28682Y16861D01*
X28653Y16884D01*
X28610Y16908D01*
X28553Y16933D01*
X28481Y16960D01*
X28296Y17018D01*
X27911Y17117D01*
X27755Y17153D01*
X28767Y17781D01*
X28739Y17658D01*
D02*
G37*
G36*
X73858Y17156D02*
X73700Y17117D01*
X73000Y16900D01*
X72958Y16877D01*
X72930Y16855D01*
X72798Y16935D01*
X72835Y16980D01*
X72864Y17033D01*
X72887Y17095D01*
X72901Y17166D01*
X72909Y17245D01*
X72909Y17333D01*
X72902Y17429D01*
X72888Y17533D01*
X72866Y17647D01*
X72837Y17768D01*
X73858Y17156D01*
D02*
G37*
G36*
X49047Y17630D02*
X49006Y17415D01*
X48998Y17320D01*
X48997Y17233D01*
X49003Y17154D01*
X49018Y17084D01*
X49040Y17022D01*
X49069Y16969D01*
X49107Y16924D01*
X48971Y16847D01*
X48945Y16867D01*
X48904Y16889D01*
X48849Y16914D01*
X48693Y16972D01*
X48347Y17077D01*
X48043Y17161D01*
X49078Y17749D01*
X49047Y17630D01*
D02*
G37*
G36*
X68837Y17172D02*
X67908Y16830D01*
X67767Y16901D01*
X67805Y16947D01*
X67834Y17001D01*
X67856Y17062D01*
X67869Y17132D01*
X67874Y17209D01*
X67870Y17293D01*
X67859Y17386D01*
X67839Y17486D01*
X67811Y17594D01*
X67774Y17710D01*
X68837Y17172D01*
D02*
G37*
G36*
X23586Y17520D02*
X23550Y17420D01*
X23523Y17327D01*
X23505Y17240D01*
X23497Y17160D01*
X23498Y17086D01*
X23508Y17019D01*
X23528Y16959D01*
X23558Y16906D01*
X23597Y16859D01*
X23443Y16801D01*
X23432Y16807D01*
X23402Y16820D01*
X22524Y17201D01*
X23632Y17626D01*
X23586Y17520D01*
D02*
G37*
G36*
X46571Y17428D02*
X46593Y17075D01*
X46608Y16979D01*
X46626Y16895D01*
X46648Y16822D01*
X46673Y16760D01*
X46701Y16709D01*
X46733Y16670D01*
X46627Y16564D01*
X46588Y16596D01*
X46537Y16624D01*
X46475Y16649D01*
X46402Y16671D01*
X46318Y16689D01*
X46222Y16704D01*
X45998Y16722D01*
X45729Y16726D01*
X46571Y17568D01*
X46571Y17428D01*
D02*
G37*
G36*
X76191Y16726D02*
X76051Y16726D01*
X75698Y16703D01*
X75602Y16689D01*
X75518Y16671D01*
X75445Y16649D01*
X75383Y16624D01*
X75332Y16596D01*
X75293Y16563D01*
X75187Y16670D01*
X75219Y16709D01*
X75247Y16760D01*
X75273Y16822D01*
X75294Y16895D01*
X75312Y16979D01*
X75327Y17075D01*
X75345Y17299D01*
X75349Y17568D01*
X76191Y16726D01*
D02*
G37*
G36*
X71111D02*
X70971Y16726D01*
X70618Y16703D01*
X70522Y16689D01*
X70438Y16671D01*
X70365Y16649D01*
X70303Y16624D01*
X70252Y16596D01*
X70213Y16563D01*
X70107Y16670D01*
X70139Y16709D01*
X70167Y16760D01*
X70193Y16822D01*
X70214Y16895D01*
X70232Y16979D01*
X70247Y17075D01*
X70265Y17299D01*
X70269Y17568D01*
X71111Y16726D01*
D02*
G37*
G36*
X51651Y17428D02*
X51673Y17075D01*
X51688Y16979D01*
X51706Y16895D01*
X51727Y16822D01*
X51753Y16760D01*
X51781Y16709D01*
X51813Y16670D01*
X51707Y16563D01*
X51668Y16596D01*
X51617Y16624D01*
X51555Y16649D01*
X51482Y16671D01*
X51398Y16689D01*
X51302Y16703D01*
X51078Y16722D01*
X50809Y16726D01*
X51651Y17568D01*
X51651Y17428D01*
D02*
G37*
G36*
X26251D02*
X26273Y17075D01*
X26288Y16979D01*
X26306Y16895D01*
X26327Y16822D01*
X26353Y16760D01*
X26381Y16709D01*
X26413Y16670D01*
X26307Y16563D01*
X26268Y16596D01*
X26217Y16624D01*
X26155Y16649D01*
X26082Y16671D01*
X25998Y16689D01*
X25902Y16703D01*
X25678Y16722D01*
X25409Y16726D01*
X26251Y17568D01*
X26251Y17428D01*
D02*
G37*
G36*
X10181Y16726D02*
X10038Y16721D01*
X9680Y16688D01*
X9584Y16672D01*
X9499Y16652D01*
X9426Y16630D01*
X9364Y16604D01*
X9314Y16576D01*
X9276Y16545D01*
X9166Y16647D01*
X9199Y16688D01*
X9228Y16739D01*
X9253Y16801D01*
X9274Y16874D01*
X9290Y16958D01*
X9302Y17053D01*
X9314Y17274D01*
X9314Y17401D01*
X9310Y17539D01*
X10181Y16726D01*
D02*
G37*
G36*
X81947Y19977D02*
X82362Y19805D01*
X82737Y19555D01*
X83055Y19237D01*
X83305Y18862D01*
X83477Y18447D01*
X83565Y18005D01*
Y17780D01*
Y2540D01*
Y2315D01*
X83477Y1873D01*
X83305Y1458D01*
X83055Y1083D01*
X82737Y765D01*
X82362Y515D01*
X81947Y343D01*
X81505Y255D01*
X77260D01*
Y2642D01*
X77253Y2692D01*
X77260Y2743D01*
X77224Y3018D01*
X77118Y3273D01*
X76950Y3493D01*
X76730Y3661D01*
X76474Y3767D01*
X76200Y3803D01*
X76164Y3798D01*
X75932Y3802D01*
X75721Y3819D01*
X75639Y3832D01*
X75568Y3847D01*
X75512Y3863D01*
X75472Y3880D01*
X75448Y3893D01*
X75441Y3899D01*
X70459Y8881D01*
X70458Y8882D01*
X70456Y8886D01*
X70454Y8891D01*
X70452Y8898D01*
X70450Y8907D01*
X70449Y8917D01*
X70448Y8928D01*
X70452Y8950D01*
X70417Y9126D01*
X70318Y9274D01*
X70169Y9374D01*
X69993Y9409D01*
X69818Y9374D01*
X69669Y9274D01*
X69656Y9256D01*
X69648Y9249D01*
X69639Y9242D01*
X69632Y9238D01*
X69626Y9234D01*
X69620Y9232D01*
X69616Y9231D01*
X69615Y9230D01*
X53880D01*
X53798Y9336D01*
X53828Y9446D01*
X53881Y9462D01*
X53951Y9476D01*
X54099Y9576D01*
X54199Y9724D01*
X54234Y9900D01*
X54199Y10076D01*
X54099Y10224D01*
X53951Y10324D01*
X53775Y10359D01*
X53599Y10324D01*
X53451Y10224D01*
X53438Y10206D01*
X53430Y10199D01*
X53421Y10192D01*
X53414Y10188D01*
X53407Y10184D01*
X53402Y10182D01*
X53398Y10181D01*
X53397Y10180D01*
X52775D01*
X52668Y10159D01*
X52577Y10098D01*
X52559Y10080D01*
X51743D01*
X51694Y10198D01*
X51906Y10409D01*
X51907Y10410D01*
X51911Y10412D01*
X51916Y10414D01*
X51923Y10416D01*
X51932Y10418D01*
X51942Y10420D01*
X51953Y10421D01*
X51975Y10416D01*
X52151Y10451D01*
X52299Y10551D01*
X52399Y10699D01*
X52434Y10875D01*
X52416Y10963D01*
X52513Y11090D01*
X55208D01*
X56334Y9964D01*
X56335Y9963D01*
X56337Y9959D01*
X56339Y9954D01*
X56341Y9947D01*
X56343Y9938D01*
X56345Y9927D01*
X56346Y9917D01*
X56341Y9895D01*
X56376Y9719D01*
X56476Y9570D01*
X56624Y9471D01*
X56800Y9436D01*
X56976Y9471D01*
X57124Y9570D01*
X57224Y9719D01*
X57259Y9895D01*
X57224Y10070D01*
X57124Y10219D01*
X56976Y10319D01*
X56800Y10353D01*
X56778Y10349D01*
X56767Y10350D01*
X56757Y10352D01*
X56748Y10354D01*
X56741Y10356D01*
X56736Y10358D01*
X56732Y10360D01*
X56731Y10360D01*
X55599Y11493D01*
X55651Y11620D01*
X70523D01*
X70630Y11641D01*
X70721Y11702D01*
X75441Y16421D01*
X75448Y16427D01*
X75472Y16440D01*
X75512Y16457D01*
X75568Y16473D01*
X75639Y16488D01*
X75719Y16500D01*
X76058Y16522D01*
X76161Y16522D01*
X76200Y16517D01*
X76474Y16553D01*
X76730Y16659D01*
X76950Y16827D01*
X77118Y17047D01*
X77224Y17302D01*
X77260Y17577D01*
X77253Y17628D01*
X77260Y17678D01*
Y20065D01*
X81280D01*
X81505D01*
X81947Y19977D01*
D02*
G37*
G36*
X72600Y17983D02*
X72636Y17709D01*
X72648Y17680D01*
X72666Y17604D01*
X72686Y17500D01*
X72699Y17407D01*
X72705Y17325D01*
X72705Y17255D01*
X72700Y17197D01*
X72690Y17151D01*
X72678Y17118D01*
X72665Y17095D01*
X72656Y17084D01*
X68119Y12546D01*
X66652D01*
X66603Y12664D01*
X70361Y16421D01*
X70368Y16427D01*
X70392Y16440D01*
X70432Y16457D01*
X70488Y16473D01*
X70559Y16488D01*
X70639Y16500D01*
X70978Y16522D01*
X71081Y16522D01*
X71120Y16517D01*
X71394Y16553D01*
X71650Y16659D01*
X71870Y16827D01*
X72038Y17047D01*
X72144Y17302D01*
X72180Y17577D01*
X72173Y17628D01*
X72180Y17678D01*
Y18034D01*
X72555D01*
X72600Y17983D01*
D02*
G37*
G36*
X21800D02*
X21836Y17709D01*
X21942Y17453D01*
X22110Y17234D01*
X22330Y17065D01*
X22427Y17025D01*
X22441Y17015D01*
X22442Y17015D01*
X22443Y17014D01*
X23319Y16634D01*
X24176Y15777D01*
X24267Y15716D01*
X24375Y15695D01*
X27984D01*
X28113Y15566D01*
X28054Y15446D01*
X27940Y15461D01*
X27666Y15425D01*
X27410Y15319D01*
X27191Y15151D01*
X27023Y14931D01*
X26917Y14676D01*
X26881Y14402D01*
X26917Y14128D01*
X27023Y13872D01*
X27191Y13653D01*
X27410Y13485D01*
X27666Y13379D01*
X27940Y13343D01*
X28214Y13379D01*
X28470Y13485D01*
X28689Y13653D01*
X28857Y13872D01*
X28963Y14128D01*
X28999Y14402D01*
X28984Y14515D01*
X29104Y14575D01*
X36027Y7652D01*
X36118Y7591D01*
X36226Y7570D01*
X37505D01*
Y7087D01*
X40007D01*
Y10132D01*
X37505D01*
Y9637D01*
X35509D01*
X30288Y14859D01*
X30320Y15006D01*
X30424Y15076D01*
X30508Y15201D01*
X30628Y15151D01*
X30623Y15127D01*
X30658Y14952D01*
X30757Y14803D01*
X30906Y14703D01*
X31082Y14668D01*
X31257Y14703D01*
X31406Y14803D01*
X31418Y14820D01*
X31551Y14799D01*
X31651Y14651D01*
X31799Y14551D01*
X31975Y14516D01*
X32151Y14551D01*
X32299Y14651D01*
X32393Y14790D01*
X32410Y14801D01*
X32462Y14809D01*
X32562Y14701D01*
X32561Y14697D01*
X32596Y14521D01*
X32696Y14372D01*
X32844Y14273D01*
X33020Y14238D01*
X33196Y14273D01*
X33344Y14372D01*
X33357Y14391D01*
X33365Y14398D01*
X33374Y14404D01*
X33381Y14409D01*
X33388Y14412D01*
X33393Y14415D01*
X33397Y14416D01*
X33398Y14416D01*
X44187D01*
X44284Y14289D01*
X44266Y14200D01*
X44301Y14024D01*
X44401Y13876D01*
X44538Y13783D01*
X44550Y13773D01*
X44576Y13685D01*
X44498Y13566D01*
X44157D01*
X44152Y13567D01*
X44138Y13572D01*
X44118Y13581D01*
X44093Y13594D01*
X44065Y13613D01*
X44034Y13636D01*
X43956Y13704D01*
X43921Y13739D01*
X43914Y13749D01*
X43778Y13853D01*
X43620Y13918D01*
X43450Y13941D01*
X43280Y13918D01*
X43122Y13853D01*
X42986Y13749D01*
X42882Y13613D01*
X42817Y13455D01*
X42794Y13285D01*
X42817Y13115D01*
X42882Y12957D01*
X42986Y12822D01*
X43122Y12717D01*
X43280Y12652D01*
X43450Y12630D01*
X43620Y12652D01*
X43778Y12717D01*
X43914Y12822D01*
X43921Y12832D01*
X43956Y12866D01*
X44034Y12934D01*
X44065Y12957D01*
X44093Y12976D01*
X44118Y12990D01*
X44138Y12999D01*
X44152Y13004D01*
X44157Y13005D01*
X44550D01*
X44588Y12914D01*
X44632Y12848D01*
X44773Y12707D01*
X44839Y12663D01*
X45012Y12591D01*
X45023Y12560D01*
Y12490D01*
X45012Y12459D01*
X44839Y12387D01*
X44773Y12343D01*
X44632Y12202D01*
X44588Y12136D01*
X44558Y12066D01*
X44157D01*
X44152Y12067D01*
X44138Y12072D01*
X44118Y12081D01*
X44093Y12094D01*
X44065Y12113D01*
X44034Y12136D01*
X43956Y12204D01*
X43921Y12239D01*
X43914Y12249D01*
X43778Y12353D01*
X43620Y12418D01*
X43450Y12441D01*
X43280Y12418D01*
X43122Y12353D01*
X42986Y12249D01*
X42882Y12113D01*
X42817Y11955D01*
X42794Y11785D01*
X42817Y11615D01*
X42882Y11457D01*
X42986Y11322D01*
X43122Y11217D01*
X43280Y11152D01*
X43450Y11130D01*
X43620Y11152D01*
X43778Y11217D01*
X43914Y11322D01*
X43921Y11332D01*
X43956Y11366D01*
X44034Y11434D01*
X44064Y11457D01*
X44093Y11476D01*
X44118Y11490D01*
X44138Y11499D01*
X44152Y11504D01*
X44157Y11505D01*
X44550D01*
X44588Y11414D01*
X44632Y11348D01*
X44773Y11207D01*
X44839Y11163D01*
X45023Y11087D01*
X45101Y11071D01*
X45200D01*
X45278Y11087D01*
X45319Y11114D01*
X45332Y11111D01*
X45367Y11103D01*
X45371Y11103D01*
X45374Y11103D01*
X45410Y11110D01*
X45446Y11115D01*
X45518Y11142D01*
X45544Y11158D01*
X45571Y11172D01*
X45692Y11266D01*
X45712Y11289D01*
X45735Y11311D01*
X45822Y11436D01*
X45834Y11465D01*
X45849Y11492D01*
X45853Y11505D01*
X47291D01*
X47898Y10898D01*
X47849Y10780D01*
X44462D01*
X44355Y10759D01*
X44264Y10698D01*
X39671Y6105D01*
X28233D01*
X25250Y9088D01*
X25159Y9149D01*
X25052Y9170D01*
X23567D01*
X23562Y9172D01*
X23548Y9176D01*
X23528Y9185D01*
X23503Y9199D01*
X23475Y9218D01*
X23450Y9237D01*
Y9886D01*
X23493Y9990D01*
X23516Y10160D01*
X23493Y10330D01*
X23450Y10434D01*
Y11156D01*
X23493Y11260D01*
X23516Y11430D01*
X23493Y11600D01*
X23450Y11704D01*
Y12426D01*
X23493Y12530D01*
X23516Y12700D01*
X23493Y12870D01*
X23450Y12974D01*
Y13356D01*
X22860Y13356D01*
X22860Y13356D01*
X22860Y13356D01*
X22140Y13356D01*
Y13870D01*
X22138Y13882D01*
X22140Y13895D01*
X22119Y14002D01*
X22058Y14093D01*
X20175Y15977D01*
X20084Y16037D01*
X19977Y16059D01*
X19869Y16037D01*
X19864Y16034D01*
X15328D01*
X14926Y16436D01*
X14942Y16484D01*
X14992Y16550D01*
X15240Y16517D01*
X15514Y16553D01*
X15770Y16659D01*
X15990Y16827D01*
X16158Y17047D01*
X16264Y17302D01*
X16300Y17577D01*
X16293Y17628D01*
X16300Y17678D01*
Y18034D01*
X16675D01*
X16720Y17983D01*
X16756Y17709D01*
X16862Y17453D01*
X17030Y17234D01*
X17250Y17065D01*
X17506Y16959D01*
X17653Y16940D01*
Y17983D01*
X17907D01*
Y16940D01*
X18054Y16959D01*
X18310Y17065D01*
X18530Y17234D01*
X18698Y17453D01*
X18804Y17709D01*
X18840Y17983D01*
X18885Y18034D01*
X19260D01*
Y17678D01*
X19267Y17628D01*
X19260Y17577D01*
X19296Y17302D01*
X19402Y17047D01*
X19570Y16827D01*
X19790Y16659D01*
X20046Y16553D01*
X20320Y16517D01*
X20594Y16553D01*
X20850Y16659D01*
X21070Y16827D01*
X21238Y17047D01*
X21344Y17302D01*
X21380Y17577D01*
X21373Y17628D01*
X21380Y17678D01*
Y18034D01*
X21755D01*
X21800Y17983D01*
D02*
G37*
G36*
X11640D02*
X11676Y17709D01*
X11703Y17643D01*
X11704Y17635D01*
X11734Y17545D01*
X11754Y17467D01*
X11768Y17398D01*
X11774Y17337D01*
X11775Y17286D01*
X11771Y17244D01*
X11764Y17210D01*
X11754Y17185D01*
X11742Y17165D01*
X11738Y17160D01*
X11720Y17148D01*
X10577Y16005D01*
X9925D01*
X9818Y15984D01*
X9727Y15923D01*
X8794Y14991D01*
X8793Y14990D01*
X8789Y14988D01*
X8784Y14986D01*
X8777Y14984D01*
X8768Y14982D01*
X8758Y14980D01*
X8747Y14979D01*
X8725Y14984D01*
X8549Y14949D01*
X8401Y14849D01*
X8301Y14701D01*
X8266Y14525D01*
X8301Y14349D01*
X8401Y14201D01*
X8549Y14101D01*
X8725Y14066D01*
X8901Y14101D01*
X9049Y14201D01*
X9149Y14349D01*
X9184Y14525D01*
X9179Y14547D01*
X9180Y14558D01*
X9182Y14568D01*
X9184Y14577D01*
X9186Y14584D01*
X9188Y14589D01*
X9190Y14593D01*
X9191Y14594D01*
X10041Y15445D01*
X10693D01*
X10801Y15466D01*
X10891Y15527D01*
X11589Y16224D01*
X11752Y16208D01*
X11791Y16151D01*
X11893Y16082D01*
X11925Y15934D01*
X9275Y13285D01*
X9214Y13194D01*
X9193Y13086D01*
Y11248D01*
X9214Y11141D01*
X9275Y11050D01*
X9477Y10848D01*
X9428Y10730D01*
X8372D01*
X8300Y10857D01*
X8329Y11000D01*
X8294Y11176D01*
X8194Y11324D01*
X8046Y11424D01*
X7870Y11459D01*
X7848Y11454D01*
X7837Y11455D01*
X7827Y11457D01*
X7818Y11459D01*
X7811Y11461D01*
X7806Y11463D01*
X7802Y11465D01*
X7801Y11466D01*
X7626Y11640D01*
Y14605D01*
X9424Y16402D01*
X9429Y16407D01*
X9454Y16420D01*
X9495Y16437D01*
X9552Y16455D01*
X9624Y16472D01*
X9707Y16486D01*
X10051Y16517D01*
X10133Y16520D01*
X10160Y16517D01*
X10434Y16553D01*
X10690Y16659D01*
X10910Y16827D01*
X11078Y17047D01*
X11184Y17302D01*
X11220Y17577D01*
X11213Y17628D01*
X11220Y17678D01*
Y18034D01*
X11595D01*
X11640Y17983D01*
D02*
G37*
G36*
X13662Y16254D02*
X13651Y16268D01*
X13639Y16280D01*
X13625Y16290D01*
X13610Y16300D01*
X13594Y16307D01*
X13576Y16314D01*
X13556Y16319D01*
X13536Y16322D01*
X13514Y16324D01*
X13490Y16325D01*
Y16475D01*
X13514Y16476D01*
X13536Y16478D01*
X13556Y16481D01*
X13576Y16486D01*
X13594Y16493D01*
X13610Y16501D01*
X13625Y16510D01*
X13639Y16520D01*
X13651Y16532D01*
X13662Y16546D01*
Y16254D01*
D02*
G37*
G36*
X15013Y15555D02*
X15104Y15494D01*
X15212Y15473D01*
X19886D01*
X21580Y13779D01*
Y13356D01*
X21335D01*
Y11925D01*
X21230Y11860D01*
X21208Y11860D01*
X21040Y11894D01*
X20972Y11880D01*
X20845Y11985D01*
Y12722D01*
X20824Y12829D01*
X20763Y12920D01*
X19585Y14098D01*
X19494Y14159D01*
X19387Y14180D01*
X18327D01*
X18219Y14159D01*
X18128Y14098D01*
X17469Y13439D01*
X17468Y13439D01*
X17464Y13436D01*
X17459Y13434D01*
X17452Y13432D01*
X17443Y13430D01*
X17432Y13429D01*
X17422Y13428D01*
X17400Y13432D01*
X17224Y13397D01*
X17075Y13298D01*
X16976Y13149D01*
X16941Y12973D01*
X16976Y12798D01*
X17075Y12649D01*
X17224Y12549D01*
X17263Y12542D01*
X17284Y12408D01*
X17232Y12373D01*
X16914Y12055D01*
X15493D01*
X15492Y12056D01*
X15488Y12057D01*
X15483Y12059D01*
X15476Y12063D01*
X15469Y12067D01*
X15460Y12074D01*
X15452Y12081D01*
X15439Y12099D01*
X15291Y12199D01*
X15115Y12234D01*
X14939Y12199D01*
X14791Y12099D01*
X14691Y11951D01*
X14656Y11775D01*
X14691Y11599D01*
X14791Y11451D01*
X14939Y11351D01*
X15115Y11316D01*
X15291Y11351D01*
X15439Y11451D01*
X15452Y11469D01*
X15460Y11476D01*
X15469Y11483D01*
X15476Y11487D01*
X15483Y11491D01*
X15488Y11493D01*
X15492Y11494D01*
X15493Y11495D01*
X17031D01*
X17138Y11516D01*
X17229Y11577D01*
X17547Y11895D01*
X19236D01*
X19237Y11894D01*
X19241Y11893D01*
X19246Y11891D01*
X19253Y11887D01*
X19260Y11883D01*
X19269Y11876D01*
X19277Y11869D01*
X19290Y11851D01*
X19378Y11791D01*
X19352Y11656D01*
X19314Y11649D01*
X19166Y11549D01*
X19066Y11401D01*
X19031Y11225D01*
X19066Y11049D01*
X19111Y10982D01*
X19043Y10855D01*
X18101D01*
X18029Y10982D01*
X18058Y11125D01*
X18023Y11301D01*
X17923Y11449D01*
X17775Y11549D01*
X17599Y11584D01*
X17423Y11549D01*
X17275Y11449D01*
X17175Y11301D01*
X17140Y11125D01*
X17169Y10982D01*
X17097Y10855D01*
X16965D01*
X16858Y10834D01*
X16767Y10773D01*
X16348Y10355D01*
X16316Y10370D01*
X16244Y10430D01*
X16274Y10581D01*
X16239Y10757D01*
X16139Y10905D01*
X15991Y11005D01*
X15815Y11040D01*
X15639Y11005D01*
X15491Y10905D01*
X15391Y10757D01*
X15356Y10581D01*
X15391Y10405D01*
X15406Y10382D01*
X15339Y10255D01*
X14281D01*
X13432Y11104D01*
X13474Y11242D01*
X13504Y11248D01*
X13595Y11309D01*
X16781Y14495D01*
X17280D01*
X17281Y14494D01*
X17286Y14493D01*
X17291Y14491D01*
X17297Y14487D01*
X17305Y14483D01*
X17314Y14476D01*
X17322Y14469D01*
X17334Y14451D01*
X17483Y14351D01*
X17659Y14316D01*
X17834Y14351D01*
X17983Y14451D01*
X18082Y14599D01*
X18117Y14775D01*
X18082Y14951D01*
X17983Y15099D01*
X17834Y15199D01*
X17659Y15234D01*
X17483Y15199D01*
X17334Y15099D01*
X17322Y15081D01*
X17314Y15074D01*
X17305Y15067D01*
X17297Y15063D01*
X17291Y15059D01*
X17286Y15057D01*
X17281Y15056D01*
X17280Y15055D01*
X16665D01*
X16558Y15034D01*
X16467Y14973D01*
X13756Y12263D01*
X13609Y12295D01*
X13539Y12399D01*
X13391Y12499D01*
X13215Y12534D01*
X13193Y12529D01*
X13182Y12530D01*
X13172Y12532D01*
X13163Y12534D01*
X13156Y12536D01*
X13151Y12538D01*
X13147Y12540D01*
X13146Y12541D01*
X12620Y13066D01*
Y15159D01*
X13046Y15584D01*
X13047Y15585D01*
X13051Y15587D01*
X13056Y15589D01*
X13063Y15591D01*
X13072Y15593D01*
X13082Y15595D01*
X13093Y15596D01*
X13115Y15591D01*
X13291Y15626D01*
X13439Y15726D01*
X13539Y15874D01*
X13548Y15918D01*
X13689Y15977D01*
X13689Y15976D01*
X13865Y15941D01*
X14041Y15976D01*
X14189Y16076D01*
X14239Y16150D01*
X14398Y16171D01*
X15013Y15555D01*
D02*
G37*
G36*
X13112Y15800D02*
X13085Y15799D01*
X13059Y15797D01*
X13034Y15794D01*
X13010Y15788D01*
X12988Y15781D01*
X12966Y15773D01*
X12946Y15762D01*
X12927Y15751D01*
X12910Y15737D01*
X12893Y15722D01*
X12787Y15828D01*
X12802Y15845D01*
X12816Y15862D01*
X12828Y15881D01*
X12838Y15901D01*
X12846Y15923D01*
X12853Y15945D01*
X12859Y15969D01*
X12862Y15994D01*
X12864Y16020D01*
X12865Y16048D01*
X13112Y15800D01*
D02*
G37*
G36*
X30428Y15622D02*
X30413Y15605D01*
X30399Y15588D01*
X30388Y15569D01*
X30377Y15549D01*
X30369Y15527D01*
X30362Y15505D01*
X30356Y15481D01*
X30353Y15456D01*
X30351Y15430D01*
X30350Y15403D01*
X30103Y15650D01*
X30130Y15651D01*
X30156Y15653D01*
X30181Y15656D01*
X30205Y15662D01*
X30227Y15669D01*
X30249Y15677D01*
X30269Y15687D01*
X30288Y15699D01*
X30305Y15713D01*
X30322Y15728D01*
X30428Y15622D01*
D02*
G37*
G36*
X48050Y15640D02*
X48067Y15626D01*
X48086Y15615D01*
X48106Y15604D01*
X48127Y15596D01*
X48150Y15589D01*
X48174Y15583D01*
X48199Y15580D01*
X48225Y15578D01*
X48252Y15577D01*
X48005Y15330D01*
X48004Y15357D01*
X48002Y15383D01*
X47998Y15408D01*
X47993Y15432D01*
X47986Y15454D01*
X47977Y15476D01*
X47967Y15496D01*
X47955Y15515D01*
X47942Y15532D01*
X47927Y15549D01*
X48033Y15655D01*
X48050Y15640D01*
D02*
G37*
G36*
X54101Y15202D02*
X54080Y15220D01*
X54060Y15237D01*
X54039Y15252D01*
X54019Y15265D01*
X53998Y15276D01*
X53976Y15285D01*
X53955Y15291D01*
X53933Y15296D01*
X53911Y15299D01*
X53889Y15300D01*
X53886Y15450D01*
X53909Y15451D01*
X53931Y15454D01*
X53952Y15459D01*
X53973Y15467D01*
X53994Y15476D01*
X54015Y15487D01*
X54035Y15500D01*
X54055Y15515D01*
X54075Y15532D01*
X54094Y15552D01*
X54101Y15202D01*
D02*
G37*
G36*
X50824Y15531D02*
X50844Y15514D01*
X50864Y15499D01*
X50885Y15486D01*
X50905Y15475D01*
X50926Y15466D01*
X50948Y15459D01*
X50970Y15454D01*
X50992Y15451D01*
X51014Y15450D01*
Y15300D01*
X50992Y15299D01*
X50970Y15296D01*
X50948Y15291D01*
X50926Y15284D01*
X50905Y15275D01*
X50885Y15264D01*
X50864Y15251D01*
X50844Y15236D01*
X50824Y15219D01*
X50804Y15200D01*
Y15550D01*
X50824Y15531D01*
D02*
G37*
G36*
X31409Y15349D02*
X31394Y15332D01*
X31381Y15315D01*
X31369Y15296D01*
X31359Y15276D01*
X31350Y15254D01*
X31343Y15232D01*
X31338Y15208D01*
X31334Y15183D01*
X31332Y15157D01*
X31332Y15130D01*
X31084Y15377D01*
X31112Y15378D01*
X31138Y15380D01*
X31163Y15384D01*
X31186Y15389D01*
X31209Y15396D01*
X31230Y15404D01*
X31250Y15415D01*
X31269Y15426D01*
X31287Y15440D01*
X31303Y15455D01*
X31409Y15349D01*
D02*
G37*
G36*
X61720Y15313D02*
X61737Y15299D01*
X61756Y15288D01*
X61776Y15277D01*
X61798Y15269D01*
X61820Y15262D01*
X61844Y15256D01*
X61869Y15253D01*
X61895Y15251D01*
X61923Y15250D01*
X61675Y15002D01*
X61674Y15030D01*
X61672Y15056D01*
X61669Y15081D01*
X61663Y15105D01*
X61656Y15127D01*
X61648Y15149D01*
X61638Y15169D01*
X61626Y15188D01*
X61612Y15205D01*
X61597Y15222D01*
X61703Y15328D01*
X61720Y15313D01*
D02*
G37*
G36*
X59742Y15066D02*
X59759Y15052D01*
X59778Y15041D01*
X59798Y15030D01*
X59819Y15022D01*
X59842Y15015D01*
X59866Y15009D01*
X59891Y15006D01*
X59917Y15004D01*
X59944Y15003D01*
X59697Y14756D01*
X59696Y14783D01*
X59694Y14809D01*
X59690Y14834D01*
X59685Y14858D01*
X59678Y14880D01*
X59669Y14902D01*
X59659Y14922D01*
X59647Y14941D01*
X59634Y14958D01*
X59619Y14975D01*
X59725Y15081D01*
X59742Y15066D01*
D02*
G37*
G36*
X17480Y14600D02*
X17460Y14619D01*
X17440Y14636D01*
X17420Y14651D01*
X17399Y14664D01*
X17379Y14675D01*
X17357Y14684D01*
X17336Y14691D01*
X17314Y14696D01*
X17292Y14699D01*
X17270Y14700D01*
Y14850D01*
X17292Y14851D01*
X17314Y14854D01*
X17336Y14859D01*
X17357Y14866D01*
X17379Y14875D01*
X17399Y14886D01*
X17420Y14899D01*
X17440Y14914D01*
X17460Y14931D01*
X17480Y14950D01*
Y14600D01*
D02*
G37*
G36*
X9053Y14747D02*
X9038Y14730D01*
X9024Y14713D01*
X9012Y14694D01*
X9002Y14674D01*
X8994Y14652D01*
X8987Y14630D01*
X8981Y14606D01*
X8978Y14581D01*
X8976Y14555D01*
X8975Y14528D01*
X8727Y14775D01*
X8755Y14776D01*
X8781Y14778D01*
X8806Y14781D01*
X8830Y14787D01*
X8852Y14794D01*
X8874Y14802D01*
X8894Y14812D01*
X8913Y14824D01*
X8930Y14838D01*
X8947Y14853D01*
X9053Y14747D01*
D02*
G37*
G36*
X54097Y14522D02*
X54078Y14541D01*
X54058Y14558D01*
X54037Y14573D01*
X54017Y14586D01*
X53996Y14597D01*
X53975Y14606D01*
X53953Y14613D01*
X53932Y14618D01*
X53910Y14621D01*
X53888Y14622D01*
Y14772D01*
X53910Y14773D01*
X53932Y14776D01*
X53953Y14781D01*
X53975Y14788D01*
X53996Y14797D01*
X54017Y14808D01*
X54037Y14821D01*
X54058Y14836D01*
X54078Y14853D01*
X54097Y14872D01*
Y14522D01*
D02*
G37*
G36*
X33218Y14853D02*
X33238Y14836D01*
X33259Y14821D01*
X33279Y14808D01*
X33300Y14797D01*
X33321Y14788D01*
X33343Y14781D01*
X33364Y14776D01*
X33386Y14773D01*
X33408Y14772D01*
Y14622D01*
X33386Y14621D01*
X33364Y14618D01*
X33343Y14613D01*
X33321Y14606D01*
X33300Y14597D01*
X33279Y14586D01*
X33259Y14573D01*
X33238Y14558D01*
X33218Y14541D01*
X33199Y14522D01*
Y14872D01*
X33218Y14853D01*
D02*
G37*
G36*
X61217Y14813D02*
X61235Y14799D01*
X61253Y14788D01*
X61274Y14777D01*
X61295Y14769D01*
X61317Y14762D01*
X61341Y14756D01*
X61366Y14753D01*
X61392Y14751D01*
X61420Y14750D01*
X61172Y14503D01*
X61172Y14530D01*
X61169Y14556D01*
X61166Y14581D01*
X61160Y14605D01*
X61153Y14627D01*
X61145Y14649D01*
X61135Y14669D01*
X61123Y14688D01*
X61109Y14705D01*
X61094Y14722D01*
X61200Y14828D01*
X61217Y14813D01*
D02*
G37*
G36*
X63222Y13700D02*
X63203Y13719D01*
X63183Y13736D01*
X63162Y13751D01*
X63142Y13764D01*
X63121Y13775D01*
X63100Y13784D01*
X63078Y13791D01*
X63057Y13796D01*
X63035Y13799D01*
X63013Y13800D01*
X63013Y13950D01*
X63035Y13951D01*
X63057Y13954D01*
X63078Y13959D01*
X63100Y13966D01*
X63121Y13975D01*
X63142Y13986D01*
X63162Y13999D01*
X63183Y14014D01*
X63203Y14031D01*
X63222Y14050D01*
X63222Y13700D01*
D02*
G37*
G36*
X50824Y14031D02*
X50844Y14014D01*
X50864Y13999D01*
X50885Y13986D01*
X50905Y13975D01*
X50926Y13966D01*
X50948Y13959D01*
X50970Y13954D01*
X50992Y13951D01*
X51014Y13950D01*
Y13800D01*
X50992Y13799D01*
X50970Y13796D01*
X50948Y13791D01*
X50926Y13784D01*
X50905Y13775D01*
X50885Y13764D01*
X50864Y13751D01*
X50844Y13736D01*
X50824Y13719D01*
X50804Y13700D01*
Y14050D01*
X50824Y14031D01*
D02*
G37*
G36*
X50447Y13700D02*
X50427Y13719D01*
X50407Y13736D01*
X50387Y13751D01*
X50366Y13764D01*
X50345Y13775D01*
X50324Y13784D01*
X50303Y13791D01*
X50281Y13796D01*
X50259Y13799D01*
X50237Y13800D01*
Y13950D01*
X50259Y13951D01*
X50281Y13954D01*
X50303Y13959D01*
X50324Y13966D01*
X50345Y13975D01*
X50366Y13986D01*
X50387Y13999D01*
X50407Y14014D01*
X50427Y14031D01*
X50447Y14050D01*
Y13700D01*
D02*
G37*
G36*
X70060Y17678D02*
X70067Y17628D01*
X70060Y17577D01*
X70065Y17541D01*
X70061Y17309D01*
X70044Y17098D01*
X70031Y17016D01*
X70016Y16945D01*
X70000Y16889D01*
X69983Y16849D01*
X69970Y16824D01*
X69964Y16817D01*
X66168Y13021D01*
X64565D01*
X64538Y13062D01*
X64516Y13148D01*
X68024Y16656D01*
X68847Y16958D01*
X68854Y16959D01*
X68893Y16975D01*
X68907Y16981D01*
X68911Y16983D01*
X69110Y17065D01*
X69330Y17234D01*
X69498Y17453D01*
X69604Y17709D01*
X69640Y17983D01*
X69685Y18034D01*
X70060D01*
Y17678D01*
D02*
G37*
G36*
X19466Y13287D02*
X19468Y13261D01*
X19471Y13236D01*
X19477Y13213D01*
X19484Y13190D01*
X19492Y13169D01*
X19503Y13149D01*
X19514Y13130D01*
X19528Y13112D01*
X19543Y13096D01*
X19437Y12990D01*
X19420Y13005D01*
X19403Y13018D01*
X19384Y13030D01*
X19364Y13040D01*
X19342Y13049D01*
X19320Y13056D01*
X19296Y13061D01*
X19271Y13065D01*
X19245Y13067D01*
X19218Y13067D01*
X19465Y13315D01*
X19466Y13287D01*
D02*
G37*
G36*
X17728Y13195D02*
X17713Y13179D01*
X17699Y13161D01*
X17687Y13142D01*
X17677Y13122D01*
X17669Y13101D01*
X17662Y13078D01*
X17656Y13054D01*
X17652Y13029D01*
X17650Y13003D01*
X17650Y12976D01*
X17402Y13223D01*
X17430Y13224D01*
X17456Y13226D01*
X17481Y13230D01*
X17505Y13235D01*
X17527Y13242D01*
X17548Y13251D01*
X17569Y13261D01*
X17587Y13273D01*
X17605Y13286D01*
X17621Y13301D01*
X17728Y13195D01*
D02*
G37*
G36*
X43818Y13555D02*
X43905Y13478D01*
X43947Y13447D01*
X43987Y13420D01*
X44026Y13399D01*
X44062Y13382D01*
X44098Y13370D01*
X44132Y13363D01*
X44164Y13360D01*
Y13210D01*
X44132Y13208D01*
X44098Y13201D01*
X44062Y13189D01*
X44026Y13172D01*
X43987Y13150D01*
X43947Y13124D01*
X43905Y13093D01*
X43818Y13016D01*
X43771Y12970D01*
Y13600D01*
X43818Y13555D01*
D02*
G37*
G36*
X21936Y13068D02*
X21938Y13042D01*
X21942Y13019D01*
X21947Y12999D01*
X21954Y12982D01*
X21962Y12968D01*
X21972Y12958D01*
X21983Y12950D01*
X21996Y12945D01*
X22010Y12944D01*
X21710D01*
X21724Y12945D01*
X21737Y12950D01*
X21748Y12958D01*
X21758Y12968D01*
X21766Y12982D01*
X21773Y12999D01*
X21778Y13019D01*
X21782Y13042D01*
X21784Y13068D01*
X21785Y13097D01*
X21935D01*
X21936Y13068D01*
D02*
G37*
G36*
X45375Y13743D02*
X45446Y13717D01*
X45567Y13623D01*
X45654Y13497D01*
X45696Y13365D01*
X45719Y13363D01*
X45788Y13360D01*
X45817Y13360D01*
X45832Y13210D01*
X45805Y13210D01*
X45736Y13205D01*
X45718Y13203D01*
X45701Y13199D01*
X45700Y13199D01*
Y13199D01*
X45654Y13053D01*
X45567Y12927D01*
X45446Y12833D01*
X45375Y12807D01*
X45375Y13025D01*
X45125Y13275D01*
X45125D01*
X45375Y13525D01*
Y13743D01*
X45375Y13743D01*
X45375D01*
Y13743D01*
D02*
G37*
G36*
X45200Y13600D02*
X44950Y13350D01*
Y13200D01*
X45200Y12950D01*
Y12775D01*
X45101D01*
X44917Y12851D01*
X44776Y12992D01*
X44700Y13176D01*
Y13199D01*
X44699Y13199D01*
X44682Y13203D01*
X44664Y13205D01*
X44620Y13209D01*
X44568Y13210D01*
X44583Y13360D01*
X44612Y13360D01*
X44700Y13366D01*
Y13374D01*
X44776Y13558D01*
X44917Y13699D01*
X45101Y13775D01*
X45200D01*
Y13600D01*
D02*
G37*
G36*
X50315Y12963D02*
X50300Y12946D01*
X50286Y12929D01*
X50274Y12910D01*
X50264Y12890D01*
X50256Y12868D01*
X50249Y12846D01*
X50243Y12822D01*
X50239Y12797D01*
X50237Y12771D01*
X50237Y12743D01*
X49989Y12991D01*
X50017Y12991D01*
X50043Y12994D01*
X50068Y12997D01*
X50092Y13003D01*
X50114Y13010D01*
X50135Y13018D01*
X50156Y13028D01*
X50174Y13040D01*
X50192Y13054D01*
X50208Y13069D01*
X50315Y12963D01*
D02*
G37*
G36*
X50892Y12897D02*
X50912Y12880D01*
X50933Y12865D01*
X50953Y12852D01*
X50974Y12841D01*
X50995Y12832D01*
X51017Y12825D01*
X51038Y12820D01*
X51060Y12817D01*
X51082Y12816D01*
X51082Y12666D01*
X51060Y12665D01*
X51038Y12662D01*
X51017Y12657D01*
X50995Y12650D01*
X50974Y12641D01*
X50953Y12630D01*
X50933Y12617D01*
X50912Y12602D01*
X50892Y12585D01*
X50873Y12566D01*
X50873Y12916D01*
X50892Y12897D01*
D02*
G37*
G36*
X12060Y15097D02*
Y12950D01*
X12073Y12882D01*
X12012Y12779D01*
X11987Y12755D01*
X10825D01*
X10718Y12734D01*
X10627Y12673D01*
X10494Y12541D01*
X10493Y12540D01*
X10489Y12538D01*
X10484Y12536D01*
X10477Y12534D01*
X10468Y12532D01*
X10458Y12530D01*
X10447Y12529D01*
X10425Y12534D01*
X10249Y12499D01*
X10101Y12399D01*
X10001Y12251D01*
X9966Y12075D01*
X10001Y11899D01*
X10101Y11751D01*
X10249Y11651D01*
X10425Y11616D01*
X10601Y11651D01*
X10749Y11751D01*
X10849Y11899D01*
X10884Y12075D01*
X10880Y12093D01*
X10955Y12195D01*
X11628D01*
X11666Y12114D01*
X11672Y12068D01*
X11445Y11841D01*
X11444Y11840D01*
X11440Y11838D01*
X11435Y11836D01*
X11428Y11834D01*
X11419Y11832D01*
X11409Y11830D01*
X11398Y11829D01*
X11376Y11834D01*
X11200Y11799D01*
X11052Y11699D01*
X10952Y11551D01*
X10917Y11375D01*
X10952Y11199D01*
X11052Y11051D01*
X11200Y10951D01*
X11376Y10916D01*
X11552Y10951D01*
X11645Y11013D01*
X11744Y10972D01*
X11758Y10963D01*
X11769Y10952D01*
X11770Y10948D01*
X11771Y10947D01*
Y10796D01*
X11792Y10689D01*
X11853Y10598D01*
X15705Y6746D01*
X15796Y6685D01*
X15903Y6664D01*
X16713D01*
X16820Y6685D01*
X16911Y6746D01*
X17074Y6910D01*
X17222Y6878D01*
X17291Y6776D01*
X17439Y6676D01*
X17615Y6641D01*
X17791Y6676D01*
X17939Y6776D01*
X18039Y6924D01*
X18074Y7100D01*
X18039Y7276D01*
X17939Y7424D01*
X17837Y7493D01*
X17825Y7513D01*
X17808Y7620D01*
X17814Y7649D01*
X19059Y8895D01*
X19186D01*
X19187Y8894D01*
X19191Y8893D01*
X19196Y8891D01*
X19203Y8887D01*
X19210Y8883D01*
X19219Y8876D01*
X19227Y8869D01*
X19240Y8851D01*
X19388Y8751D01*
X19451Y8739D01*
X19435Y8654D01*
Y8578D01*
X19434Y8577D01*
X19433Y8573D01*
X19431Y8568D01*
X19427Y8561D01*
X19423Y8554D01*
X19416Y8545D01*
X19409Y8537D01*
X19391Y8524D01*
X19291Y8376D01*
X19256Y8200D01*
X19291Y8024D01*
X19391Y7876D01*
X19400Y7781D01*
X17840Y6222D01*
X16160D01*
X15908Y6473D01*
X15818Y6534D01*
X15710Y6555D01*
X14562D01*
X9753Y11364D01*
Y12970D01*
X11933Y15149D01*
X12060Y15097D01*
D02*
G37*
G36*
X75140Y17678D02*
X75147Y17628D01*
X75140Y17577D01*
X75145Y17541D01*
X75141Y17309D01*
X75124Y17098D01*
X75111Y17016D01*
X75096Y16945D01*
X75080Y16889D01*
X75063Y16849D01*
X75050Y16824D01*
X75044Y16817D01*
X70407Y12180D01*
X68712D01*
X68663Y12298D01*
X73073Y16707D01*
X73081Y16712D01*
X73755Y16921D01*
X73890Y16953D01*
X73934Y16959D01*
X74190Y17065D01*
X74410Y17234D01*
X74578Y17453D01*
X74684Y17709D01*
X74720Y17983D01*
X74765Y18034D01*
X75140D01*
Y17678D01*
D02*
G37*
G36*
X13010Y12388D02*
X13027Y12374D01*
X13046Y12363D01*
X13066Y12352D01*
X13088Y12344D01*
X13110Y12337D01*
X13134Y12331D01*
X13159Y12328D01*
X13185Y12326D01*
X13213Y12325D01*
X12965Y12078D01*
X12964Y12105D01*
X12962Y12131D01*
X12959Y12156D01*
X12953Y12180D01*
X12946Y12202D01*
X12938Y12224D01*
X12928Y12244D01*
X12916Y12263D01*
X12902Y12280D01*
X12887Y12297D01*
X12993Y12403D01*
X13010Y12388D01*
D02*
G37*
G36*
X10753Y12297D02*
X10738Y12280D01*
X10724Y12263D01*
X10712Y12244D01*
X10702Y12224D01*
X10694Y12202D01*
X10687Y12180D01*
X10681Y12156D01*
X10678Y12131D01*
X10676Y12105D01*
X10675Y12078D01*
X10427Y12325D01*
X10455Y12326D01*
X10481Y12328D01*
X10506Y12331D01*
X10530Y12337D01*
X10552Y12344D01*
X10574Y12352D01*
X10594Y12362D01*
X10613Y12374D01*
X10630Y12388D01*
X10647Y12403D01*
X10753Y12297D01*
D02*
G37*
G36*
X19435Y12000D02*
X19416Y12019D01*
X19396Y12036D01*
X19375Y12051D01*
X19355Y12064D01*
X19334Y12075D01*
X19313Y12084D01*
X19291Y12091D01*
X19270Y12096D01*
X19248Y12099D01*
X19226Y12100D01*
Y12250D01*
X19248Y12251D01*
X19270Y12254D01*
X19291Y12259D01*
X19313Y12266D01*
X19334Y12275D01*
X19355Y12286D01*
X19375Y12299D01*
X19396Y12314D01*
X19416Y12331D01*
X19435Y12350D01*
Y12000D01*
D02*
G37*
G36*
X49145Y12163D02*
X49163Y12149D01*
X49181Y12138D01*
X49202Y12127D01*
X49223Y12119D01*
X49245Y12112D01*
X49269Y12106D01*
X49294Y12103D01*
X49320Y12101D01*
X49348Y12100D01*
X49100Y11853D01*
X49100Y11880D01*
X49097Y11906D01*
X49094Y11931D01*
X49088Y11955D01*
X49081Y11977D01*
X49073Y11999D01*
X49063Y12019D01*
X49051Y12038D01*
X49037Y12055D01*
X49022Y12072D01*
X49128Y12178D01*
X49145Y12163D01*
D02*
G37*
G36*
X48395Y12163D02*
X48412Y12149D01*
X48431Y12137D01*
X48451Y12127D01*
X48473Y12119D01*
X48495Y12112D01*
X48519Y12106D01*
X48544Y12103D01*
X48570Y12101D01*
X48597Y12100D01*
X48350Y11852D01*
X48349Y11880D01*
X48347Y11906D01*
X48344Y11931D01*
X48338Y11955D01*
X48331Y11977D01*
X48323Y11999D01*
X48312Y12019D01*
X48301Y12038D01*
X48287Y12055D01*
X48272Y12072D01*
X48378Y12178D01*
X48395Y12163D01*
D02*
G37*
G36*
X15313Y11931D02*
X15333Y11914D01*
X15354Y11899D01*
X15374Y11886D01*
X15395Y11875D01*
X15416Y11866D01*
X15438Y11859D01*
X15459Y11854D01*
X15481Y11851D01*
X15503Y11850D01*
Y11700D01*
X15481Y11699D01*
X15459Y11696D01*
X15438Y11691D01*
X15416Y11684D01*
X15395Y11675D01*
X15374Y11664D01*
X15354Y11651D01*
X15333Y11636D01*
X15313Y11619D01*
X15294Y11600D01*
Y11950D01*
X15313Y11931D01*
D02*
G37*
G36*
X43818Y12055D02*
X43905Y11978D01*
X43947Y11947D01*
X43987Y11920D01*
X44026Y11899D01*
X44062Y11882D01*
X44098Y11870D01*
X44132Y11863D01*
X44164Y11860D01*
Y11710D01*
X44132Y11708D01*
X44098Y11701D01*
X44062Y11689D01*
X44026Y11672D01*
X43987Y11650D01*
X43947Y11624D01*
X43905Y11593D01*
X43818Y11516D01*
X43771Y11470D01*
X43771Y12100D01*
X43818Y12055D01*
D02*
G37*
G36*
X11704Y11597D02*
X11689Y11580D01*
X11675Y11563D01*
X11663Y11544D01*
X11653Y11524D01*
X11645Y11502D01*
X11638Y11480D01*
X11632Y11456D01*
X11629Y11431D01*
X11627Y11405D01*
X11626Y11377D01*
X11378Y11625D01*
X11406Y11626D01*
X11432Y11628D01*
X11457Y11631D01*
X11481Y11637D01*
X11503Y11644D01*
X11525Y11652D01*
X11545Y11663D01*
X11564Y11674D01*
X11581Y11688D01*
X11598Y11703D01*
X11704Y11597D01*
D02*
G37*
G36*
X45375Y12243D02*
X45446Y12217D01*
X45567Y12123D01*
X45654Y11997D01*
X45696Y11865D01*
X45719Y11863D01*
X45788Y11860D01*
X45817Y11860D01*
X45832Y11710D01*
X45805Y11710D01*
X45736Y11705D01*
X45718Y11703D01*
X45701Y11699D01*
X45700Y11699D01*
Y11699D01*
X45654Y11553D01*
X45567Y11427D01*
X45446Y11333D01*
X45375Y11307D01*
X45375Y11525D01*
X45125Y11775D01*
X45125D01*
X45375Y12025D01*
Y12243D01*
X45375Y12243D01*
X45375D01*
Y12243D01*
D02*
G37*
G36*
X21238Y11591D02*
X21258Y11574D01*
X21279Y11559D01*
X21299Y11546D01*
X21320Y11535D01*
X21341Y11526D01*
X21363Y11519D01*
X21384Y11514D01*
X21406Y11511D01*
X21414Y11511D01*
X21417Y11511D01*
X21442Y11513D01*
X21465Y11517D01*
X21484Y11522D01*
X21501Y11529D01*
X21514Y11537D01*
X21525Y11547D01*
X21532Y11558D01*
X21537Y11571D01*
X21538Y11585D01*
Y11285D01*
X21537Y11299D01*
X21532Y11312D01*
X21525Y11323D01*
X21514Y11333D01*
X21501Y11341D01*
X21484Y11348D01*
X21465Y11353D01*
X21442Y11357D01*
X21417Y11359D01*
X21414Y11359D01*
X21406Y11359D01*
X21384Y11356D01*
X21363Y11351D01*
X21341Y11344D01*
X21320Y11335D01*
X21299Y11324D01*
X21279Y11311D01*
X21258Y11296D01*
X21238Y11279D01*
X21219Y11260D01*
Y11610D01*
X21238Y11591D01*
D02*
G37*
G36*
X45200Y12100D02*
X44950Y11850D01*
Y11700D01*
X45200Y11450D01*
Y11275D01*
X45101D01*
X44917Y11351D01*
X44776Y11492D01*
X44700Y11676D01*
Y11699D01*
X44699Y11699D01*
X44682Y11703D01*
X44664Y11705D01*
X44620Y11709D01*
X44568Y11710D01*
X44583Y11860D01*
X44612Y11860D01*
X44700Y11866D01*
Y11874D01*
X44776Y12058D01*
X44917Y12199D01*
X45101Y12275D01*
X45200D01*
Y12100D01*
D02*
G37*
G36*
X50848Y11527D02*
X50868Y11510D01*
X50889Y11495D01*
X50909Y11482D01*
X50930Y11471D01*
X50951Y11462D01*
X50973Y11455D01*
X50994Y11450D01*
X51016Y11447D01*
X51038Y11446D01*
Y11296D01*
X51016Y11295D01*
X50994Y11292D01*
X50973Y11287D01*
X50951Y11280D01*
X50930Y11271D01*
X50909Y11260D01*
X50889Y11247D01*
X50868Y11232D01*
X50848Y11215D01*
X50829Y11196D01*
Y11546D01*
X50848Y11527D01*
D02*
G37*
G36*
X7665Y11313D02*
X7682Y11299D01*
X7701Y11288D01*
X7721Y11277D01*
X7743Y11269D01*
X7765Y11262D01*
X7789Y11256D01*
X7814Y11253D01*
X7840Y11251D01*
X7867Y11250D01*
X7620Y11002D01*
X7619Y11030D01*
X7617Y11056D01*
X7614Y11081D01*
X7608Y11105D01*
X7601Y11127D01*
X7593Y11149D01*
X7583Y11169D01*
X7571Y11188D01*
X7557Y11205D01*
X7542Y11222D01*
X7648Y11328D01*
X7665Y11313D01*
D02*
G37*
G36*
X12207Y11127D02*
X12190Y11107D01*
X12175Y11086D01*
X12162Y11066D01*
X12151Y11045D01*
X12142Y11024D01*
X12135Y11002D01*
X12130Y10981D01*
X12127Y10959D01*
X12126Y10937D01*
X11976D01*
X11975Y10959D01*
X11972Y10981D01*
X11967Y11002D01*
X11960Y11024D01*
X11951Y11045D01*
X11940Y11066D01*
X11927Y11086D01*
X11912Y11107D01*
X11895Y11127D01*
X11876Y11146D01*
X12226D01*
X12207Y11127D01*
D02*
G37*
G36*
X2540Y20065D02*
X6560D01*
Y18085D01*
X6567Y18034D01*
X6560Y17983D01*
X6596Y17709D01*
X6702Y17453D01*
X6870Y17234D01*
X7090Y17065D01*
X7346Y16959D01*
X7620Y16923D01*
X7894Y16959D01*
X8150Y17065D01*
X8370Y17234D01*
X8538Y17453D01*
X8644Y17709D01*
X8680Y17983D01*
X8725Y18034D01*
X9100D01*
Y17678D01*
X9107Y17628D01*
X9100Y17577D01*
X9106Y17530D01*
X9110Y17398D01*
X9111Y17280D01*
X9099Y17071D01*
X9089Y16991D01*
X9075Y16922D01*
X9060Y16867D01*
X9044Y16827D01*
X9030Y16803D01*
X9024Y16795D01*
X7148Y14919D01*
X7087Y14828D01*
X7066Y14721D01*
Y11524D01*
X7087Y11417D01*
X7148Y11326D01*
X7404Y11069D01*
X7405Y11068D01*
X7407Y11064D01*
X7409Y11059D01*
X7411Y11052D01*
X7413Y11043D01*
X7415Y11033D01*
X7416Y11022D01*
X7411Y11000D01*
X7440Y10857D01*
X7368Y10730D01*
X6395D01*
X6342Y10795D01*
X6295Y11029D01*
X6163Y11228D01*
X5964Y11360D01*
X5730Y11407D01*
X5496Y11360D01*
X5297Y11228D01*
X5165Y11029D01*
X5160Y11004D01*
X5030D01*
X5025Y11029D01*
X4893Y11228D01*
X4694Y11360D01*
X4460Y11407D01*
X4226Y11360D01*
X4027Y11228D01*
X3895Y11029D01*
X3890Y11004D01*
X3760D01*
X3755Y11029D01*
X3623Y11228D01*
X3424Y11360D01*
X3190Y11407D01*
X2956Y11360D01*
X2757Y11228D01*
X2625Y11029D01*
X2578Y10795D01*
X2625Y10561D01*
X2757Y10362D01*
X2956Y10230D01*
X2981Y10225D01*
Y10095D01*
X2956Y10090D01*
X2757Y9958D01*
X2625Y9759D01*
X2604Y9652D01*
X3190D01*
Y9525D01*
X3317D01*
Y8939D01*
X3424Y8960D01*
X3623Y9092D01*
X3755Y9291D01*
X3760Y9316D01*
X3890D01*
X3895Y9291D01*
X4027Y9092D01*
X4226Y8960D01*
X4460Y8913D01*
X4640Y8949D01*
X4831Y8758D01*
X4813Y8652D01*
X4794Y8615D01*
X4603Y8487D01*
X4486Y8540D01*
X4385Y8607D01*
X4200Y8644D01*
X4015Y8607D01*
X3858Y8502D01*
X3753Y8345D01*
X3716Y8160D01*
X3753Y7975D01*
X3858Y7818D01*
X4015Y7713D01*
X4200Y7676D01*
X4385Y7713D01*
X4446Y7687D01*
X4466Y7588D01*
X4603Y7383D01*
X4808Y7246D01*
X5050Y7198D01*
X5292Y7246D01*
X5497Y7383D01*
X5536Y7441D01*
X5670Y7414D01*
X5679Y7367D01*
X4927Y6615D01*
X4866Y6524D01*
X4845Y6417D01*
Y4978D01*
X4844Y4977D01*
X4843Y4973D01*
X4841Y4968D01*
X4837Y4961D01*
X4833Y4954D01*
X4826Y4945D01*
X4819Y4937D01*
X4801Y4924D01*
X4701Y4776D01*
X4666Y4600D01*
X4701Y4424D01*
X4801Y4276D01*
X4949Y4176D01*
X5125Y4141D01*
X5301Y4176D01*
X5449Y4276D01*
X5549Y4424D01*
X5584Y4600D01*
X5549Y4776D01*
X5449Y4924D01*
X5431Y4937D01*
X5424Y4945D01*
X5417Y4954D01*
X5413Y4961D01*
X5409Y4968D01*
X5407Y4973D01*
X5406Y4977D01*
X5405Y4978D01*
Y6301D01*
X6198Y7094D01*
X6259Y7185D01*
X6280Y7292D01*
Y8350D01*
X6259Y8457D01*
X6198Y8548D01*
X5911Y8835D01*
X5948Y8957D01*
X5964Y8960D01*
X6163Y9092D01*
X6264Y9245D01*
X8523D01*
X8820Y8948D01*
Y8147D01*
X8708Y8088D01*
X8691Y8099D01*
X8515Y8134D01*
X8339Y8099D01*
X8191Y7999D01*
X8091Y7851D01*
X8056Y7675D01*
X8091Y7499D01*
X8191Y7351D01*
X8209Y7338D01*
X8216Y7330D01*
X8223Y7321D01*
X8227Y7314D01*
X8231Y7307D01*
X8233Y7302D01*
X8234Y7298D01*
X8235Y7297D01*
Y6050D01*
X8256Y5943D01*
X8317Y5852D01*
X9880Y4289D01*
Y4097D01*
X9879Y4089D01*
X9871Y4062D01*
X9854Y4022D01*
X9826Y3970D01*
X9787Y3910D01*
X9739Y3844D01*
X9514Y3590D01*
X9442Y3517D01*
X9410Y3493D01*
X9242Y3273D01*
X9136Y3018D01*
X9100Y2743D01*
X9107Y2692D01*
X9100Y2642D01*
Y2286D01*
X8725D01*
X8680Y2337D01*
X8644Y2611D01*
X8538Y2867D01*
X8370Y3086D01*
X8150Y3255D01*
X7894Y3361D01*
X7620Y3397D01*
X7346Y3361D01*
X7090Y3255D01*
X6870Y3086D01*
X6702Y2867D01*
X6596Y2611D01*
X6560Y2337D01*
X6567Y2286D01*
X6560Y2235D01*
Y255D01*
X2315D01*
X1873Y343D01*
X1458Y515D01*
X1083Y765D01*
X765Y1083D01*
X515Y1458D01*
X343Y1873D01*
X255Y2315D01*
Y2540D01*
Y17780D01*
Y18005D01*
X343Y18447D01*
X515Y18862D01*
X765Y19237D01*
X1083Y19555D01*
X1458Y19805D01*
X1873Y19977D01*
X2315Y20065D01*
X2540Y20065D01*
D02*
G37*
G36*
X51972Y10625D02*
X51945Y10624D01*
X51919Y10622D01*
X51894Y10619D01*
X51870Y10613D01*
X51848Y10606D01*
X51826Y10598D01*
X51806Y10587D01*
X51787Y10576D01*
X51770Y10562D01*
X51753Y10547D01*
X51647Y10653D01*
X51662Y10670D01*
X51676Y10687D01*
X51688Y10706D01*
X51698Y10726D01*
X51706Y10748D01*
X51713Y10770D01*
X51719Y10794D01*
X51722Y10819D01*
X51724Y10845D01*
X51725Y10873D01*
X51972Y10625D01*
D02*
G37*
G36*
X51222D02*
X51195Y10624D01*
X51169Y10622D01*
X51144Y10619D01*
X51120Y10613D01*
X51098Y10606D01*
X51076Y10598D01*
X51056Y10587D01*
X51037Y10576D01*
X51020Y10562D01*
X51003Y10547D01*
X50897Y10653D01*
X50912Y10670D01*
X50926Y10687D01*
X50938Y10706D01*
X50948Y10726D01*
X50956Y10748D01*
X50963Y10770D01*
X50969Y10794D01*
X50972Y10819D01*
X50974Y10845D01*
X50975Y10873D01*
X51222Y10625D01*
D02*
G37*
G36*
X19360Y10400D02*
X19341Y10419D01*
X19321Y10436D01*
X19300Y10451D01*
X19280Y10464D01*
X19259Y10475D01*
X19238Y10484D01*
X19216Y10491D01*
X19195Y10496D01*
X19173Y10499D01*
X19151Y10500D01*
Y10650D01*
X19173Y10651D01*
X19195Y10654D01*
X19216Y10659D01*
X19238Y10666D01*
X19259Y10675D01*
X19280Y10686D01*
X19300Y10699D01*
X19321Y10714D01*
X19341Y10731D01*
X19360Y10750D01*
Y10400D01*
D02*
G37*
G36*
X6067Y10578D02*
X6068Y10575D01*
X6071Y10569D01*
X6074Y10563D01*
X6080Y10556D01*
X6094Y10538D01*
X6115Y10516D01*
X6128Y10503D01*
X6022Y10397D01*
X6009Y10410D01*
X5962Y10451D01*
X5956Y10455D01*
X5950Y10457D01*
X5947Y10458D01*
X5944Y10457D01*
X6068Y10581D01*
X6067Y10578D01*
D02*
G37*
G36*
X22091Y10557D02*
X22074Y10537D01*
X22059Y10516D01*
X22046Y10496D01*
X22035Y10475D01*
X22026Y10454D01*
X22025Y10451D01*
X22029Y10442D01*
X22037Y10428D01*
X22047Y10418D01*
X22058Y10410D01*
X22071Y10405D01*
X22085Y10404D01*
X22013D01*
X22011Y10389D01*
X22010Y10366D01*
X21860D01*
X21859Y10389D01*
X21857Y10404D01*
X21785D01*
X21799Y10405D01*
X21812Y10410D01*
X21823Y10418D01*
X21833Y10428D01*
X21841Y10442D01*
X21845Y10451D01*
X21844Y10454D01*
X21835Y10475D01*
X21824Y10496D01*
X21811Y10516D01*
X21796Y10537D01*
X21779Y10557D01*
X21760Y10576D01*
X22110D01*
X22091Y10557D01*
D02*
G37*
G36*
X3553Y10624D02*
X3551Y10608D01*
X3551Y10592D01*
X3554Y10575D01*
X3560Y10558D01*
X3568Y10540D01*
X3579Y10522D01*
X3592Y10503D01*
X3608Y10484D01*
X3627Y10464D01*
X3521Y10358D01*
X3501Y10377D01*
X3482Y10393D01*
X3463Y10406D01*
X3445Y10417D01*
X3427Y10425D01*
X3410Y10431D01*
X3393Y10434D01*
X3377Y10434D01*
X3361Y10432D01*
X3346Y10427D01*
X3558Y10639D01*
X3553Y10624D01*
D02*
G37*
G36*
X21538Y10010D02*
X21537Y10024D01*
X21532Y10037D01*
X21525Y10048D01*
X21514Y10058D01*
X21501Y10066D01*
X21484Y10073D01*
X21465Y10078D01*
X21442Y10082D01*
X21417Y10084D01*
X21388Y10085D01*
Y10235D01*
X21417Y10236D01*
X21442Y10238D01*
X21465Y10242D01*
X21484Y10247D01*
X21501Y10254D01*
X21514Y10262D01*
X21525Y10272D01*
X21532Y10283D01*
X21537Y10296D01*
X21538Y10310D01*
Y10010D01*
D02*
G37*
G36*
X56595Y10207D02*
X56612Y10194D01*
X56631Y10182D01*
X56651Y10172D01*
X56673Y10163D01*
X56695Y10156D01*
X56719Y10151D01*
X56744Y10147D01*
X56770Y10145D01*
X56798Y10145D01*
X56550Y9897D01*
X56549Y9925D01*
X56547Y9951D01*
X56544Y9976D01*
X56538Y9999D01*
X56531Y10022D01*
X56523Y10043D01*
X56513Y10063D01*
X56501Y10082D01*
X56487Y10100D01*
X56472Y10116D01*
X56578Y10222D01*
X56595Y10207D01*
D02*
G37*
G36*
X53596Y9725D02*
X53577Y9744D01*
X53557Y9761D01*
X53536Y9776D01*
X53516Y9789D01*
X53495Y9800D01*
X53474Y9809D01*
X53452Y9816D01*
X53431Y9821D01*
X53409Y9824D01*
X53387Y9825D01*
Y9975D01*
X53409Y9976D01*
X53431Y9979D01*
X53452Y9984D01*
X53474Y9991D01*
X53495Y10000D01*
X53516Y10011D01*
X53536Y10024D01*
X53557Y10039D01*
X53577Y10056D01*
X53596Y10075D01*
Y9725D01*
D02*
G37*
G36*
X6108Y9661D02*
X6117Y9648D01*
X6129Y9637D01*
X6143Y9627D01*
X6159Y9619D01*
X6177Y9612D01*
X6198Y9607D01*
X6221Y9603D01*
X6246Y9601D01*
X6273Y9600D01*
Y9450D01*
X6246Y9449D01*
X6221Y9447D01*
X6198Y9443D01*
X6177Y9438D01*
X6159Y9431D01*
X6143Y9423D01*
X6129Y9413D01*
X6117Y9402D01*
X6108Y9389D01*
X6101Y9375D01*
Y9675D01*
X6108Y9661D01*
D02*
G37*
G36*
X53121Y9250D02*
X53102Y9269D01*
X53082Y9286D01*
X53061Y9301D01*
X53041Y9314D01*
X53020Y9325D01*
X52999Y9334D01*
X52977Y9341D01*
X52956Y9346D01*
X52934Y9349D01*
X52912Y9350D01*
X52912Y9500D01*
X52934Y9501D01*
X52956Y9504D01*
X52977Y9509D01*
X52999Y9516D01*
X53020Y9525D01*
X53041Y9536D01*
X53061Y9549D01*
X53082Y9564D01*
X53102Y9581D01*
X53121Y9600D01*
X53121Y9250D01*
D02*
G37*
G36*
X37885Y9207D02*
X37883Y9221D01*
X37879Y9234D01*
X37871Y9245D01*
X37861Y9255D01*
X37847Y9263D01*
X37831Y9270D01*
X37811Y9275D01*
X37789Y9279D01*
X37763Y9281D01*
X37735Y9282D01*
Y9432D01*
X37763Y9433D01*
X37789Y9435D01*
X37811Y9439D01*
X37831Y9444D01*
X37847Y9451D01*
X37861Y9459D01*
X37871Y9469D01*
X37879Y9480D01*
X37883Y9493D01*
X37885Y9507D01*
Y9207D01*
D02*
G37*
G36*
X22091Y9287D02*
X22074Y9267D01*
X22059Y9246D01*
X22046Y9226D01*
X22035Y9205D01*
X22026Y9184D01*
X22025Y9181D01*
X22029Y9172D01*
X22037Y9158D01*
X22047Y9148D01*
X22058Y9140D01*
X22071Y9135D01*
X22085Y9134D01*
X22013D01*
X22011Y9119D01*
X22010Y9097D01*
X21860D01*
X21859Y9119D01*
X21857Y9134D01*
X21785D01*
X21799Y9135D01*
X21812Y9140D01*
X21823Y9148D01*
X21833Y9158D01*
X21841Y9172D01*
X21845Y9181D01*
X21844Y9184D01*
X21835Y9205D01*
X21824Y9226D01*
X21811Y9246D01*
X21796Y9267D01*
X21779Y9287D01*
X21760Y9306D01*
X22110D01*
X22091Y9287D01*
D02*
G37*
G36*
X4823Y9354D02*
X4821Y9338D01*
X4821Y9322D01*
X4824Y9305D01*
X4830Y9288D01*
X4838Y9270D01*
X4849Y9252D01*
X4862Y9233D01*
X4878Y9214D01*
X4897Y9194D01*
X4791Y9088D01*
X4771Y9107D01*
X4752Y9123D01*
X4733Y9136D01*
X4715Y9147D01*
X4697Y9155D01*
X4680Y9161D01*
X4663Y9164D01*
X4647Y9164D01*
X4631Y9162D01*
X4616Y9157D01*
X4828Y9369D01*
X4823Y9354D01*
D02*
G37*
G36*
X19385Y9000D02*
X19366Y9019D01*
X19346Y9036D01*
X19325Y9051D01*
X19305Y9064D01*
X19284Y9075D01*
X19263Y9084D01*
X19241Y9091D01*
X19220Y9096D01*
X19198Y9099D01*
X19176Y9100D01*
Y9250D01*
X19198Y9251D01*
X19220Y9254D01*
X19241Y9259D01*
X19263Y9266D01*
X19284Y9275D01*
X19305Y9286D01*
X19325Y9299D01*
X19346Y9314D01*
X19366Y9331D01*
X19385Y9350D01*
Y9000D01*
D02*
G37*
G36*
X20893Y9012D02*
X20878Y8995D01*
X20864Y8978D01*
X20852Y8959D01*
X20842Y8939D01*
X20834Y8917D01*
X20827Y8895D01*
X20821Y8871D01*
X20818Y8846D01*
X20816Y8820D01*
X20815Y8793D01*
X20567Y9040D01*
X20595Y9041D01*
X20621Y9043D01*
X20646Y9046D01*
X20670Y9052D01*
X20692Y9059D01*
X20714Y9067D01*
X20734Y9078D01*
X20753Y9089D01*
X20770Y9103D01*
X20787Y9118D01*
X20893Y9012D01*
D02*
G37*
G36*
X69815Y8775D02*
X69795Y8794D01*
X69775Y8811D01*
X69755Y8826D01*
X69734Y8839D01*
X69713Y8850D01*
X69692Y8859D01*
X69671Y8866D01*
X69649Y8871D01*
X69627Y8874D01*
X69605Y8875D01*
Y9025D01*
X69627Y9026D01*
X69649Y9029D01*
X69671Y9034D01*
X69692Y9041D01*
X69713Y9050D01*
X69734Y9061D01*
X69755Y9074D01*
X69775Y9089D01*
X69795Y9106D01*
X69815Y9125D01*
Y8775D01*
D02*
G37*
G36*
X49723Y9106D02*
X49743Y9089D01*
X49764Y9074D01*
X49784Y9061D01*
X49805Y9050D01*
X49826Y9041D01*
X49848Y9034D01*
X49869Y9029D01*
X49891Y9026D01*
X49913Y9025D01*
Y8875D01*
X49891Y8874D01*
X49869Y8871D01*
X49848Y8866D01*
X49826Y8859D01*
X49805Y8850D01*
X49784Y8839D01*
X49764Y8826D01*
X49743Y8811D01*
X49723Y8794D01*
X49704Y8775D01*
Y9125D01*
X49723Y9106D01*
D02*
G37*
G36*
X21538Y8757D02*
X21537Y8768D01*
X21533Y8778D01*
X21526Y8787D01*
X21517Y8794D01*
X21505Y8800D01*
X21490Y8806D01*
X21473Y8810D01*
X21453Y8813D01*
X21430Y8814D01*
X21405Y8815D01*
Y8965D01*
X21430Y8966D01*
X21453Y8967D01*
X21473Y8970D01*
X21490Y8974D01*
X21505Y8980D01*
X21517Y8986D01*
X21526Y8993D01*
X21533Y9002D01*
X21537Y9012D01*
X21538Y9023D01*
Y8757D01*
D02*
G37*
G36*
X9913Y9081D02*
X9933Y9064D01*
X9954Y9049D01*
X9974Y9036D01*
X9995Y9025D01*
X10016Y9016D01*
X10038Y9009D01*
X10059Y9004D01*
X10081Y9001D01*
X10103Y9000D01*
Y8850D01*
X10081Y8849D01*
X10059Y8846D01*
X10038Y8841D01*
X10016Y8834D01*
X9995Y8825D01*
X9974Y8814D01*
X9954Y8801D01*
X9933Y8786D01*
X9913Y8769D01*
X9894Y8750D01*
Y9100D01*
X9913Y9081D01*
D02*
G37*
G36*
X70244Y8920D02*
X70246Y8894D01*
X70250Y8869D01*
X70255Y8845D01*
X70262Y8823D01*
X70271Y8801D01*
X70281Y8781D01*
X70293Y8762D01*
X70306Y8745D01*
X70321Y8728D01*
X70215Y8622D01*
X70198Y8637D01*
X70181Y8651D01*
X70162Y8663D01*
X70142Y8673D01*
X70121Y8681D01*
X70098Y8688D01*
X70074Y8694D01*
X70049Y8697D01*
X70023Y8699D01*
X69996Y8700D01*
X70243Y8948D01*
X70244Y8920D01*
D02*
G37*
G36*
X23228Y9159D02*
X23315Y9083D01*
X23357Y9051D01*
X23397Y9025D01*
X23436Y9003D01*
X23472Y8987D01*
X23508Y8975D01*
X23542Y8967D01*
X23574Y8965D01*
Y8815D01*
X23542Y8813D01*
X23508Y8805D01*
X23472Y8793D01*
X23436Y8777D01*
X23397Y8755D01*
X23357Y8729D01*
X23315Y8697D01*
X23228Y8621D01*
X23181Y8575D01*
Y9205D01*
X23228Y9159D01*
D02*
G37*
G36*
X19791Y8566D02*
X19794Y8544D01*
X19799Y8523D01*
X19806Y8501D01*
X19815Y8480D01*
X19826Y8459D01*
X19839Y8439D01*
X19854Y8418D01*
X19871Y8398D01*
X19890Y8379D01*
X19540D01*
X19559Y8398D01*
X19576Y8418D01*
X19591Y8439D01*
X19604Y8459D01*
X19615Y8480D01*
X19624Y8501D01*
X19631Y8523D01*
X19636Y8544D01*
X19639Y8566D01*
X19640Y8588D01*
X19790D01*
X19791Y8566D01*
D02*
G37*
G36*
X57766Y8285D02*
X57747Y8304D01*
X57727Y8321D01*
X57706Y8336D01*
X57686Y8349D01*
X57665Y8360D01*
X57644Y8369D01*
X57622Y8376D01*
X57601Y8381D01*
X57579Y8384D01*
X57557Y8385D01*
X57557Y8535D01*
X57579Y8536D01*
X57601Y8539D01*
X57622Y8544D01*
X57644Y8551D01*
X57665Y8560D01*
X57686Y8571D01*
X57706Y8584D01*
X57727Y8599D01*
X57747Y8616D01*
X57766Y8635D01*
X57766Y8285D01*
D02*
G37*
G36*
X50224Y8616D02*
X50244Y8599D01*
X50264Y8584D01*
X50284Y8571D01*
X50305Y8560D01*
X50326Y8551D01*
X50348Y8544D01*
X50370Y8539D01*
X50392Y8536D01*
X50414Y8535D01*
Y8385D01*
X50392Y8384D01*
X50370Y8381D01*
X50348Y8376D01*
X50326Y8369D01*
X50305Y8360D01*
X50284Y8349D01*
X50264Y8336D01*
X50244Y8321D01*
X50224Y8304D01*
X50204Y8285D01*
Y8635D01*
X50224Y8616D01*
D02*
G37*
G36*
X58241Y7810D02*
X58222Y7829D01*
X58202Y7846D01*
X58181Y7861D01*
X58161Y7874D01*
X58140Y7885D01*
X58119Y7894D01*
X58097Y7901D01*
X58076Y7906D01*
X58054Y7909D01*
X58032Y7910D01*
X58032Y8060D01*
X58054Y8061D01*
X58076Y8064D01*
X58097Y8069D01*
X58119Y8076D01*
X58140Y8085D01*
X58161Y8096D01*
X58181Y8109D01*
X58202Y8124D01*
X58222Y8141D01*
X58241Y8160D01*
X58241Y7810D01*
D02*
G37*
G36*
X50699Y8141D02*
X50719Y8124D01*
X50739Y8109D01*
X50759Y8096D01*
X50780Y8085D01*
X50801Y8076D01*
X50823Y8069D01*
X50845Y8064D01*
X50867Y8061D01*
X50889Y8060D01*
X50889Y7910D01*
X50867Y7909D01*
X50845Y7906D01*
X50823Y7901D01*
X50801Y7894D01*
X50780Y7885D01*
X50759Y7874D01*
X50739Y7861D01*
X50719Y7846D01*
X50699Y7829D01*
X50679Y7810D01*
X50679Y8160D01*
X50699Y8141D01*
D02*
G37*
G36*
X13967Y9777D02*
X14058Y9716D01*
X14165Y9695D01*
X16365D01*
X16472Y9716D01*
X16563Y9777D01*
X17081Y10295D01*
X18883D01*
X18936Y10168D01*
X16546Y7777D01*
X16440Y7848D01*
X16264Y7883D01*
X16088Y7848D01*
X15940Y7748D01*
X15840Y7600D01*
X15834Y7568D01*
X15712Y7532D01*
X12372Y10872D01*
X12375Y11001D01*
X12451Y11113D01*
X12594Y11149D01*
X13967Y9777D01*
D02*
G37*
G36*
X9913Y8081D02*
X9933Y8064D01*
X9953Y8049D01*
X9974Y8036D01*
X9995Y8025D01*
X10016Y8016D01*
X10037Y8009D01*
X10059Y8004D01*
X10081Y8001D01*
X10103Y8000D01*
X10104Y7850D01*
X10082Y7849D01*
X10060Y7846D01*
X10038Y7841D01*
X10016Y7834D01*
X9995Y7825D01*
X9975Y7814D01*
X9954Y7801D01*
X9934Y7786D01*
X9914Y7769D01*
X9894Y7750D01*
X9893Y8100D01*
X9913Y8081D01*
D02*
G37*
G36*
X20543Y7922D02*
X20528Y7905D01*
X20514Y7888D01*
X20503Y7869D01*
X20492Y7849D01*
X20484Y7827D01*
X20477Y7805D01*
X20471Y7781D01*
X20468Y7756D01*
X20466Y7730D01*
X20465Y7702D01*
X20218Y7950D01*
X20245Y7951D01*
X20271Y7953D01*
X20296Y7956D01*
X20320Y7962D01*
X20342Y7969D01*
X20364Y7977D01*
X20384Y7988D01*
X20403Y7999D01*
X20420Y8013D01*
X20437Y8028D01*
X20543Y7922D01*
D02*
G37*
G36*
X37885Y7700D02*
X37883Y7714D01*
X37879Y7727D01*
X37871Y7738D01*
X37861Y7748D01*
X37847Y7756D01*
X37831Y7763D01*
X37811Y7768D01*
X37789Y7772D01*
X37763Y7774D01*
X37735Y7775D01*
Y7925D01*
X37763Y7926D01*
X37789Y7928D01*
X37811Y7932D01*
X37831Y7937D01*
X37847Y7944D01*
X37861Y7952D01*
X37871Y7962D01*
X37879Y7973D01*
X37883Y7986D01*
X37885Y8000D01*
Y7700D01*
D02*
G37*
G36*
X45584Y7845D02*
X45586Y7819D01*
X45589Y7794D01*
X45595Y7770D01*
X45602Y7748D01*
X45610Y7726D01*
X45621Y7706D01*
X45632Y7687D01*
X45646Y7670D01*
X45661Y7653D01*
X45555Y7547D01*
X45538Y7562D01*
X45521Y7576D01*
X45502Y7588D01*
X45482Y7598D01*
X45460Y7606D01*
X45438Y7613D01*
X45414Y7619D01*
X45389Y7622D01*
X45363Y7624D01*
X45336Y7625D01*
X45583Y7873D01*
X45584Y7845D01*
D02*
G37*
G36*
X44876Y7845D02*
X44878Y7819D01*
X44881Y7794D01*
X44887Y7770D01*
X44894Y7748D01*
X44902Y7726D01*
X44912Y7706D01*
X44924Y7687D01*
X44938Y7670D01*
X44953Y7653D01*
X44847Y7547D01*
X44830Y7562D01*
X44813Y7576D01*
X44794Y7588D01*
X44774Y7598D01*
X44752Y7606D01*
X44730Y7613D01*
X44706Y7619D01*
X44681Y7622D01*
X44655Y7624D01*
X44627Y7625D01*
X44875Y7872D01*
X44876Y7845D01*
D02*
G37*
G36*
X44126Y7845D02*
X44128Y7819D01*
X44131Y7794D01*
X44137Y7770D01*
X44144Y7748D01*
X44152Y7726D01*
X44162Y7706D01*
X44174Y7687D01*
X44188Y7670D01*
X44203Y7653D01*
X44097Y7547D01*
X44080Y7562D01*
X44063Y7576D01*
X44044Y7588D01*
X44024Y7598D01*
X44002Y7606D01*
X43980Y7613D01*
X43956Y7619D01*
X43931Y7622D01*
X43905Y7624D01*
X43877Y7625D01*
X44125Y7872D01*
X44126Y7845D01*
D02*
G37*
G36*
X20036Y7525D02*
X20017Y7544D01*
X19997Y7561D01*
X19976Y7576D01*
X19956Y7589D01*
X19935Y7600D01*
X19914Y7609D01*
X19892Y7616D01*
X19871Y7621D01*
X19849Y7624D01*
X19827Y7625D01*
Y7775D01*
X19849Y7776D01*
X19871Y7779D01*
X19892Y7784D01*
X19914Y7791D01*
X19935Y7800D01*
X19956Y7811D01*
X19976Y7824D01*
X19997Y7839D01*
X20017Y7856D01*
X20036Y7875D01*
Y7525D01*
D02*
G37*
G36*
X21538Y7470D02*
X21537Y7484D01*
X21532Y7497D01*
X21525Y7508D01*
X21514Y7518D01*
X21501Y7526D01*
X21484Y7533D01*
X21465Y7538D01*
X21442Y7542D01*
X21417Y7544D01*
X21388Y7545D01*
Y7695D01*
X21417Y7696D01*
X21442Y7698D01*
X21465Y7702D01*
X21484Y7707D01*
X21501Y7714D01*
X21514Y7722D01*
X21525Y7732D01*
X21532Y7743D01*
X21537Y7756D01*
X21538Y7770D01*
Y7470D01*
D02*
G37*
G36*
X13946Y4629D02*
X13930Y4566D01*
X13890Y4505D01*
X13140D01*
X13033Y4484D01*
X12942Y4423D01*
X12502Y3983D01*
X12441Y3892D01*
X12420Y3785D01*
Y3691D01*
X12419Y3682D01*
X12411Y3655D01*
X12394Y3615D01*
X12366Y3564D01*
X12327Y3503D01*
X12279Y3438D01*
X12054Y3183D01*
X11982Y3110D01*
X11950Y3086D01*
X11782Y2867D01*
X11676Y2611D01*
X11640Y2337D01*
X11595Y2286D01*
X11220D01*
Y2642D01*
X11213Y2692D01*
X11220Y2743D01*
X11184Y3018D01*
X11078Y3273D01*
X10910Y3493D01*
X10881Y3515D01*
X10719Y3681D01*
X10582Y3843D01*
X10533Y3910D01*
X10494Y3970D01*
X10466Y4022D01*
X10449Y4062D01*
X10441Y4089D01*
X10440Y4097D01*
Y4405D01*
X10419Y4512D01*
X10358Y4603D01*
X9745Y5217D01*
X9808Y5334D01*
X9885Y5318D01*
X10060Y5353D01*
X10209Y5453D01*
X10305D01*
X10377Y5344D01*
X10576Y5212D01*
X10810Y5165D01*
X11044Y5212D01*
X11243Y5344D01*
X11375Y5543D01*
X11422Y5777D01*
X11375Y6011D01*
X11243Y6210D01*
X11044Y6342D01*
X10810Y6389D01*
X10576Y6342D01*
X10377Y6210D01*
X10305Y6101D01*
X10209D01*
X10060Y6201D01*
X9885Y6236D01*
X9863Y6231D01*
X9852Y6232D01*
X9841Y6234D01*
X9833Y6236D01*
X9826Y6238D01*
X9821Y6240D01*
X9817Y6242D01*
X9815Y6243D01*
X9380Y6678D01*
Y7454D01*
X9507Y7522D01*
X9539Y7500D01*
X9715Y7465D01*
X9891Y7500D01*
X10039Y7600D01*
X10052Y7619D01*
X10061Y7626D01*
X10070Y7633D01*
X10077Y7637D01*
X10083Y7641D01*
X10089Y7643D01*
X10093Y7644D01*
X10094Y7645D01*
X10930D01*
X13946Y4629D01*
D02*
G37*
G36*
X16500Y7509D02*
X16503Y7507D01*
X16508Y7505D01*
X16515Y7504D01*
X16523Y7502D01*
X16545Y7500D01*
X16573Y7499D01*
X16589Y7499D01*
Y7349D01*
X16573Y7349D01*
X16523Y7346D01*
X16515Y7345D01*
X16508Y7343D01*
X16503Y7341D01*
X16500Y7339D01*
X16498Y7337D01*
Y7512D01*
X16500Y7509D01*
D02*
G37*
G36*
X58716Y7335D02*
X58697Y7354D01*
X58677Y7371D01*
X58656Y7386D01*
X58636Y7399D01*
X58615Y7410D01*
X58594Y7419D01*
X58572Y7426D01*
X58551Y7431D01*
X58529Y7434D01*
X58507Y7435D01*
X58507Y7585D01*
X58529Y7586D01*
X58551Y7589D01*
X58572Y7594D01*
X58594Y7601D01*
X58615Y7610D01*
X58636Y7621D01*
X58656Y7634D01*
X58677Y7649D01*
X58697Y7666D01*
X58716Y7685D01*
X58716Y7335D01*
D02*
G37*
G36*
X51174Y7666D02*
X51194Y7649D01*
X51214Y7634D01*
X51234Y7621D01*
X51255Y7610D01*
X51276Y7601D01*
X51298Y7594D01*
X51320Y7589D01*
X51342Y7586D01*
X51364Y7585D01*
X51364Y7435D01*
X51342Y7434D01*
X51320Y7431D01*
X51298Y7426D01*
X51276Y7419D01*
X51255Y7410D01*
X51234Y7399D01*
X51214Y7386D01*
X51194Y7371D01*
X51174Y7354D01*
X51154Y7335D01*
X51154Y7685D01*
X51174Y7666D01*
D02*
G37*
G36*
X25901Y7590D02*
X25903Y7564D01*
X25906Y7539D01*
X25912Y7515D01*
X25919Y7493D01*
X25927Y7471D01*
X25938Y7451D01*
X25949Y7432D01*
X25963Y7415D01*
X25978Y7398D01*
X25872Y7292D01*
X25855Y7307D01*
X25838Y7321D01*
X25819Y7333D01*
X25799Y7343D01*
X25777Y7351D01*
X25755Y7358D01*
X25731Y7364D01*
X25706Y7367D01*
X25680Y7369D01*
X25653Y7370D01*
X25900Y7617D01*
X25901Y7590D01*
D02*
G37*
G36*
X8671Y7477D02*
X8654Y7457D01*
X8639Y7436D01*
X8626Y7416D01*
X8615Y7395D01*
X8606Y7374D01*
X8599Y7352D01*
X8594Y7331D01*
X8591Y7309D01*
X8590Y7287D01*
X8440D01*
X8439Y7309D01*
X8436Y7331D01*
X8431Y7352D01*
X8424Y7374D01*
X8415Y7395D01*
X8404Y7416D01*
X8391Y7436D01*
X8376Y7457D01*
X8359Y7477D01*
X8340Y7496D01*
X8690D01*
X8671Y7477D01*
D02*
G37*
G36*
X59191Y6860D02*
X59172Y6879D01*
X59152Y6896D01*
X59131Y6911D01*
X59111Y6924D01*
X59090Y6935D01*
X59069Y6944D01*
X59047Y6951D01*
X59026Y6956D01*
X59004Y6959D01*
X58982Y6960D01*
X58982Y7110D01*
X59004Y7111D01*
X59026Y7114D01*
X59047Y7119D01*
X59069Y7126D01*
X59090Y7135D01*
X59111Y7146D01*
X59131Y7159D01*
X59152Y7174D01*
X59172Y7191D01*
X59191Y7210D01*
X59191Y6860D01*
D02*
G37*
G36*
X51649Y7191D02*
X51669Y7174D01*
X51689Y7159D01*
X51709Y7146D01*
X51730Y7135D01*
X51751Y7126D01*
X51773Y7119D01*
X51795Y7114D01*
X51817Y7111D01*
X51839Y7110D01*
Y6960D01*
X51817Y6959D01*
X51795Y6956D01*
X51773Y6951D01*
X51751Y6944D01*
X51730Y6935D01*
X51709Y6924D01*
X51689Y6911D01*
X51669Y6896D01*
X51649Y6879D01*
X51629Y6860D01*
Y7210D01*
X51649Y7191D01*
D02*
G37*
G36*
X20443Y6422D02*
X20428Y6405D01*
X20414Y6388D01*
X20403Y6369D01*
X20392Y6349D01*
X20384Y6327D01*
X20377Y6305D01*
X20371Y6281D01*
X20368Y6256D01*
X20366Y6230D01*
X20365Y6203D01*
X20118Y6450D01*
X20145Y6451D01*
X20171Y6453D01*
X20196Y6456D01*
X20220Y6462D01*
X20242Y6469D01*
X20264Y6477D01*
X20284Y6488D01*
X20303Y6499D01*
X20320Y6513D01*
X20337Y6528D01*
X20443Y6422D01*
D02*
G37*
G36*
X21538Y6200D02*
X21537Y6214D01*
X21532Y6227D01*
X21525Y6238D01*
X21514Y6248D01*
X21501Y6256D01*
X21484Y6263D01*
X21465Y6268D01*
X21442Y6272D01*
X21417Y6274D01*
X21388Y6275D01*
Y6425D01*
X21417Y6426D01*
X21442Y6428D01*
X21465Y6432D01*
X21484Y6437D01*
X21501Y6444D01*
X21514Y6452D01*
X21525Y6462D01*
X21532Y6473D01*
X21537Y6486D01*
X21538Y6500D01*
Y6200D01*
D02*
G37*
G36*
X19646Y6327D02*
X19629Y6307D01*
X19614Y6286D01*
X19601Y6266D01*
X19590Y6245D01*
X19581Y6224D01*
X19574Y6202D01*
X19569Y6181D01*
X19566Y6159D01*
X19565Y6137D01*
X19415D01*
X19414Y6159D01*
X19411Y6181D01*
X19406Y6202D01*
X19399Y6224D01*
X19390Y6245D01*
X19379Y6266D01*
X19366Y6286D01*
X19351Y6307D01*
X19334Y6327D01*
X19315Y6346D01*
X19665D01*
X19646Y6327D01*
D02*
G37*
G36*
X20366Y6170D02*
X20368Y6144D01*
X20371Y6119D01*
X20377Y6095D01*
X20384Y6073D01*
X20392Y6051D01*
X20403Y6031D01*
X20414Y6012D01*
X20428Y5995D01*
X20443Y5978D01*
X20337Y5872D01*
X20320Y5887D01*
X20303Y5901D01*
X20284Y5913D01*
X20264Y5923D01*
X20242Y5931D01*
X20220Y5938D01*
X20196Y5944D01*
X20171Y5947D01*
X20145Y5950D01*
X20118Y5950D01*
X20365Y6198D01*
X20366Y6170D01*
D02*
G37*
G36*
X9680Y6090D02*
X9697Y6076D01*
X9716Y6065D01*
X9736Y6054D01*
X9758Y6046D01*
X9780Y6039D01*
X9804Y6033D01*
X9829Y6030D01*
X9855Y6028D01*
X9882Y6027D01*
X9635Y5780D01*
X9634Y5807D01*
X9632Y5833D01*
X9628Y5858D01*
X9623Y5882D01*
X9616Y5904D01*
X9608Y5926D01*
X9597Y5946D01*
X9586Y5965D01*
X9572Y5982D01*
X9557Y5999D01*
X9663Y6105D01*
X9680Y6090D01*
D02*
G37*
G36*
X25399Y8146D02*
X25383Y7983D01*
X25326Y7944D01*
X25226Y7796D01*
X25191Y7620D01*
X25226Y7444D01*
X25326Y7296D01*
X25474Y7196D01*
X25650Y7161D01*
X25672Y7166D01*
X25683Y7165D01*
X25693Y7163D01*
X25702Y7161D01*
X25709Y7159D01*
X25714Y7157D01*
X25718Y7155D01*
X25719Y7154D01*
X27547Y5327D01*
X27638Y5266D01*
X27745Y5245D01*
X29919D01*
X29968Y5127D01*
X28503Y3662D01*
X27676Y3362D01*
X27666Y3361D01*
X27620Y3342D01*
X27620Y3342D01*
X27620Y3342D01*
X27410Y3255D01*
X27190Y3086D01*
X27022Y2867D01*
X26916Y2611D01*
X26880Y2337D01*
X26835Y2286D01*
X26460D01*
Y2642D01*
X26453Y2692D01*
X26460Y2743D01*
X26424Y3018D01*
X26318Y3273D01*
X26150Y3493D01*
X25930Y3661D01*
X25674Y3767D01*
X25400Y3803D01*
X25126Y3767D01*
X24870Y3661D01*
X24650Y3493D01*
X24482Y3273D01*
X24376Y3018D01*
X24340Y2743D01*
X24347Y2692D01*
X24340Y2642D01*
Y2286D01*
X23965D01*
X23920Y2337D01*
X23884Y2611D01*
X23778Y2867D01*
X23610Y3086D01*
X23390Y3255D01*
X23134Y3361D01*
X22860Y3397D01*
X22586Y3361D01*
X22330Y3255D01*
X22110Y3086D01*
X21942Y2867D01*
X21836Y2611D01*
X21800Y2337D01*
X21755Y2286D01*
X21380D01*
Y2642D01*
X21373Y2692D01*
X21380Y2743D01*
X21344Y3018D01*
X21238Y3273D01*
X21070Y3493D01*
X20850Y3661D01*
X20594Y3767D01*
X20320Y3803D01*
X20046Y3767D01*
X19820Y3674D01*
X19748Y3781D01*
X21088Y5122D01*
X21149Y5213D01*
X21170Y5320D01*
Y5700D01*
X21208Y5725D01*
X21335Y5694D01*
Y5694D01*
X22860Y5694D01*
X23450Y5694D01*
Y6076D01*
X23493Y6180D01*
X23516Y6350D01*
X23493Y6520D01*
X23450Y6624D01*
Y7346D01*
X23493Y7450D01*
X23516Y7620D01*
X23493Y7790D01*
X23450Y7894D01*
Y8543D01*
X23475Y8562D01*
X23503Y8581D01*
X23528Y8595D01*
X23548Y8604D01*
X23562Y8608D01*
X23567Y8610D01*
X24936D01*
X25399Y8146D01*
D02*
G37*
G36*
X15270Y5609D02*
X15251Y5628D01*
X15231Y5645D01*
X15210Y5660D01*
X15190Y5673D01*
X15169Y5684D01*
X15148Y5693D01*
X15126Y5700D01*
X15105Y5705D01*
X15083Y5708D01*
X15061Y5709D01*
Y5859D01*
X15083Y5860D01*
X15105Y5863D01*
X15126Y5868D01*
X15148Y5875D01*
X15169Y5884D01*
X15190Y5895D01*
X15210Y5908D01*
X15231Y5923D01*
X15251Y5940D01*
X15270Y5959D01*
Y5609D01*
D02*
G37*
G36*
X43481Y7655D02*
X43551Y7551D01*
X43699Y7451D01*
X43875Y7416D01*
X43897Y7421D01*
X43908Y7420D01*
X43918Y7418D01*
X43927Y7416D01*
X43934Y7414D01*
X43939Y7412D01*
X43943Y7410D01*
X43944Y7409D01*
X45168Y6185D01*
X45147Y6026D01*
X45074Y5977D01*
X44974Y5828D01*
X44939Y5653D01*
X44958Y5557D01*
X44864Y5430D01*
X44578D01*
X44577Y5431D01*
X44573Y5432D01*
X44568Y5434D01*
X44561Y5438D01*
X44554Y5442D01*
X44545Y5449D01*
X44537Y5456D01*
X44524Y5474D01*
X44376Y5574D01*
X44200Y5609D01*
X44024Y5574D01*
X43876Y5474D01*
X43776Y5326D01*
X43741Y5150D01*
X43776Y4974D01*
X43876Y4826D01*
X44024Y4726D01*
X44200Y4691D01*
X44376Y4726D01*
X44524Y4826D01*
X44537Y4844D01*
X44545Y4851D01*
X44554Y4858D01*
X44561Y4862D01*
X44568Y4866D01*
X44573Y4868D01*
X44577Y4869D01*
X44578Y4870D01*
X45567D01*
X45674Y4891D01*
X45765Y4952D01*
X45883Y5070D01*
X50720D01*
X50818Y4943D01*
X50801Y4857D01*
X50836Y4681D01*
X50935Y4532D01*
X51084Y4433D01*
X51260Y4398D01*
X51282Y4402D01*
X51292Y4401D01*
X51303Y4400D01*
X51312Y4398D01*
X51319Y4396D01*
X51324Y4394D01*
X51328Y4391D01*
X51329Y4391D01*
X52427Y3293D01*
X52437Y3281D01*
X52448Y3260D01*
X52458Y3231D01*
X52465Y3192D01*
X52467Y3142D01*
X52462Y3081D01*
X52450Y3008D01*
X52429Y2926D01*
X52400Y2833D01*
X52360Y2727D01*
X52357Y2711D01*
X52316Y2611D01*
X52280Y2337D01*
X52235Y2286D01*
X51860D01*
Y2642D01*
X51853Y2692D01*
X51860Y2743D01*
X51824Y3018D01*
X51718Y3273D01*
X51550Y3493D01*
X51330Y3661D01*
X51074Y3767D01*
X50800Y3803D01*
X50526Y3767D01*
X50270Y3661D01*
X50050Y3493D01*
X49882Y3273D01*
X49776Y3018D01*
X49740Y2743D01*
X49747Y2692D01*
X49740Y2642D01*
Y2286D01*
X49365D01*
X49320Y2337D01*
X49284Y2611D01*
X49178Y2867D01*
X49010Y3086D01*
X48790Y3255D01*
X48534Y3361D01*
X48260Y3397D01*
X47986Y3361D01*
X47730Y3255D01*
X47510Y3086D01*
X47342Y2867D01*
X47236Y2611D01*
X47200Y2337D01*
X47155Y2286D01*
X46780D01*
Y2642D01*
X46773Y2692D01*
X46780Y2743D01*
X46744Y3018D01*
X46638Y3273D01*
X46470Y3493D01*
X46250Y3661D01*
X45994Y3767D01*
X45720Y3803D01*
X45446Y3767D01*
X45190Y3661D01*
X44970Y3493D01*
X44802Y3273D01*
X44696Y3018D01*
X44660Y2743D01*
X44667Y2692D01*
X44660Y2642D01*
Y2286D01*
X44285D01*
X44240Y2337D01*
X44204Y2611D01*
X44098Y2867D01*
X43930Y3086D01*
X43710Y3255D01*
X43454Y3361D01*
X43307Y3380D01*
Y2337D01*
X43053D01*
Y3380D01*
X42906Y3361D01*
X42650Y3255D01*
X42430Y3086D01*
X42262Y2867D01*
X42156Y2611D01*
X42120Y2337D01*
X42075Y2286D01*
X41700D01*
Y2642D01*
X41693Y2692D01*
X41700Y2743D01*
X41664Y3018D01*
X41558Y3273D01*
X41390Y3493D01*
X41170Y3661D01*
X40914Y3767D01*
X40640Y3803D01*
X40366Y3767D01*
X40110Y3661D01*
X39890Y3493D01*
X39722Y3273D01*
X39616Y3018D01*
X39580Y2743D01*
X39587Y2692D01*
X39580Y2642D01*
Y2286D01*
X39205D01*
X39160Y2337D01*
X39124Y2611D01*
X39018Y2867D01*
X38850Y3086D01*
X38630Y3255D01*
X38374Y3361D01*
X38100Y3397D01*
X37826Y3361D01*
X37570Y3255D01*
X37350Y3086D01*
X37182Y2867D01*
X37076Y2611D01*
X37040Y2337D01*
X36995Y2286D01*
X36620D01*
Y2642D01*
X36613Y2692D01*
X36620Y2743D01*
X36584Y3018D01*
X36478Y3273D01*
X36310Y3493D01*
X36090Y3661D01*
X35834Y3767D01*
X35560Y3803D01*
X35286Y3767D01*
X35030Y3661D01*
X34810Y3493D01*
X34642Y3273D01*
X34536Y3018D01*
X34500Y2743D01*
X34507Y2692D01*
X34500Y2642D01*
Y2286D01*
X34125D01*
X34080Y2337D01*
X34044Y2611D01*
X33938Y2867D01*
X33770Y3086D01*
X33550Y3255D01*
X33294Y3361D01*
X33020Y3397D01*
X32746Y3361D01*
X32490Y3255D01*
X32270Y3086D01*
X32102Y2867D01*
X31996Y2611D01*
X31960Y2337D01*
X31915Y2286D01*
X31540D01*
Y2642D01*
X31533Y2692D01*
X31540Y2743D01*
X31535Y2779D01*
X31539Y3011D01*
X31556Y3222D01*
X31569Y3304D01*
X31584Y3375D01*
X31600Y3431D01*
X31617Y3471D01*
X31630Y3496D01*
X31636Y3503D01*
X32778Y4645D01*
X40174D01*
X40282Y4666D01*
X40373Y4727D01*
X43334Y7688D01*
X43481Y7655D01*
D02*
G37*
G36*
X15811Y5122D02*
X15792Y5141D01*
X15772Y5158D01*
X15751Y5173D01*
X15731Y5186D01*
X15710Y5197D01*
X15689Y5206D01*
X15667Y5213D01*
X15646Y5218D01*
X15624Y5221D01*
X15602Y5222D01*
Y5372D01*
X15624Y5373D01*
X15646Y5376D01*
X15667Y5381D01*
X15689Y5388D01*
X15710Y5397D01*
X15731Y5408D01*
X15751Y5421D01*
X15772Y5436D01*
X15792Y5453D01*
X15811Y5472D01*
Y5122D01*
D02*
G37*
G36*
X44398Y5306D02*
X44418Y5289D01*
X44439Y5274D01*
X44459Y5261D01*
X44480Y5250D01*
X44501Y5241D01*
X44523Y5234D01*
X44544Y5229D01*
X44566Y5226D01*
X44588Y5225D01*
Y5075D01*
X44566Y5074D01*
X44544Y5071D01*
X44523Y5066D01*
X44501Y5059D01*
X44480Y5050D01*
X44459Y5039D01*
X44439Y5026D01*
X44418Y5011D01*
X44398Y4994D01*
X44379Y4975D01*
Y5325D01*
X44398Y5306D01*
D02*
G37*
G36*
X19045Y6454D02*
X19066Y6349D01*
X19166Y6201D01*
X19184Y6188D01*
X19191Y6180D01*
X19198Y6171D01*
X19202Y6164D01*
X19206Y6157D01*
X19208Y6152D01*
X19209Y6148D01*
X19210Y6147D01*
Y5991D01*
X18049Y4830D01*
X16331D01*
X16292Y4957D01*
X16314Y4972D01*
X16414Y5121D01*
X16449Y5297D01*
X16418Y5450D01*
X16447Y5517D01*
X16481Y5563D01*
X16564Y5463D01*
X16556Y5425D01*
X16591Y5249D01*
X16691Y5101D01*
X16839Y5001D01*
X17015Y4966D01*
X17191Y5001D01*
X17339Y5101D01*
X17439Y5249D01*
X17474Y5425D01*
X17452Y5534D01*
X17540Y5661D01*
X17956D01*
X18063Y5682D01*
X18154Y5743D01*
X18907Y6496D01*
X19045Y6454D01*
D02*
G37*
G36*
X5201Y4966D02*
X5204Y4944D01*
X5209Y4923D01*
X5216Y4901D01*
X5225Y4880D01*
X5236Y4859D01*
X5249Y4839D01*
X5264Y4818D01*
X5281Y4798D01*
X5300Y4779D01*
X4950D01*
X4969Y4798D01*
X4986Y4818D01*
X5001Y4839D01*
X5014Y4859D01*
X5025Y4880D01*
X5034Y4901D01*
X5041Y4923D01*
X5046Y4944D01*
X5049Y4966D01*
X5050Y4988D01*
X5200D01*
X5201Y4966D01*
D02*
G37*
G36*
X19488Y4775D02*
X19460Y4774D01*
X19434Y4772D01*
X19409Y4769D01*
X19385Y4763D01*
X19363Y4756D01*
X19341Y4748D01*
X19321Y4738D01*
X19302Y4726D01*
X19285Y4712D01*
X19268Y4697D01*
X19162Y4803D01*
X19177Y4820D01*
X19191Y4837D01*
X19203Y4856D01*
X19213Y4876D01*
X19221Y4898D01*
X19228Y4920D01*
X19234Y4944D01*
X19237Y4969D01*
X19240Y4995D01*
X19240Y5023D01*
X19488Y4775D01*
D02*
G37*
G36*
X51510Y4827D02*
X51512Y4801D01*
X51516Y4776D01*
X51521Y4752D01*
X51528Y4729D01*
X51537Y4708D01*
X51547Y4688D01*
X51559Y4669D01*
X51572Y4651D01*
X51587Y4635D01*
X51481Y4529D01*
X51465Y4544D01*
X51447Y4557D01*
X51428Y4569D01*
X51408Y4579D01*
X51387Y4588D01*
X51364Y4595D01*
X51341Y4600D01*
X51316Y4604D01*
X51290Y4606D01*
X51262Y4607D01*
X51510Y4854D01*
X51510Y4827D01*
D02*
G37*
G36*
X59804Y3503D02*
X59810Y3496D01*
X59823Y3471D01*
X59840Y3431D01*
X59856Y3375D01*
X59871Y3304D01*
X59884Y3224D01*
X59905Y2885D01*
X59905Y2782D01*
X59900Y2743D01*
X59907Y2692D01*
X59900Y2642D01*
Y2286D01*
X59525D01*
X59480Y2337D01*
X59444Y2611D01*
X59338Y2867D01*
X59170Y3086D01*
X58950Y3255D01*
X58694Y3361D01*
X58420Y3397D01*
X58146Y3361D01*
X57890Y3255D01*
X57670Y3086D01*
X57502Y2867D01*
X57396Y2611D01*
X57360Y2337D01*
X57315Y2286D01*
X56940D01*
Y2642D01*
X56933Y2692D01*
X56940Y2743D01*
X56904Y3018D01*
X56798Y3273D01*
X56630Y3493D01*
X56410Y3661D01*
X56154Y3767D01*
X55880Y3803D01*
X55606Y3767D01*
X55350Y3661D01*
X55130Y3493D01*
X54962Y3273D01*
X54856Y3018D01*
X54820Y2743D01*
X54827Y2692D01*
X54820Y2642D01*
Y2286D01*
X54445D01*
X54400Y2337D01*
X54364Y2611D01*
X54258Y2867D01*
X54090Y3086D01*
X53870Y3255D01*
X53734Y3311D01*
X53717Y3322D01*
X53717Y3322D01*
X53717Y3322D01*
X53042Y3585D01*
X52849Y3666D01*
X52845Y3668D01*
X51725Y4787D01*
X51725Y4788D01*
X51723Y4792D01*
X51721Y4798D01*
X51719Y4805D01*
X51717Y4813D01*
X51715Y4824D01*
X51714Y4835D01*
X51718Y4857D01*
X51701Y4943D01*
X51800Y5070D01*
X53879D01*
X53974Y4943D01*
X53956Y4850D01*
X53991Y4674D01*
X54090Y4526D01*
X54239Y4426D01*
X54414Y4391D01*
X54590Y4426D01*
X54739Y4526D01*
X54838Y4674D01*
X54873Y4850D01*
X54855Y4943D01*
X54950Y5070D01*
X58237D01*
X59804Y3503D01*
D02*
G37*
G36*
X32168Y4827D02*
X31239Y3899D01*
X31232Y3893D01*
X31208Y3880D01*
X31168Y3863D01*
X31112Y3847D01*
X31041Y3832D01*
X30961Y3820D01*
X30622Y3798D01*
X30519Y3798D01*
X30480Y3803D01*
X30206Y3767D01*
X29950Y3661D01*
X29730Y3493D01*
X29562Y3273D01*
X29456Y3018D01*
X29420Y2743D01*
X29427Y2692D01*
X29420Y2642D01*
Y2286D01*
X29045D01*
X29000Y2337D01*
X28964Y2611D01*
X28943Y2661D01*
X28943Y2664D01*
X28909Y2775D01*
X28884Y2873D01*
X28867Y2961D01*
X28858Y3039D01*
X28855Y3105D01*
X28859Y3159D01*
X28867Y3201D01*
X28878Y3232D01*
X28890Y3254D01*
X28900Y3266D01*
X30578Y4945D01*
X32119D01*
X32168Y4827D01*
D02*
G37*
G36*
X16097Y3597D02*
X16062Y3557D01*
X16033Y3513D01*
X16011Y3465D01*
X15995Y3415D01*
X15986Y3360D01*
X15983Y3302D01*
X15987Y3241D01*
X15998Y3176D01*
X16015Y3108D01*
X16039Y3036D01*
X15598Y3407D01*
X15594Y3411D01*
X15596Y3409D01*
X15393Y3580D01*
X15471Y3568D01*
X15545Y3562D01*
X15616Y3560D01*
X15681Y3565D01*
X15743Y3574D01*
X15801Y3589D01*
X15855Y3610D01*
X15904Y3635D01*
X15950Y3667D01*
X15991Y3703D01*
X16097Y3597D01*
D02*
G37*
G36*
X10240Y4051D02*
X10256Y3994D01*
X10282Y3933D01*
X10318Y3866D01*
X10365Y3794D01*
X10422Y3716D01*
X10568Y3544D01*
X10756Y3351D01*
X9564D01*
X9663Y3450D01*
X9898Y3716D01*
X9955Y3794D01*
X10002Y3866D01*
X10038Y3933D01*
X10064Y3994D01*
X10080Y4051D01*
X10085Y4101D01*
X10235D01*
X10240Y4051D01*
D02*
G37*
G36*
X12780Y3644D02*
X12796Y3588D01*
X12822Y3527D01*
X12858Y3460D01*
X12905Y3387D01*
X12962Y3309D01*
X13108Y3138D01*
X13296Y2944D01*
X12104D01*
X12203Y3044D01*
X12438Y3309D01*
X12495Y3387D01*
X12542Y3460D01*
X12578Y3527D01*
X12604Y3588D01*
X12620Y3644D01*
X12625Y3695D01*
X12775D01*
X12780Y3644D01*
D02*
G37*
G36*
X75332Y3724D02*
X75383Y3696D01*
X75445Y3671D01*
X75518Y3649D01*
X75602Y3631D01*
X75698Y3617D01*
X75922Y3598D01*
X76191Y3594D01*
X75349Y2752D01*
X75349Y2892D01*
X75327Y3245D01*
X75312Y3341D01*
X75294Y3425D01*
X75273Y3498D01*
X75247Y3560D01*
X75219Y3611D01*
X75187Y3651D01*
X75293Y3757D01*
X75332Y3724D01*
D02*
G37*
G36*
X60092D02*
X60143Y3696D01*
X60205Y3671D01*
X60278Y3649D01*
X60362Y3631D01*
X60458Y3617D01*
X60682Y3598D01*
X60951Y3594D01*
X60109Y2752D01*
X60109Y2892D01*
X60087Y3245D01*
X60072Y3341D01*
X60054Y3425D01*
X60033Y3498D01*
X60007Y3560D01*
X59979Y3611D01*
X59947Y3651D01*
X60053Y3757D01*
X60092Y3724D01*
D02*
G37*
G36*
X70252Y3724D02*
X70303Y3696D01*
X70365Y3671D01*
X70438Y3649D01*
X70522Y3631D01*
X70618Y3617D01*
X70842Y3598D01*
X71111Y3594D01*
X70269Y2752D01*
X70269Y2892D01*
X70247Y3245D01*
X70232Y3341D01*
X70214Y3425D01*
X70193Y3498D01*
X70167Y3560D01*
X70139Y3611D01*
X70107Y3651D01*
X70213Y3757D01*
X70252Y3724D01*
D02*
G37*
G36*
X31493Y3651D02*
X31461Y3611D01*
X31433Y3560D01*
X31407Y3498D01*
X31386Y3425D01*
X31368Y3341D01*
X31353Y3245D01*
X31335Y3021D01*
X31331Y2752D01*
X30489Y3594D01*
X30629Y3594D01*
X30982Y3617D01*
X31078Y3631D01*
X31162Y3649D01*
X31235Y3671D01*
X31297Y3696D01*
X31348Y3724D01*
X31387Y3757D01*
X31493Y3651D01*
D02*
G37*
G36*
X52731Y3497D02*
X52764Y3481D01*
X52965Y3396D01*
X53643Y3132D01*
X52551Y2655D01*
X52593Y2766D01*
X52626Y2870D01*
X52650Y2967D01*
X52665Y3056D01*
X52671Y3139D01*
X52668Y3214D01*
X52656Y3282D01*
X52636Y3342D01*
X52606Y3396D01*
X52568Y3443D01*
X52715Y3507D01*
X52731Y3497D01*
D02*
G37*
G36*
X67950Y3485D02*
X67985Y3467D01*
X68037Y3444D01*
X68408Y3300D01*
X68859Y3141D01*
X67782Y2632D01*
X67821Y2746D01*
X67874Y2950D01*
X67887Y3041D01*
X67892Y3125D01*
X67888Y3201D01*
X67875Y3270D01*
X67854Y3331D01*
X67825Y3384D01*
X67787Y3431D01*
X67931Y3498D01*
X67950Y3485D01*
D02*
G37*
G36*
X62870D02*
X62905Y3467D01*
X62957Y3444D01*
X63328Y3300D01*
X63779Y3141D01*
X62702Y2632D01*
X62741Y2746D01*
X62794Y2950D01*
X62807Y3041D01*
X62812Y3125D01*
X62808Y3201D01*
X62795Y3270D01*
X62774Y3331D01*
X62745Y3384D01*
X62707Y3431D01*
X62851Y3498D01*
X62870Y3485D01*
D02*
G37*
G36*
X73030Y3485D02*
X73065Y3467D01*
X73117Y3444D01*
X73488Y3300D01*
X73939Y3141D01*
X72862Y2632D01*
X72901Y2746D01*
X72954Y2950D01*
X72967Y3041D01*
X72972Y3125D01*
X72968Y3201D01*
X72955Y3270D01*
X72934Y3331D01*
X72905Y3384D01*
X72867Y3431D01*
X73011Y3498D01*
X73030Y3485D01*
D02*
G37*
G36*
X28758Y3415D02*
X28721Y3370D01*
X28691Y3316D01*
X28669Y3254D01*
X28656Y3185D01*
X28651Y3108D01*
X28654Y3023D01*
X28665Y2930D01*
X28685Y2829D01*
X28712Y2720D01*
X28748Y2604D01*
X27689Y3150D01*
X28618Y3487D01*
X28758Y3415D01*
D02*
G37*
G36*
X69616Y8669D02*
X69620Y8668D01*
X69626Y8666D01*
X69632Y8662D01*
X69639Y8658D01*
X69648Y8651D01*
X69656Y8644D01*
X69669Y8626D01*
X69818Y8526D01*
X69993Y8491D01*
X70015Y8496D01*
X70026Y8495D01*
X70037Y8493D01*
X70045Y8491D01*
X70052Y8489D01*
X70057Y8487D01*
X70062Y8485D01*
X70063Y8484D01*
X75044Y3503D01*
X75050Y3496D01*
X75063Y3471D01*
X75080Y3431D01*
X75096Y3375D01*
X75111Y3304D01*
X75124Y3224D01*
X75145Y2885D01*
X75145Y2782D01*
X75140Y2743D01*
X75147Y2692D01*
X75140Y2642D01*
Y2286D01*
X74765D01*
X74720Y2337D01*
X74684Y2611D01*
X74578Y2867D01*
X74410Y3086D01*
X74190Y3255D01*
X74021Y3325D01*
X74008Y3332D01*
X74008Y3333D01*
X74007Y3333D01*
X73968Y3347D01*
X73934Y3361D01*
X73925Y3362D01*
X73559Y3492D01*
X73196Y3632D01*
X73154Y3651D01*
X73144Y3656D01*
X70051Y6748D01*
X69961Y6809D01*
X69853Y6830D01*
X59916D01*
X59813Y6957D01*
X59829Y7035D01*
X59794Y7210D01*
X59694Y7359D01*
X59546Y7459D01*
X59476Y7473D01*
X59354Y7510D01*
X59319Y7685D01*
X59219Y7834D01*
X59071Y7934D01*
X58895Y7969D01*
X58858Y8091D01*
X58844Y8160D01*
X58744Y8309D01*
X58596Y8409D01*
X58443Y8439D01*
X58401Y8559D01*
X58487Y8670D01*
X69615D01*
X69616Y8669D01*
D02*
G37*
G36*
X72725Y3281D02*
X72735Y3269D01*
X72747Y3248D01*
X72757Y3218D01*
X72765Y3178D01*
X72767Y3125D01*
X72764Y3062D01*
X72753Y2990D01*
X72706Y2804D01*
X72669Y2699D01*
X72668Y2687D01*
X72636Y2611D01*
X72600Y2337D01*
X72555Y2286D01*
X72180D01*
Y2642D01*
X72173Y2692D01*
X72180Y2743D01*
X72144Y3018D01*
X72038Y3273D01*
X71870Y3493D01*
X71650Y3661D01*
X71394Y3767D01*
X71120Y3803D01*
X71084Y3798D01*
X70852Y3802D01*
X70641Y3819D01*
X70559Y3832D01*
X70488Y3847D01*
X70432Y3863D01*
X70392Y3880D01*
X70368Y3893D01*
X70361Y3899D01*
X68107Y6152D01*
X68156Y6270D01*
X69737D01*
X72725Y3281D01*
D02*
G37*
G36*
X69964Y3503D02*
X69970Y3496D01*
X69983Y3471D01*
X70000Y3431D01*
X70016Y3375D01*
X70031Y3304D01*
X70044Y3224D01*
X70065Y2885D01*
X70065Y2782D01*
X70060Y2743D01*
X70067Y2692D01*
X70060Y2642D01*
Y2286D01*
X69685D01*
X69640Y2337D01*
X69604Y2611D01*
X69498Y2867D01*
X69330Y3086D01*
X69110Y3255D01*
X68941Y3325D01*
X68928Y3332D01*
X68928Y3333D01*
X68927Y3333D01*
X68888Y3347D01*
X68854Y3361D01*
X68845Y3362D01*
X68479Y3492D01*
X68116Y3632D01*
X68074Y3651D01*
X68064Y3656D01*
X65867Y5852D01*
X65916Y5970D01*
X67497D01*
X69964Y3503D01*
D02*
G37*
G36*
X67645Y3281D02*
X67655Y3269D01*
X67667Y3248D01*
X67677Y3218D01*
X67685Y3178D01*
X67687Y3125D01*
X67684Y3062D01*
X67673Y2990D01*
X67626Y2804D01*
X67589Y2699D01*
X67588Y2687D01*
X67556Y2611D01*
X67520Y2337D01*
X67475Y2286D01*
X67100D01*
Y2616D01*
X64980D01*
Y2286D01*
X64605D01*
X64560Y2337D01*
X64524Y2611D01*
X64418Y2867D01*
X64250Y3086D01*
X64030Y3255D01*
X63861Y3325D01*
X63848Y3332D01*
X63848Y3333D01*
X63847Y3333D01*
X63808Y3347D01*
X63774Y3361D01*
X63765Y3362D01*
X63399Y3492D01*
X63036Y3632D01*
X62994Y3651D01*
X62984Y3656D01*
X61087Y5552D01*
X61136Y5670D01*
X65257D01*
X67645Y3281D01*
D02*
G37*
G36*
X62565D02*
X62575Y3269D01*
X62587Y3248D01*
X62597Y3218D01*
X62605Y3178D01*
X62607Y3125D01*
X62604Y3062D01*
X62593Y2990D01*
X62546Y2804D01*
X62509Y2699D01*
X62508Y2687D01*
X62476Y2611D01*
X62440Y2337D01*
X62395Y2286D01*
X62020D01*
Y2642D01*
X62013Y2692D01*
X62020Y2743D01*
X61984Y3018D01*
X61878Y3273D01*
X61710Y3493D01*
X61490Y3661D01*
X61234Y3767D01*
X60960Y3803D01*
X60924Y3798D01*
X60692Y3802D01*
X60481Y3819D01*
X60399Y3832D01*
X60328Y3847D01*
X60272Y3863D01*
X60232Y3880D01*
X60208Y3893D01*
X60201Y3899D01*
X58847Y5252D01*
X58896Y5370D01*
X60477D01*
X62565Y3281D01*
D02*
G37*
%LPC*%
G36*
X67083Y17450D02*
X66167D01*
Y16534D01*
X66314Y16553D01*
X66570Y16659D01*
X66790Y16827D01*
X66958Y17047D01*
X67064Y17302D01*
X67083Y17450D01*
D02*
G37*
G36*
X65913D02*
X64997D01*
X65016Y17302D01*
X65122Y17047D01*
X65290Y16827D01*
X65510Y16659D01*
X65766Y16553D01*
X65913Y16534D01*
Y17450D01*
D02*
G37*
G36*
X81280Y19338D02*
X80976Y19308D01*
X80684Y19219D01*
X80415Y19075D01*
X80179Y18881D01*
X79985Y18645D01*
X79841Y18376D01*
X79752Y18084D01*
X79723Y17780D01*
X79752Y17476D01*
X79841Y17184D01*
X79985Y16915D01*
X80179Y16679D01*
X80415Y16485D01*
X80684Y16341D01*
X80976Y16252D01*
X81280Y16223D01*
X81584Y16252D01*
X81876Y16341D01*
X82145Y16485D01*
X82381Y16679D01*
X82575Y16915D01*
X82719Y17184D01*
X82808Y17476D01*
X82838Y17780D01*
X82808Y18084D01*
X82719Y18376D01*
X82575Y18645D01*
X82381Y18881D01*
X82145Y19075D01*
X81876Y19219D01*
X81584Y19308D01*
X81280Y19338D01*
D02*
G37*
G36*
X73275Y9834D02*
X73099Y9799D01*
X72951Y9699D01*
X72851Y9551D01*
X72816Y9375D01*
X72851Y9199D01*
X72951Y9051D01*
X73099Y8951D01*
X73275Y8916D01*
X73451Y8951D01*
X73599Y9051D01*
X73699Y9199D01*
X73734Y9375D01*
X73699Y9551D01*
X73599Y9699D01*
X73451Y9799D01*
X73275Y9834D01*
D02*
G37*
G36*
X81280Y4098D02*
X80976Y4068D01*
X80684Y3979D01*
X80415Y3835D01*
X80179Y3641D01*
X79985Y3405D01*
X79841Y3136D01*
X79752Y2844D01*
X79723Y2540D01*
X79752Y2236D01*
X79841Y1944D01*
X79985Y1675D01*
X80179Y1439D01*
X80415Y1245D01*
X80684Y1101D01*
X80976Y1012D01*
X81280Y983D01*
X81584Y1012D01*
X81876Y1101D01*
X82145Y1245D01*
X82381Y1439D01*
X82575Y1675D01*
X82719Y1944D01*
X82808Y2236D01*
X82838Y2540D01*
X82808Y2844D01*
X82719Y3136D01*
X82575Y3405D01*
X82381Y3641D01*
X82145Y3835D01*
X81876Y3979D01*
X81584Y4068D01*
X81280Y4098D01*
D02*
G37*
G36*
X25400Y15461D02*
X25126Y15425D01*
X24870Y15319D01*
X24651Y15151D01*
X24483Y14931D01*
X24377Y14676D01*
X24341Y14402D01*
X24377Y14128D01*
X24483Y13872D01*
X24651Y13653D01*
X24870Y13485D01*
X25126Y13379D01*
X25400Y13343D01*
X25674Y13379D01*
X25930Y13485D01*
X26149Y13653D01*
X26317Y13872D01*
X26423Y14128D01*
X26459Y14402D01*
X26423Y14676D01*
X26317Y14931D01*
X26149Y15151D01*
X25930Y15319D01*
X25674Y15425D01*
X25400Y15461D01*
D02*
G37*
G36*
X20540Y14444D02*
X20364Y14409D01*
X20216Y14309D01*
X20116Y14161D01*
X20081Y13985D01*
X20116Y13809D01*
X20216Y13661D01*
X20364Y13561D01*
X20540Y13526D01*
X20716Y13561D01*
X20864Y13661D01*
X20964Y13809D01*
X20999Y13985D01*
X20964Y14161D01*
X20864Y14309D01*
X20716Y14409D01*
X20540Y14444D01*
D02*
G37*
G36*
X2680Y15104D02*
X1620D01*
X1432Y15079D01*
X1257Y15006D01*
X1106Y14891D01*
X991Y14741D01*
X919Y14565D01*
X894Y14378D01*
Y13418D01*
X919Y13230D01*
X991Y13054D01*
X1106Y12904D01*
X1257Y12789D01*
X1432Y12716D01*
X1620Y12691D01*
X2680D01*
X2868Y12716D01*
X3043Y12789D01*
X3194Y12904D01*
X3309Y13054D01*
X3381Y13230D01*
X3406Y13418D01*
Y14378D01*
X3381Y14565D01*
X3309Y14741D01*
X3194Y14891D01*
X3043Y15006D01*
X2868Y15079D01*
X2680Y15104D01*
D02*
G37*
G36*
X5050Y13122D02*
X4808Y13074D01*
X4603Y12937D01*
X4466Y12732D01*
X4446Y12633D01*
X4385Y12607D01*
X4200Y12644D01*
X4015Y12607D01*
X3858Y12502D01*
X3753Y12345D01*
X3716Y12160D01*
X3753Y11975D01*
X3858Y11818D01*
X4015Y11713D01*
X4200Y11676D01*
X4385Y11713D01*
X4486Y11780D01*
X4603Y11833D01*
X4808Y11696D01*
X5050Y11648D01*
X5292Y11696D01*
X5497Y11833D01*
X5634Y12038D01*
X5682Y12280D01*
Y12490D01*
X5634Y12732D01*
X5497Y12937D01*
X5292Y13074D01*
X5050Y13122D01*
D02*
G37*
G36*
X3063Y9398D02*
X2604D01*
X2625Y9291D01*
X2757Y9092D01*
X2956Y8960D01*
X3063Y8939D01*
Y9398D01*
D02*
G37*
G36*
X2680Y7629D02*
X1620D01*
X1432Y7604D01*
X1257Y7531D01*
X1106Y7416D01*
X991Y7266D01*
X919Y7090D01*
X894Y6903D01*
Y5943D01*
X919Y5755D01*
X991Y5579D01*
X1106Y5429D01*
X1257Y5314D01*
X1432Y5241D01*
X1620Y5216D01*
X2680D01*
X2868Y5241D01*
X3043Y5314D01*
X3194Y5429D01*
X3309Y5579D01*
X3381Y5755D01*
X3406Y5943D01*
Y6903D01*
X3381Y7090D01*
X3309Y7266D01*
X3194Y7416D01*
X3043Y7531D01*
X2868Y7604D01*
X2680Y7629D01*
D02*
G37*
G36*
X17264Y10059D02*
X17088Y10024D01*
X16940Y9924D01*
X16840Y9776D01*
X16805Y9600D01*
X16840Y9424D01*
X16940Y9276D01*
X17088Y9176D01*
X17264Y9141D01*
X17440Y9176D01*
X17588Y9276D01*
X17688Y9424D01*
X17723Y9600D01*
X17688Y9776D01*
X17588Y9924D01*
X17440Y10024D01*
X17264Y10059D01*
D02*
G37*
G36*
X66167Y3786D02*
Y2870D01*
X67083D01*
X67064Y3018D01*
X66958Y3273D01*
X66790Y3493D01*
X66570Y3661D01*
X66314Y3767D01*
X66167Y3786D01*
D02*
G37*
G36*
X65913D02*
X65766Y3767D01*
X65510Y3661D01*
X65290Y3493D01*
X65122Y3273D01*
X65016Y3018D01*
X64997Y2870D01*
X65913D01*
Y3786D01*
D02*
G37*
%LPD*%
D14*
X43450Y11785D02*
X44825D01*
X43450Y13285D02*
X44825D01*
X45575D02*
X46390D01*
X45575Y11785D02*
X47407D01*
X28101Y15975D02*
X36226Y7850D01*
X24375Y15975D02*
X28101D01*
X36226Y7850D02*
X38207D01*
X35393Y9357D02*
X38207D01*
X28350Y16400D02*
X35393Y9357D01*
X25650Y7620D02*
X27745Y5525D01*
X39911D01*
X44462Y10500D02*
X50850D01*
X39787Y5825D02*
X44462Y10500D01*
X44536Y10150D02*
X51250D01*
X39911Y5525D02*
X44536Y10150D01*
X44611Y9800D02*
X52675D01*
X40036Y5225D02*
X44611Y9800D01*
X30462Y5225D02*
X40036D01*
X28117Y5825D02*
X39787D01*
X44674Y9425D02*
X53300D01*
X40173Y4925D02*
X40174D01*
X44674Y9425D01*
X30480Y2743D02*
X32662Y4925D01*
X40173D01*
X25052Y8890D02*
X28117Y5825D01*
X27940Y2703D02*
X30462Y5225D01*
X46025Y15175D02*
X49350Y11850D01*
X45753Y14697D02*
X48600Y11850D01*
X49350D02*
Y11850D01*
X49533Y11350D02*
X50449Y12266D01*
X46390Y13285D02*
X48325Y11350D01*
X49533D01*
X68235Y12266D02*
X73660Y17691D01*
X50449Y12266D02*
X68235D01*
X49581Y10973D02*
X50508Y11900D01*
X48219Y10973D02*
X49581D01*
X47407Y11785D02*
X48219Y10973D01*
X50508Y11900D02*
X70523D01*
X76200Y17577D01*
X43450Y11785D02*
X43450Y11785D01*
X26577Y16400D02*
X28350D01*
X46796Y16501D02*
X48824D01*
X49474Y15851D01*
X54076D01*
X54476D02*
X58849D01*
X54473Y15855D02*
X54476Y15851D01*
X54079Y15855D02*
X54473D01*
X54076Y15851D02*
X54079Y15855D01*
X49726Y16198D02*
X59724D01*
X48260Y17664D02*
X49726Y16198D01*
X50625Y15375D02*
X54276D01*
X58849Y15851D02*
X59947Y14753D01*
X59724Y16198D02*
X61422Y14500D01*
X51876Y16501D02*
X60424D01*
X50800Y17577D02*
X51876Y16501D01*
X60424D02*
X61925Y15000D01*
X52775Y9900D02*
X53775D01*
X53300Y9425D02*
X53300Y9425D01*
X59947Y14753D02*
X59947Y14753D01*
X61422Y14500D02*
X61422Y14500D01*
X45333Y7875D02*
X46658Y6550D01*
X69853D01*
X44625Y7875D02*
X46250Y6250D01*
X67613D01*
X45398Y5653D02*
X45673D01*
X60593Y5650D02*
X63500Y2743D01*
X45800Y5950D02*
X65373D01*
X43875Y7875D02*
X45800Y5950D01*
X45673Y5653D02*
X45676Y5650D01*
X60593D01*
X44200Y5150D02*
X45567D01*
X45767Y5350D01*
X58353D01*
X50650Y11371D02*
X55324D01*
X56800Y9895D01*
X50500Y7985D02*
X58420D01*
X47989Y14697D02*
X54276D01*
X30551Y15851D02*
X46835D01*
X46835Y15851D01*
X33020Y14697D02*
X45753D01*
X31975Y14975D02*
X32175Y15175D01*
X29451Y16198D02*
X47383D01*
X32175Y15175D02*
X46025D01*
X27940Y17709D02*
X29451Y16198D01*
X31082Y15127D02*
X31505Y15550D01*
X46196D01*
X46835Y15851D02*
X47989Y14697D01*
X30100Y15400D02*
X30551Y15851D01*
X27940Y17709D02*
Y17983D01*
X25400Y17577D02*
X26577Y16400D01*
X22860Y17490D02*
X24375Y15975D01*
X45720Y17577D02*
X45720D01*
X46796Y16501D01*
X50570Y13324D02*
X64296D01*
X68580Y17609D01*
Y17983D01*
X73660Y17691D02*
Y17983D01*
Y2337D02*
Y2743D01*
X69853Y6550D02*
X73660Y2743D01*
X68580Y2337D02*
Y2743D01*
X65373Y5950D02*
X68580Y2743D01*
X63500Y2337D02*
Y2743D01*
X22860Y8890D02*
X25052D01*
X47383Y16198D02*
X48255Y15327D01*
X44625Y7875D02*
X44625D01*
X45333D02*
X45333D01*
X58353Y5350D02*
X60960Y2743D01*
Y2743D02*
Y2743D01*
X67613Y6250D02*
X71120Y2743D01*
X69993Y8950D02*
X76200Y2743D01*
X49525Y8950D02*
X69993D01*
X50975Y7510D02*
X58895Y7510D01*
X50025Y8460D02*
X57945D01*
X51450Y7035D02*
X59370D01*
X50625Y13875D02*
X63401D01*
X47871D02*
X50625D01*
X63401D02*
X63401Y13875D01*
X50694Y12741D02*
X66284Y12741D01*
X76200Y2743D02*
Y2743D01*
X51260Y4857D02*
X53340Y2776D01*
X52675Y9800D02*
X52775Y9900D01*
X51250Y10150D02*
X51975Y10875D01*
X50850Y10500D02*
X51225Y10875D01*
X66284Y12741D02*
X71120Y17577D01*
X49987Y12741D02*
X50570Y13324D01*
X46196Y15550D02*
X47871Y13875D01*
X22860Y17490D02*
Y17983D01*
X48260Y17664D02*
Y17983D01*
X53340Y2337D02*
Y2776D01*
X10160Y17577D02*
Y17780D01*
Y17535D02*
Y17577D01*
X7346Y14721D02*
X10160Y17535D01*
X7346Y11524D02*
Y14721D01*
X16044Y3650D02*
X19220D01*
X15240Y2743D02*
Y2846D01*
Y2550D02*
Y2743D01*
Y2846D02*
X16044Y3650D01*
X27940Y2337D02*
Y2703D01*
X12700Y17725D02*
Y17780D01*
Y17725D02*
Y17780D01*
X48260Y2337D02*
Y2351D01*
X15212Y15753D02*
X19977D01*
X9100Y6562D02*
Y9065D01*
Y6562D02*
X9885Y5777D01*
X8639Y9525D02*
X9100Y9065D01*
X9473Y11248D02*
Y13086D01*
Y11248D02*
X14446Y6275D01*
X20890Y5900D02*
X21340Y6350D01*
X21860D01*
Y7610D02*
X21910D01*
X20115Y6200D02*
X20752Y6837D01*
X21405Y8890D02*
X21860D01*
X21343Y10160D02*
X21860D01*
X21008Y9825D02*
X21343Y10160D01*
X19715Y8654D02*
X20565Y9504D01*
X18943Y9175D02*
X19564D01*
X16965Y10575D02*
X19539D01*
X20215Y10575D02*
Y12317D01*
X20565Y9504D02*
Y12722D01*
X21015Y11435D02*
X21040D01*
X19664Y10024D02*
X20215Y10575D01*
X21008Y9233D02*
Y9825D01*
X20565Y8790D02*
X21008Y9233D01*
X20215Y7700D02*
X21405Y8890D01*
X19715Y8200D02*
Y8654D01*
X19715Y7700D02*
X20215D01*
X17956Y5941D02*
X19715Y7700D01*
X12700Y2540D02*
Y3785D01*
X13140Y4225D01*
X18715Y4250D02*
X19490Y5025D01*
X20115Y6200D02*
X20415Y5900D01*
Y5269D02*
Y5900D01*
X19096Y3950D02*
X20415Y5269D01*
X19614Y12175D02*
X19714D01*
X13140Y4225D02*
X13915D01*
X19490Y5875D02*
Y6525D01*
X13915Y4225D02*
X14190Y3950D01*
X12340Y12950D02*
X13215Y12075D01*
X12700Y17780D02*
X13555Y16925D01*
X13772D01*
X13773Y16924D01*
X14041D01*
X15212Y15753D01*
X14506Y5784D02*
X15449D01*
X9690Y10150D02*
X14543Y5297D01*
X15990D01*
X10470Y8925D02*
X14845Y4550D01*
X11046Y7925D02*
X14721Y4250D01*
X19189Y10024D02*
X19664D01*
X19215Y13317D02*
X20215Y12317D01*
X15903Y6944D02*
X16713D01*
X16264Y7424D02*
X16589D01*
X18327Y13900D02*
X19387D01*
X20565Y12722D01*
X14165Y9975D02*
X16365D01*
X16665Y14775D02*
X17659D01*
X13058Y11507D02*
X13397D01*
X12260Y11880D02*
X14165Y9975D01*
X12051Y10796D02*
Y11325D01*
Y10796D02*
X15903Y6944D01*
X11881Y11880D02*
X12260D01*
X11376Y11375D02*
X11881Y11880D01*
X9715Y7925D02*
X11046D01*
X9715Y8925D02*
X10470D01*
X5730Y9525D02*
X8639D01*
X3835Y10150D02*
X9690D01*
X3190Y10795D02*
X3835Y10150D01*
X8515Y6050D02*
X10160Y4405D01*
Y2540D02*
Y4405D01*
X10825Y12475D02*
X12090D01*
X13058Y11507D01*
X8515Y6050D02*
Y7675D01*
X4460Y9525D02*
X5135Y8850D01*
X5500D01*
X6000Y8350D01*
X11925Y16950D02*
X12700Y17725D01*
X11918Y16950D02*
X11925D01*
X10425Y12075D02*
X10825Y12475D01*
X8725Y14525D02*
X9925Y15725D01*
X10693D01*
X11918Y16950D01*
X5730Y10795D02*
X6075Y10450D01*
X9840D01*
X14506Y5784D01*
X16044Y5941D02*
X17956D01*
X17400Y12973D02*
X18327Y13900D01*
X13397Y11507D02*
X16665Y14775D01*
X17431Y12175D02*
X19614D01*
X16365Y9975D02*
X16965Y10575D01*
X15115Y11775D02*
X17031D01*
X17431Y12175D01*
X16713Y6944D02*
X18943Y9175D01*
X16589Y7424D02*
X19189Y10024D01*
X7346Y11524D02*
X7870Y11000D01*
X12340Y12950D02*
Y15275D01*
X14845Y4550D02*
X18165D01*
X19490Y5875D01*
X14721Y4250D02*
X18715D01*
X14190Y3950D02*
X19096D01*
X19220Y3650D02*
X20890Y5320D01*
X12340Y15275D02*
X13115Y16050D01*
X13290Y16600D02*
X13490Y16400D01*
X21935Y8890D02*
Y9485D01*
X12987Y16600D02*
X13290D01*
X21860Y12700D02*
Y13870D01*
X19977Y15778D02*
X21860Y13895D01*
X21255Y7620D02*
X21860D01*
X20752Y6837D02*
Y7117D01*
X21255Y7620D01*
X21935Y10160D02*
Y10755D01*
X21040Y11435D02*
X21860D01*
X15212Y15753D02*
X19977D01*
X9100Y6562D02*
Y9065D01*
Y6562D02*
X9885Y5777D01*
X8639Y9525D02*
X9100Y9065D01*
X9473Y13086D02*
X12987Y16600D01*
X20752Y7117D02*
X21255Y7620D01*
X20752Y6837D02*
Y7117D01*
X20115Y6200D02*
X20752Y6837D01*
X21008Y9825D02*
X21343Y10160D01*
X19715Y8654D02*
X20565Y9504D01*
X18943Y9175D02*
X19564D01*
X16965Y10575D02*
X19539D01*
X20215Y10575D02*
Y12317D01*
X20565Y9504D02*
Y12722D01*
X21015Y11435D02*
X21040D01*
X19664Y10024D02*
X20215Y10575D01*
X21008Y9233D02*
Y9825D01*
X20565Y8790D02*
X21008Y9233D01*
X19715Y8200D02*
Y8654D01*
X12700Y3785D02*
X13140Y4225D01*
X18715Y4250D02*
X19490Y5025D01*
X20115Y6200D02*
X20415Y5900D01*
Y5269D02*
Y5900D01*
X19096Y3950D02*
X20415Y5269D01*
X19614Y12175D02*
X19714D01*
X13140Y4225D02*
X13915D01*
X20890Y5320D02*
Y5900D01*
X18165Y4550D02*
X19490Y5875D01*
Y6525D01*
X13915Y4225D02*
X14190Y3950D01*
X12340Y12950D02*
X13215Y12075D01*
X12340Y12950D02*
Y15275D01*
X13115Y16050D01*
X13490Y16400D02*
X13865D01*
X12700Y17780D02*
X13555Y16925D01*
X13772D01*
X13773Y16924D01*
X14041D01*
X15212Y15753D01*
X14506Y5784D02*
X15449D01*
X9690Y10150D02*
X14543Y5297D01*
X15990D01*
X10470Y8925D02*
X14845Y4550D01*
X11046Y7925D02*
X14721Y4250D01*
X19189Y10024D02*
X19664D01*
X19215Y13317D02*
X20215Y12317D01*
X15903Y6944D02*
X16713D01*
X16264Y7424D02*
X16589D01*
X18327Y13900D02*
X19387D01*
X20565Y12722D01*
X14165Y9975D02*
X16365D01*
X12260Y11880D02*
X14165Y9975D01*
X12051Y10796D02*
Y11325D01*
Y10796D02*
X15903Y6944D01*
X11881Y11880D02*
X12260D01*
X11376Y11375D02*
X11881Y11880D01*
X9715Y7925D02*
X11046D01*
X9715Y8925D02*
X10470D01*
X5730Y9525D02*
X8639D01*
X3835Y10150D02*
X9690D01*
X3190Y10795D02*
X3835Y10150D01*
X8515Y6050D02*
X10160Y4405D01*
X14446Y6275D02*
X15710D01*
X16044Y5941D01*
X8515Y6050D02*
Y7675D01*
X11925Y16950D02*
X12700Y17725D01*
X11918Y16950D02*
X11925D01*
X8725Y14525D02*
X9925Y15725D01*
X10693D01*
X11918Y16950D01*
X5730Y10795D02*
X6075Y10450D01*
X9840D01*
X14506Y5784D01*
X14190Y3950D02*
X19096D01*
X14721Y4250D02*
X18715D01*
X14845Y4550D02*
X18165D01*
X17400Y12973D02*
X18327Y13900D01*
X17431Y12175D02*
X19614D01*
X16365Y9975D02*
X16965Y10575D01*
X15115Y11775D02*
X17031D01*
X17431Y12175D01*
X16713Y6944D02*
X18943Y9175D01*
X16589Y7424D02*
X19189Y10024D01*
X5125Y4600D02*
Y6417D01*
X6000Y7292D01*
Y8350D01*
D20*
X5050Y12385D02*
D03*
Y7935D02*
D03*
D21*
X2150Y6423D02*
D03*
Y13898D02*
D03*
D31*
X45575Y11775D02*
D03*
X44825D02*
D03*
Y13275D02*
D03*
X45575D02*
D03*
D47*
X38207Y9357D02*
D03*
Y7850D02*
D03*
X21860Y11430D02*
D03*
Y10160D02*
D03*
Y8890D02*
D03*
Y12700D02*
D03*
Y6350D02*
D03*
Y7620D02*
D03*
D90*
X36325Y11350D02*
D03*
X45525Y14200D02*
D03*
X43225Y10675D02*
D03*
X65600Y13300D02*
D03*
X31975Y13900D02*
D03*
X31475Y6525D02*
D03*
X36109Y8638D02*
D03*
X48600Y11850D02*
D03*
X49350D02*
D03*
X44725Y14200D02*
D03*
X62600Y14448D02*
D03*
X59476Y5070D02*
D03*
X66475Y5675D02*
D03*
X68750Y5975D02*
D03*
X29250Y13900D02*
D03*
X60800Y7250D02*
D03*
X54276Y15380D02*
D03*
X77475Y9725D02*
D03*
X73650Y12100D02*
D03*
X76880Y11785D02*
D03*
X69625Y12450D02*
D03*
X67600Y12850D02*
D03*
X62800Y10575D02*
D03*
X57150Y4808D02*
D03*
X60700Y10475D02*
D03*
X57259Y10514D02*
D03*
X44200Y5150D02*
D03*
X45398Y5653D02*
D03*
X69993Y8950D02*
D03*
X53775Y9900D02*
D03*
X53300Y9425D02*
D03*
X59947Y14753D02*
D03*
X61422Y14500D02*
D03*
X61925Y15000D02*
D03*
X57945Y8460D02*
D03*
X58895Y7510D02*
D03*
X59370Y7035D02*
D03*
X31975Y14975D02*
D03*
X54414Y4850D02*
D03*
X44625Y7875D02*
D03*
X43875D02*
D03*
X51260Y4857D02*
D03*
X48255Y15327D02*
D03*
X63401Y13875D02*
D03*
X49987Y12741D02*
D03*
X30100Y15400D02*
D03*
X50625Y15375D02*
D03*
X40700Y13165D02*
D03*
X33020Y14697D02*
D03*
X25650Y7620D02*
D03*
X53611Y4850D02*
D03*
X31082Y15127D02*
D03*
X58420Y7985D02*
D03*
X56800Y9895D02*
D03*
X51450Y7035D02*
D03*
X51975Y10875D02*
D03*
X51225D02*
D03*
X50975Y7510D02*
D03*
X50025Y8460D02*
D03*
X50500Y7985D02*
D03*
X49525Y8950D02*
D03*
X45333Y7875D02*
D03*
X50694Y12741D02*
D03*
X54276Y14697D02*
D03*
X50650Y11371D02*
D03*
X55850Y14859D02*
D03*
X50625Y13875D02*
D03*
X24130Y5715D02*
D03*
Y13335D02*
D03*
X10425Y12075D02*
D03*
X73275Y9375D02*
D03*
X21935Y10755D02*
D03*
X21590Y17399D02*
D03*
X6050Y6325D02*
D03*
X21935Y9485D02*
D03*
X19564Y9175D02*
D03*
X19539Y10575D02*
D03*
X21040Y11435D02*
D03*
X20565Y8790D02*
D03*
X19715Y8200D02*
D03*
X13970Y2921D02*
D03*
X16510Y17399D02*
D03*
X13115Y16050D02*
D03*
X16264Y7424D02*
D03*
X2925Y8575D02*
D03*
X13970Y17399D02*
D03*
X5080D02*
D03*
X6350Y2921D02*
D03*
X8890D02*
D03*
X1429Y11205D02*
D03*
Y10189D02*
D03*
Y9173D02*
D03*
Y4826D02*
D03*
Y15494D02*
D03*
Y12221D02*
D03*
Y8157D02*
D03*
X19050Y17399D02*
D03*
X21590Y2921D02*
D03*
X12051Y11325D02*
D03*
X13215Y12075D02*
D03*
X15115Y11775D02*
D03*
X15815Y10581D02*
D03*
X12115Y16475D02*
D03*
X18189Y12973D02*
D03*
X13540Y3725D02*
D03*
X15449Y5784D02*
D03*
X15990Y5297D02*
D03*
X17015Y5425D02*
D03*
X19050Y2921D02*
D03*
X19490Y11225D02*
D03*
X20115Y6200D02*
D03*
X19614Y12175D02*
D03*
X19490Y6525D02*
D03*
X19940Y5525D02*
D03*
X19490Y5025D02*
D03*
X19990Y9675D02*
D03*
X11430Y17399D02*
D03*
Y2921D02*
D03*
X14373Y11284D02*
D03*
X17659Y14775D02*
D03*
Y13975D02*
D03*
X19215Y13317D02*
D03*
Y14775D02*
D03*
X13865Y16400D02*
D03*
X20215Y7700D02*
D03*
X11376Y11375D02*
D03*
X2825Y12238D02*
D03*
X21115Y12175D02*
D03*
X20540Y13985D02*
D03*
X9715Y7924D02*
D03*
Y8925D02*
D03*
X8890Y17399D02*
D03*
X10810Y5777D02*
D03*
X9885D02*
D03*
X8515Y7675D02*
D03*
X7870Y11950D02*
D03*
Y11000D02*
D03*
X8088Y8400D02*
D03*
X6350Y17399D02*
D03*
X5080Y2921D02*
D03*
X10675Y13250D02*
D03*
X8725Y14525D02*
D03*
X16510Y2921D02*
D03*
X17590Y5025D02*
D03*
X17540Y6450D02*
D03*
X17400Y12973D02*
D03*
X15940Y12650D02*
D03*
X17599Y11125D02*
D03*
X17264Y8900D02*
D03*
Y9600D02*
D03*
X17615Y7100D02*
D03*
X19890Y7125D02*
D03*
X13115Y15325D02*
D03*
X12965Y14225D02*
D03*
X13215Y12800D02*
D03*
X14365Y14225D02*
D03*
X16517Y16436D02*
D03*
X5125Y4600D02*
D03*
X24130Y10795D02*
D03*
Y12065D02*
D03*
Y8255D02*
D03*
Y6985D02*
D03*
Y9525D02*
D03*
X26670Y2921D02*
D03*
X24130D02*
D03*
X26670Y17399D02*
D03*
X24130D02*
D03*
X52070D02*
D03*
X49530D02*
D03*
X46990D02*
D03*
X39370D02*
D03*
X36830D02*
D03*
X34290D02*
D03*
X31750D02*
D03*
X29210D02*
D03*
Y2921D02*
D03*
X31750D02*
D03*
X34290D02*
D03*
X36830D02*
D03*
X39370D02*
D03*
X46990D02*
D03*
X49530D02*
D03*
X52070D02*
D03*
X41910Y17399D02*
D03*
X44450D02*
D03*
X41910Y2921D02*
D03*
X44450D02*
D03*
X57150D02*
D03*
X54610D02*
D03*
Y17399D02*
D03*
X62230Y2921D02*
D03*
X67310D02*
D03*
X64770D02*
D03*
X72390Y17399D02*
D03*
X82391Y11205D02*
D03*
Y10189D02*
D03*
Y9173D02*
D03*
Y5588D02*
D03*
Y4572D02*
D03*
Y15748D02*
D03*
Y14732D02*
D03*
X78740Y2921D02*
D03*
X77724D02*
D03*
Y17399D02*
D03*
X78740D02*
D03*
X74930Y2921D02*
D03*
Y17399D02*
D03*
X72390Y2921D02*
D03*
X69850D02*
D03*
X59690D02*
D03*
X67310Y17399D02*
D03*
X64770D02*
D03*
X62230D02*
D03*
X57150D02*
D03*
X59690D02*
D03*
X69850D02*
D03*
D102*
X38682Y9357D02*
D03*
X38682Y7850D02*
D03*
X22335Y11430D02*
D03*
Y10160D02*
D03*
Y8890D02*
D03*
Y12700D02*
D03*
Y6350D02*
D03*
Y7620D02*
D03*
D103*
X39207Y9357D02*
D03*
Y7850D02*
D03*
X43450Y11785D02*
D03*
X43450Y13285D02*
D03*
X22860Y11430D02*
D03*
Y10160D02*
D03*
Y8890D02*
D03*
Y12700D02*
D03*
Y6350D02*
D03*
Y7620D02*
D03*
D104*
X27940Y14402D02*
D03*
X25400D02*
D03*
D105*
X10160Y18999D02*
D03*
X66040Y1321D02*
D03*
X71120D02*
D03*
X60960D02*
D03*
X55880D02*
D03*
X50800D02*
D03*
X45720D02*
D03*
X40640D02*
D03*
X35560D02*
D03*
X30480D02*
D03*
X25400D02*
D03*
X20320D02*
D03*
X15240D02*
D03*
X10160D02*
D03*
X76200Y18999D02*
D03*
X71120D02*
D03*
X66040D02*
D03*
X60960D02*
D03*
X55880D02*
D03*
X50800D02*
D03*
X45720D02*
D03*
X40640D02*
D03*
X35560D02*
D03*
X30480D02*
D03*
X25400D02*
D03*
X20320D02*
D03*
X76200Y1321D02*
D03*
X15240Y18999D02*
D03*
D106*
X10160Y17577D02*
D03*
X12700Y17983D02*
D03*
X73660Y2337D02*
D03*
X66040Y2743D02*
D03*
X68580Y2337D02*
D03*
X71120Y2743D02*
D03*
X63500Y2337D02*
D03*
X60960Y2743D02*
D03*
X58420Y2337D02*
D03*
X55880Y2743D02*
D03*
X53340Y2337D02*
D03*
X50800Y2743D02*
D03*
X48260Y2337D02*
D03*
X45720Y2743D02*
D03*
X43180Y2337D02*
D03*
X40640Y2743D02*
D03*
X38100Y2337D02*
D03*
X35560Y2743D02*
D03*
X33020Y2337D02*
D03*
X30480Y2743D02*
D03*
X27940Y2337D02*
D03*
X25400Y2743D02*
D03*
X22860Y2337D02*
D03*
X20320Y2743D02*
D03*
X17780Y2337D02*
D03*
X15240Y2743D02*
D03*
X12700Y2337D02*
D03*
X76200Y17577D02*
D03*
X73660Y17983D02*
D03*
X71120Y17577D02*
D03*
X68580Y17983D02*
D03*
X66040Y17577D02*
D03*
X63500Y17983D02*
D03*
X60960Y17577D02*
D03*
X58420Y17983D02*
D03*
X55880Y17577D02*
D03*
X53340Y17983D02*
D03*
X50800Y17577D02*
D03*
X48260Y17983D02*
D03*
X45720Y17577D02*
D03*
X43180Y17983D02*
D03*
X40640Y17577D02*
D03*
X38100Y17983D02*
D03*
X35560Y17577D02*
D03*
X33020Y17983D02*
D03*
X30480Y17577D02*
D03*
X27940Y17983D02*
D03*
X25400Y17577D02*
D03*
X17780Y17983D02*
D03*
X22860D02*
D03*
X20320Y17577D02*
D03*
X7620Y2337D02*
D03*
X10160Y2743D02*
D03*
X76200D02*
D03*
X15240Y17577D02*
D03*
X7620Y17983D02*
D03*
D107*
X12700Y19202D02*
D03*
X73660Y1118D02*
D03*
X68580D02*
D03*
X63500D02*
D03*
X58420D02*
D03*
X53340D02*
D03*
X48260D02*
D03*
X43180D02*
D03*
X38100D02*
D03*
X33020D02*
D03*
X27940D02*
D03*
X22860D02*
D03*
X17780D02*
D03*
X12700D02*
D03*
X7620D02*
D03*
X73660Y19202D02*
D03*
X68580D02*
D03*
X63500D02*
D03*
X58420D02*
D03*
X53340D02*
D03*
X48260D02*
D03*
X43180D02*
D03*
X38100D02*
D03*
X33020D02*
D03*
X27940D02*
D03*
X17780D02*
D03*
X22860D02*
D03*
X7620D02*
D03*
D108*
X2540Y17780D02*
D03*
Y2540D02*
D03*
D120*
X3190Y10795D02*
D03*
Y9525D02*
D03*
X4460Y10795D02*
D03*
Y9525D02*
D03*
X5730Y10795D02*
D03*
Y9525D02*
D03*
D121*
X10810Y5777D02*
D03*
X10810Y7047D02*
D03*
M02*
